<svg xmlns="http://www.w3.org/2000/svg" xmlns:xlink="http://www.w3.org/1999/xlink" width="92.155" height="27.305" viewBox="0 0 92.155 27.305"><defs><style>.a{fill:#a6a6a6;}.b,.c,.j{fill:#fff;}.b{stroke:#fff;stroke-miterlimit:10;stroke-width:0.2px;}.d{fill:url(#a);}.e{fill:url(#b);}.f{fill:url(#c);}.g{fill:url(#d);}.h{opacity:0.2;}.h,.i,.j{isolation:isolate;}.i{opacity:0.12;}.j{opacity:0.25;}</style><linearGradient id="a" x1="0.915" y1="6.614" x2="-0.383" y2="5.945" gradientUnits="objectBoundingBox"><stop offset="0" stop-color="#00a0ff"/><stop offset="0.007" stop-color="#00a1ff"/><stop offset="0.26" stop-color="#00beff"/><stop offset="0.512" stop-color="#00d2ff"/><stop offset="0.76" stop-color="#00dfff"/><stop offset="1" stop-color="#00e3ff"/></linearGradient><linearGradient id="b" x1="1.076" y1="17.098" x2="-1.305" y2="17.098" gradientUnits="objectBoundingBox"><stop offset="0" stop-color="#ffe000"/><stop offset="0.409" stop-color="#ffbd00"/><stop offset="0.775" stop-color="orange"/><stop offset="1" stop-color="#ff9c00"/></linearGradient><linearGradient id="c" x1="0.862" y1="10.863" x2="-0.501" y2="9.093" gradientUnits="objectBoundingBox"><stop offset="0" stop-color="#ff3a44"/><stop offset="1" stop-color="#c31162"/></linearGradient><linearGradient id="d" x1="-0.188" y1="13.583" x2="0.421" y2="12.793" gradientUnits="objectBoundingBox"><stop offset="0" stop-color="#32a071"/><stop offset="0.068" stop-color="#2da771"/><stop offset="0.476" stop-color="#15cf74"/><stop offset="0.801" stop-color="#06e775"/><stop offset="1" stop-color="#00f076"/></linearGradient></defs><g transform="translate(0 0)"><rect width="91.681" height="27.257" rx="5" transform="translate(0 0.048)"/><g transform="translate(0)"><path class="a" d="M98.742,10.546a2.87,2.87,0,0,1,2.867,2.867V33.892a2.87,2.87,0,0,1-2.867,2.867H13.413a2.87,2.87,0,0,1-2.867-2.867V13.413a2.87,2.87,0,0,1,2.867-2.867H98.742m0-.546H13.413A3.423,3.423,0,0,0,10,13.413V33.892a3.423,3.423,0,0,0,3.413,3.413H98.742a3.423,3.423,0,0,0,3.413-3.413V13.413A3.423,3.423,0,0,0,98.742,10Z" transform="translate(-10 -10)"/></g><g transform="translate(28.228 4.687)"><path class="b" d="M55.493,19.171a1.849,1.849,0,0,1-.509,1.367,1.985,1.985,0,0,1-1.5.606,2.139,2.139,0,1,1,0-4.279,2.12,2.12,0,0,1,.841.171,1.685,1.685,0,0,1,.64.458l-.36.36a1.385,1.385,0,0,0-1.122-.485,1.636,1.636,0,1,0,1.144,2.814,1.292,1.292,0,0,0,.343-.83H53.48v-.491h1.985A1.746,1.746,0,0,1,55.493,19.171Z" transform="translate(-51.352 -16.866)"/><path class="b" d="M60.916,17.5H59.051v1.3h1.682v.491H59.051v1.3h1.866v.5H58.525V17h2.391Z" transform="translate(-53.629 -16.909)"/><path class="b" d="M64.5,21.1h-.527V17.5H62.832V17h2.814v.5H64.5Z" transform="translate(-54.995 -16.909)"/><path class="b" d="M69.938,21.1V17h.526v4.1Z" transform="translate(-57.251 -16.909)"/><path class="b" d="M73.351,21.1h-.526V17.5H71.681V17H74.5v.5H73.351Z" transform="translate(-57.804 -16.909)"/><path class="b" d="M81.932,20.524a2.127,2.127,0,0,1-3,0,2.213,2.213,0,0,1,0-3.038,2.12,2.12,0,0,1,3,0,2.206,2.206,0,0,1,0,3.035Zm-2.614-.343a1.576,1.576,0,0,0,2.225,0,1.745,1.745,0,0,0,0-2.351,1.575,1.575,0,0,0-2.225,0,1.747,1.747,0,0,0,0,2.351Z" transform="translate(-59.913 -16.866)"/><path class="b" d="M85.575,21.1V17h.641l1.991,3.186h.023l-.023-.789V17h.526v4.1h-.549L86.1,17.755h-.023l.023.79V21.1Z" transform="translate(-62.213 -16.909)"/></g><path class="c" d="M69.537,30.259a2.9,2.9,0,1,0,2.914,2.9A2.862,2.862,0,0,0,69.537,30.259Zm0,4.662a1.764,1.764,0,1,1,1.638-1.759A1.68,1.68,0,0,1,69.537,34.921ZM63.18,30.259a2.9,2.9,0,1,0,2.914,2.9A2.862,2.862,0,0,0,63.18,30.259Zm0,4.662a1.764,1.764,0,1,1,1.638-1.759A1.68,1.68,0,0,1,63.18,34.921ZM55.617,31.15v1.231h2.947a2.57,2.57,0,0,1-.67,1.55,3.018,3.018,0,0,1-2.277.9,3.277,3.277,0,0,1,0-6.554,3.14,3.14,0,0,1,2.221.88l.869-.869a4.3,4.3,0,0,0-3.09-1.243,4.51,4.51,0,1,0,0,9.018A4.12,4.12,0,0,0,58.762,34.8a4.07,4.07,0,0,0,1.067-2.881,3.979,3.979,0,0,0-.066-.769Zm30.928.956a2.7,2.7,0,0,0-2.485-1.847,2.759,2.759,0,0,0-2.738,2.9,2.841,2.841,0,0,0,2.881,2.9,2.887,2.887,0,0,0,2.419-1.287l-.99-.66a1.659,1.659,0,0,1-1.429.8,1.478,1.478,0,0,1-1.408-.879l3.882-1.606Zm-3.959.968A1.593,1.593,0,0,1,84.1,31.38,1.123,1.123,0,0,1,85.182,32ZM79.43,35.889h1.275V27.355H79.43Zm-2.09-4.982H77.3a2.012,2.012,0,0,0-1.528-.648,2.906,2.906,0,0,0,0,5.806,1.978,1.978,0,0,0,1.528-.66h.044v.418c0,1.111-.593,1.7-1.55,1.7a1.607,1.607,0,0,1-1.463-1.034l-1.111.462a2.767,2.767,0,0,0,2.574,1.715c1.5,0,2.761-.88,2.761-3.024V30.434H77.34Zm-1.462,4.014a1.766,1.766,0,0,1,0-3.519,1.774,1.774,0,0,1,0,3.519Zm16.643-7.566H89.469v8.534h1.273V32.656h1.779a2.654,2.654,0,1,0,0-5.3Zm.033,4.113H90.742V28.543h1.812a1.463,1.463,0,1,1,0,2.925Zm7.872-1.225a2.393,2.393,0,0,0-2.273,1.306l1.131.472a1.207,1.207,0,0,1,1.164-.626,1.226,1.226,0,0,1,1.339,1.1v.087a2.817,2.817,0,0,0-1.328-.329c-1.218,0-2.459.67-2.459,1.921a1.972,1.972,0,0,0,2.119,1.878,1.8,1.8,0,0,0,1.625-.835h.044v.659h1.229V32.6A2.34,2.34,0,0,0,100.426,30.243Zm-.154,4.677c-.418,0-1-.208-1-.724,0-.659.724-.911,1.35-.911a2.272,2.272,0,0,1,1.164.285A1.544,1.544,0,0,1,100.272,34.92Zm7.224-4.49-1.46,3.7h-.044l-1.515-3.7H103.1l2.272,5.171-1.3,2.877h1.328l3.5-8.047Zm-11.473,5.46H97.3V27.356H96.023Z" transform="translate(-23.026 -15.41)"/><g transform="translate(6.808 4.874)"><path class="d" d="M20.288,17.515a1.37,1.37,0,0,0-.315.959v15.1a1.369,1.369,0,0,0,.315.959l.051.049L28.8,26.122v-.2l-8.457-8.458Z" transform="translate(-19.973 -17.243)"/><path class="e" d="M35.717,31.564,32.9,28.743v-.2l2.82-2.82.063.037,3.34,1.9a1.036,1.036,0,0,1,0,1.971l-3.34,1.9Z" transform="translate(-24.075 -19.865)"/><path class="f" d="M31.826,32.884,28.943,30l-8.508,8.508a1.111,1.111,0,0,0,1.419.042l9.972-5.666" transform="translate(-20.12 -21.222)"/><path class="g" d="M31.826,23.036,21.854,17.37a1.111,1.111,0,0,0-1.419.042l8.508,8.508Z" transform="translate(-20.12 -17.14)"/><g transform="translate(0 11.599)"><path class="h" d="M31.763,34.132l-9.908,5.63a1.137,1.137,0,0,1-1.368.008h0l-.051.051h0l.051.05h0a1.137,1.137,0,0,0,1.368-.008L31.826,34.2Z" transform="translate(-20.12 -34.132)"/><path class="i" d="M20.288,41.872a1.369,1.369,0,0,1-.315-.959v.1a1.367,1.367,0,0,0,.315.958l.051-.051Z" transform="translate(-19.973 -36.284)"/></g><path class="i" d="M40.433,30.887l-3.4,1.934.063.063,3.34-1.9A1.2,1.2,0,0,0,41.148,30h0A1.27,1.27,0,0,1,40.433,30.887Z" transform="translate(-25.386 -21.222)"/><path class="j" d="M21.708,17.47l13.312,7.564a1.27,1.27,0,0,1,.715.886h0a1.2,1.2,0,0,0-.715-.986L21.708,17.37c-.954-.542-1.735-.091-1.735,1v.1C19.973,17.378,20.753,16.928,21.708,17.47Z" transform="translate(-19.973 -17.14)"/></g></g></svg>