<?xml version="1.0" standalone="no"?>
<!DOCTYPE svg PUBLIC "-//W3C//DTD SVG 1.1//EN" "http://www.w3.org/Graphics/SVG/1.1/DTD/svg11.dtd" >
<svg xmlns="http://www.w3.org/2000/svg" xmlns:xlink="http://www.w3.org/1999/xlink" version="1.1">
<metadata>
Created by FontForge 20170731 at Thu Jan 21 15:28:58 2021
 By Aleksey,,,
Copyright 2015 (c) Newlyn Works Limited
</metadata>
<defs>
<font id="HeroNew-Medium" horiz-adv-x="1392" >
  <font-face 
    font-family="Hero New Medium"
    font-weight="500"
    font-stretch="normal"
    units-per-em="2048"
    panose-1="2 0 6 0 0 0 0 0 0 0"
    ascent="1638"
    descent="-410"
    x-height="1118"
    cap-height="1524"
    bbox="-408.645 -604 2683 2148"
    underline-thickness="102"
    underline-position="-307"
    unicode-range="U+000D-FB02"
  />
<missing-glyph horiz-adv-x="1499" 
d="M1346 1524v-1524h-1194v1524h1194zM1038 1350h-577l289 -443zM334 1249v-975l317 488zM1165 1249l-319 -487l319 -488v975zM750 614l-289 -440h577z" />
    <glyph glyph-name="fi" unicode="fi" horiz-adv-x="1404" 
d="M227 0v913h-157v205h157v148q0 166 110.5 277.5t293.5 111.5q94 0 198 -33v-213q-85 29 -161 29q-201 0 -201 -199v-121h311v-205h-309v-913h-242zM1122 1335q-60 0 -100.5 39.5t-40.5 98.5q0 60 40.5 99.5t100.5 39.5t101 -39.5t41 -99.5q0 -58 -41 -98t-101 -40z
M1001 0v1118h242v-1118h-242z" />
    <glyph glyph-name="fl" unicode="fl" horiz-adv-x="1411" 
d="M227 0v913h-157v205h157v148q0 166 110.5 277.5t293.5 111.5q94 0 198 -33v-213q-85 29 -161 29q-201 0 -201 -199v-121h311v-205h-309v-913h-242zM1008 0v1640h241v-1640h-241z" />
    <glyph glyph-name=".notdef" horiz-adv-x="1499" 
d="M1346 1524v-1524h-1194v1524h1194zM1038 1350h-577l289 -443zM334 1249v-975l317 488zM1165 1249l-319 -487l319 -488v975zM750 614l-289 -440h577z" />
    <glyph glyph-name=".null" horiz-adv-x="0" 
 />
    <glyph glyph-name="nonmarkingreturn" horiz-adv-x="682" 
 />
    <glyph glyph-name="CR" unicode="&#xd;" horiz-adv-x="585" 
 />
    <glyph glyph-name="space" unicode=" " horiz-adv-x="538" 
 />
    <glyph glyph-name="exclam" unicode="!" horiz-adv-x="557" 
d="M190 496l-40 1028h256l-41 -1028h-175zM281 -10q-64 0 -107 42t-43 105q0 65 42.5 107.5t107.5 42.5q63 0 105 -43t42 -107q0 -63 -42 -105t-105 -42z" />
    <glyph glyph-name="quotedbl" unicode="&#x22;" horiz-adv-x="843" 
d="M168 952l-45 572h223l-43 -572h-135zM541 952l-45 572h223l-43 -572h-135z" />
    <glyph glyph-name="numbersign" unicode="#" horiz-adv-x="1511" 
d="M1411 915h-268l-49 -309h252l-3 -188h-278l-68 -418h-215l68 418h-303l-68 -418h-213l68 418h-236v188h264l50 309h-246v189h276l68 420h215l-68 -420h304l67 420h213l-67 -420h239zM881 606l49 309h-303l-49 -309h303z" />
    <glyph glyph-name="dollar" unicode="$" horiz-adv-x="1157" 
d="M1065 446q0 -152 -105.5 -269t-277.5 -152v-172h-203v159q-198 16 -354 123v268q70 -77 181.5 -123.5t221.5 -46.5q124 0 205.5 60t81.5 156q0 38 -15.5 69t-37.5 52.5t-63 43t-74.5 34.5t-89.5 32q-73 25 -122 45.5t-108.5 57t-95 77t-60 102.5t-24.5 138
q0 145 96.5 252t257.5 141v174h203v-164q170 -15 295 -86v-248q-63 47 -159 81t-191 34q-117 0 -185.5 -53t-68.5 -133q0 -35 15.5 -64.5t36.5 -49.5t62 -41t72 -33t86 -31q53 -19 88.5 -32.5t83.5 -36.5t80 -45.5t66.5 -55.5t55 -70t33.5 -86.5t13 -106.5z" />
    <glyph glyph-name="percent" unicode="%" horiz-adv-x="1880" 
d="M469 766q-165 0 -276 112t-111 285t111 284.5t276 111.5q166 0 276.5 -111.5t110.5 -284.5q0 -172 -111 -284.5t-276 -112.5zM328 0l1003 1524h221l-1005 -1524h-219zM469 940q80 0 140.5 61t60.5 162q0 102 -60 161.5t-141 59.5t-141 -59.5t-60 -161.5q0 -101 60 -162
t141 -61zM1413 -33q-166 0 -277.5 111.5t-111.5 283.5q0 173 111.5 285.5t277.5 112.5q165 0 275 -112t110 -286q0 -172 -110 -283.5t-275 -111.5zM1413 139q79 0 139 61t60 162q0 103 -60 163.5t-139 60.5q-82 0 -142.5 -60.5t-60.5 -163.5q0 -101 60.5 -162t142.5 -61z
" />
    <glyph glyph-name="ampersand" unicode="&#x26;" horiz-adv-x="1572" 
d="M1509 0h-276l-166 172q-188 -203 -451 -203q-216 0 -352.5 122.5t-136.5 314.5q0 76 24 140t69.5 113.5t98 86.5t123.5 73q-100 107 -149 190.5t-49 176.5q0 156 124 263t310 107q188 0 306 -107.5t118 -268.5q0 -74 -26 -136t-77 -111t-106 -85t-131 -74l291 -301
l213 344h235l-311 -485zM680 1366q-96 0 -156.5 -54t-60.5 -132q0 -54 38 -113.5t132 -159.5q129 60 194.5 119t65.5 143q0 82 -58 139.5t-155 57.5zM633 166q164 0 301 143l-361 375q-108 -58 -162.5 -118t-54.5 -150q0 -110 77.5 -180t199.5 -70z" />
    <glyph glyph-name="quotesingle" unicode="'" horiz-adv-x="471" 
d="M168 952l-45 572h223l-43 -572h-135z" />
    <glyph glyph-name="parenleft" unicode="(" horiz-adv-x="718" 
d="M707 1524q-167 -162 -273 -393t-106 -498q0 -266 106.5 -498t272.5 -397h-250q-169 185 -263 411.5t-94 485.5q0 254 94.5 480.5t262.5 408.5h250z" />
    <glyph glyph-name="parenright" unicode=")" horiz-adv-x="718" 
d="M12 1524h250q168 -182 262 -408.5t94 -480.5q0 -506 -356 -897h-250q166 165 272.5 397t106.5 498q0 267 -106 498t-273 393z" />
    <glyph glyph-name="asterisk" unicode="*" horiz-adv-x="1191" 
d="M700 1640l-43 -362l353 149l73 -204l-385 -68l263 -270l-173 -127l-192 319h-2l-193 -319l-174 127l256 270l-372 68l63 207l350 -152l-41 362h217z" />
    <glyph glyph-name="plus" unicode="+" 
d="M797 1358v-496h493v-200h-493v-496h-211v496h-484v200h484v496h211z" />
    <glyph glyph-name="comma" unicode="," horiz-adv-x="522" 
d="M70 -272q86 289 86 485v98h221v-84q0 -192 -131 -499h-176z" />
    <glyph glyph-name="hyphen" unicode="-" horiz-adv-x="841" 
d="M143 555v197h555v-197h-555z" />
    <glyph glyph-name="period" unicode="." horiz-adv-x="532" 
d="M266 -10q-63 0 -106 42t-43 105q0 64 43 107t106 43t106.5 -43t43.5 -107q0 -63 -43.5 -105t-106.5 -42z" />
    <glyph glyph-name="slash" unicode="/" horiz-adv-x="1052" 
d="M68 -274l686 2070h233l-688 -2070h-231z" />
    <glyph glyph-name="zero" unicode="0" horiz-adv-x="1421" 
d="M711 1556q122 0 230 -55.5t188.5 -155.5t127 -251t46.5 -332t-46.5 -332t-127 -251.5t-188.5 -156t-230 -55.5q-123 0 -231 55.5t-188 156t-126.5 251.5t-46.5 332t46.5 332t126.5 251t188 155.5t231 55.5zM711 1329q-149 0 -247.5 -153t-98.5 -414q0 -262 98 -413.5
t248 -151.5q148 0 249 152.5t101 412.5t-101 413.5t-249 153.5z" />
    <glyph glyph-name="one" unicode="1" horiz-adv-x="946" 
d="M438 0v1202l-362 -151v247l583 236h21v-1534h-242z" />
    <glyph glyph-name="two" unicode="2" horiz-adv-x="1226" 
d="M68 0q257 292 398.5 461t222 286.5t101.5 177t21 128.5q0 114 -78 195t-209 81q-112 0 -210.5 -50t-168.5 -128v258q71 65 181.5 106t232.5 41q228 0 365 -137t137 -346q0 -70 -24.5 -145t-64.5 -146.5t-112.5 -166t-146 -180t-187.5 -210.5h594v-225h-1052z" />
    <glyph glyph-name="three" unicode="3" horiz-adv-x="1198" 
d="M158 1421q70 62 171.5 98.5t219.5 36.5q112 0 204.5 -33.5t152.5 -90.5t93 -131t33 -156q0 -116 -59 -207t-162 -139v-6q117 -43 193.5 -140.5t76.5 -238.5q0 -87 -35 -166.5t-100.5 -142t-168 -99.5t-228.5 -37q-251 0 -428 148v256q159 -180 399 -180q141 0 227.5 68.5
t86.5 176.5t-86.5 175t-239.5 67h-193v197h154q157 0 239.5 63.5t82.5 167.5q0 99 -73.5 163t-203.5 64q-106 0 -199.5 -42t-156.5 -111v239z" />
    <glyph glyph-name="four" unicode="4" horiz-adv-x="1368" 
d="M1288 555v-207h-256v-348h-229v348h-735v146l755 1030h209v-969h256zM336 555h467v641l-467 -637v-4z" />
    <glyph glyph-name="five" unicode="5" horiz-adv-x="1187" 
d="M1010 1524v-224h-525l-69 -368q70 24 151 24q120 0 219.5 -39.5t162.5 -106.5t97.5 -151.5t34.5 -177.5q0 -98 -34.5 -188t-101.5 -164t-177 -118t-248 -44q-245 0 -414 137v269q77 -83 183 -128.5t217 -45.5q148 0 235.5 77t87.5 199q0 125 -91.5 204t-254.5 79
q-128 0 -268 -64l-35 25l133 805h697z" />
    <glyph glyph-name="six" unicode="6" horiz-adv-x="1282" 
d="M692 993q128 0 243.5 -61t190 -175.5t74.5 -254.5q0 -110 -40.5 -208.5t-112 -170.5t-175 -114t-223.5 -42q-159 0 -286 71.5t-196 192t-69 265.5q0 126 55.5 241.5t163.5 245.5l437 541h293l-433 -537q38 6 78 6zM647 186q133 0 221 91.5t88 216.5q0 145 -100 229
t-240 84q-90 0 -174 -37q-54 -71 -79 -134.5t-25 -137.5q0 -126 88.5 -219t220.5 -93z" />
    <glyph glyph-name="seven" unicode="7" horiz-adv-x="1167" 
d="M109 0l686 1300h-693v224h1057l-790 -1524h-260z" />
    <glyph glyph-name="eight" unicode="8" horiz-adv-x="1323" 
d="M938 784q130 -49 199 -149t69 -229q0 -91 -38 -171t-107.5 -139.5t-172.5 -94t-226 -34.5q-243 0 -393 127t-150 312q0 125 69.5 228.5t196.5 151.5v5q-100 46 -161.5 134.5t-61.5 211.5q0 82 34.5 157.5t97.5 134t158.5 93t209.5 34.5t209 -34.5t157.5 -92.5t96.5 -133
t34 -157q0 -124 -61 -214t-160 -137v-4zM393 1112q0 -104 75 -171t194 -67q120 0 195 67t75 171q0 97 -75.5 166.5t-194.5 69.5q-120 0 -194.5 -69t-74.5 -167zM662 682q-135 0 -217.5 -73t-82.5 -181q0 -105 82 -179.5t218 -74.5q139 0 222 74.5t83 179.5q0 108 -84 181
t-221 73z" />
    <glyph glyph-name="nine" unicode="9" horiz-adv-x="1267" 
d="M631 1556q120 0 221.5 -40.5t171 -111t108.5 -166.5t39 -204q0 -120 -54 -237.5t-163 -247.5l-444 -549h-291l428 535q-50 -5 -55 -5q-128 0 -243 60t-189 175t-74 259q0 145 68 266t193.5 193.5t283.5 72.5zM823 754q57 74 84 138.5t27 137.5q0 129 -84.5 218t-216.5 89
q-134 0 -219.5 -89.5t-85.5 -217.5q0 -135 92.5 -223t228.5 -88q90 0 174 35z" />
    <glyph glyph-name="colon" unicode=":" horiz-adv-x="573" 
d="M287 678q-63 0 -106.5 42t-43.5 105q0 64 43.5 107t106.5 43t106 -43t43 -107q0 -63 -43 -105t-106 -42zM287 -10q-63 0 -106.5 42t-43.5 105q0 64 43.5 107t106.5 43t106 -43t43 -107q0 -63 -43 -105t-106 -42z" />
    <glyph glyph-name="semicolon" unicode=";" horiz-adv-x="575" 
d="M285 678q-63 0 -106.5 42t-43.5 105q0 64 43.5 107t106.5 43t106 -43t43 -107q0 -63 -43 -105t-106 -42zM109 -272q86 289 86 485v98h221v-84q0 -192 -131 -499h-176z" />
    <glyph glyph-name="less" unicode="&#x3c;" horiz-adv-x="1351" 
d="M1182 1085v236l-1084 -444v-232l1084 -442v235l-807 324z" />
    <glyph glyph-name="equal" unicode="=" horiz-adv-x="1427" 
d="M154 856v201h1118v-201h-1118zM154 467v201h1118v-201h-1118z" />
    <glyph glyph-name="greater" unicode="&#x3e;" horiz-adv-x="1351" 
d="M170 1085l807 -323l-807 -324v-235l1083 442v232l-1083 444v-236z" />
    <glyph glyph-name="question" unicode="?" horiz-adv-x="1062" 
d="M500 1556q102 0 189.5 -35t146.5 -94.5t92 -138t33 -164.5q0 -68 -18.5 -128.5t-70.5 -134.5t-91.5 -120.5t-133.5 -149.5q-10 -11 -15.5 -17.5t-14.5 -16.5t-17 -18h-242q38 44 102 117.5t90.5 105t66 82.5t54.5 81.5t27.5 69.5t12.5 76q0 114 -72.5 185t-189.5 71
q-93 0 -187 -52.5t-162 -131.5v258q72 68 177.5 111.5t222.5 43.5zM485 287q63 0 106.5 -43t43.5 -107q0 -63 -43.5 -105t-106.5 -42t-106 42t-43 105q0 64 43 107t106 43z" />
    <glyph glyph-name="at" unicode="@" horiz-adv-x="2045" 
d="M1307 94h-78l2 150q-119 -172 -299 -172q-154 0 -262.5 114t-108.5 308q0 142 59.5 264t164.5 195t229 73q101 0 179.5 -48.5t119.5 -139.5l51 168h168l-115 -752q138 49 233 186.5t95 325.5q0 122 -50 223.5t-136.5 168.5t-201.5 103.5t-245 36.5q-121 0 -237 -33
t-217 -100t-177 -160t-120 -221t-44 -274q0 -141 42 -257t114.5 -195t172.5 -133.5t213.5 -79.5t240.5 -25q191 0 338 49l-27 -184q-164 -45 -338 -45q-156 0 -297 32.5t-263 100.5t-211 166.5t-140 239t-51 308.5q0 222 82.5 411t221.5 316t323.5 198t387.5 71
q130 0 250.5 -31t220.5 -91t174.5 -143t116 -193t41.5 -234q0 -188 -80 -347.5t-223.5 -254.5t-318.5 -95zM995 258q119 0 195 95.5t76 232.5q0 116 -57 185t-154 69q-118 0 -198.5 -99t-80.5 -237q0 -120 62.5 -183t156.5 -63z" />
    <glyph glyph-name="A" unicode="A" horiz-adv-x="1495" 
d="M1479 0h-260l-162 428h-621l-162 -428h-256l588 1524h281zM745 1262l-235 -623h473z" />
    <glyph glyph-name="B" unicode="B" horiz-adv-x="1353" 
d="M975 786q135 -42 205.5 -136.5t70.5 -227.5q0 -87 -33.5 -162t-97 -133.5t-166 -92.5t-231.5 -34h-530v1524h503q242 0 375 -112t133 -288q0 -126 -62.5 -212.5t-166.5 -125.5zM436 1311v-441h256q130 0 203.5 63t73.5 163q0 99 -71 157t-196 58h-266zM709 215
q144 0 222.5 65t78.5 171q0 107 -80.5 169t-210.5 62h-283v-467h273z" />
    <glyph glyph-name="C" unicode="C" horiz-adv-x="1370" 
d="M1276 72q-191 -103 -410 -103q-153 0 -292 57t-245 158t-168.5 252t-62.5 328q0 176 62.5 326.5t168.5 251.5t245 157.5t292 56.5q221 0 410 -102v-252q-98 63 -188.5 94t-202.5 31q-103 0 -199.5 -39.5t-171.5 -110.5t-120.5 -179t-45.5 -236q0 -126 45.5 -234
t120.5 -179t171.5 -110.5t199.5 -39.5q111 0 201.5 31.5t189.5 95.5v-254z" />
    <glyph glyph-name="D" unicode="D" horiz-adv-x="1511" 
d="M592 1524q370 0 594.5 -209t224.5 -553q0 -227 -103.5 -401t-289 -267.5t-426.5 -93.5h-399v1524h399zM438 1298v-1073h164q251 0 405 142.5t154 394.5q0 253 -153.5 394.5t-403.5 141.5h-166z" />
    <glyph glyph-name="E" unicode="E" horiz-adv-x="1206" 
d="M193 0v1524h882v-224h-637v-419h586v-211h-586v-447h637v-223h-882z" />
    <glyph glyph-name="F" unicode="F" horiz-adv-x="1171" 
d="M193 0v1524h874v-226h-629v-473h596v-215h-596v-610h-245z" />
    <glyph glyph-name="G" unicode="G" horiz-adv-x="1495" 
d="M348 760q0 -123 40 -228.5t109.5 -178.5t165.5 -114.5t205 -41.5q148 0 269 59v567h229v-714q-231 -142 -502 -142q-153 0 -292.5 57t-244.5 158.5t-167 252.5t-62 327q0 177 62 327.5t167 251.5t245 158t296 57q255 0 449 -112v-250q-192 127 -428 127
q-232 0 -386.5 -158t-154.5 -403z" />
    <glyph glyph-name="H" unicode="H" horiz-adv-x="1611" 
d="M1174 0v655h-736v-655h-245v1524h245v-641h736v641h245v-1524h-245z" />
    <glyph glyph-name="I" unicode="I" horiz-adv-x="630" 
d="M193 0v1524h245v-1524h-245z" />
    <glyph glyph-name="J" unicode="J" horiz-adv-x="974" 
d="M57 330q111 -127 256 -127q111 0 174.5 71.5t63.5 206.5v1043h246v-1078q0 -210 -120.5 -340.5t-328.5 -130.5q-81 0 -158 27t-133 74v254z" />
    <glyph glyph-name="K" unicode="K" horiz-adv-x="1396" 
d="M1393 0h-306l-649 739v-739h-245v1524h245v-733l647 733h295l-673 -754z" />
    <glyph glyph-name="L" unicode="L" horiz-adv-x="1138" 
d="M193 0v1524h245v-1299h656v-225h-901z" />
    <glyph glyph-name="M" unicode="M" horiz-adv-x="1994" 
d="M496 1174l-164 -1174h-238l230 1524h292l385 -1153h3l374 1153h293l227 -1524h-239l-162 1182h-6l-387 -1182h-215l-387 1174h-6z" />
    <glyph glyph-name="N" unicode="N" horiz-adv-x="1634" 
d="M1442 1524v-1524h-230l-782 1133h-2v-1133h-235v1524h241l768 -1112h2v1112h238z" />
    <glyph glyph-name="O" unicode="O" horiz-adv-x="1734" 
d="M868 -33q-163 0 -305.5 60.5t-244.5 165.5t-161 252.5t-59 316.5q0 168 59 315.5t160.5 252.5t244.5 165.5t306 60.5t305.5 -60.5t244 -165.5t160 -252.5t58.5 -315.5q0 -169 -58.5 -316.5t-160 -252.5t-244 -165.5t-305.5 -60.5zM868 197q101 0 193.5 38.5t165 109
t116 179t43.5 238.5t-43.5 239t-116 179.5t-165.5 109.5t-193 39q-102 0 -195.5 -39t-166 -109.5t-115.5 -179.5t-43 -239q0 -131 43.5 -239.5t116.5 -178.5t166 -108.5t194 -38.5z" />
    <glyph glyph-name="P" unicode="P" horiz-adv-x="1286" 
d="M193 0v1524h403q288 0 454.5 -136.5t166.5 -373.5q0 -236 -165 -383.5t-446 -147.5h-168v-483h-245zM618 707q161 0 256 79.5t95 219.5t-94 216t-257 76h-180v-591h180z" />
    <glyph glyph-name="Q" unicode="Q" horiz-adv-x="1751" 
d="M1686 43l-160 -162l-219 219q-190 -133 -439 -133q-163 0 -305.5 60.5t-244.5 165.5t-161 252.5t-59 316.5q0 168 59 315.5t160.5 252.5t244.5 165.5t306 60.5t305.5 -60.5t244 -165.5t160 -252.5t58.5 -315.5q0 -290 -163 -506zM868 197q145 0 267 75l-285 285l160 162
l286 -287q90 144 90 330q0 130 -43.5 239t-116 179.5t-165.5 109.5t-193 39q-102 0 -195.5 -39t-166 -109.5t-115.5 -179.5t-43 -239q0 -131 43.5 -239.5t116.5 -178.5t166 -108.5t194 -38.5z" />
    <glyph glyph-name="R" unicode="R" horiz-adv-x="1306" 
d="M731 596l522 -596h-305l-493 588h-17v-588h-245v1524h434q266 0 412.5 -125.5t146.5 -343.5q0 -176 -114 -302t-341 -157zM438 784h166q168 0 251 68.5t83 191.5q0 120 -84.5 187t-237.5 67h-178v-514z" />
    <glyph glyph-name="S" unicode="S" horiz-adv-x="1183" 
d="M629 1556q212 0 377 -100v-239q-76 56 -175 87t-192 31q-117 0 -192.5 -51.5t-75.5 -144.5q0 -82 64.5 -134t223.5 -122q58 -25 95.5 -42t87.5 -44.5t82 -51.5t66.5 -59t54 -72.5t32.5 -86t13 -103.5q0 -208 -148.5 -332.5t-378.5 -124.5q-129 0 -244.5 39.5t-195.5 99.5
v256q81 -78 195 -126t229 -48q125 0 209 61.5t84 164.5q0 88 -70 143.5t-238 128.5q-55 24 -89 40t-82 42.5t-77 49.5t-62.5 57t-51.5 69.5t-30.5 82t-12.5 99.5q0 195 140.5 312.5t361.5 117.5z" />
    <glyph glyph-name="T" unicode="T" horiz-adv-x="1267" 
d="M512 0v1298h-469v226h1182v-226h-469v-1298h-244z" />
    <glyph glyph-name="U" unicode="U" horiz-adv-x="1548" 
d="M768 -33q-273 0 -433.5 171t-160.5 448v938h246v-944q0 -179 93 -281t255 -102q166 0 263 102.5t97 282.5v942h246v-938q0 -277 -164.5 -448t-441.5 -171z" />
    <glyph glyph-name="V" unicode="V" horiz-adv-x="1486" 
d="M1470 1524l-593 -1524h-265l-600 1524h260l473 -1258l469 1258h256z" />
    <glyph glyph-name="W" unicode="W" horiz-adv-x="2230" 
d="M1493 0l-373 1186h-2l-373 -1186h-256l-454 1524h252l338 -1215h2l374 1215h234l379 -1217h2l330 1217h245l-446 -1524h-252z" />
    <glyph glyph-name="X" unicode="X" horiz-adv-x="1382" 
d="M27 0l510 766l-504 758h282l381 -580l373 580h279l-502 -756l512 -768h-283l-387 586l-381 -586h-280z" />
    <glyph glyph-name="Y" unicode="Y" horiz-adv-x="1382" 
d="M571 0v629l-563 895h275l411 -672h4l408 672h266l-559 -893v-631h-242z" />
    <glyph glyph-name="Z" unicode="Z" horiz-adv-x="1230" 
d="M1188 1524l-764 -1299h713v-225h-1098l764 1298h-701v226h1086z" />
    <glyph glyph-name="bracketleft" unicode="[" horiz-adv-x="710" 
d="M154 -430v2070h493v-188h-291v-1694h291v-188h-493z" />
    <glyph glyph-name="backslash" unicode="\" horiz-adv-x="1052" 
d="M985 -274h-231l-688 2070h233z" />
    <glyph glyph-name="bracketright" unicode="]" horiz-adv-x="710" 
d="M557 -430h-494v188h291v1694h-291v188h494v-2070z" />
    <glyph glyph-name="asciicircum" unicode="^" horiz-adv-x="1208" 
d="M1112 496h-233l-273 710l-278 -710h-232l412 1028h192z" />
    <glyph glyph-name="underscore" unicode="_" horiz-adv-x="1079" 
d="M0 -358v192h1079v-192h-1079z" />
    <glyph glyph-name="grave" unicode="`" horiz-adv-x="1316" 
d="M631 1626l235 -350h-192l-291 350h248z" />
    <glyph glyph-name="a" unicode="a" horiz-adv-x="1366" 
d="M594 -27q-96 0 -186.5 42.5t-160.5 117t-112.5 185.5t-42.5 239q0 129 42.5 241t112.5 187t160.5 117.5t186.5 42.5q123 0 225 -58t162 -161l27 192h200v-1118h-200l-27 193q-60 -103 -162.5 -161.5t-224.5 -58.5zM655 195q135 0 226.5 102.5t91.5 261.5
q0 158 -91.5 261.5t-226.5 103.5q-137 0 -229 -103t-92 -262q0 -160 91.5 -262t229.5 -102z" />
    <glyph glyph-name="b" unicode="b" horiz-adv-x="1368" 
d="M399 1640v-706q55 98 158 154.5t219 56.5q98 0 188.5 -42t159.5 -116.5t110.5 -186t41.5 -241.5t-42.5 -242t-113.5 -186t-162.5 -116t-189.5 -42q-120 0 -221.5 58.5t-161.5 161.5l-27 -193h-200v1640h241zM711 924q-135 0 -225.5 -103.5t-90.5 -261.5q0 -160 91 -262
t227 -102t227.5 102t91.5 260q0 160 -91.5 263.5t-229.5 103.5z" />
    <glyph glyph-name="c" unicode="c" horiz-adv-x="1083" 
d="M334 559q0 -164 104.5 -264t251.5 -100q173 0 291 88v-232q-137 -78 -317 -78q-161 0 -292.5 76t-206.5 211t-75 301q0 164 75 298t206.5 210t292.5 76q188 0 317 -80v-234q-132 93 -293 93q-145 0 -249.5 -101t-104.5 -264z" />
    <glyph glyph-name="d" unicode="d" horiz-adv-x="1368" 
d="M598 -27q-98 0 -189.5 42t-162 116t-112.5 186t-42 242t42 242t112 186t161 116t189 42q118 0 218 -55.5t155 -153.5v704h241v-1640h-200l-29 193q-58 -103 -160.5 -161.5t-222.5 -58.5zM655 195q135 0 226.5 102.5t91.5 261.5q0 158 -91.5 261.5t-226.5 103.5
q-137 0 -228 -103t-91 -262q0 -160 90.5 -262t228.5 -102z" />
    <glyph glyph-name="e" unicode="e" horiz-adv-x="1224" 
d="M1135 580q0 -44 -7 -95h-804q26 -146 129 -228.5t252 -82.5q193 0 364 133v-217q-173 -117 -389 -117q-272 0 -430 160.5t-158 421.5q0 131 44 242.5t118.5 187t174.5 118t212 42.5q102 0 191 -36.5t157 -106t107 -178.5t39 -244zM324 647h581q-4 143 -80 220t-186 77
q-117 0 -205.5 -81t-109.5 -216z" />
    <glyph glyph-name="f" unicode="f" horiz-adv-x="811" 
d="M227 0v913h-157v205h157v148q0 166 110.5 277.5t293.5 111.5q94 0 198 -33v-213q-85 29 -161 29q-201 0 -201 -199v-121h311v-205h-309v-913h-242z" />
    <glyph glyph-name="g" unicode="g" horiz-adv-x="1361" 
d="M598 1143q117 0 218.5 -56.5t160.5 -152.5l27 184h200v-1007q0 -135 -45.5 -244t-124.5 -179t-183.5 -107.5t-225.5 -37.5q-113 0 -222 35.5t-198 99.5v244q87 -76 193 -119t210 -43q152 0 253.5 89t101.5 229v143q-58 -93 -155.5 -147t-213.5 -54q-98 0 -189 41
t-160.5 113.5t-111 178.5t-41.5 229q0 120 42.5 226t112.5 178.5t161.5 114.5t189.5 42zM651 924q-135 0 -226 -99t-91 -245t91 -244t226 -98t226.5 99.5t91.5 248.5q0 146 -91 242t-227 96z" />
    <glyph glyph-name="h" unicode="h" horiz-adv-x="1261" 
d="M399 1640v-647h4q49 68 132 110t180 42q186 0 292.5 -105t106.5 -299v-741h-242v668q0 256 -225 256q-107 0 -177.5 -63t-70.5 -179v-682h-241v1640h241z" />
    <glyph glyph-name="i" unicode="i" horiz-adv-x="565" 
d="M283 1335q-60 0 -101 40t-41 98q0 60 41 99.5t101 39.5t100.5 -39.5t40.5 -99.5q0 -59 -40.5 -98.5t-100.5 -39.5zM162 0v1118h241v-1118h-241z" />
    <glyph glyph-name="j" unicode="j" horiz-adv-x="565" 
d="M285 1335q-60 0 -101 40t-41 98q0 60 41 99.5t101 39.5t100.5 -39.5t40.5 -99.5q0 -59 -40.5 -98.5t-100.5 -39.5zM-45 -430q108 118 158.5 252.5t50.5 329.5v966h242v-950q0 -189 -41 -332.5t-136 -265.5h-274z" />
    <glyph glyph-name="k" unicode="k" horiz-adv-x="1181" 
d="M1174 0h-306l-469 557v-557h-241v1640h241v-1040l461 518h295l-483 -532z" />
    <glyph glyph-name="l" unicode="l" horiz-adv-x="565" 
d="M162 0v1640h241v-1640h-241z" />
    <glyph glyph-name="m" unicode="m" horiz-adv-x="1818" 
d="M1315 1145q177 0 266.5 -108t89.5 -294v-743h-241v700q0 110 -45.5 165t-143.5 55q-94 0 -150.5 -63t-56.5 -152v-705h-241v700q0 110 -45.5 165t-143.5 55q-97 0 -151 -66.5t-54 -161.5v-692h-241v1118h186l27 -162h6q46 85 123 137t180 52q224 0 313 -195
q113 195 322 195z" />
    <glyph glyph-name="n" unicode="n" horiz-adv-x="1261" 
d="M717 1145q183 0 290 -108.5t107 -293.5v-743h-242v666q0 254 -227 254q-105 0 -175.5 -69.5t-70.5 -174.5v-676h-241v1118h186l27 -166h6q51 84 140 138.5t200 54.5z" />
    <glyph glyph-name="o" unicode="o" horiz-adv-x="1316" 
d="M659 -27q-160 0 -290 75t-204.5 209.5t-74.5 301.5t75 301.5t205 209.5t289 75q160 0 290 -75t204 -209.5t74 -301.5t-74 -301.5t-204 -209.5t-290 -75zM659 195q85 0 157.5 42t119.5 126.5t47 195.5q0 84 -27 154t-72.5 115.5t-103.5 70.5t-121 25t-121 -25
t-103.5 -70.5t-73 -115.5t-27.5 -154t27.5 -154t73 -115t103.5 -70t121 -25z" />
    <glyph glyph-name="p" unicode="p" horiz-adv-x="1368" 
d="M158 -430v1548h200l27 -192q60 103 161.5 161t221.5 58q99 0 191 -42t162 -116.5t112.5 -186t42.5 -241.5t-41.5 -241.5t-111 -186t-160.5 -116.5t-189 -42q-115 0 -217.5 56.5t-157.5 152.5v-612h-241zM711 195q138 0 229.5 102.5t91.5 263.5q0 158 -91.5 260.5
t-227.5 102.5t-227 -102.5t-91 -262.5t90.5 -262t225.5 -102z" />
    <glyph glyph-name="q" unicode="q" horiz-adv-x="1368" 
d="M592 1145q124 0 227.5 -58t163.5 -161l27 192h200v-1548h-241v612q-58 -99 -158.5 -154t-218.5 -55q-98 0 -188.5 42.5t-159.5 116.5t-110.5 184t-41.5 237q0 131 40.5 243.5t109.5 188t159.5 118t190.5 42.5zM655 924q-136 0 -227.5 -103t-91.5 -262q0 -160 91.5 -262
t227.5 -102t227 102t91 262q0 159 -91 262t-227 103z" />
    <glyph glyph-name="r" unicode="r" horiz-adv-x="804" 
d="M158 0v1118h192l25 -174h4q52 97 139 141.5t174 44.5q44 0 78 -6v-229q-36 8 -84 8q-119 0 -203 -75.5t-84 -225.5v-602h-241z" />
    <glyph glyph-name="s" unicode="s" horiz-adv-x="1030" 
d="M535 1145q96 0 189 -25.5t155 -68.5v-222q-62 49 -152 79t-184 30t-145.5 -34t-51.5 -93q0 -58 51.5 -89.5t173.5 -66.5q47 -12 77 -21.5t73 -25.5t71 -32.5t59.5 -42.5t50 -55.5t30.5 -70t12 -88.5q0 -159 -118 -252.5t-324 -93.5q-235 0 -391 119v238
q166 -152 383 -152q101 0 158 38t57 101q0 23 -7 41t-24.5 33.5t-34.5 27t-51.5 24.5t-59.5 21t-73 23q-63 18 -107 34t-93 43t-79 58.5t-49.5 78t-19.5 104.5q0 149 115 244.5t309 95.5z" />
    <glyph glyph-name="t" unicode="t" horiz-adv-x="837" 
d="M451 1378v-260h309v-205h-309v-495q0 -115 63 -170t170 -55q38 0 100 10v-207q-72 -14 -149 -14q-198 0 -310 112.5t-112 311.5v507h-164v205h168v260h234z" />
    <glyph glyph-name="u" unicode="u" horiz-adv-x="1245" 
d="M618 -27q-219 0 -346 128.5t-127 336.5v680h242v-682q0 -115 61 -178t170 -63q113 0 177.5 63.5t64.5 179.5v680h242v-678q0 -208 -131 -337.5t-353 -129.5z" />
    <glyph glyph-name="v" unicode="v" horiz-adv-x="1148" 
d="M446 0l-407 1118h258l281 -856h6l280 856h250l-407 -1118h-261z" />
    <glyph glyph-name="w" unicode="w" horiz-adv-x="1789" 
d="M1153 0l-252 817h-6l-252 -817h-278l-310 1118h254l207 -856h6l256 856h244l256 -856h4l215 856h238l-308 -1118h-274z" />
    <glyph glyph-name="x" unicode="x" horiz-adv-x="1128" 
d="M1083 1118l-378 -549l391 -569h-275l-258 397h-2l-260 -397h-264l387 559l-383 559h268l254 -395h4l254 395h262z" />
    <glyph glyph-name="y" unicode="y" horiz-adv-x="1148" 
d="M1116 1118l-608 -1548h-244l193 467l-420 1081h262l281 -807h4l282 807h250z" />
    <glyph glyph-name="z" unicode="z" horiz-adv-x="1067" 
d="M1022 1118l-596 -897h537v-221h-924l598 897h-524v221h909z" />
    <glyph glyph-name="braceleft" unicode="{" horiz-adv-x="735" 
d="M666 1585v-184q-209 22 -209 -164v-360q0 -241 -178 -302v-2q95 -31 136.5 -112.5t41.5 -188.5v-356q0 -186 211 -164v-184q-191 -24 -298.5 65t-107.5 256v381q0 190 -211 224v161q211 32 211 224v385q0 167 106.5 256t297.5 65z" />
    <glyph glyph-name="bar" unicode="|" horiz-adv-x="530" 
d="M156 -375v2269h217v-2269h-217z" />
    <glyph glyph-name="braceright" unicode="}" horiz-adv-x="735" 
d="M473 1264v-385q0 -192 211 -224v-161q-211 -34 -211 -224v-381q0 -167 -107 -256t-298 -65v184q211 -22 211 164v356q0 107 41.5 188.5t136.5 112.5v2q-178 61 -178 302v360q0 186 -209 164v184q191 24 297 -65t106 -256z" />
    <glyph glyph-name="asciitilde" unicode="~" horiz-adv-x="1517" 
d="M1374 944q-2 -82 -22.5 -147.5t-52.5 -106t-75.5 -67.5t-87.5 -37.5t-92 -10.5q-68 0 -144.5 24t-133 53t-123.5 53t-119 24q-67 0 -115.5 -36.5t-58.5 -112.5h-192q1 82 21.5 147t52 106t75 67.5t87 37t91.5 10.5q69 0 145.5 -24t132.5 -52.5t123.5 -52.5t119.5 -24
q68 0 116 36t58 113h194z" />
    <glyph glyph-name="uni00A0" unicode="&#xa0;" horiz-adv-x="538" 
 />
    <glyph glyph-name="exclamdown" unicode="&#xa1;" horiz-adv-x="557" 
d="M428 1382q0 -64 -42 -106.5t-105 -42.5q-65 0 -107.5 42.5t-42.5 106.5q0 63 43 105.5t107 42.5q63 0 105 -42.5t42 -105.5zM190 1024h175l41 -1028h-256z" />
    <glyph glyph-name="cent" unicode="&#xa2;" horiz-adv-x="1134" 
d="M705 915q-67 0 -129 -23.5t-110 -66.5t-77 -108.5t-29 -143.5q0 -156 103 -249t248 -93q167 0 284 84v-227q-114 -60 -252 -72v-182h-170v189q-204 34 -333 185t-129 365t129.5 364t334.5 183v211h170v-205q148 -13 250 -73v-226q-129 88 -290 88z" />
    <glyph glyph-name="sterling" unicode="&#xa3;" horiz-adv-x="1214" 
d="M401 215h682v-215h-1011q81 114 138.5 256.5t94.5 357.5l4 25h-178v176h209l39 225q44 259 164.5 387.5t339.5 128.5q103 0 194 -38v-220q-82 45 -180 45q-120 0 -190.5 -73t-100.5 -250l-35 -205h347v-176h-375l-4 -23q-21 -126 -52 -218.5t-86 -182.5z" />
    <glyph glyph-name="currency" unicode="&#xa4;" horiz-adv-x="1366" 
d="M1085 1307l142 -142l-154 -153q74 -113 74 -248q0 -134 -74 -252l154 -154l-140 -141l-153 156q-112 -76 -252 -76q-138 0 -250 76l-153 -156l-140 141l154 154q-76 116 -76 252q0 137 74 250l-152 151l142 142l151 -154q109 76 250 76q137 0 250 -76zM682 475
q121 0 204 84t83 205q0 119 -83 203t-204 84t-204 -84t-83 -203q0 -121 83 -205t204 -84z" />
    <glyph glyph-name="yen" unicode="&#xa5;" horiz-adv-x="1486" 
d="M1425 1524l-501 -740h293v-159h-351v-123h351v-158h-351v-344h-241v344h-351v158h351v123h-351v159h291l-504 740h275l412 -617h4l407 617h266z" />
    <glyph glyph-name="brokenbar" unicode="&#xa6;" horiz-adv-x="536" 
d="M170 991v903h197v-903h-197zM367 530v-905h-197v905h197z" />
    <glyph glyph-name="section" unicode="&#xa7;" horiz-adv-x="1126" 
d="M807 297q166 -114 166 -291q0 -165 -126.5 -277t-324.5 -112q-108 0 -204.5 33t-165.5 86v237q65 -70 163.5 -113.5t194.5 -43.5t163.5 49t67.5 129q0 39 -14.5 68.5t-58 58.5t-74 44t-108.5 50q-9 4 -13 6q-37 16 -53 23.5t-52 25.5t-54 29.5t-48.5 32.5t-47 38.5
t-37.5 43.5t-32 52t-18.5 58.5t-7.5 67.5q0 103 58.5 184.5t162.5 124.5q-170 107 -170 285q0 161 124 265.5t325 104.5q184 0 319 -77v-226q-146 105 -317 105q-103 0 -162.5 -46.5t-59.5 -115.5q0 -65 50 -105t163 -87q149 -65 195 -91q169 -95 198 -232q7 -33 7 -67
q0 -104 -56.5 -187t-152.5 -130zM348 618q0 -71 54.5 -115t170.5 -93q42 -18 48 -21q76 20 124 71t48 126q0 73 -56 119t-180 98q-96 -7 -152.5 -61.5t-56.5 -123.5z" />
    <glyph glyph-name="dieresis" unicode="&#xa8;" horiz-adv-x="1316" 
d="M438 1313q-53 0 -90 36.5t-37 88.5q0 51 37.5 88t89.5 37t89.5 -37t37.5 -88q0 -52 -37 -88.5t-90 -36.5zM879 1313q-54 0 -90.5 36t-36.5 89q0 52 37 88.5t90 36.5t90 -36.5t37 -88.5q0 -53 -36.5 -89t-90.5 -36z" />
    <glyph glyph-name="copyright" unicode="&#xa9;" horiz-adv-x="1826" 
d="M913 1556q219 0 404 -107.5t292 -290t107 -396.5q0 -160 -63.5 -307t-170.5 -254t-256 -170.5t-313 -63.5q-165 0 -314 63.5t-255 170.5t-168.5 254t-62.5 307q0 214 105.5 396.5t290 290t404.5 107.5zM266 762q0 -174 85 -321.5t234 -234.5t328 -87q133 0 253.5 51.5
t206.5 138t137 205t51 248.5t-51 249t-137 206t-206.5 138.5t-253.5 51.5q-179 0 -328 -87.5t-234 -235.5t-85 -322zM1165 379q-88 -51 -227 -51q-112 0 -209 53t-157 153.5t-60 227.5t60 228t157 154.5t209 53.5q130 0 227 -51v-166q-97 63 -204 63q-114 0 -198.5 -79
t-84.5 -203q0 -122 84.5 -202.5t198.5 -80.5q60 0 106.5 15.5t97.5 50.5v-166z" />
    <glyph glyph-name="ordfeminine" unicode="&#xaa;" horiz-adv-x="1132" 
d="M975 1524v-875h-168l-23 148q-46 -79 -124.5 -123.5t-174.5 -44.5q-101 0 -190 56t-145 162t-56 238q0 102 33 189.5t87.5 146t125 92t145.5 33.5q96 0 174.5 -44.5t124.5 -123.5l23 146h168zM539 1364q-105 0 -173.5 -79t-68.5 -200q0 -119 68.5 -195.5t173.5 -76.5
q102 0 170.5 77t68.5 197q0 121 -68.5 199t-170.5 78z" />
    <glyph glyph-name="guillemotleft" unicode="&#xab;" horiz-adv-x="1323" 
d="M655 1083v-241l-364 -283l364 -283v-241l-567 450v146zM1196 1083v-241l-365 -283l365 -283v-241l-567 450v146z" />
    <glyph glyph-name="logicalnot" unicode="&#xac;" horiz-adv-x="1499" 
d="M1126 166v496h-979v200h1188v-696h-209z" />
    <glyph glyph-name="uni00AD" unicode="&#xad;" horiz-adv-x="841" 
d="M143 555v197h555v-197h-555z" />
    <glyph glyph-name="registered" unicode="&#xae;" horiz-adv-x="1826" 
d="M913 1556q219 0 404 -107.5t292 -290t107 -396.5q0 -160 -63.5 -307t-170.5 -254t-256 -170.5t-313 -63.5q-165 0 -314 63.5t-255 170.5t-168.5 254t-62.5 307q0 214 105.5 396.5t290 290t404.5 107.5zM913 119q133 0 253.5 51.5t206.5 138t137 205t51 248.5t-51 249
t-137 206t-206.5 138.5t-253.5 51.5q-179 0 -328 -87.5t-234 -235.5t-85 -322t85 -321.5t234 -234.5t328 -87zM1212 924q0 -97 -69.5 -164.5t-165.5 -83.5l285 -328h-189l-256 314h-16v-314h-146v844h228q156 0 242.5 -74t86.5 -194zM801 786h69q89 0 140 36.5t51 103.5
q0 131 -203 131h-57v-271z" />
    <glyph glyph-name="macron" unicode="&#xaf;" horiz-adv-x="1316" 
d="M305 1356v164h707v-164h-707z" />
    <glyph glyph-name="degree" unicode="&#xb0;" horiz-adv-x="878" 
d="M440 870q-146 0 -246 98.5t-100 243.5q0 146 100 245t246 99t245 -99t99 -245q0 -145 -99 -243.5t-245 -98.5zM440 1413q-83 0 -139.5 -58t-56.5 -143q0 -83 56.5 -140.5t139.5 -57.5t139 57t56 141q0 85 -56 143t-139 58z" />
    <glyph glyph-name="plusminus" unicode="&#xb1;" horiz-adv-x="1447" 
d="M821 1384v-438h482v-201h-482v-442h-209v442h-467v201h467v438h209zM1303 201v-201h-1158v201h1158z" />
    <glyph glyph-name="uni00B2" unicode="&#xb2;" horiz-adv-x="796" 
d="M709 801v-164h-658q192 212 281.5 323t118 166.5t28.5 108.5q0 55 -40.5 95t-112.5 40q-113 0 -209 -100v188q47 38 116 60t140 22q135 0 221 -75t86 -199q0 -98 -64.5 -195.5t-226.5 -269.5h320z" />
    <glyph glyph-name="uni00B3" unicode="&#xb3;" horiz-adv-x="790" 
d="M117 1464q41 33 111.5 54.5t144.5 21.5q142 0 221.5 -69t79.5 -171q0 -129 -127 -196v-4q72 -28 113.5 -83.5t41.5 -129.5q0 -111 -89 -188.5t-244 -77.5q-81 0 -155.5 24.5t-123.5 63.5v182q50 -53 122 -83t153 -30q70 0 116.5 31t46.5 86q0 60 -52 89.5t-144 29.5h-133
v147h127q83 0 125.5 34t42.5 81q0 45 -39 75t-101 31q-138 3 -237 -86v168z" />
    <glyph glyph-name="acute" unicode="&#xb4;" horiz-adv-x="1316" 
d="M686 1626h248l-291 -350h-192z" />
    <glyph glyph-name="uni00B5" unicode="&#xb5;" horiz-adv-x="1347" 
d="M1223 188q25 0 49 7v-201q-38 -12 -96 -12q-197 0 -256 174q-40 -78 -118 -128.5t-173 -50.5q-85 0 -155.5 35.5t-113.5 98.5l46 -541h-248v1548h241v-674q0 -116 63.5 -179.5t174.5 -63.5q112 0 174.5 63.5t62.5 188.5v665h242v-811q0 -66 25.5 -92.5t81.5 -26.5z" />
    <glyph glyph-name="paragraph" unicode="&#xb6;" horiz-adv-x="1406" 
d="M690 -430v938h-61q-246 0 -402.5 139.5t-156.5 366.5q0 231 158.5 370.5t416.5 139.5h586v-1954h-201v1759h-137v-1759h-203z" />
    <glyph glyph-name="periodcentered" unicode="&#xb7;" horiz-adv-x="559" 
d="M281 614q-63 0 -106.5 42.5t-43.5 105.5q0 64 43.5 106.5t106.5 42.5t106 -42.5t43 -106.5q0 -63 -43 -105.5t-106 -42.5z" />
    <glyph glyph-name="cedilla" unicode="&#xb8;" horiz-adv-x="1316" 
d="M432 -358q89 104 135.5 195.5t46.5 201.5h197q0 -230 -139 -397h-240z" />
    <glyph glyph-name="uni00B9" unicode="&#xb9;" horiz-adv-x="630" 
d="M281 637v659l-218 -90v178l375 154h23v-901h-180z" />
    <glyph glyph-name="ordmasculine" unicode="&#xba;" horiz-adv-x="1079" 
d="M541 1546q192 0 319 -129.5t127 -329.5t-127 -329t-319 -129q-193 0 -321 129t-128 329t128.5 329.5t320.5 129.5zM541 1364q-101 0 -174.5 -75.5t-73.5 -201.5q0 -127 73 -201.5t175 -74.5q99 0 172 75t73 201t-73 201.5t-172 75.5z" />
    <glyph glyph-name="guillemotright" unicode="&#xbb;" horiz-adv-x="1323" 
d="M127 35v241l365 283l-365 283v241l567 -450v-146zM668 35v241l364 283l-364 283v241l567 -450v-146z" />
    <glyph glyph-name="onequarter" unicode="&#xbc;" horiz-adv-x="1835" 
d="M297 637v659l-217 -90v178l375 154h22v-901h-180zM1300 1524h175l-1006 -1524h-174zM1753 348v-153h-131v-195h-160v195h-458v112l446 580h172v-539h131zM1200 348h262v332z" />
    <glyph glyph-name="onehalf" unicode="&#xbd;" horiz-adv-x="1916" 
d="M297 637v659l-217 -90v178l375 154h22v-901h-180zM295 0l1005 1524h175l-1006 -1524h-174zM1821 164v-164h-658q192 212 281.5 323t118 166.5t28.5 108.5q0 55 -40.5 95t-112.5 40q-113 0 -209 -100v188q47 38 116 60t140 22q135 0 221 -75t86 -199q0 -98 -64.5 -195.5
t-226.5 -269.5h320z" />
    <glyph glyph-name="threequarters" unicode="&#xbe;" horiz-adv-x="1978" 
d="M719 887q0 -111 -89.5 -188.5t-244.5 -77.5q-81 0 -155.5 24.5t-123.5 63.5v182q50 -53 122 -83t153 -30q71 0 117.5 31t46.5 86q0 60 -52.5 89.5t-144.5 29.5h-133v147h127q83 0 125.5 34t42.5 81q0 45 -38.5 75t-100.5 31q-139 3 -238 -86v168q41 33 111.5 54.5
t144.5 21.5q142 0 221.5 -69t79.5 -171q0 -129 -127 -196v-4q72 -28 114 -84t42 -129zM1442 1524h174l-1006 -1524h-174zM1894 348v-153h-131v-195h-159v195h-459v112l446 580h172v-539h131zM1341 348h263v332z" />
    <glyph glyph-name="questiondown" unicode="&#xbf;" horiz-adv-x="1064" 
d="M580 1237q-63 0 -106.5 42.5t-43.5 106.5q0 63 43.5 105.5t106.5 42.5t106 -42.5t43 -105.5q0 -64 -43 -106.5t-106 -42.5zM565 -33q-102 0 -189.5 35t-146.5 94.5t-92 138t-33 164.5q0 68 18.5 128.5t72 136.5t91 120.5t134.5 150.5q30 33 45 50h242
q-38 -44 -102 -117.5t-90.5 -105t-66 -82.5t-54.5 -81.5t-27.5 -69.5t-12.5 -76q0 -114 72.5 -185t189.5 -71q93 0 187 52.5t162 131.5v-258q-72 -69 -177.5 -112.5t-222.5 -43.5z" />
    <glyph glyph-name="Agrave" unicode="&#xc0;" horiz-adv-x="1495" 
d="M690 2034l236 -351h-193l-291 351h248zM1479 0h-260l-162 428h-621l-162 -428h-256l588 1524h281zM745 1262l-235 -623h473z" />
    <glyph glyph-name="Aacute" unicode="&#xc1;" horiz-adv-x="1495" 
d="M809 2034h248l-291 -351h-193zM1479 0h-260l-162 428h-621l-162 -428h-256l588 1524h281zM745 1262l-235 -623h473z" />
    <glyph glyph-name="Acircumflex" unicode="&#xc2;" horiz-adv-x="1495" 
d="M836 2034l282 -351h-219l-154 203l-153 -203h-215l280 351h179zM1479 0h-260l-162 428h-621l-162 -428h-256l588 1524h281zM745 1262l-235 -623h473z" />
    <glyph glyph-name="Atilde" unicode="&#xc3;" horiz-adv-x="1495" 
d="M1151 1980q8 -138 -60.5 -207t-177.5 -69q-50 0 -96.5 19t-75.5 41.5t-67.5 41.5t-75.5 19q-53 0 -78.5 -35t-23.5 -80h-158q-7 138 61.5 207.5t175.5 69.5q51 0 98 -19t76.5 -42.5t68 -42.5t75.5 -19q53 0 78.5 34.5t23.5 81.5h156zM1479 0h-260l-162 428h-621
l-162 -428h-256l588 1524h281zM745 1262l-235 -623h473z" />
    <glyph glyph-name="Adieresis" unicode="&#xc4;" horiz-adv-x="1495" 
d="M526 1720q-53 0 -90 36.5t-37 88.5q0 51 37.5 88t89.5 37t89.5 -37t37.5 -88q0 -52 -37 -88.5t-90 -36.5zM967 1720q-54 0 -90.5 36t-36.5 89q0 51 37 88t90 37t90 -37t37 -88q0 -53 -36.5 -89t-90.5 -36zM1479 0h-260l-162 428h-621l-162 -428h-256l588 1524h281z
M745 1262l-235 -623h473z" />
    <glyph glyph-name="Aring" unicode="&#xc5;" horiz-adv-x="1495" 
d="M748 2109q97 0 163 -61t66 -152q0 -92 -66 -153.5t-163 -61.5q-99 0 -165.5 61.5t-66.5 153.5q0 91 67 152t165 61zM748 1999q-47 0 -79 -30t-32 -73q0 -44 32 -74t79 -30q46 0 76 30t30 74q0 43 -30.5 73t-75.5 30zM1479 0h-260l-162 428h-621l-162 -428h-256l588 1524
h281zM745 1262l-235 -623h473z" />
    <glyph glyph-name="AE" unicode="&#xc6;" horiz-adv-x="2105" 
d="M1974 1298h-622v-417h573v-211h-573v-445h622v-225h-868v436h-557l-281 -436h-291l981 1524h1016v-226zM682 645h424v658h-2z" />
    <glyph glyph-name="Ccedilla" unicode="&#xc7;" horiz-adv-x="1370" 
d="M885 1327q-103 0 -199.5 -39.5t-171.5 -110.5t-120.5 -179t-45.5 -236q0 -126 45.5 -234t120.5 -179t171.5 -110.5t199.5 -39.5q111 0 201.5 31.5t189.5 95.5v-254q-171 -93 -371 -103q-17 -187 -135 -327h-240q78 90 123.5 171t55.5 173q-127 26 -238 92t-194 164
t-131 233t-48 289q0 176 62.5 326.5t168.5 251.5t245 157.5t292 56.5q221 0 410 -102v-252q-98 63 -188.5 94t-202.5 31z" />
    <glyph glyph-name="Egrave" unicode="&#xc8;" horiz-adv-x="1206" 
d="M573 2034l236 -351h-193l-290 351h247zM193 0v1524h882v-224h-637v-419h586v-211h-586v-447h637v-223h-882z" />
    <glyph glyph-name="Eacute" unicode="&#xc9;" horiz-adv-x="1206" 
d="M692 2034h248l-291 -351h-192zM193 0v1524h882v-224h-637v-419h586v-211h-586v-447h637v-223h-882z" />
    <glyph glyph-name="Ecircumflex" unicode="&#xca;" horiz-adv-x="1206" 
d="M719 2034l282 -351h-219l-153 203l-154 -203h-215l281 351h178zM193 0v1524h882v-224h-637v-419h586v-211h-586v-447h637v-223h-882z" />
    <glyph glyph-name="Edieresis" unicode="&#xcb;" horiz-adv-x="1206" 
d="M410 1720q-53 0 -90 36.5t-37 88.5q0 51 37.5 88t89.5 37t89.5 -37t37.5 -88q0 -52 -37 -88.5t-90 -36.5zM850 1720q-54 0 -90.5 36t-36.5 89q0 51 36.5 88t90.5 37t90.5 -37t36.5 -88q0 -53 -36.5 -89t-90.5 -36zM193 0v1524h882v-224h-637v-419h586v-211h-586v-447h637
v-223h-882z" />
    <glyph glyph-name="Igrave" unicode="&#xcc;" horiz-adv-x="630" 
d="M260 2034l236 -351h-193l-291 351h248zM193 0v1524h245v-1524h-245z" />
    <glyph glyph-name="Iacute" unicode="&#xcd;" horiz-adv-x="630" 
d="M379 2034h248l-291 -351h-193zM193 0v1524h245v-1524h-245z" />
    <glyph glyph-name="Icircumflex" unicode="&#xce;" horiz-adv-x="630" 
d="M406 2034l282 -351h-219l-154 203l-153 -203h-215l280 351h179zM193 0v1524h245v-1524h-245z" />
    <glyph glyph-name="Idieresis" unicode="&#xcf;" horiz-adv-x="630" 
d="M96 1720q-53 0 -90 36.5t-37 88.5q0 51 37.5 88t89.5 37t89.5 -37t37.5 -88q0 -52 -37 -88.5t-90 -36.5zM537 1720q-54 0 -90.5 36t-36.5 89q0 51 37 88t90 37t90 -37t37 -88q0 -53 -36.5 -89t-90.5 -36zM193 0v1524h245v-1524h-245z" />
    <glyph glyph-name="Eth" unicode="&#xd0;" horiz-adv-x="1536" 
d="M618 1524q370 0 595 -209t225 -553q0 -227 -103.5 -401t-289.5 -267.5t-427 -93.5h-399v672h-186v184h186v668h399zM629 225q251 0 405 142.5t154 394.5q0 253 -153.5 394.5t-403.5 141.5h-166v-442h362v-184h-362v-447h164z" />
    <glyph glyph-name="Ntilde" unicode="&#xd1;" horiz-adv-x="1634" 
d="M1239 1980q8 -138 -60.5 -207t-177.5 -69q-50 0 -96.5 19t-75.5 41.5t-67.5 41.5t-75.5 19q-53 0 -78.5 -35t-23.5 -80h-158q-7 138 62 207.5t176 69.5q42 0 80 -12.5t66 -30.5t54.5 -36.5t56.5 -31t60 -12.5q53 0 78.5 34.5t23.5 81.5h156zM1442 1524v-1524h-230
l-782 1133h-2v-1133h-235v1524h241l768 -1112h2v1112h238z" />
    <glyph glyph-name="Ograve" unicode="&#xd2;" horiz-adv-x="1734" 
d="M813 2034l236 -351h-193l-291 351h248zM868 -33q-163 0 -305.5 60.5t-244.5 165.5t-161 252.5t-59 316.5q0 168 59 315.5t160.5 252.5t244.5 165.5t306 60.5t305.5 -60.5t244 -165.5t160 -252.5t58.5 -315.5q0 -169 -58.5 -316.5t-160 -252.5t-244 -165.5t-305.5 -60.5z
M868 197q101 0 193.5 38.5t165 109t116 179t43.5 238.5t-43.5 239t-116 179.5t-165.5 109.5t-193 39q-102 0 -195.5 -39t-166 -109.5t-115.5 -179.5t-43 -239q0 -131 43.5 -239.5t116.5 -178.5t166 -108.5t194 -38.5z" />
    <glyph glyph-name="Oacute" unicode="&#xd3;" horiz-adv-x="1734" 
d="M932 2034h248l-291 -351h-193zM868 -33q-163 0 -305.5 60.5t-244.5 165.5t-161 252.5t-59 316.5q0 168 59 315.5t160.5 252.5t244.5 165.5t306 60.5t305.5 -60.5t244 -165.5t160 -252.5t58.5 -315.5q0 -169 -58.5 -316.5t-160 -252.5t-244 -165.5t-305.5 -60.5zM868 197
q101 0 193.5 38.5t165 109t116 179t43.5 238.5t-43.5 239t-116 179.5t-165.5 109.5t-193 39q-102 0 -195.5 -39t-166 -109.5t-115.5 -179.5t-43 -239q0 -131 43.5 -239.5t116.5 -178.5t166 -108.5t194 -38.5z" />
    <glyph glyph-name="Ocircumflex" unicode="&#xd4;" horiz-adv-x="1734" 
d="M958 2034l283 -351h-219l-154 203l-153 -203h-215l280 351h178zM868 -33q-163 0 -305.5 60.5t-244.5 165.5t-161 252.5t-59 316.5q0 168 59 315.5t160.5 252.5t244.5 165.5t306 60.5t305.5 -60.5t244 -165.5t160 -252.5t58.5 -315.5q0 -169 -58.5 -316.5t-160 -252.5
t-244 -165.5t-305.5 -60.5zM868 197q101 0 193.5 38.5t165 109t116 179t43.5 238.5t-43.5 239t-116 179.5t-165.5 109.5t-193 39q-102 0 -195.5 -39t-166 -109.5t-115.5 -179.5t-43 -239q0 -131 43.5 -239.5t116.5 -178.5t166 -108.5t194 -38.5z" />
    <glyph glyph-name="Otilde" unicode="&#xd5;" horiz-adv-x="1734" 
d="M1274 1980q8 -138 -60.5 -207t-177.5 -69q-50 0 -96.5 19t-75.5 41.5t-67.5 41.5t-75.5 19q-53 0 -79 -35t-24 -80h-157q-7 138 61.5 207.5t175.5 69.5q51 0 98 -19t76.5 -42.5t68 -42.5t75.5 -19q53 0 78.5 34.5t23.5 81.5h156zM868 -33q-163 0 -305.5 60.5
t-244.5 165.5t-161 252.5t-59 316.5q0 168 59 315.5t160.5 252.5t244.5 165.5t306 60.5t305.5 -60.5t244 -165.5t160 -252.5t58.5 -315.5q0 -169 -58.5 -316.5t-160 -252.5t-244 -165.5t-305.5 -60.5zM868 197q101 0 193.5 38.5t165 109t116 179t43.5 238.5t-43.5 239
t-116 179.5t-165.5 109.5t-193 39q-102 0 -195.5 -39t-166 -109.5t-115.5 -179.5t-43 -239q0 -131 43.5 -239.5t116.5 -178.5t166 -108.5t194 -38.5z" />
    <glyph glyph-name="Odieresis" unicode="&#xd6;" horiz-adv-x="1734" 
d="M649 1720q-53 0 -90 36.5t-37 88.5q0 51 37.5 88t89.5 37t89.5 -37t37.5 -88q0 -52 -37 -88.5t-90 -36.5zM1090 1720q-54 0 -90.5 36t-36.5 89q0 51 36.5 88t90.5 37t90.5 -37t36.5 -88q0 -53 -36.5 -89t-90.5 -36zM868 -33q-163 0 -305.5 60.5t-244.5 165.5t-161 252.5
t-59 316.5q0 168 59 315.5t160.5 252.5t244.5 165.5t306 60.5t305.5 -60.5t244 -165.5t160 -252.5t58.5 -315.5q0 -169 -58.5 -316.5t-160 -252.5t-244 -165.5t-305.5 -60.5zM868 197q101 0 193.5 38.5t165 109t116 179t43.5 238.5t-43.5 239t-116 179.5t-165.5 109.5
t-193 39q-102 0 -195.5 -39t-166 -109.5t-115.5 -179.5t-43 -239q0 -131 43.5 -239.5t116.5 -178.5t166 -108.5t194 -38.5z" />
    <glyph glyph-name="multiply" unicode="&#xd7;" horiz-adv-x="1345" 
d="M1214 1161l-399 -399l399 -400l-141 -141l-399 400l-402 -400l-139 141l399 400l-399 399l141 142l400 -400l399 400z" />
    <glyph glyph-name="Oslash" unicode="&#xd8;" horiz-adv-x="1744" 
d="M1468 1280q174 -215 174 -518q0 -169 -58.5 -316.5t-160 -252.5t-244 -165.5t-305.5 -60.5q-288 0 -493 174l-160 -168l-119 111l166 174q-164 217 -164 504q0 168 59 315.5t160.5 252.5t244.5 165.5t306 60.5q278 0 480 -163l149 157l115 -114zM350 762q0 -185 86 -328
l756 791q-135 108 -318 108q-103 0 -197.5 -39t-167.5 -110t-116 -180.5t-43 -241.5zM874 190q102 0 196 39t167 110.5t116.5 181t43.5 241.5q0 194 -97 342l-757 -795q143 -119 331 -119z" />
    <glyph glyph-name="Ugrave" unicode="&#xd9;" horiz-adv-x="1548" 
d="M719 2034l235 -351h-192l-291 351h248zM768 -33q-273 0 -433.5 171t-160.5 448v938h246v-944q0 -179 93 -281t255 -102q166 0 263 102.5t97 282.5v942h246v-938q0 -277 -164.5 -448t-441.5 -171z" />
    <glyph glyph-name="Uacute" unicode="&#xda;" horiz-adv-x="1548" 
d="M838 2034h247l-290 -351h-193zM768 -33q-273 0 -433.5 171t-160.5 448v938h246v-944q0 -179 93 -281t255 -102q166 0 263 102.5t97 282.5v942h246v-938q0 -277 -164.5 -448t-441.5 -171z" />
    <glyph glyph-name="Ucircumflex" unicode="&#xdb;" horiz-adv-x="1548" 
d="M864 2034l283 -351h-219l-154 203l-153 -203h-215l280 351h178zM768 -33q-273 0 -433.5 171t-160.5 448v938h246v-944q0 -179 93 -281t255 -102q166 0 263 102.5t97 282.5v942h246v-938q0 -277 -164.5 -448t-441.5 -171z" />
    <glyph glyph-name="Udieresis" unicode="&#xdc;" horiz-adv-x="1548" 
d="M555 1720q-53 0 -90 36.5t-37 88.5q0 51 37.5 88t89.5 37t89.5 -37t37.5 -88q0 -52 -37 -88.5t-90 -36.5zM995 1720q-54 0 -90.5 36t-36.5 89q0 51 37 88t90 37t90 -37t37 -88q0 -53 -36.5 -89t-90.5 -36zM768 -33q-273 0 -433.5 171t-160.5 448v938h246v-944
q0 -179 93 -281t255 -102q166 0 263 102.5t97 282.5v942h246v-938q0 -277 -164.5 -448t-441.5 -171z" />
    <glyph glyph-name="Yacute" unicode="&#xdd;" horiz-adv-x="1382" 
d="M758 2034h248l-291 -351h-193zM571 0v629l-563 895h275l411 -672h4l408 672h266l-559 -893v-631h-242z" />
    <glyph glyph-name="Thorn" unicode="&#xde;" horiz-adv-x="1314" 
d="M193 0v1524h245v-228h205q276 0 439 -134.5t163 -375.5q0 -238 -161.5 -384t-430.5 -146h-215v-256h-245zM666 479q148 0 238.5 82t90.5 217q0 137 -89 214t-240 77h-228v-590h228z" />
    <glyph glyph-name="germandbls" unicode="&#xdf;" horiz-adv-x="1380" 
d="M158 1120q0 248 139 391.5t373 143.5q212 0 337.5 -114t125.5 -281q0 -115 -52 -200t-139 -126v-2q158 -41 254 -152.5t96 -294.5q0 -117 -41.5 -212t-114.5 -157.5t-170 -96t-210 -33.5q-103 0 -189 24v209q82 -20 154 -20q143 0 237.5 78t94.5 223q0 136 -90 211
t-248 75h-123v179h43q123 0 195.5 68t72.5 175q0 102 -68 168t-173 66q-115 0 -188 -77t-73 -212v-1153h-243v1120z" />
    <glyph glyph-name="agrave" unicode="&#xe0;" horiz-adv-x="1366" 
d="M651 1626l236 -350h-193l-291 350h248zM594 -27q-96 0 -186.5 42.5t-160.5 117t-112.5 185.5t-42.5 239q0 129 42.5 241t112.5 187t160.5 117.5t186.5 42.5q123 0 225 -58t162 -161l27 192h200v-1118h-200l-27 193q-60 -103 -162.5 -161.5t-224.5 -58.5zM655 195
q135 0 226.5 102.5t91.5 261.5q0 158 -91.5 261.5t-226.5 103.5q-137 0 -229 -103t-92 -262q0 -160 91.5 -262t229.5 -102z" />
    <glyph glyph-name="aacute" unicode="&#xe1;" horiz-adv-x="1366" 
d="M770 1626h248l-291 -350h-192zM594 -27q-96 0 -186.5 42.5t-160.5 117t-112.5 185.5t-42.5 239q0 129 42.5 241t112.5 187t160.5 117.5t186.5 42.5q123 0 225 -58t162 -161l27 192h200v-1118h-200l-27 193q-60 -103 -162.5 -161.5t-224.5 -58.5zM655 195
q135 0 226.5 102.5t91.5 261.5q0 158 -91.5 261.5t-226.5 103.5q-137 0 -229 -103t-92 -262q0 -160 91.5 -262t229.5 -102z" />
    <glyph glyph-name="acircumflex" unicode="&#xe2;" horiz-adv-x="1366" 
d="M797 1626l282 -350h-219l-153 203l-154 -203h-215l280 350h179zM594 -27q-96 0 -186.5 42.5t-160.5 117t-112.5 185.5t-42.5 239q0 129 42.5 241t112.5 187t160.5 117.5t186.5 42.5q123 0 225 -58t162 -161l27 192h200v-1118h-200l-27 193q-60 -103 -162.5 -161.5
t-224.5 -58.5zM655 195q135 0 226.5 102.5t91.5 261.5q0 158 -91.5 261.5t-226.5 103.5q-137 0 -229 -103t-92 -262q0 -160 91.5 -262t229.5 -102z" />
    <glyph glyph-name="atilde" unicode="&#xe3;" horiz-adv-x="1366" 
d="M1112 1573q8 -138 -60.5 -207.5t-177.5 -69.5q-50 0 -96.5 19t-75.5 41.5t-67.5 41.5t-75.5 19q-53 0 -78.5 -34.5t-23.5 -79.5h-158q-7 138 62 207t176 69q42 0 80 -12.5t66 -30.5t54.5 -36.5t56.5 -31t60 -12.5q53 0 78.5 35t23.5 82h156zM594 -27q-96 0 -186.5 42.5
t-160.5 117t-112.5 185.5t-42.5 239q0 129 42.5 241t112.5 187t160.5 117.5t186.5 42.5q123 0 225 -58t162 -161l27 192h200v-1118h-200l-27 193q-60 -103 -162.5 -161.5t-224.5 -58.5zM655 195q135 0 226.5 102.5t91.5 261.5q0 158 -91.5 261.5t-226.5 103.5
q-137 0 -229 -103t-92 -262q0 -160 91.5 -262t229.5 -102z" />
    <glyph glyph-name="adieresis" unicode="&#xe4;" horiz-adv-x="1366" 
d="M487 1313q-53 0 -90 36.5t-37 88.5q0 51 37.5 88t89.5 37t89.5 -37t37.5 -88q0 -52 -37 -88.5t-90 -36.5zM928 1313q-54 0 -90.5 36t-36.5 89q0 52 36.5 88.5t90.5 36.5t90.5 -36.5t36.5 -88.5q0 -53 -36.5 -89t-90.5 -36zM594 -27q-96 0 -186.5 42.5t-160.5 117
t-112.5 185.5t-42.5 239q0 129 42.5 241t112.5 187t160.5 117.5t186.5 42.5q123 0 225 -58t162 -161l27 192h200v-1118h-200l-27 193q-60 -103 -162.5 -161.5t-224.5 -58.5zM655 195q135 0 226.5 102.5t91.5 261.5q0 158 -91.5 261.5t-226.5 103.5q-137 0 -229 -103
t-92 -262q0 -160 91.5 -262t229.5 -102z" />
    <glyph glyph-name="aring" unicode="&#xe5;" horiz-adv-x="1366" 
d="M709 1702q97 0 163 -61t66 -152q0 -92 -66 -153.5t-163 -61.5q-99 0 -165.5 61.5t-66.5 153.5q0 91 67 152t165 61zM709 1591q-47 0 -79 -29.5t-32 -72.5q0 -44 32 -74.5t79 -30.5q45 0 75.5 30t30.5 75q0 43 -30.5 72.5t-75.5 29.5zM594 -27q-96 0 -186.5 42.5
t-160.5 117t-112.5 185.5t-42.5 239q0 129 42.5 241t112.5 187t160.5 117.5t186.5 42.5q123 0 225 -58t162 -161l27 192h200v-1118h-200l-27 193q-60 -103 -162.5 -161.5t-224.5 -58.5zM655 195q135 0 226.5 102.5t91.5 261.5q0 158 -91.5 261.5t-226.5 103.5
q-137 0 -229 -103t-92 -262q0 -160 91.5 -262t229.5 -102z" />
    <glyph glyph-name="ae" unicode="&#xe6;" horiz-adv-x="1914" 
d="M1827 580q0 -52 -6 -95h-799q23 -146 124 -228.5t249 -82.5q195 0 366 133v-217q-173 -117 -391 -117q-303 0 -452 215q-69 -98 -184.5 -156.5t-252.5 -58.5q-175 0 -289 98.5t-114 254.5q0 70 26.5 132.5t77 111.5t133 77.5t185.5 28.5q128 0 297 -37v78
q0 100 -66.5 160.5t-191.5 60.5q-97 0 -194 -36t-167 -91v215q175 119 389 119q133 0 228.5 -50t148.5 -137q72 90 174.5 138.5t220.5 48.5q100 0 188 -37t155 -106t106 -178t39 -244zM1024 651h571q-3 140 -79 216.5t-187 76.5q-115 0 -198.5 -79.5t-106.5 -213.5zM518 168
q114 0 196.5 72.5t82.5 179.5v67q-112 37 -242 37q-126 0 -191 -51t-65 -129t60.5 -127t158.5 -49z" />
    <glyph glyph-name="ccedilla" unicode="&#xe7;" horiz-adv-x="1083" 
d="M688 924q-145 0 -249.5 -101t-104.5 -264q0 -164 104.5 -264t251.5 -100q173 0 291 88v-232q-113 -64 -254 -76q-17 -188 -137 -333h-240q78 90 123.5 171t56.5 175q-196 45 -318 201t-122 372q0 164 75 298t206.5 210t292.5 76q188 0 317 -80v-234q-132 93 -293 93z" />
    <glyph glyph-name="egrave" unicode="&#xe8;" horiz-adv-x="1224" 
d="M821 1276h-192l-291 350h248zM1135 580q0 -44 -7 -95h-804q26 -146 129 -228.5t252 -82.5q193 0 364 133v-217q-173 -117 -389 -117q-272 0 -430 160.5t-158 421.5q0 131 44 242.5t118.5 187t174.5 118t212 42.5q102 0 191 -36.5t157 -106t107 -178.5t39 -244zM324 647
h581q-4 143 -80 220t-186 77q-117 0 -205.5 -81t-109.5 -216z" />
    <glyph glyph-name="eacute" unicode="&#xe9;" horiz-adv-x="1224" 
d="M952 1626l-290 -350h-193l236 350h247zM1135 580q0 -44 -7 -95h-804q26 -146 129 -228.5t252 -82.5q193 0 364 133v-217q-173 -117 -389 -117q-272 0 -430 160.5t-158 421.5q0 131 44 242.5t118.5 187t174.5 118t212 42.5q102 0 191 -36.5t157 -106t107 -178.5t39 -244z
M324 647h581q-4 143 -80 220t-186 77q-117 0 -205.5 -81t-109.5 -216z" />
    <glyph glyph-name="ecircumflex" unicode="&#xea;" horiz-adv-x="1224" 
d="M641 1479l-154 -203h-215l281 350h178l283 -350h-219zM1135 580q0 -44 -7 -95h-804q26 -146 129 -228.5t252 -82.5q193 0 364 133v-217q-173 -117 -389 -117q-272 0 -430 160.5t-158 421.5q0 131 44 242.5t118.5 187t174.5 118t212 42.5q102 0 191 -36.5t157 -106
t107 -178.5t39 -244zM324 647h581q-4 143 -80 220t-186 77q-117 0 -205.5 -81t-109.5 -216z" />
    <glyph glyph-name="edieresis" unicode="&#xeb;" horiz-adv-x="1224" 
d="M422 1313q-53 0 -90 36.5t-37 88.5q0 51 37.5 88t89.5 37t89.5 -37t37.5 -88q0 -52 -37 -88.5t-90 -36.5zM862 1313q-54 0 -90.5 36t-36.5 89q0 52 36.5 88.5t90.5 36.5t90.5 -36.5t36.5 -88.5q0 -53 -36.5 -89t-90.5 -36zM1135 580q0 -44 -7 -95h-804
q26 -146 129 -228.5t252 -82.5q193 0 364 133v-217q-173 -117 -389 -117q-272 0 -430 160.5t-158 421.5q0 131 44 242.5t118.5 187t174.5 118t212 42.5q102 0 191 -36.5t157 -106t107 -178.5t39 -244zM324 647h581q-4 143 -80 220t-186 77q-117 0 -205.5 -81t-109.5 -216z
" />
    <glyph glyph-name="igrave" unicode="&#xec;" horiz-adv-x="565" 
d="M227 1677l236 -350h-193l-290 350h247zM162 0v1118h241v-1118h-241z" />
    <glyph glyph-name="iacute" unicode="&#xed;" horiz-adv-x="565" 
d="M383 1677h248l-291 -350h-193zM162 0v1118h241v-1118h-241z" />
    <glyph glyph-name="icircumflex" unicode="&#xee;" horiz-adv-x="565" 
d="M373 1677l282 -350h-219l-153 203l-154 -203h-215l281 350h178zM162 0v1118h241v-1118h-241z" />
    <glyph glyph-name="idieresis" unicode="&#xef;" horiz-adv-x="565" 
d="M63 1364q-53 0 -89.5 36.5t-36.5 88.5q0 51 37 88t89 37t89.5 -37t37.5 -88q0 -52 -37 -88.5t-90 -36.5zM504 1364q-54 0 -90.5 36t-36.5 89q0 51 36.5 88t90.5 37t90.5 -37t36.5 -88q0 -53 -36.5 -89t-90.5 -36zM162 0v1118h241v-1118h-241z" />
    <glyph glyph-name="eth" unicode="&#xf0;" horiz-adv-x="1325" 
d="M864 1440q183 -230 274 -433t91 -413q0 -276 -162 -448.5t-408 -172.5q-119 0 -224 44.5t-180.5 121t-119 184t-43.5 230.5q0 164 70.5 295.5t189 203.5t260.5 72q163 0 285 -116l6 2q-55 128 -229 340l-197 -93l-49 111l166 76q-83 92 -184 196h282q58 -65 94 -108
l197 90l49 -104zM659 195q63 0 121 25.5t104 71.5t73.5 116.5t27.5 154.5q0 160 -97.5 258.5t-228.5 98.5q-132 0 -228.5 -99.5t-96.5 -263.5t96.5 -263t228.5 -99z" />
    <glyph glyph-name="ntilde" unicode="&#xf1;" horiz-adv-x="1261" 
d="M1055 1573q8 -138 -60.5 -207.5t-177.5 -69.5q-50 0 -96.5 19t-75.5 41.5t-67.5 41.5t-75.5 19q-53 0 -79 -34.5t-24 -79.5h-157q-7 138 61.5 207t175.5 69q51 0 98 -19t76.5 -42.5t68 -42.5t75.5 -19q53 0 78.5 35t23.5 82h156zM717 1145q183 0 290 -108.5t107 -293.5
v-743h-242v666q0 254 -227 254q-105 0 -175.5 -69.5t-70.5 -174.5v-676h-241v1118h186l27 -166h6q51 84 140 138.5t200 54.5z" />
    <glyph glyph-name="ograve" unicode="&#xf2;" horiz-adv-x="1316" 
d="M604 1626l236 -350h-193l-291 350h248zM659 -27q-160 0 -290 75t-204.5 209.5t-74.5 301.5t75 301.5t205 209.5t289 75q160 0 290 -75t204 -209.5t74 -301.5t-74 -301.5t-204 -209.5t-290 -75zM659 195q85 0 157.5 42t119.5 126.5t47 195.5q0 84 -27 154t-72.5 115.5
t-103.5 70.5t-121 25t-121 -25t-103.5 -70.5t-73 -115.5t-27.5 -154t27.5 -154t73 -115t103.5 -70t121 -25z" />
    <glyph glyph-name="oacute" unicode="&#xf3;" horiz-adv-x="1316" 
d="M723 1626h248l-291 -350h-193zM659 -27q-160 0 -290 75t-204.5 209.5t-74.5 301.5t75 301.5t205 209.5t289 75q160 0 290 -75t204 -209.5t74 -301.5t-74 -301.5t-204 -209.5t-290 -75zM659 195q85 0 157.5 42t119.5 126.5t47 195.5q0 84 -27 154t-72.5 115.5t-103.5 70.5
t-121 25t-121 -25t-103.5 -70.5t-73 -115.5t-27.5 -154t27.5 -154t73 -115t103.5 -70t121 -25z" />
    <glyph glyph-name="ocircumflex" unicode="&#xf4;" horiz-adv-x="1316" 
d="M750 1626l282 -350h-219l-154 203l-153 -203h-215l280 350h179zM659 -27q-160 0 -290 75t-204.5 209.5t-74.5 301.5t75 301.5t205 209.5t289 75q160 0 290 -75t204 -209.5t74 -301.5t-74 -301.5t-204 -209.5t-290 -75zM659 195q85 0 157.5 42t119.5 126.5t47 195.5
q0 84 -27 154t-72.5 115.5t-103.5 70.5t-121 25t-121 -25t-103.5 -70.5t-73 -115.5t-27.5 -154t27.5 -154t73 -115t103.5 -70t121 -25z" />
    <glyph glyph-name="otilde" unicode="&#xf5;" horiz-adv-x="1316" 
d="M1065 1573q8 -138 -60.5 -207.5t-177.5 -69.5q-50 0 -96.5 19t-75.5 41.5t-67.5 41.5t-75.5 19q-53 0 -78.5 -34.5t-23.5 -79.5h-158q-7 138 61.5 207t175.5 69q51 0 98 -19t76.5 -42.5t68 -42.5t75.5 -19q53 0 78.5 35t23.5 82h156zM659 -27q-160 0 -290 75
t-204.5 209.5t-74.5 301.5t75 301.5t205 209.5t289 75q160 0 290 -75t204 -209.5t74 -301.5t-74 -301.5t-204 -209.5t-290 -75zM659 195q85 0 157.5 42t119.5 126.5t47 195.5q0 84 -27 154t-72.5 115.5t-103.5 70.5t-121 25t-121 -25t-103.5 -70.5t-73 -115.5t-27.5 -154
t27.5 -154t73 -115t103.5 -70t121 -25z" />
    <glyph glyph-name="odieresis" unicode="&#xf6;" horiz-adv-x="1316" 
d="M440 1313q-53 0 -90 36.5t-37 88.5q0 51 37.5 88t89.5 37t89.5 -37t37.5 -88q0 -52 -37 -88.5t-90 -36.5zM881 1313q-54 0 -90.5 36t-36.5 89q0 52 37 88.5t90 36.5t90 -36.5t37 -88.5q0 -53 -36.5 -89t-90.5 -36zM659 -27q-160 0 -290 75t-204.5 209.5t-74.5 301.5
t75 301.5t205 209.5t289 75q160 0 290 -75t204 -209.5t74 -301.5t-74 -301.5t-204 -209.5t-290 -75zM659 195q85 0 157.5 42t119.5 126.5t47 195.5q0 84 -27 154t-72.5 115.5t-103.5 70.5t-121 25t-121 -25t-103.5 -70.5t-73 -115.5t-27.5 -154t27.5 -154t73 -115t103.5 -70
t121 -25z" />
    <glyph glyph-name="divide" unicode="&#xf7;" horiz-adv-x="1415" 
d="M705 1004q-63 0 -105.5 43t-42.5 106t42.5 106.5t105.5 43.5q64 0 106.5 -43.5t42.5 -106.5t-42.5 -106t-106.5 -43zM137 659v205h1139v-205h-1139zM705 221q-63 0 -105.5 43.5t-42.5 106.5t42.5 106t105.5 43q64 0 106.5 -43t42.5 -106t-42.5 -106.5t-106.5 -43.5z" />
    <glyph glyph-name="oslash" unicode="&#xf8;" horiz-adv-x="1325" 
d="M1229 1038l-113 -116q113 -154 113 -363q0 -167 -74 -301.5t-203.5 -209.5t-289.5 -75q-197 0 -345 113l-106 -111l-102 99l106 112q-121 156 -121 373q0 167 74.5 301.5t204.5 209.5t289 75q207 0 356 -121l108 115zM315 559q0 -120 54 -213l499 524q-92 70 -206 70
q-67 0 -128.5 -25.5t-110.5 -73t-78.5 -121t-29.5 -161.5zM1008 559q0 118 -47 201l-496 -518q89 -64 197 -64q67 0 129 25.5t110.5 73t77.5 120.5t29 162z" />
    <glyph glyph-name="ugrave" unicode="&#xf9;" horiz-adv-x="1245" 
d="M567 1626l236 -350h-193l-291 350h248zM618 -27q-219 0 -346 128.5t-127 336.5v680h242v-682q0 -115 61 -178t170 -63q113 0 177.5 63.5t64.5 179.5v680h242v-678q0 -208 -131 -337.5t-353 -129.5z" />
    <glyph glyph-name="uacute" unicode="&#xfa;" horiz-adv-x="1245" 
d="M686 1626h248l-291 -350h-192zM618 -27q-219 0 -346 128.5t-127 336.5v680h242v-682q0 -115 61 -178t170 -63q113 0 177.5 63.5t64.5 179.5v680h242v-678q0 -208 -131 -337.5t-353 -129.5z" />
    <glyph glyph-name="ucircumflex" unicode="&#xfb;" horiz-adv-x="1245" 
d="M713 1626l282 -350h-219l-153 203l-154 -203h-215l281 350h178zM618 -27q-219 0 -346 128.5t-127 336.5v680h242v-682q0 -115 61 -178t170 -63q113 0 177.5 63.5t64.5 179.5v680h242v-678q0 -208 -131 -337.5t-353 -129.5z" />
    <glyph glyph-name="udieresis" unicode="&#xfc;" horiz-adv-x="1245" 
d="M403 1313q-53 0 -90 36.5t-37 88.5q0 51 37.5 88t89.5 37t89.5 -37t37.5 -88q0 -52 -37 -88.5t-90 -36.5zM844 1313q-54 0 -90.5 36t-36.5 89q0 52 36.5 88.5t90.5 36.5t90.5 -36.5t36.5 -88.5q0 -53 -36.5 -89t-90.5 -36zM618 -27q-219 0 -346 128.5t-127 336.5v680h242
v-682q0 -115 61 -178t170 -63q113 0 177.5 63.5t64.5 179.5v680h242v-678q0 -208 -131 -337.5t-353 -129.5z" />
    <glyph glyph-name="yacute" unicode="&#xfd;" horiz-adv-x="1148" 
d="M645 1626h248l-291 -350h-192zM1116 1118l-608 -1548h-244l193 467l-420 1081h262l281 -807h4l282 807h250z" />
    <glyph glyph-name="thorn" unicode="&#xfe;" horiz-adv-x="1366" 
d="M399 1640v-706q56 94 158 147.5t215 53.5q100 0 190.5 -41t159.5 -114.5t109.5 -183t40.5 -237.5t-40.5 -237.5t-109.5 -182.5t-159.5 -114t-190.5 -41q-116 0 -214 50t-159 152v-616h-241v2070h241zM707 915q-133 0 -221.5 -98.5t-88.5 -257.5t88.5 -257.5t221.5 -98.5
q136 0 226.5 98.5t90.5 257.5q0 160 -90.5 258t-226.5 98z" />
    <glyph glyph-name="ydieresis" unicode="&#xff;" horiz-adv-x="1148" 
d="M362 1313q-53 0 -89.5 36.5t-36.5 88.5q0 51 37 88t89 37t89.5 -37t37.5 -88q0 -52 -37 -88.5t-90 -36.5zM803 1313q-54 0 -90.5 36t-36.5 89q0 52 37 88.5t90 36.5t90 -36.5t37 -88.5q0 -53 -36.5 -89t-90.5 -36zM1116 1118l-608 -1548h-244l193 467l-420 1081h262
l281 -807h4l282 807h250z" />
    <glyph glyph-name="Amacron" unicode="&#x100;" horiz-adv-x="1495" 
d="M391 1763v164h707v-164h-707zM1479 0h-260l-162 428h-621l-162 -428h-256l588 1524h281zM745 1262l-235 -623h473z" />
    <glyph glyph-name="amacron" unicode="&#x101;" horiz-adv-x="1366" 
d="M352 1356v164h707v-164h-707zM594 -27q-96 0 -186.5 42.5t-160.5 117t-112.5 185.5t-42.5 239q0 129 42.5 241t112.5 187t160.5 117.5t186.5 42.5q123 0 225 -58t162 -161l27 192h200v-1118h-200l-27 193q-60 -103 -162.5 -161.5t-224.5 -58.5zM655 195
q135 0 226.5 102.5t91.5 261.5q0 158 -91.5 261.5t-226.5 103.5q-137 0 -229 -103t-92 -262q0 -160 91.5 -262t229.5 -102z" />
    <glyph glyph-name="Abreve" unicode="&#x102;" horiz-adv-x="1495" 
d="M1106 2028q4 -80 -27 -145t-84 -104.5t-117.5 -61t-132.5 -21.5t-132.5 21.5t-117 61t-83.5 104.5t-27 145h170q3 -74 53.5 -123.5t136.5 -49.5t137 49.5t54 123.5h170zM1479 0h-260l-162 428h-621l-162 -428h-256l588 1524h281zM745 1262l-235 -623h473z" />
    <glyph glyph-name="abreve" unicode="&#x103;" horiz-adv-x="1366" 
d="M1067 1620q4 -80 -27 -145t-83.5 -104.5t-117 -61t-132.5 -21.5t-132.5 21.5t-117.5 61t-84 104.5t-27 145h170q3 -74 54 -123t137 -49t136.5 49t53.5 123h170zM594 -27q-96 0 -186.5 42.5t-160.5 117t-112.5 185.5t-42.5 239q0 129 42.5 241t112.5 187t160.5 117.5
t186.5 42.5q123 0 225 -58t162 -161l27 192h200v-1118h-200l-27 193q-60 -103 -162.5 -161.5t-224.5 -58.5zM655 195q135 0 226.5 102.5t91.5 261.5q0 158 -91.5 261.5t-226.5 103.5q-137 0 -229 -103t-92 -262q0 -160 91.5 -262t229.5 -102z" />
    <glyph glyph-name="Aogonek" unicode="&#x104;" horiz-adv-x="1495" 
d="M1288 -197q0 -50 35.5 -78t87.5 -28q55 0 68 10v-143q-11 -7 -44 -14t-69 -7q-116 0 -190 60t-74 161q0 128 127 236h-10l-162 428h-621l-162 -428h-256l588 1524h281l592 -1524q-191 -101 -191 -197zM510 639h473l-238 623z" />
    <glyph glyph-name="aogonek" unicode="&#x105;" horiz-adv-x="1366" 
d="M1208 0q-190 -101 -190 -197q0 -50 35.5 -78t87.5 -28q54 0 67 10v-143q-11 -7 -43.5 -14t-68.5 -7q-116 0 -190.5 60t-74.5 161q0 146 173 271l-23 158q-60 -103 -162.5 -161.5t-224.5 -58.5q-96 0 -186.5 42.5t-160.5 117t-112.5 185.5t-42.5 239q0 129 42.5 241
t112.5 187t160.5 117.5t186.5 42.5q123 0 225 -58t162 -161l27 192h200v-1118zM655 195q135 0 226.5 102.5t91.5 261.5q0 158 -91.5 261.5t-226.5 103.5q-137 0 -229 -103t-92 -262q0 -160 91.5 -262t229.5 -102z" />
    <glyph glyph-name="Cacute" unicode="&#x106;" horiz-adv-x="1370" 
d="M918 2034h247l-291 -351h-192zM1276 72q-191 -103 -410 -103q-153 0 -292 57t-245 158t-168.5 252t-62.5 328q0 176 62.5 326.5t168.5 251.5t245 157.5t292 56.5q221 0 410 -102v-252q-98 63 -188.5 94t-202.5 31q-103 0 -199.5 -39.5t-171.5 -110.5t-120.5 -179
t-45.5 -236q0 -126 45.5 -234t120.5 -179t171.5 -110.5t199.5 -39.5q111 0 201.5 31.5t189.5 95.5v-254z" />
    <glyph glyph-name="cacute" unicode="&#x107;" horiz-adv-x="1083" 
d="M692 1626h248l-291 -350h-192zM334 559q0 -164 104.5 -264t251.5 -100q173 0 291 88v-232q-137 -78 -317 -78q-161 0 -292.5 76t-206.5 211t-75 301q0 164 75 298t206.5 210t292.5 76q188 0 317 -80v-234q-132 93 -293 93q-145 0 -249.5 -101t-104.5 -264z" />
    <glyph glyph-name="Cdotaccent" unicode="&#x10a;" horiz-adv-x="1370" 
d="M852 1720q-51 0 -88 36.5t-37 88.5q0 51 37 88t88 37q54 0 91.5 -37t37.5 -88q0 -52 -37.5 -88.5t-91.5 -36.5zM1276 72q-191 -103 -410 -103q-153 0 -292 57t-245 158t-168.5 252t-62.5 328q0 176 62.5 326.5t168.5 251.5t245 157.5t292 56.5q221 0 410 -102v-252
q-98 63 -188.5 94t-202.5 31q-103 0 -199.5 -39.5t-171.5 -110.5t-120.5 -179t-45.5 -236q0 -126 45.5 -234t120.5 -179t171.5 -110.5t199.5 -39.5q111 0 201.5 31.5t189.5 95.5v-254z" />
    <glyph glyph-name="cdotaccent" unicode="&#x10b;" horiz-adv-x="1083" 
d="M627 1313q-51 0 -88 36.5t-37 88.5q0 51 37 88t88 37q54 0 91.5 -37t37.5 -88q0 -52 -37.5 -88.5t-91.5 -36.5zM334 559q0 -164 104.5 -264t251.5 -100q173 0 291 88v-232q-137 -78 -317 -78q-161 0 -292.5 76t-206.5 211t-75 301q0 164 75 298t206.5 210t292.5 76
q188 0 317 -80v-234q-132 93 -293 93q-145 0 -249.5 -101t-104.5 -264z" />
    <glyph glyph-name="Ccaron" unicode="&#x10c;" horiz-adv-x="1370" 
d="M1225 2034l-285 -351h-172l-285 351h219l152 -203l154 203h217zM1276 72q-191 -103 -410 -103q-153 0 -292 57t-245 158t-168.5 252t-62.5 328q0 176 62.5 326.5t168.5 251.5t245 157.5t292 56.5q221 0 410 -102v-252q-98 63 -188.5 94t-202.5 31q-103 0 -199.5 -39.5
t-171.5 -110.5t-120.5 -179t-45.5 -236q0 -126 45.5 -234t120.5 -179t171.5 -110.5t199.5 -39.5q111 0 201.5 31.5t189.5 95.5v-254z" />
    <glyph glyph-name="ccaron" unicode="&#x10d;" horiz-adv-x="1083" 
d="M999 1626l-284 -350h-172l-285 350h219l152 -203l153 203h217zM334 559q0 -164 104.5 -264t251.5 -100q173 0 291 88v-232q-137 -78 -317 -78q-161 0 -292.5 76t-206.5 211t-75 301q0 164 75 298t206.5 210t292.5 76q188 0 317 -80v-234q-132 93 -293 93
q-145 0 -249.5 -101t-104.5 -264z" />
    <glyph glyph-name="Dcaron" unicode="&#x10e;" horiz-adv-x="1511" 
d="M1104 2034l-285 -351h-172l-285 351h220l151 -203l154 203h217zM592 1524q370 0 594.5 -209t224.5 -553q0 -227 -103.5 -401t-289 -267.5t-426.5 -93.5h-399v1524h399zM438 1298v-1073h164q251 0 405 142.5t154 394.5q0 253 -153.5 394.5t-403.5 141.5h-166z" />
    <glyph glyph-name="dcaron" unicode="&#x10f;" horiz-adv-x="1470" 
d="M598 -27q-98 0 -189.5 42t-162 116t-112.5 186t-42 242t42 242t112 186t161 116t189 42q118 0 218 -55.5t155 -153.5v704h241v-1640h-200l-29 193q-58 -103 -160.5 -161.5t-222.5 -58.5zM1368 1208q2 15 9.5 60t11.5 85t4 87q0 96 -33 200h217q14 -68 14 -127
q0 -144 -67 -305h-156zM655 195q135 0 226.5 102.5t91.5 261.5q0 158 -91.5 261.5t-226.5 103.5q-137 0 -228 -103t-91 -262q0 -160 90.5 -262t228.5 -102z" />
    <glyph glyph-name="Dcroat" unicode="&#x110;" horiz-adv-x="1536" 
d="M618 1524q370 0 595 -209t225 -553q0 -227 -103.5 -401t-289.5 -267.5t-427 -93.5h-399v672h-186v184h186v668h399zM629 225q251 0 405 142.5t154 394.5q0 253 -153.5 394.5t-403.5 141.5h-166v-442h362v-184h-362v-447h164z" />
    <glyph glyph-name="dcroat" unicode="&#x111;" horiz-adv-x="1368" 
d="M1368 1464v-176h-158v-1288h-200l-29 193q-58 -103 -160.5 -161.5t-222.5 -58.5q-98 0 -189.5 42t-162 116t-112.5 186t-42 242t42 242t112 186t161 116t189 42q118 0 218 -55.5t155 -153.5v352h-316v176h316v176h241v-176h158zM655 195q135 0 226.5 102.5t91.5 261.5
q0 158 -91.5 261.5t-226.5 103.5q-137 0 -228 -103t-91 -262q0 -160 90.5 -262t228.5 -102z" />
    <glyph glyph-name="Emacron" unicode="&#x112;" horiz-adv-x="1206" 
d="M274 1763v164h707v-164h-707zM193 0v1524h882v-224h-637v-419h586v-211h-586v-447h637v-223h-882z" />
    <glyph glyph-name="emacron" unicode="&#x113;" horiz-adv-x="1224" 
d="M993 1520v-164h-706v164h706zM1135 580q0 -44 -7 -95h-804q26 -146 129 -228.5t252 -82.5q193 0 364 133v-217q-173 -117 -389 -117q-272 0 -430 160.5t-158 421.5q0 131 44 242.5t118.5 187t174.5 118t212 42.5q102 0 191 -36.5t157 -106t107 -178.5t39 -244zM324 647
h581q-4 143 -80 220t-186 77q-117 0 -205.5 -81t-109.5 -216z" />
    <glyph glyph-name="Edotaccent" unicode="&#x116;" horiz-adv-x="1206" 
d="M627 1720q-51 0 -88 36.5t-37 88.5q0 51 37 88t88 37q54 0 91.5 -37t37.5 -88q0 -52 -37.5 -88.5t-91.5 -36.5zM193 0v1524h882v-224h-637v-419h586v-211h-586v-447h637v-223h-882z" />
    <glyph glyph-name="edotaccent" unicode="&#x117;" horiz-adv-x="1224" 
d="M639 1313q-51 0 -88 36.5t-37 88.5q0 51 37 88t88 37q54 0 91.5 -37t37.5 -88q0 -52 -37.5 -88.5t-91.5 -36.5zM1135 580q0 -44 -7 -95h-804q26 -146 129 -228.5t252 -82.5q193 0 364 133v-217q-173 -117 -389 -117q-272 0 -430 160.5t-158 421.5q0 131 44 242.5
t118.5 187t174.5 118t212 42.5q102 0 191 -36.5t157 -106t107 -178.5t39 -244zM324 647h581q-4 143 -80 220t-186 77q-117 0 -205.5 -81t-109.5 -216z" />
    <glyph glyph-name="Eogonek" unicode="&#x118;" horiz-adv-x="1206" 
d="M1075 1300h-637v-419h586v-211h-586v-447h637v-223h-16q-191 -101 -191 -197q0 -50 35.5 -78t87.5 -28q55 0 68 10v-143q-11 -7 -44 -14t-69 -7q-116 0 -190 60t-74 161q0 128 127 236h-616v1524h882v-224z" />
    <glyph glyph-name="eogonek" unicode="&#x119;" horiz-adv-x="1224" 
d="M1135 580q0 -44 -7 -95h-798q23 -146 124.5 -228.5t250.5 -82.5q193 0 364 133v-217q-131 -93 -197.5 -160t-66.5 -127q0 -50 35.5 -78t89.5 -28q50 0 67 10v-143q-11 -7 -44.5 -14t-69.5 -7q-116 0 -190.5 60t-74.5 161q0 109 97 209h-35q-272 0 -430 160.5t-158 421.5
q0 131 44 242.5t118.5 187t174.5 118t212 42.5q102 0 191 -36.5t157 -106t107 -178.5t39 -244zM332 651h573q-4 140 -80 216.5t-186 76.5q-115 0 -199.5 -79.5t-107.5 -213.5z" />
    <glyph glyph-name="Ecaron" unicode="&#x11a;" horiz-adv-x="1206" 
d="M999 2034l-284 -351h-172l-285 351h219l152 -203l153 203h217zM193 0v1524h882v-224h-637v-419h586v-211h-586v-447h637v-223h-882z" />
    <glyph glyph-name="ecaron" unicode="&#x11b;" horiz-adv-x="1224" 
d="M727 1276h-172l-285 350h219l152 -203l154 203h217zM1135 580q0 -44 -7 -95h-804q26 -146 129 -228.5t252 -82.5q193 0 364 133v-217q-173 -117 -389 -117q-272 0 -430 160.5t-158 421.5q0 131 44 242.5t118.5 187t174.5 118t212 42.5q102 0 191 -36.5t157 -106
t107 -178.5t39 -244zM324 647h581q-4 143 -80 220t-186 77q-117 0 -205.5 -81t-109.5 -216z" />
    <glyph glyph-name="Gbreve" unicode="&#x11e;" horiz-adv-x="1495" 
d="M1210 2028q4 -80 -27 -145t-83.5 -104.5t-117 -61t-132.5 -21.5t-132.5 21.5t-117.5 61t-84 104.5t-27 145h170q3 -74 54 -123.5t137 -49.5t136.5 49.5t53.5 123.5h170zM348 760q0 -123 40 -228.5t109.5 -178.5t165.5 -114.5t205 -41.5q148 0 269 59v567h229v-714
q-231 -142 -502 -142q-153 0 -292.5 57t-244.5 158.5t-167 252.5t-62 327q0 177 62 327.5t167 251.5t245 158t296 57q255 0 449 -112v-250q-192 127 -428 127q-232 0 -386.5 -158t-154.5 -403z" />
    <glyph glyph-name="gbreve" unicode="&#x11f;" horiz-adv-x="1361" 
d="M1071 1620q4 -80 -27 -145t-83.5 -104.5t-117 -61t-132.5 -21.5t-132.5 21.5t-117.5 61t-84 104.5t-27 145h170q3 -74 54 -123t137 -49t136.5 49t53.5 123h170zM598 1143q117 0 218.5 -56.5t160.5 -152.5l27 184h200v-1007q0 -135 -45.5 -244t-124.5 -179t-183.5 -107.5
t-225.5 -37.5q-113 0 -222 35.5t-198 99.5v244q87 -76 193 -119t210 -43q152 0 253.5 89t101.5 229v143q-58 -93 -155.5 -147t-213.5 -54q-98 0 -189 41t-160.5 113.5t-111 178.5t-41.5 229q0 120 42.5 226t112.5 178.5t161.5 114.5t189.5 42zM651 924q-135 0 -226 -99
t-91 -245t91 -244t226 -98t226.5 99.5t91.5 248.5q0 146 -91 242t-227 96z" />
    <glyph glyph-name="Gdotaccent" unicode="&#x120;" horiz-adv-x="1495" 
d="M848 1720q-51 0 -88 36.5t-37 88.5q0 51 37 88t88 37q54 0 91.5 -37t37.5 -88q0 -52 -37.5 -88.5t-91.5 -36.5zM348 760q0 -123 40 -228.5t109.5 -178.5t165.5 -114.5t205 -41.5q148 0 269 59v567h229v-714q-231 -142 -502 -142q-153 0 -292.5 57t-244.5 158.5
t-167 252.5t-62 327q0 177 62 327.5t167 251.5t245 158t296 57q255 0 449 -112v-250q-192 127 -428 127q-232 0 -386.5 -158t-154.5 -403z" />
    <glyph glyph-name="gdotaccent" unicode="&#x121;" horiz-adv-x="1361" 
d="M709 1313q-51 0 -88 36.5t-37 88.5q0 51 37 88t88 37q54 0 91.5 -37t37.5 -88q0 -52 -37.5 -88.5t-91.5 -36.5zM598 1143q117 0 218.5 -56.5t160.5 -152.5l27 184h200v-1007q0 -135 -45.5 -244t-124.5 -179t-183.5 -107.5t-225.5 -37.5q-113 0 -222 35.5t-198 99.5v244
q87 -76 193 -119t210 -43q152 0 253.5 89t101.5 229v143q-58 -93 -155.5 -147t-213.5 -54q-98 0 -189 41t-160.5 113.5t-111 178.5t-41.5 229q0 120 42.5 226t112.5 178.5t161.5 114.5t189.5 42zM651 924q-135 0 -226 -99t-91 -245t91 -244t226 -98t226.5 99.5t91.5 248.5
q0 146 -91 242t-227 96z" />
    <glyph glyph-name="uni0122" unicode="&#x122;" horiz-adv-x="1495" 
d="M348 760q0 -123 40 -228.5t109.5 -178.5t165.5 -114.5t205 -41.5q148 0 269 59v567h229v-714q-231 -142 -502 -142q-153 0 -292.5 57t-244.5 158.5t-167 252.5t-62 327q0 177 62 327.5t167 251.5t245 158t296 57q255 0 449 -112v-250q-192 127 -428 127
q-232 0 -386.5 -158t-154.5 -403zM918 -162q40 -214 -97 -442h-170q102 234 47 442h220z" />
    <glyph glyph-name="uni0123" unicode="&#x123;" horiz-adv-x="1361" 
d="M606 1280q-41 215 96 442h170q-102 -234 -47 -442h-219zM598 1143q117 0 218.5 -56.5t160.5 -152.5l27 184h200v-1007q0 -135 -45.5 -244t-124.5 -179t-183.5 -107.5t-225.5 -37.5q-113 0 -222 35.5t-198 99.5v244q87 -76 193 -119t210 -43q152 0 253.5 89t101.5 229v143
q-58 -93 -155.5 -147t-213.5 -54q-98 0 -189 41t-160.5 113.5t-111 178.5t-41.5 229q0 120 42.5 226t112.5 178.5t161.5 114.5t189.5 42zM651 924q-135 0 -226 -99t-91 -245t91 -244t226 -98t226.5 99.5t91.5 248.5q0 146 -91 242t-227 96z" />
    <glyph glyph-name="Hbar" unicode="&#x126;" horiz-adv-x="1642" 
d="M1575 1290v-186h-139v-1104h-246v655h-735v-655h-246v1104h-160v186h160v234h246v-234h735v234h246v-234h139zM1190 883v221h-735v-221h735z" />
    <glyph glyph-name="hbar" unicode="&#x127;" horiz-adv-x="1261" 
d="M715 1145q186 0 292.5 -105t106.5 -299v-741h-242v668q0 256 -225 256q-107 0 -177.5 -63t-70.5 -179v-682h-241v1288h-160v176h160v176h241v-176h314v-176h-314v-295h4q49 68 132 110t180 42z" />
    <glyph glyph-name="Imacron" unicode="&#x12a;" horiz-adv-x="630" 
d="M-39 1763v164h707v-164h-707zM193 0v1524h245v-1524h-245z" />
    <glyph glyph-name="imacron" unicode="&#x12b;" horiz-adv-x="565" 
d="M-70 1407v164h707v-164h-707zM162 0v1118h241v-1118h-241z" />
    <glyph glyph-name="Iogonek" unicode="&#x12e;" horiz-adv-x="630" 
d="M438 0q-190 -101 -190 -197q0 -50 35.5 -78t87.5 -28q54 0 67 10v-143q-11 -7 -43.5 -14t-68.5 -7q-116 0 -190.5 60t-74.5 161q0 128 132 240v1520h245v-1524z" />
    <glyph glyph-name="iogonek" unicode="&#x12f;" horiz-adv-x="565" 
d="M285 1335q-60 0 -101 40t-41 98q0 60 41 99.5t101 39.5t100.5 -39.5t40.5 -99.5q0 -59 -40.5 -98.5t-100.5 -39.5zM164 8v1110h242v-1118h-3q-190 -101 -190 -197q0 -50 35.5 -78t87.5 -28q54 0 67 10v-143q-11 -7 -43.5 -14t-68.5 -7q-116 0 -190 60t-74 161
q0 134 137 244z" />
    <glyph glyph-name="Idotaccent" unicode="&#x130;" horiz-adv-x="630" 
d="M313 1720q-51 0 -88 36.5t-37 88.5q0 51 37 88t88 37q54 0 91.5 -37t37.5 -88q0 -52 -37.5 -88.5t-91.5 -36.5zM193 0v1524h245v-1524h-245z" />
    <glyph glyph-name="dotlessi" unicode="&#x131;" horiz-adv-x="565" 
d="M162 0v1118h241v-1118h-241z" />
    <glyph glyph-name="IJ" unicode="&#x132;" horiz-adv-x="1601" 
d="M193 0v1524h245v-1524h-245zM684 330q111 -127 256 -127q111 0 174.5 71.5t63.5 206.5v1043h245v-1078q0 -210 -120 -340.5t-328 -130.5q-81 0 -158 27t-133 74v254z" />
    <glyph glyph-name="ij" unicode="&#x133;" horiz-adv-x="1132" 
d="M283 1335q-60 0 -101 40t-41 98q0 60 41 99.5t101 39.5t100.5 -39.5t40.5 -99.5q0 -59 -40.5 -98.5t-100.5 -39.5zM852 1335q-60 0 -100.5 39.5t-40.5 98.5q0 60 40.5 99.5t100.5 39.5t100.5 -39.5t40.5 -99.5q0 -59 -40.5 -98.5t-100.5 -39.5zM162 0v1118h241v-1118
h-241zM522 -430q108 118 158.5 252.5t50.5 329.5v966h242v-950q0 -190 -41 -333t-135 -265h-275z" />
    <glyph glyph-name="uni0136" unicode="&#x136;" horiz-adv-x="1396" 
d="M707 770l686 -770h-306l-649 739v-739h-245v1524h245v-733l647 733h295zM625 -162h219q41 -215 -96 -442h-170q102 234 47 442z" />
    <glyph glyph-name="uni0137" unicode="&#x137;" horiz-adv-x="1181" 
d="M672 586l502 -586h-306l-469 557v-557h-241v1640h241v-1040l461 518h295zM492 -162h219q40 -214 -97 -442h-170q102 236 48 442z" />
    <glyph glyph-name="kgreenlandic" unicode="&#x138;" horiz-adv-x="1181" 
d="M1174 0h-306l-469 557v-557h-241v1118h241v-518l461 518h295l-483 -532z" />
    <glyph glyph-name="Lacute" unicode="&#x139;" horiz-adv-x="1138" 
d="M379 2034h248l-291 -351h-193zM193 0v1524h245v-1299h656v-225h-901z" />
    <glyph glyph-name="lacute" unicode="&#x13a;" horiz-adv-x="565" 
d="M346 2148h248l-291 -350h-192zM162 0v1640h241v-1640h-241z" />
    <glyph glyph-name="uni013B" unicode="&#x13b;" horiz-adv-x="1138" 
d="M193 0v1524h245v-1299h656v-225h-901zM748 -162q40 -214 -97 -442h-170q102 234 47 442h220z" />
    <glyph glyph-name="uni013C" unicode="&#x13c;" horiz-adv-x="565" 
d="M162 0v1640h241v-1640h-241zM387 -162q41 -215 -96 -442h-170q102 234 47 442h219z" />
    <glyph glyph-name="Lcaron" unicode="&#x13d;" horiz-adv-x="1142" 
d="M596 1208q2 15 9.5 60t11.5 85t4 87q0 96 -33 200h217q14 -68 14 -127q0 -144 -67 -305h-156zM193 0v1524h245v-1299h656v-225h-901z" />
    <glyph glyph-name="lcaron" unicode="&#x13e;" horiz-adv-x="663" 
d="M162 0v1640h241v-1640h-241zM563 1208q2 15 9.5 60t11.5 85t4 87q0 96 -33 200h217q14 -68 14 -127q0 -144 -67 -305h-156z" />
    <glyph glyph-name="Ldot" unicode="&#x13f;" horiz-adv-x="1191" 
d="M193 0v1524h245v-1299h656v-225h-901zM887 668q-63 0 -106.5 42t-43.5 105q0 64 43.5 107t106.5 43t106 -43t43 -107q0 -63 -43 -105t-106 -42z" />
    <glyph glyph-name="ldot" unicode="&#x140;" horiz-adv-x="837" 
d="M162 0v1640h241v-1640h-241zM700 672q-63 0 -106 42t-43 105q0 64 43 107t106 43t106.5 -43t43.5 -107q0 -63 -43.5 -105t-106.5 -42z" />
    <glyph glyph-name="Lslash" unicode="&#x141;" horiz-adv-x="1196" 
d="M496 225h655v-225h-901v492l-201 -115v225l201 115v807h246v-664l370 213v-225l-370 -213v-410z" />
    <glyph glyph-name="lslash" unicode="&#x142;" horiz-adv-x="843" 
d="M797 1149v-221l-246 -140v-788h-242v653l-243 -137v223l243 138v763h242v-628z" />
    <glyph glyph-name="Nacute" unicode="&#x143;" horiz-adv-x="1634" 
d="M897 2034h248l-291 -351h-192zM1442 1524v-1524h-230l-782 1133h-2v-1133h-235v1524h241l768 -1112h2v1112h238z" />
    <glyph glyph-name="nacute" unicode="&#x144;" horiz-adv-x="1261" 
d="M713 1626h248l-291 -350h-193zM717 1145q183 0 290 -108.5t107 -293.5v-743h-242v666q0 254 -227 254q-105 0 -175.5 -69.5t-70.5 -174.5v-676h-241v1118h186l27 -166h6q51 84 140 138.5t200 54.5z" />
    <glyph glyph-name="uni0145" unicode="&#x145;" horiz-adv-x="1634" 
d="M1442 1524v-1524h-230l-782 1133h-2v-1133h-235v1524h241l768 -1112h2v1112h238zM932 -162q41 -215 -96 -442h-170q102 234 47 442h219z" />
    <glyph glyph-name="uni0146" unicode="&#x146;" horiz-adv-x="1261" 
d="M717 1145q183 0 290 -108.5t107 -293.5v-743h-242v666q0 254 -227 254q-105 0 -175.5 -69.5t-70.5 -174.5v-676h-241v1118h186l27 -166h6q51 84 140 138.5t200 54.5zM739 -162q41 -215 -96 -442h-170q102 234 47 442h219z" />
    <glyph glyph-name="Ncaron" unicode="&#x147;" horiz-adv-x="1634" 
d="M1204 2034l-284 -351h-172l-285 351h219l152 -203l153 203h217zM1442 1524v-1524h-230l-782 1133h-2v-1133h-235v1524h241l768 -1112h2v1112h238z" />
    <glyph glyph-name="ncaron" unicode="&#x148;" horiz-adv-x="1261" 
d="M1020 1626l-285 -350h-172l-284 350h219l151 -203l154 203h217zM717 1145q183 0 290 -108.5t107 -293.5v-743h-242v666q0 254 -227 254q-105 0 -175.5 -69.5t-70.5 -174.5v-676h-241v1118h186l27 -166h6q51 84 140 138.5t200 54.5z" />
    <glyph glyph-name="Eng" unicode="&#x14a;" horiz-adv-x="1654" 
d="M1227 1524h235v-1508q0 -211 -119 -342t-327 -131q-81 0 -159 27.5t-132 75.5v252q111 -127 254 -127q104 0 170.5 62.5t75.5 180.5l-795 1139h-2v-1153h-235v1524h241l791 -1133h2v1133z" />
    <glyph glyph-name="eng" unicode="&#x14b;" horiz-adv-x="1259" 
d="M1114 743v-575q0 -190 -41 -333t-135 -265h-274q108 118 158 252.5t50 329.5v514q0 254 -227 254q-105 0 -175.5 -69.5t-70.5 -174.5v-676h-241v1118h186l27 -166h6q51 84 140 138.5t200 54.5q183 0 290 -108.5t107 -293.5z" />
    <glyph glyph-name="Omacron" unicode="&#x14c;" horiz-adv-x="1734" 
d="M514 1763v164h707v-164h-707zM868 -33q-163 0 -305.5 60.5t-244.5 165.5t-161 252.5t-59 316.5q0 168 59 315.5t160.5 252.5t244.5 165.5t306 60.5t305.5 -60.5t244 -165.5t160 -252.5t58.5 -315.5q0 -169 -58.5 -316.5t-160 -252.5t-244 -165.5t-305.5 -60.5zM868 197
q101 0 193.5 38.5t165 109t116 179t43.5 238.5t-43.5 239t-116 179.5t-165.5 109.5t-193 39q-102 0 -195.5 -39t-166 -109.5t-115.5 -179.5t-43 -239q0 -131 43.5 -239.5t116.5 -178.5t166 -108.5t194 -38.5z" />
    <glyph glyph-name="omacron" unicode="&#x14d;" horiz-adv-x="1316" 
d="M305 1356v164h707v-164h-707zM659 -27q-160 0 -290 75t-204.5 209.5t-74.5 301.5t75 301.5t205 209.5t289 75q160 0 290 -75t204 -209.5t74 -301.5t-74 -301.5t-204 -209.5t-290 -75zM659 195q85 0 157.5 42t119.5 126.5t47 195.5q0 84 -27 154t-72.5 115.5t-103.5 70.5
t-121 25t-121 -25t-103.5 -70.5t-73 -115.5t-27.5 -154t27.5 -154t73 -115t103.5 -70t121 -25z" />
    <glyph glyph-name="Ohungarumlaut" unicode="&#x150;" horiz-adv-x="1734" 
d="M1069 2034l-362 -351h-199l305 351h256zM1452 2034l-362 -351h-197l303 351h256zM868 -33q-163 0 -305.5 60.5t-244.5 165.5t-161 252.5t-59 316.5q0 168 59 315.5t160.5 252.5t244.5 165.5t306 60.5t305.5 -60.5t244 -165.5t160 -252.5t58.5 -315.5q0 -169 -58.5 -316.5
t-160 -252.5t-244 -165.5t-305.5 -60.5zM868 197q101 0 193.5 38.5t165 109t116 179t43.5 238.5t-43.5 239t-116 179.5t-165.5 109.5t-193 39q-102 0 -195.5 -39t-166 -109.5t-115.5 -179.5t-43 -239q0 -131 43.5 -239.5t116.5 -178.5t166 -108.5t194 -38.5z" />
    <glyph glyph-name="ohungarumlaut" unicode="&#x151;" horiz-adv-x="1316" 
d="M860 1626l-362 -350h-199l305 350h256zM1243 1626l-362 -350h-197l303 350h256zM659 -27q-160 0 -290 75t-204.5 209.5t-74.5 301.5t75 301.5t205 209.5t289 75q160 0 290 -75t204 -209.5t74 -301.5t-74 -301.5t-204 -209.5t-290 -75zM659 195q85 0 157.5 42t119.5 126.5
t47 195.5q0 84 -27 154t-72.5 115.5t-103.5 70.5t-121 25t-121 -25t-103.5 -70.5t-73 -115.5t-27.5 -154t27.5 -154t73 -115t103.5 -70t121 -25z" />
    <glyph glyph-name="OE" unicode="&#x152;" horiz-adv-x="2035" 
d="M1905 1524v-224h-623v-419h573v-211h-573v-447h623v-223l-805 2q-110 -35 -232 -35q-163 0 -305.5 60.5t-244.5 165.5t-161 252.5t-59 316.5q0 168 59 315.5t160.5 252.5t244.5 165.5t306 60.5q131 0 234 -32h803zM1038 1300q-89 29 -170 29q-102 0 -195.5 -39
t-166 -109.5t-115.5 -179.5t-43 -239q0 -131 43.5 -239.5t116.5 -178.5t166 -108.5t194 -38.5q84 0 170 28v1075z" />
    <glyph glyph-name="oe" unicode="&#x153;" horiz-adv-x="2111" 
d="M2023 580q0 -52 -6 -95h-798q23 -146 123.5 -228.5t248.5 -82.5q196 0 367 133v-217q-172 -117 -391 -117q-298 0 -467 215q-80 -98 -193 -156.5t-248 -58.5q-160 0 -290 75t-204.5 209.5t-74.5 301.5t74.5 301.5t204.5 209.5t290 75q135 0 247 -57t194 -156
q153 213 428 213q103 0 192 -36.5t157 -106t107 -178.5t39 -244zM1221 651h571q-3 140 -79 216.5t-187 76.5q-115 0 -198.5 -79.5t-106.5 -213.5zM659 195q63 0 121 25t104 70t73.5 115t27.5 154t-27.5 154t-73.5 115.5t-104 70.5t-121 25q-133 0 -230 -99.5t-97 -265.5
q0 -167 96.5 -265.5t230.5 -98.5z" />
    <glyph glyph-name="Racute" unicode="&#x154;" horiz-adv-x="1306" 
d="M977 2034l-291 -351h-192l235 351h248zM731 596l522 -596h-305l-493 588h-17v-588h-245v1524h434q266 0 412.5 -125.5t146.5 -343.5q0 -176 -114 -302t-341 -157zM438 784h166q168 0 251 68.5t83 191.5q0 120 -84.5 187t-237.5 67h-178v-514z" />
    <glyph glyph-name="racute" unicode="&#x155;" horiz-adv-x="804" 
d="M551 1626h248l-291 -350h-193zM158 0v1118h192l25 -174h4q52 97 139 141.5t174 44.5q44 0 78 -6v-229q-36 8 -84 8q-119 0 -203 -75.5t-84 -225.5v-602h-241z" />
    <glyph glyph-name="uni0156" unicode="&#x156;" horiz-adv-x="1306" 
d="M731 596l522 -596h-305l-493 588h-17v-588h-245v1524h434q266 0 412.5 -125.5t146.5 -343.5q0 -176 -114 -302t-341 -157zM438 784h166q168 0 251 68.5t83 191.5q0 120 -84.5 187t-237.5 67h-178v-514zM563 -162h219q41 -215 -96 -442h-170q102 234 47 442z" />
    <glyph glyph-name="uni0157" unicode="&#x157;" horiz-adv-x="804" 
d="M158 0v1118h192l25 -174h4q52 97 139 141.5t174 44.5q44 0 78 -6v-229q-36 8 -84 8q-119 0 -203 -75.5t-84 -225.5v-602h-241zM383 -162q41 -215 -96 -442h-170q102 234 47 442h219z" />
    <glyph glyph-name="Rcaron" unicode="&#x158;" horiz-adv-x="1306" 
d="M752 1683h-172l-285 351h219l152 -203l153 203h217zM731 596l522 -596h-305l-493 588h-17v-588h-245v1524h434q266 0 412.5 -125.5t146.5 -343.5q0 -176 -114 -302t-341 -157zM438 784h166q168 0 251 68.5t83 191.5q0 120 -84.5 187t-237.5 67h-178v-514z" />
    <glyph glyph-name="rcaron" unicode="&#x159;" horiz-adv-x="804" 
d="M858 1626l-285 -350h-172l-284 350h219l151 -203l154 203h217zM158 0v1118h192l25 -174h4q52 97 139 141.5t174 44.5q44 0 78 -6v-229q-36 8 -84 8q-119 0 -203 -75.5t-84 -225.5v-602h-241z" />
    <glyph glyph-name="Sacute" unicode="&#x15a;" horiz-adv-x="1183" 
d="M682 2034h248l-291 -351h-193zM629 1556q212 0 377 -100v-239q-76 56 -175 87t-192 31q-117 0 -192.5 -51.5t-75.5 -144.5q0 -82 64.5 -134t223.5 -122q58 -25 95.5 -42t87.5 -44.5t82 -51.5t66.5 -59t54 -72.5t32.5 -86t13 -103.5q0 -208 -148.5 -332.5t-378.5 -124.5
q-129 0 -244.5 39.5t-195.5 99.5v256q81 -78 195 -126t229 -48q125 0 209 61.5t84 164.5q0 88 -70 143.5t-238 128.5q-55 24 -89 40t-82 42.5t-77 49.5t-62.5 57t-51.5 69.5t-30.5 82t-12.5 99.5q0 195 140.5 312.5t361.5 117.5z" />
    <glyph glyph-name="sacute" unicode="&#x15b;" horiz-adv-x="1030" 
d="M602 1626h248l-291 -350h-192zM535 1145q96 0 189 -25.5t155 -68.5v-222q-62 49 -152 79t-184 30t-145.5 -34t-51.5 -93q0 -58 51.5 -89.5t173.5 -66.5q47 -12 77 -21.5t73 -25.5t71 -32.5t59.5 -42.5t50 -55.5t30.5 -70t12 -88.5q0 -159 -118 -252.5t-324 -93.5
q-235 0 -391 119v238q166 -152 383 -152q101 0 158 38t57 101q0 23 -7 41t-24.5 33.5t-34.5 27t-51.5 24.5t-59.5 21t-73 23q-63 18 -107 34t-93 43t-79 58.5t-49.5 78t-19.5 104.5q0 149 115 244.5t309 95.5z" />
    <glyph glyph-name="uni015E" unicode="&#x15e;" horiz-adv-x="1183" 
d="M1090 424q0 -181 -113 -300t-299 -149q-17 -188 -137 -333h-240q75 87 119.5 164t58.5 165q-204 22 -356 135v256q81 -78 195 -126t229 -48q125 0 209 61.5t84 164.5q0 88 -70 143.5t-238 128.5q-55 24 -89 40t-82 42.5t-77 49.5t-62.5 57t-51.5 69.5t-30.5 82
t-12.5 99.5q0 195 140.5 312.5t361.5 117.5q212 0 377 -100v-239q-76 56 -175 87t-192 31q-117 0 -192.5 -51.5t-75.5 -144.5q0 -82 64.5 -134t223.5 -122q58 -25 95.5 -42t87.5 -44.5t82 -51.5t66.5 -59t54 -72.5t32.5 -86t13 -103.5z" />
    <glyph glyph-name="uni015F" unicode="&#x15f;" horiz-adv-x="1030" 
d="M944 319q0 -138 -91 -227.5t-255 -111.5q-17 -194 -137 -338h-240q77 89 122 168t56 170q-168 21 -288 112v238q166 -152 383 -152q101 0 158 38t57 101q0 23 -7 41t-24.5 33.5t-34.5 27t-51.5 24.5t-59.5 21t-73 23q-63 18 -107 34t-93 43t-79 58.5t-49.5 78
t-19.5 104.5q0 149 115 244.5t309 95.5q96 0 189 -25.5t155 -68.5v-222q-62 49 -152 79t-184 30t-145.5 -34t-51.5 -93q0 -58 51.5 -89.5t173.5 -66.5q47 -12 77 -21.5t73 -25.5t71 -32.5t59.5 -42.5t50 -55.5t30.5 -70t12 -88.5z" />
    <glyph glyph-name="Scaron" unicode="&#x160;" horiz-adv-x="1183" 
d="M989 2034l-284 -351h-173l-284 351h219l151 -203l154 203h217zM629 1556q212 0 377 -100v-239q-76 56 -175 87t-192 31q-117 0 -192.5 -51.5t-75.5 -144.5q0 -82 64.5 -134t223.5 -122q58 -25 95.5 -42t87.5 -44.5t82 -51.5t66.5 -59t54 -72.5t32.5 -86t13 -103.5
q0 -208 -148.5 -332.5t-378.5 -124.5q-129 0 -244.5 39.5t-195.5 99.5v256q81 -78 195 -126t229 -48q125 0 209 61.5t84 164.5q0 88 -70 143.5t-238 128.5q-55 24 -89 40t-82 42.5t-77 49.5t-62.5 57t-51.5 69.5t-30.5 82t-12.5 99.5q0 195 140.5 312.5t361.5 117.5z" />
    <glyph glyph-name="scaron" unicode="&#x161;" horiz-adv-x="1030" 
d="M909 1626l-284 -350h-172l-285 350h219l152 -203l153 203h217zM535 1145q96 0 189 -25.5t155 -68.5v-222q-62 49 -152 79t-184 30t-145.5 -34t-51.5 -93q0 -58 51.5 -89.5t173.5 -66.5q47 -12 77 -21.5t73 -25.5t71 -32.5t59.5 -42.5t50 -55.5t30.5 -70t12 -88.5
q0 -159 -118 -252.5t-324 -93.5q-235 0 -391 119v238q166 -152 383 -152q101 0 158 38t57 101q0 23 -7 41t-24.5 33.5t-34.5 27t-51.5 24.5t-59.5 21t-73 23q-63 18 -107 34t-93 43t-79 58.5t-49.5 78t-19.5 104.5q0 149 115 244.5t309 95.5z" />
    <glyph glyph-name="uni0162" unicode="&#x162;" horiz-adv-x="1267" 
d="M43 1524h1182v-226h-469v-1298h-21q-11 -205 -139 -358h-240q81 94 127 177.5t54 180.5h-25v1298h-469v226z" />
    <glyph glyph-name="uni0163" unicode="&#x163;" horiz-adv-x="839" 
d="M686 193q38 0 100 10v-207q-72 -14 -149 -14h-6q-14 -192 -137 -340h-240q86 101 132 187.5t50 190.5q-106 46 -163.5 146t-57.5 240v507h-164v205h168v260h234v-260h309v-205h-309v-495q0 -115 63 -170t170 -55z" />
    <glyph glyph-name="Tcaron" unicode="&#x164;" horiz-adv-x="1267" 
d="M1006 2034l-285 -351h-172l-285 351h219l152 -203l153 203h218zM512 0v1298h-469v226h1182v-226h-469v-1298h-244z" />
    <glyph glyph-name="tcaron" unicode="&#x165;" horiz-adv-x="837" 
d="M610 1253q21 129 21 201q0 86 -29 186h215q14 -61 14 -116q0 -125 -55 -271h-166zM451 1378v-260h309v-205h-309v-495q0 -115 63 -170t170 -55q38 0 100 10v-207q-72 -14 -149 -14q-198 0 -310 112.5t-112 311.5v507h-164v205h168v260h234z" />
    <glyph glyph-name="Tbar" unicode="&#x166;" horiz-adv-x="1310" 
d="M1245 1298h-469v-477h309v-213h-309v-608h-244v608h-307v213h307v477h-469v226h1182v-226z" />
    <glyph glyph-name="tbar" unicode="&#x167;" horiz-adv-x="851" 
d="M694 193q39 0 101 10v-207q-72 -14 -150 -14q-198 0 -310 112.5t-112 311.5v86h-164v174h164v247h-164v205h168v260h234v-260h309v-205h-309v-247h309v-174h-309v-74q0 -115 63 -170t170 -55z" />
    <glyph glyph-name="Umacron" unicode="&#x16a;" horiz-adv-x="1548" 
d="M420 1763v164h706v-164h-706zM768 -33q-273 0 -433.5 171t-160.5 448v938h246v-944q0 -179 93 -281t255 -102q166 0 263 102.5t97 282.5v942h246v-938q0 -277 -164.5 -448t-441.5 -171z" />
    <glyph glyph-name="umacron" unicode="&#x16b;" horiz-adv-x="1245" 
d="M268 1356v164h707v-164h-707zM618 -27q-219 0 -346 128.5t-127 336.5v680h242v-682q0 -115 61 -178t170 -63q113 0 177.5 63.5t64.5 179.5v680h242v-678q0 -208 -131 -337.5t-353 -129.5z" />
    <glyph glyph-name="Uring" unicode="&#x16e;" horiz-adv-x="1548" 
d="M776 2109q97 0 163.5 -61.5t66.5 -151.5q0 -92 -66.5 -153.5t-163.5 -61.5q-98 0 -164.5 61.5t-66.5 153.5q0 91 66.5 152t164.5 61zM776 1999q-47 0 -78.5 -30t-31.5 -73q0 -44 31.5 -74t78.5 -30q46 0 76.5 30t30.5 74q0 43 -31 73t-76 30zM768 -33q-273 0 -433.5 171
t-160.5 448v938h246v-944q0 -179 93 -281t255 -102q166 0 263 102.5t97 282.5v942h246v-938q0 -277 -164.5 -448t-441.5 -171z" />
    <glyph glyph-name="uring" unicode="&#x16f;" horiz-adv-x="1245" 
d="M625 1702q97 0 163 -61t66 -152q0 -92 -66 -153.5t-163 -61.5q-99 0 -165.5 61.5t-66.5 153.5q0 91 67 152t165 61zM625 1591q-47 0 -79 -29.5t-32 -72.5q0 -44 32 -74.5t79 -30.5q45 0 75.5 30t30.5 75q0 43 -30.5 72.5t-75.5 29.5zM618 -27q-219 0 -346 128.5
t-127 336.5v680h242v-682q0 -115 61 -178t170 -63q113 0 177.5 63.5t64.5 179.5v680h242v-678q0 -208 -131 -337.5t-353 -129.5z" />
    <glyph glyph-name="Uhungarumlaut" unicode="&#x170;" horiz-adv-x="1548" 
d="M975 2034l-363 -351h-198l305 351h256zM1358 2034l-363 -351h-196l303 351h256zM768 -33q-273 0 -433.5 171t-160.5 448v938h246v-944q0 -179 93 -281t255 -102q166 0 263 102.5t97 282.5v942h246v-938q0 -277 -164.5 -448t-441.5 -171z" />
    <glyph glyph-name="uhungarumlaut" unicode="&#x171;" horiz-adv-x="1245" 
d="M823 1626l-362 -350h-199l305 350h256zM1206 1626l-362 -350h-197l303 350h256zM618 -27q-219 0 -346 128.5t-127 336.5v680h242v-682q0 -115 61 -178t170 -63q113 0 177.5 63.5t64.5 179.5v680h242v-678q0 -208 -131 -337.5t-353 -129.5z" />
    <glyph glyph-name="Uogonek" unicode="&#x172;" horiz-adv-x="1548" 
d="M1128 1524h246v-938q0 -160 -63 -295.5t-193 -222.5q-122 -89 -177.5 -148.5t-55.5 -116.5q0 -51 35 -77.5t90 -26.5q42 0 67 10v-143q-10 -7 -49.5 -14t-66.5 -7q-119 0 -190 60.5t-71 158.5q0 107 93 203h-25q-273 0 -433.5 171t-160.5 448v938h246v-944
q0 -179 93 -281t255 -102q166 0 263 102.5t97 282.5v942z" />
    <glyph glyph-name="uogonek" unicode="&#x173;" horiz-adv-x="1245" 
d="M860 1118h242v-678q0 -130 -53.5 -231.5t-153.5 -165.5q-109 -74 -162 -131.5t-53 -112.5q0 -51 35 -77.5t90 -26.5q50 0 67 10v-143q-10 -7 -46.5 -14t-69.5 -7q-116 0 -188 59t-72 160q0 111 102 213q-210 6 -331.5 134t-121.5 331v680h242v-682q0 -114 60.5 -177.5
t170.5 -63.5q113 0 177.5 63.5t64.5 179.5v680z" />
    <glyph glyph-name="Wcircumflex" unicode="&#x174;" horiz-adv-x="2230" 
d="M1208 2034l283 -351h-219l-154 203l-153 -203h-215l280 351h178zM1493 0l-373 1186h-2l-373 -1186h-256l-454 1524h252l338 -1215h2l374 1215h234l379 -1217h2l330 1217h245l-446 -1524h-252z" />
    <glyph glyph-name="wcircumflex" unicode="&#x175;" horiz-adv-x="1789" 
d="M989 1626l283 -350h-219l-154 203l-154 -203h-215l281 350h178zM1153 0l-252 817h-6l-252 -817h-278l-310 1118h254l207 -856h6l256 856h244l256 -856h4l215 856h238l-308 -1118h-274z" />
    <glyph glyph-name="Ycircumflex" unicode="&#x176;" horiz-adv-x="1382" 
d="M784 2034l283 -351h-219l-154 203l-153 -203h-215l280 351h178zM571 0v629l-563 895h275l411 -672h4l408 672h266l-559 -893v-631h-242z" />
    <glyph glyph-name="ycircumflex" unicode="&#x177;" horiz-adv-x="1148" 
d="M672 1626l282 -350h-219l-153 203l-154 -203h-215l281 350h178zM1116 1118l-608 -1548h-244l193 467l-420 1081h262l281 -807h4l282 807h250z" />
    <glyph glyph-name="Ydieresis" unicode="&#x178;" horiz-adv-x="1382" 
d="M475 1720q-53 0 -90 36.5t-37 88.5q0 51 37.5 88t89.5 37t89.5 -37t37.5 -88q0 -52 -37 -88.5t-90 -36.5zM915 1720q-54 0 -90.5 36t-36.5 89q0 51 37 88t90 37t90 -37t37 -88q0 -53 -36.5 -89t-90.5 -36zM571 0v629l-563 895h275l411 -672h4l408 672h266l-559 -893v-631
h-242z" />
    <glyph glyph-name="Zacute" unicode="&#x179;" horiz-adv-x="1230" 
d="M698 2034h248l-291 -351h-192zM1188 1524l-764 -1299h713v-225h-1098l764 1298h-701v226h1086z" />
    <glyph glyph-name="zacute" unicode="&#x17a;" horiz-adv-x="1067" 
d="M612 1626h248l-291 -350h-192zM1022 1118l-596 -897h537v-221h-924l598 897h-524v221h909z" />
    <glyph glyph-name="Zdotaccent" unicode="&#x17b;" horiz-adv-x="1230" 
d="M633 1720q-51 0 -88 36.5t-37 88.5q0 51 37 88t88 37q54 0 91.5 -37t37.5 -88q0 -52 -37.5 -88.5t-91.5 -36.5zM1188 1524l-764 -1299h713v-225h-1098l764 1298h-701v226h1086z" />
    <glyph glyph-name="zdotaccent" unicode="&#x17c;" horiz-adv-x="1067" 
d="M547 1313q-51 0 -88 36.5t-37 88.5q0 51 37 88t88 37q54 0 91.5 -37t37.5 -88q0 -52 -37.5 -88.5t-91.5 -36.5zM1022 1118l-596 -897h537v-221h-924l598 897h-524v221h909z" />
    <glyph glyph-name="Zcaron" unicode="&#x17d;" horiz-adv-x="1230" 
d="M1006 2034l-285 -351h-172l-285 351h219l152 -203l153 203h218zM1188 1524l-764 -1299h713v-225h-1098l764 1298h-701v226h1086z" />
    <glyph glyph-name="zcaron" unicode="&#x17e;" horiz-adv-x="1067" 
d="M920 1626l-285 -350h-172l-285 350h219l152 -203l153 203h218zM1022 1118l-596 -897h537v-221h-924l598 897h-524v221h909z" />
    <glyph glyph-name="florin" unicode="&#x192;" horiz-adv-x="999" 
d="M846 1442q-58 0 -99.5 -16t-66 -45.5t-37.5 -63t-20 -78.5l-19 -121h275v-205h-306l-145 -958q-12 -74 -30 -132t-51.5 -112.5t-79.5 -89.5t-116.5 -56.5t-160.5 -21.5q-56 0 -119 13v204q62 -8 92 -8q102 0 158.5 63t71.5 165l139 933h-154v205h184l21 137
q11 74 29.5 131.5t51 109.5t79 86t114.5 53.5t156 19.5q77 0 133 -17v-208q-46 12 -100 12z" />
    <glyph glyph-name="uni0218" unicode="&#x218;" horiz-adv-x="1183" 
d="M629 1556q212 0 377 -100v-239q-76 56 -175 87t-192 31q-117 0 -192.5 -51.5t-75.5 -144.5q0 -82 64.5 -134t223.5 -122q58 -25 95.5 -42t87.5 -44.5t82 -51.5t66.5 -59t54 -72.5t32.5 -86t13 -103.5q0 -208 -148.5 -332.5t-378.5 -124.5q-129 0 -244.5 39.5t-195.5 99.5
v256q81 -78 195 -126t229 -48q125 0 209 61.5t84 164.5q0 88 -70 143.5t-238 128.5q-55 24 -89 40t-82 42.5t-77 49.5t-62.5 57t-51.5 69.5t-30.5 82t-12.5 99.5q0 195 140.5 312.5t361.5 117.5zM684 -162q41 -215 -96 -442h-170q102 234 47 442h219z" />
    <glyph glyph-name="uni0219" unicode="&#x219;" horiz-adv-x="1030" 
d="M535 1145q96 0 189 -25.5t155 -68.5v-222q-62 49 -152 79t-184 30t-145.5 -34t-51.5 -93q0 -58 51.5 -89.5t173.5 -66.5q47 -12 77 -21.5t73 -25.5t71 -32.5t59.5 -42.5t50 -55.5t30.5 -70t12 -88.5q0 -159 -118 -252.5t-324 -93.5q-235 0 -391 119v238
q166 -152 383 -152q101 0 158 38t57 101q0 23 -7 41t-24.5 33.5t-34.5 27t-51.5 24.5t-59.5 21t-73 23q-63 18 -107 34t-93 43t-79 58.5t-49.5 78t-19.5 104.5q0 149 115 244.5t309 95.5zM604 -162q41 -215 -96 -442h-170q102 234 47 442h219z" />
    <glyph glyph-name="uni021A" unicode="&#x21a;" horiz-adv-x="1267" 
d="M512 0v1298h-469v226h1182v-226h-469v-1298h-244zM739 -162q41 -215 -96 -442h-170q102 234 47 442h219z" />
    <glyph glyph-name="uni021B" unicode="&#x21b;" horiz-adv-x="837" 
d="M451 1378v-260h309v-205h-309v-495q0 -115 63 -170t170 -55q38 0 100 10v-207q-72 -14 -149 -14q-198 0 -310 112.5t-112 311.5v507h-164v205h168v260h234zM637 -162q41 -215 -96 -442h-170q102 234 47 442h219z" />
    <glyph glyph-name="circumflex" unicode="&#x2c6;" horiz-adv-x="1316" 
d="M748 1626l282 -350h-219l-154 203l-153 -203h-215l280 350h179z" />
    <glyph glyph-name="caron" unicode="&#x2c7;" horiz-adv-x="1316" 
d="M1030 1626l-285 -350h-172l-284 350h219l151 -203l154 203h217z" />
    <glyph glyph-name="breve" unicode="&#x2d8;" horiz-adv-x="1316" 
d="M1020 1620q4 -80 -27 -145t-84 -104.5t-117.5 -61t-132.5 -21.5t-132.5 21.5t-117 61t-83.5 104.5t-27 145h170q3 -74 53.5 -123t136.5 -49t137 49t54 123h170z" />
    <glyph glyph-name="dotaccent" unicode="&#x2d9;" horiz-adv-x="1316" 
d="M657 1313q-51 0 -88 36.5t-37 88.5q0 51 37 88t88 37q54 0 91.5 -37t37.5 -88q0 -52 -37.5 -88.5t-91.5 -36.5z" />
    <glyph glyph-name="ring" unicode="&#x2da;" horiz-adv-x="1316" 
d="M659 1702q97 0 163.5 -61.5t66.5 -151.5q0 -92 -66.5 -153.5t-163.5 -61.5q-98 0 -164.5 61.5t-66.5 153.5q0 91 66.5 152t164.5 61zM659 1591q-47 0 -78.5 -29.5t-31.5 -72.5q0 -44 31.5 -74.5t78.5 -30.5q46 0 76.5 30.5t30.5 74.5q0 43 -30.5 72.5t-76.5 29.5z" />
    <glyph glyph-name="ogonek" unicode="&#x2db;" horiz-adv-x="1316" 
d="M831 0q-190 -101 -190 -197q0 -50 35.5 -78t87.5 -28q54 0 67 10v-143q-11 -7 -43.5 -14t-68.5 -7q-116 0 -190 60t-74 161q0 187 276 336z" />
    <glyph glyph-name="tilde" unicode="&#x2dc;" horiz-adv-x="1316" 
d="M1079 1573q8 -138 -60 -207.5t-177 -69.5q-50 0 -96.5 19t-76 41.5t-68 41.5t-75.5 19q-53 0 -78.5 -34.5t-23.5 -79.5h-158q-7 138 62 207t176 69q42 0 80 -12.5t66 -30.5t54.5 -36.5t56.5 -31t60 -12.5q53 0 79 35t24 82h155z" />
    <glyph glyph-name="hungarumlaut" unicode="&#x2dd;" horiz-adv-x="1316" 
d="M786 1626l-362 -350h-199l305 350h256zM1169 1626l-362 -350h-197l303 350h256z" />
    <glyph glyph-name="gravecomb" unicode="&#x300;" horiz-adv-x="0" 
d="M-55 1626l235 -350h-192l-291 350h248z" />
    <glyph glyph-name="acutecomb" unicode="&#x301;" horiz-adv-x="0" 
d="M63 1626h248l-291 -350h-192z" />
    <glyph glyph-name="uni0302" unicode="&#x302;" horiz-adv-x="0" 
d="M90 1626l283 -350h-219l-154 203l-154 -203h-215l281 350h178z" />
    <glyph glyph-name="tildecomb" unicode="&#x303;" horiz-adv-x="0" 
d="M406 1573q8 -138 -60.5 -207.5t-177.5 -69.5q-50 0 -96.5 19t-75.5 41.5t-67.5 41.5t-75.5 19q-53 0 -79 -34.5t-24 -79.5h-158q-7 138 62 207t176 69q42 0 80 -12.5t66 -30.5t54.5 -36.5t56.5 -31t60 -12.5q53 0 79 35t24 82h156z" />
    <glyph glyph-name="uni0304" unicode="&#x304;" horiz-adv-x="0" 
d="M-354 1356v164h706v-164h-706z" />
    <glyph glyph-name="uni0306" unicode="&#x306;" horiz-adv-x="0" 
d="M360 1620q4 -80 -27 -145t-83.5 -104.5t-117 -61t-132.5 -21.5t-132.5 21.5t-117 61t-83.5 104.5t-27 145h170q3 -74 53.5 -123t136.5 -49t136.5 49t53.5 123h170z" />
    <glyph glyph-name="uni0307" unicode="&#x307;" horiz-adv-x="0" 
d="M-2 1313q-51 0 -88 36.5t-37 88.5q0 51 37 88t88 37q54 0 91.5 -37t37.5 -88q0 -52 -37.5 -88.5t-91.5 -36.5z" />
    <glyph glyph-name="uni0308" unicode="&#x308;" horiz-adv-x="0" 
d="M-219 1313q-53 0 -90 36.5t-37 88.5q0 51 37.5 88t89.5 37t89.5 -37t37.5 -88q0 -52 -37 -88.5t-90 -36.5zM221 1313q-54 0 -90.5 36t-36.5 89q0 52 37 88.5t90 36.5t90 -36.5t37 -88.5q0 -53 -36.5 -89t-90.5 -36z" />
    <glyph glyph-name="uni030A" unicode="&#x30a;" horiz-adv-x="0" 
d="M2 1702q97 0 163 -61t66 -152q0 -92 -66 -153.5t-163 -61.5q-98 0 -164.5 61.5t-66.5 153.5q0 91 66.5 152t164.5 61zM2 1591q-47 0 -79 -29.5t-32 -72.5q0 -44 32 -74.5t79 -30.5q46 0 76.5 30.5t30.5 74.5q0 43 -30.5 72.5t-76.5 29.5z" />
    <glyph glyph-name="uni030B" unicode="&#x30b;" horiz-adv-x="0" 
d="M201 1626l-363 -350h-198l305 350h256zM584 1626l-363 -350h-196l303 350h256z" />
    <glyph glyph-name="uni030C" unicode="&#x30c;" horiz-adv-x="0" 
d="M371 1626l-285 -350h-172l-285 350h219l152 -203l154 203h217z" />
    <glyph glyph-name="uni0326" unicode="&#x326;" horiz-adv-x="0" 
d="M104 -162q41 -215 -96 -442h-170q102 234 47 442h219z" />
    <glyph glyph-name="uni0327" unicode="&#x327;" horiz-adv-x="0" 
d="M-279 -358q89 104 136 195.5t47 201.5h196q0 -230 -139 -397h-240z" />
    <glyph glyph-name="uni0328" unicode="&#x328;" horiz-adv-x="0" 
d="M0 0q-190 -101 -190 -197q0 -50 35 -78t87 -28q55 0 68 10v-143q-11 -7 -44 -14t-69 -7q-116 0 -190 60t-74 161q0 186 277 336z" />
    <glyph glyph-name="uni037E" unicode="&#x37e;" horiz-adv-x="589" 
d="M299 678q-63 0 -106 42t-43 105q0 64 43 107t106 43t106.5 -43t43.5 -107q0 -63 -43.5 -105t-106.5 -42zM113 -272q86 289 86 485v98h221v-84q0 -192 -131 -499h-176z" />
    <glyph glyph-name="tonos" unicode="&#x384;" horiz-adv-x="1316" 
d="M633 1763h227l-190 -467h-168z" />
    <glyph glyph-name="dieresistonos" unicode="&#x385;" horiz-adv-x="1132" 
d="M434 1296l131 467h223l-188 -467h-166zM285 1321q-46 0 -78.5 32.5t-32.5 76.5t32.5 76t78.5 32t78 -32t32 -76t-32.5 -76.5t-77.5 -32.5zM848 1321q-46 0 -78.5 32.5t-32.5 76.5t32.5 76t78.5 32t78 -32t32 -76t-32 -76.5t-78 -32.5z" />
    <glyph glyph-name="Alphatonos" unicode="&#x386;" horiz-adv-x="1566" 
d="M225 1530h232l-150 -467h-172zM1552 0h-260l-162 428h-620l-162 -428h-256l588 1524h281zM819 1262l-235 -623h473z" />
    <glyph glyph-name="uni0387" unicode="&#x387;" horiz-adv-x="557" 
d="M279 678q-63 0 -106.5 42t-43.5 105q0 64 43.5 107t106.5 43t106 -43t43 -107q0 -63 -43 -105t-106 -42z" />
    <glyph glyph-name="Epsilontonos" unicode="&#x388;" horiz-adv-x="1488" 
d="M115 1530h231l-149 -467h-172zM477 0v1524h883v-224h-637v-419h586v-211h-586v-447h637v-223h-883z" />
    <glyph glyph-name="Etatonos" unicode="&#x389;" horiz-adv-x="1896" 
d="M115 1530h231l-149 -467h-172zM1458 0v655h-735v-655h-246v1524h246v-641h735v641h246v-1524h-246z" />
    <glyph glyph-name="Iotatonos" unicode="&#x38a;" horiz-adv-x="913" 
d="M115 1530h231l-149 -467h-172zM477 0v1524h246v-1524h-246z" />
    <glyph glyph-name="Omicrontonos" unicode="&#x38c;" horiz-adv-x="1941" 
d="M1071 -33q-163 0 -305.5 60.5t-244.5 165.5t-161 252.5t-59 316.5q0 168 59 315.5t160.5 252.5t244.5 165.5t306 60.5t305.5 -60.5t244 -165.5t160 -252.5t58.5 -315.5q0 -169 -58.5 -316.5t-160 -252.5t-244 -165.5t-305.5 -60.5zM143 1530h232l-150 -467h-172z
M1071 197q101 0 193.5 38.5t165 109t116 179t43.5 238.5t-43.5 239t-116 179.5t-165.5 109.5t-193 39q-102 0 -195.5 -39t-166 -109.5t-115.5 -179.5t-43 -239q0 -131 43.5 -239.5t116.5 -178.5t166 -108.5t194 -38.5z" />
    <glyph glyph-name="Upsilontonos" unicode="&#x38e;" horiz-adv-x="1820" 
d="M162 1530h231l-149 -467h-172zM1006 0v629l-564 895h275l411 -672h5l407 672h266l-559 -893v-631h-241z" />
    <glyph glyph-name="Omegatonos" unicode="&#x38f;" horiz-adv-x="1957" 
d="M1511 199h347v-199h-646v178q149 93 250 254t101 356q1 236 -137.5 387.5t-354.5 151.5q-217 0 -354 -151.5t-135 -387.5q0 -195 100 -356.5t248 -253.5v-178h-645v199h346q-62 47 -114 107.5t-95.5 138t-68 175t-25.5 203.5q-1 211 94 378.5t265 261t384 93.5t384 -93.5
t265 -261t95 -378.5q0 -206 -85.5 -365.5t-218.5 -258.5zM133 1530h232l-150 -467h-172z" />
    <glyph glyph-name="iotadieresistonos" unicode="&#x390;" horiz-adv-x="718" 
d="M152 1296l131 467h223l-189 -467h-165zM2 1321q-46 0 -78.5 32.5t-32.5 76.5t32.5 76t78.5 32t78.5 -32t32.5 -76t-32.5 -76.5t-78.5 -32.5zM565 1321q-45 0 -77.5 32.5t-32.5 76.5t32 76t78 32t78.5 -32t32.5 -76t-32.5 -76.5t-78.5 -32.5zM559 -18q-194 0 -300.5 101.5
t-106.5 305.5v729h241v-712q0 -110 52.5 -161.5t166.5 -51.5q42 0 97 10v-205q-68 -16 -150 -16z" />
    <glyph glyph-name="Alpha" unicode="&#x391;" horiz-adv-x="1495" 
d="M1479 0h-260l-162 428h-621l-162 -428h-256l588 1524h281zM745 1262l-235 -623h473z" />
    <glyph glyph-name="Beta" unicode="&#x392;" horiz-adv-x="1353" 
d="M975 786q135 -42 205.5 -136.5t70.5 -227.5q0 -87 -33.5 -162t-97 -133.5t-166 -92.5t-231.5 -34h-530v1524h503q242 0 375 -112t133 -288q0 -126 -62.5 -212.5t-166.5 -125.5zM436 1311v-441h256q130 0 203.5 63t73.5 163q0 99 -71 157t-196 58h-266zM709 215
q144 0 222.5 65t78.5 171q0 107 -80.5 169t-210.5 62h-283v-467h273z" />
    <glyph glyph-name="Gamma" unicode="&#x393;" horiz-adv-x="1079" 
d="M193 0v1524h843v-226h-598v-1298h-245z" />
    <glyph glyph-name="uni0394" unicode="&#x394;" horiz-adv-x="1490" 
d="M18 0l588 1524h281l586 -1524h-1455zM348 209h795l-398 1057z" />
    <glyph glyph-name="Epsilon" unicode="&#x395;" horiz-adv-x="1206" 
d="M193 0v1524h882v-224h-637v-419h586v-211h-586v-447h637v-223h-882z" />
    <glyph glyph-name="Zeta" unicode="&#x396;" horiz-adv-x="1230" 
d="M1188 1524l-764 -1299h713v-225h-1098l764 1298h-701v226h1086z" />
    <glyph glyph-name="Eta" unicode="&#x397;" horiz-adv-x="1611" 
d="M1174 0v655h-736v-655h-245v1524h245v-641h736v641h245v-1524h-245z" />
    <glyph glyph-name="Theta" unicode="&#x398;" horiz-adv-x="1744" 
d="M874 -33q-164 0 -308 60.5t-247 165.5t-162 252.5t-59 316.5q0 168 59 315.5t162 252.5t247 165.5t308 60.5q217 0 394 -103t278 -285t101 -406q0 -169 -59.5 -316.5t-162 -252.5t-245.5 -165.5t-306 -60.5zM874 190q102 0 196.5 39.5t169 111t119 181t44.5 240.5
t-44.5 240.5t-119 180.5t-169 110.5t-196.5 39.5q-104 0 -199.5 -39.5t-170 -110.5t-118.5 -180.5t-44 -240.5q0 -133 44.5 -243t119 -180.5t169.5 -109.5t199 -39zM537 668v198h669v-198h-669z" />
    <glyph glyph-name="Iota" unicode="&#x399;" horiz-adv-x="630" 
d="M193 0v1524h245v-1524h-245z" />
    <glyph glyph-name="Kappa" unicode="&#x39a;" horiz-adv-x="1396" 
d="M1393 0h-306l-649 739v-739h-245v1524h245v-733l647 733h295l-673 -754z" />
    <glyph glyph-name="Lambda" unicode="&#x39b;" horiz-adv-x="1443" 
d="M20 0l560 1524h280l563 -1524h-260l-444 1262l-438 -1262h-261z" />
    <glyph glyph-name="Mu" unicode="&#x39c;" horiz-adv-x="1994" 
d="M496 1174l-164 -1174h-238l230 1524h292l385 -1153h3l374 1153h293l227 -1524h-239l-162 1182h-6l-387 -1182h-215l-387 1174h-6z" />
    <glyph glyph-name="Nu" unicode="&#x39d;" horiz-adv-x="1634" 
d="M1442 1524v-1524h-230l-782 1133h-2v-1133h-235v1524h241l768 -1112h2v1112h238z" />
    <glyph glyph-name="Xi" unicode="&#x39e;" horiz-adv-x="1323" 
d="M106 1524h1113v-228h-1113v228zM225 879h875v-220h-875v220zM106 227h1113v-227h-1113v227z" />
    <glyph glyph-name="Omicron" unicode="&#x39f;" horiz-adv-x="1736" 
d="M868 -33q-163 0 -305.5 60.5t-244.5 165.5t-161 252.5t-59 316.5q0 168 59 315.5t160.5 252.5t244.5 165.5t306 60.5t305.5 -60.5t244 -165.5t160 -252.5t58.5 -315.5q0 -169 -58.5 -316.5t-160 -252.5t-244 -165.5t-305.5 -60.5zM868 197q101 0 193.5 38.5t165 109
t116 179t43.5 238.5t-43.5 239t-116 179.5t-165.5 109.5t-193 39q-102 0 -195.5 -39t-166 -109.5t-115.5 -179.5t-43 -239q0 -131 43.5 -239.5t116.5 -178.5t166 -108.5t194 -38.5z" />
    <glyph glyph-name="Pi" unicode="&#x3a0;" horiz-adv-x="1560" 
d="M1124 0v1298h-686v-1298h-245v1524h1175v-1524h-244z" />
    <glyph glyph-name="Rho" unicode="&#x3a1;" horiz-adv-x="1286" 
d="M193 0v1524h403q288 0 454.5 -136.5t166.5 -373.5q0 -236 -165 -383.5t-446 -147.5h-168v-483h-245zM618 707q161 0 256 79.5t95 219.5t-94 216t-257 76h-180v-591h180z" />
    <glyph glyph-name="Sigma" unicode="&#x3a3;" horiz-adv-x="1228" 
d="M418 225h723v-225h-1094l418 766l-406 758h1061v-226h-684v-2l285 -526l-303 -541v-4z" />
    <glyph glyph-name="Tau" unicode="&#x3a4;" horiz-adv-x="1267" 
d="M512 0v1298h-469v226h1182v-226h-469v-1298h-244z" />
    <glyph glyph-name="Upsilon" unicode="&#x3a5;" horiz-adv-x="1388" 
d="M573 0v629l-563 895h275l411 -672h4l408 672h266l-559 -893v-631h-242z" />
    <glyph glyph-name="Phi" unicode="&#x3a6;" horiz-adv-x="1789" 
d="M1014 1475q189 0 345 -87t247.5 -246.5t91.5 -359.5t-91.5 -359.5t-247.5 -247t-345 -87.5v-143h-238v143q-189 0 -345 87.5t-247.5 247t-91.5 359.5q0 199 91.5 358.5t247.5 247t345 87.5v143h238v-143zM776 303v957q-196 0 -323 -136t-127 -342t127 -342.5t323 -136.5z
M1014 303q197 0 323.5 136t126.5 343t-126.5 342.5t-323.5 135.5v-957z" />
    <glyph glyph-name="Chi" unicode="&#x3a7;" horiz-adv-x="1382" 
d="M27 0l510 766l-504 758h282l381 -580l373 580h279l-502 -756l512 -768h-283l-387 586l-381 -586h-280z" />
    <glyph glyph-name="Psi" unicode="&#x3a8;" horiz-adv-x="1746" 
d="M1386 1524h244v-582q0 -279 -172 -445.5t-463 -166.5v-330h-243v330q-291 0 -463 166.5t-172 445.5v582h243v-580q0 -186 103 -288.5t289 -102.5v971h243v-971q186 0 288.5 102.5t102.5 288.5v580z" />
    <glyph glyph-name="uni03A9" unicode="&#x3a9;" horiz-adv-x="1771" 
d="M1325 199h346v-199h-645v178q149 92 249.5 253.5t100.5 356.5q1 236 -137 387.5t-354 151.5q-217 0 -354.5 -151.5t-135.5 -387.5q0 -195 100 -356.5t248 -253.5v-178h-645v199h346q-62 47 -114 107.5t-95.5 138t-68 175t-25.5 203.5q-1 211 94 378.5t265.5 261
t384.5 93.5t384 -93.5t264.5 -261t94.5 -378.5q0 -206 -85.5 -366t-217.5 -258z" />
    <glyph glyph-name="Iotadieresis" unicode="&#x3aa;" horiz-adv-x="630" 
d="M96 1720q-53 0 -90 36.5t-37 88.5q0 51 37.5 88t89.5 37t89.5 -37t37.5 -88q0 -52 -37 -88.5t-90 -36.5zM537 1720q-54 0 -90.5 36t-36.5 89q0 51 37 88t90 37t90 -37t37 -88q0 -53 -36.5 -89t-90.5 -36zM193 0v1524h245v-1524h-245z" />
    <glyph glyph-name="Upsilondieresis" unicode="&#x3ab;" horiz-adv-x="1388" 
d="M483 1720q-53 0 -90 36.5t-37 88.5q0 51 37.5 88t89.5 37t89.5 -37t37.5 -88q0 -52 -37 -88.5t-90 -36.5zM924 1720q-54 0 -90.5 36t-36.5 89q0 51 36.5 88t90.5 37t90.5 -37t36.5 -88q0 -53 -36.5 -89t-90.5 -36zM573 0v629l-563 895h275l411 -672h4l408 672h266
l-559 -893v-631h-242z" />
    <glyph glyph-name="alphatonos" unicode="&#x3ac;" horiz-adv-x="1411" 
d="M967 1763l-191 -467h-168l131 467h228zM1284 188q28 0 49 7v-201q-37 -12 -100 -12q-106 0 -175 48.5t-95 141.5q-66 -97 -163.5 -148t-207.5 -51q-101 0 -192 42.5t-159.5 117t-108.5 185t-40 239.5q0 128 40 239t107.5 187t157 119t187.5 43q112 0 210.5 -55.5
t159.5 -161.5h2l25 190h201v-811q0 -66 24 -92.5t78 -26.5zM643 195q129 0 215 102t86 262q0 159 -86.5 262t-214.5 103q-133 0 -220 -103t-87 -262q0 -160 87 -262t220 -102z" />
    <glyph glyph-name="epsilontonos" unicode="&#x3ad;" horiz-adv-x="1075" 
d="M827 1763l-190 -467h-168l131 467h227zM618 174q194 0 363 76v-203q-179 -74 -403 -74q-230 0 -356 85.5t-126 240.5q0 92 62 167.5t159 106.5q-88 27 -139 98t-51 160q0 148 119 230t332 82q102 0 211 -21t180 -53v-199q-73 33 -173 53.5t-188 20.5q-239 0 -239 -139
q0 -68 57 -109t152 -41h241v-176h-239q-105 0 -171.5 -41.5t-66.5 -113.5q0 -150 276 -150z" />
    <glyph glyph-name="etatonos" unicode="&#x3ae;" horiz-adv-x="1314" 
d="M911 1763l-190 -467h-168l131 467h227zM772 1145q181 0 288 -108.5t107 -293.5v-1173h-241v1096q0 254 -226 254q-106 0 -176.5 -69.5t-70.5 -174.5v-676h-242v811q0 66 -23 92.5t-77 26.5q-31 0 -52 -6v200q49 11 103 11q211 0 268 -183q53 85 142 139t200 54z" />
    <glyph glyph-name="iotatonos" unicode="&#x3af;" horiz-adv-x="718" 
d="M311 1763h228l-191 -467h-168zM559 -18q-194 0 -300.5 101.5t-106.5 305.5v729h241v-712q0 -110 52.5 -161.5t166.5 -51.5q42 0 97 10v-205q-68 -16 -150 -16z" />
    <glyph glyph-name="upsilondieresistonos" unicode="&#x3b0;" horiz-adv-x="1245" 
d="M479 1296l131 467h224l-189 -467h-166zM330 1321q-46 0 -78.5 32.5t-32.5 76.5t32.5 76t78.5 32t78 -32t32 -76t-32 -76.5t-78 -32.5zM893 1321q-46 0 -78.5 32.5t-32.5 76.5t32.5 76t78.5 32t78.5 -32t32.5 -76t-32.5 -76.5t-78.5 -32.5zM623 -27q-227 0 -353.5 121.5
t-126.5 339.5v684h242v-674q0 -124 62 -187.5t182 -63.5q268 0 268 376q0 292 -127 549h250q119 -235 119 -559q0 -277 -136 -431.5t-380 -154.5z" />
    <glyph glyph-name="alpha" unicode="&#x3b1;" horiz-adv-x="1411" 
d="M1284 188q28 0 49 7v-201q-37 -12 -100 -12q-106 0 -175 48.5t-95 141.5q-66 -97 -163.5 -148t-207.5 -51q-101 0 -192 42.5t-159.5 117t-108.5 185t-40 239.5q0 128 40 239t107.5 187t157 119t187.5 43q112 0 210.5 -55.5t159.5 -161.5h2l25 190h201v-811
q0 -66 24 -92.5t78 -26.5zM643 195q129 0 215 102t86 262q0 159 -86.5 262t-214.5 103q-133 0 -220 -103t-87 -262q0 -160 87 -262t220 -102z" />
    <glyph glyph-name="beta" unicode="&#x3b2;" horiz-adv-x="1359" 
d="M915 889q167 -48 263 -168t96 -285q0 -196 -136.5 -328.5t-344.5 -132.5q-125 0 -235.5 46.5t-162.5 111.5v-563h-239v1560q0 237 142 381t376 144q214 0 345.5 -112.5t131.5 -295.5q0 -119 -64 -214.5t-172 -143.5zM723 186q140 0 225.5 79.5t85.5 209.5q0 135 -95 216
t-253 81h-92v184h65q121 0 192 70t71 188q0 110 -66 172t-184 62q-126 0 -201.5 -80t-75.5 -213v-840q55 -60 143.5 -94.5t184.5 -34.5z" />
    <glyph glyph-name="gamma" unicode="&#x3b3;" horiz-adv-x="1200" 
d="M1112 1118q0 -265 -115 -563.5t-295 -517.5v-467h-241v440l-441 1108h259l313 -864h4q111 142 194.5 386.5t83.5 477.5h238z" />
    <glyph glyph-name="delta" unicode="&#x3b4;" horiz-adv-x="1290" 
d="M770 1071q147 -85 238.5 -166.5t142.5 -184.5t51 -228q0 -227 -157.5 -374t-411.5 -147q-240 0 -392.5 137t-152.5 361q0 173 109 317t288 207q-125 79 -184 157.5t-59 178.5q0 151 120.5 238.5t333.5 87.5q173 0 402 -80v-211q-214 86 -383 86q-102 0 -161.5 -33.5
t-59.5 -101.5q0 -57 52.5 -102t223.5 -142zM641 188q141 0 230.5 85.5t89.5 220.5q0 119 -69.5 210.5t-227.5 180.5q-151 -54 -243.5 -165.5t-92.5 -238.5q0 -133 85 -213t228 -80z" />
    <glyph glyph-name="epsilon" unicode="&#x3b5;" horiz-adv-x="1075" 
d="M618 174q194 0 363 76v-203q-179 -74 -403 -74q-230 0 -356 85.5t-126 240.5q0 92 62 167.5t159 106.5q-88 27 -139 98t-51 160q0 148 119 230t332 82q102 0 211 -21t180 -53v-199q-73 33 -173 53.5t-188 20.5q-239 0 -239 -139q0 -68 57 -109t152 -41h241v-176h-239
q-105 0 -171.5 -41.5t-66.5 -113.5q0 -150 276 -150z" />
    <glyph glyph-name="zeta" unicode="&#x3b6;" horiz-adv-x="1007" 
d="M991 1499q-298 -286 -475.5 -550.5t-177.5 -422.5q0 -88 42 -139t157 -102l243 -105q205 -87 205 -274q0 -157 -125 -336h-268q143 179 143 293q0 47 -32.5 81.5t-104.5 63.5l-209 88q-158 64 -229.5 159.5t-71.5 240.5q0 177 135.5 401t429.5 535h-491v208h829v-141z
" />
    <glyph glyph-name="eta" unicode="&#x3b7;" horiz-adv-x="1314" 
d="M772 1145q181 0 288 -108.5t107 -293.5v-1173h-241v1096q0 254 -226 254q-106 0 -176.5 -69.5t-70.5 -174.5v-676h-242v811q0 66 -23 92.5t-77 26.5q-31 0 -52 -6v200q49 11 103 11q211 0 268 -183q53 85 142 139t200 54z" />
    <glyph glyph-name="theta" unicode="&#x3b8;" horiz-adv-x="1353" 
d="M678 1649q259 0 413 -220.5t154 -613.5q0 -399 -153.5 -621.5t-413.5 -222.5q-259 0 -413 223t-154 621q0 393 154.5 613.5t412.5 220.5zM678 1434q-149 0 -238 -132t-104 -384h682q-15 252 -103.5 384t-236.5 132zM678 186q151 0 239 137t101 402h-682q13 -263 102 -401
t240 -138z" />
    <glyph glyph-name="iota" unicode="&#x3b9;" horiz-adv-x="718" 
d="M559 -18q-194 0 -300.5 101.5t-106.5 305.5v729h241v-712q0 -110 52.5 -161.5t166.5 -51.5q42 0 97 10v-205q-68 -16 -150 -16z" />
    <glyph glyph-name="kappa" unicode="&#x3ba;" horiz-adv-x="1232" 
d="M924 0l-316 494l-211 -248v-246h-241v1118h241v-598l514 598h275l-408 -471l430 -647h-284z" />
    <glyph glyph-name="lambda" unicode="&#x3bb;" horiz-adv-x="1204" 
d="M1157 0h-246l-303 834h-6l-317 -834h-256l463 1104l-78 203q-26 69 -72 101t-117 32q-37 0 -82 -10v202q70 15 133 15q126 0 209 -57t129 -177z" />
    <glyph glyph-name="uni03BC" unicode="&#x3bc;" horiz-adv-x="1327" 
d="M1221 188q25 0 49 7v-201q-38 -12 -96 -12q-197 0 -256 174q-40 -78 -118 -128.5t-173 -50.5q-85 0 -155.5 35.5t-113.5 98.5l45 -541h-247v1548h241v-674q0 -116 63.5 -179.5t174.5 -63.5q112 0 174.5 63.5t62.5 188.5v665h242v-811q0 -66 25.5 -92.5t81.5 -26.5z" />
    <glyph glyph-name="nu" unicode="&#x3bd;" horiz-adv-x="1196" 
d="M449 0l-426 1118h260l309 -889h4q113 149 193.5 403.5t80.5 485.5h240q0 -278 -122 -589t-312 -529h-227z" />
    <glyph glyph-name="xi" unicode="&#x3be;" horiz-adv-x="1079" 
d="M696 1432q-155 0 -239 -58.5t-84 -165.5q0 -106 75.5 -166.5t208.5 -60.5h226l-2 -201h-211q-151 0 -242.5 -69t-91.5 -183q0 -81 43.5 -134t146.5 -97l273 -117q205 -88 205 -272q0 -155 -125 -338h-269q144 184 144 293q0 47 -33 81.5t-105 63.5l-219 92
q-161 66 -235 158.5t-74 224.5q0 134 78.5 241.5t212.5 160.5q-114 53 -177 145t-63 209q0 189 142.5 299.5t386.5 110.5q96 0 198 -19.5t168 -50.5v-221q-69 33 -161.5 53.5t-176.5 20.5z" />
    <glyph glyph-name="omicron" unicode="&#x3bf;" horiz-adv-x="1316" 
d="M659 -27q-160 0 -290 75t-204.5 209.5t-74.5 301.5t75 301.5t205 209.5t289 75q160 0 290 -75t204 -209.5t74 -301.5t-74 -301.5t-204 -209.5t-290 -75zM659 195q85 0 157.5 42t119.5 126.5t47 195.5q0 84 -27 154t-72.5 115.5t-103.5 70.5t-121 25t-121 -25
t-103.5 -70.5t-73 -115.5t-27.5 -154t27.5 -154t73 -115t103.5 -70t121 -25z" />
    <glyph glyph-name="pi" unicode="&#x3c0;" horiz-adv-x="1490" 
d="M1397 911h-252v-510q0 -110 40 -159t134 -49q34 0 76 10v-205q-53 -16 -135 -16q-177 0 -267 102.5t-90 300.5v526h-375v-911h-239v911h-248v207h1356v-207z" />
    <glyph glyph-name="rho" unicode="&#x3c1;" horiz-adv-x="1337" 
d="M131 -430v922q0 305 149 479t410 174q158 0 284.5 -75.5t198.5 -210t72 -302.5q0 -248 -144 -415t-356 -169q-115 0 -216 55t-152 146h-4v-604h-242zM688 195q137 0 226.5 103.5t89.5 262.5q0 155 -91 259t-227 104t-223.5 -105.5t-87.5 -269.5q0 -151 90 -252.5
t223 -101.5z" />
    <glyph glyph-name="uni03C2" unicode="&#x3c2;" horiz-adv-x="1058" 
d="M578 -430q143 184 143 293q0 46 -31.5 79.5t-105.5 65.5l-178 78q-316 142 -316 475q0 255 161.5 419.5t410.5 164.5q182 0 317 -80v-234q-127 93 -289 93q-156 0 -257 -101.5t-101 -257.5q0 -103 49 -171.5t156 -112.5l229 -101q205 -91 205 -274q0 -152 -125 -336h-268
z" />
    <glyph glyph-name="sigma" unicode="&#x3c3;" horiz-adv-x="1376" 
d="M1352 1118v-207h-334q190 -143 190 -393q0 -233 -158 -388t-397 -155q-243 0 -403 162.5t-160 409.5t160 409t403 162h699zM653 195q137 0 228.5 101t91.5 257q0 151 -91 250.5t-229 99.5t-228.5 -100t-90.5 -254q0 -153 91 -253.5t228 -100.5z" />
    <glyph glyph-name="tau" unicode="&#x3c4;" horiz-adv-x="1120" 
d="M1061 911h-436v-491q0 -121 59 -174t178 -53q51 0 103 10v-205q-69 -16 -156 -16q-205 0 -315.5 102t-110.5 307v520h-344v207h1022v-207z" />
    <glyph glyph-name="upsilon" unicode="&#x3c5;" horiz-adv-x="1245" 
d="M623 -27q-227 0 -353.5 121.5t-126.5 339.5v684h242v-674q0 -124 62 -187.5t182 -63.5q268 0 268 376q0 292 -127 549h250q119 -235 119 -559q0 -277 -136 -431.5t-380 -154.5z" />
    <glyph glyph-name="phi" unicode="&#x3c6;" horiz-adv-x="1630" 
d="M1538 559q0 -262 -169 -422t-435 -162v-405h-236v405q-266 2 -436 162t-170 422q0 261 169.5 420.5t436.5 161.5v313h236v-313q174 -1 311 -72.5t215 -204t78 -305.5zM330 559q0 -176 99.5 -277.5t268.5 -103.5v760q-168 -2 -268 -103.5t-100 -275.5zM934 178
q167 2 266.5 103.5t99.5 277.5q0 174 -99.5 275.5t-266.5 103.5v-760z" />
    <glyph glyph-name="chi" unicode="&#x3c7;" horiz-adv-x="1087" 
d="M1081 -430h-254l-297 561l-258 -561h-241l387 774l-412 774h256l303 -573l262 573h240l-389 -786z" />
    <glyph glyph-name="psi" unicode="&#x3c8;" horiz-adv-x="1611" 
d="M1505 582q0 -281 -154.5 -443.5t-422.5 -165.5v-413h-234v413q-267 1 -409 130.5t-142 369.5v645h238v-643q0 -145 76 -214.5t237 -70.5v1264h234v-1264q163 3 251.5 106t88.5 290q0 291 -107 532h248q96 -244 96 -536z" />
    <glyph glyph-name="omega" unicode="&#x3c9;" horiz-adv-x="1765" 
d="M1511 1118q71 -122 111.5 -280.5t40.5 -313.5q0 -257 -113.5 -403t-314.5 -146q-248 0 -352 248q-104 -248 -353 -248q-200 0 -314 146.5t-114 402.5q0 156 40.5 315t111.5 279h250q-74 -125 -117 -285t-43 -313q0 -323 207 -323q100 0 155.5 81t55.5 226v354h242v-354
q0 -146 56 -226.5t157 -80.5q204 0 204 323q0 153 -42.5 313t-114.5 285h247z" />
    <glyph glyph-name="iotadieresis" unicode="&#x3ca;" horiz-adv-x="718" 
d="M72 1313q-53 0 -90 36.5t-37 88.5q0 51 37.5 88t89.5 37t89.5 -37t37.5 -88q0 -52 -37 -88.5t-90 -36.5zM512 1313q-54 0 -90.5 36t-36.5 89q0 52 36.5 88.5t90.5 36.5t90.5 -36.5t36.5 -88.5q0 -53 -36.5 -89t-90.5 -36zM559 -18q-194 0 -300.5 101.5t-106.5 305.5v729
h241v-712q0 -110 52.5 -161.5t166.5 -51.5q42 0 97 10v-205q-68 -16 -150 -16z" />
    <glyph glyph-name="upsilondieresis" unicode="&#x3cb;" horiz-adv-x="1245" 
d="M385 1313q-53 0 -90 36.5t-37 88.5q0 51 37.5 88t89.5 37t89.5 -37t37.5 -88q0 -52 -37 -88.5t-90 -36.5zM825 1313q-54 0 -90.5 36t-36.5 89q0 52 37 88.5t90 36.5t90 -36.5t37 -88.5q0 -53 -36.5 -89t-90.5 -36zM623 -27q-227 0 -353.5 121.5t-126.5 339.5v684h242
v-674q0 -124 62 -187.5t182 -63.5q268 0 268 376q0 292 -127 549h250q119 -235 119 -559q0 -277 -136 -431.5t-380 -154.5z" />
    <glyph glyph-name="omicrontonos" unicode="&#x3cc;" horiz-adv-x="1316" 
d="M676 1763h227l-190 -467h-168zM659 -27q-160 0 -290 75t-204.5 209.5t-74.5 301.5t75 301.5t205 209.5t289 75q160 0 290 -75t204 -209.5t74 -301.5t-74 -301.5t-204 -209.5t-290 -75zM659 195q85 0 157.5 42t119.5 126.5t47 195.5q0 84 -27 154t-72.5 115.5t-103.5 70.5
t-121 25t-121 -25t-103.5 -70.5t-73 -115.5t-27.5 -154t27.5 -154t73 -115t103.5 -70t121 -25z" />
    <glyph glyph-name="upsilontonos" unicode="&#x3cd;" horiz-adv-x="1245" 
d="M637 1763h227l-190 -467h-168zM623 -27q-227 0 -353.5 121.5t-126.5 339.5v684h242v-674q0 -124 62 -187.5t182 -63.5q268 0 268 376q0 292 -127 549h250q119 -235 119 -559q0 -277 -136 -431.5t-380 -154.5z" />
    <glyph glyph-name="omegatonos" unicode="&#x3ce;" horiz-adv-x="1765" 
d="M1139 1763l-191 -467h-168l131 467h228zM1511 1118q71 -122 111.5 -280.5t40.5 -313.5q0 -257 -113.5 -403t-314.5 -146q-248 0 -352 248q-104 -248 -353 -248q-200 0 -314 146.5t-114 402.5q0 156 40.5 315t111.5 279h250q-74 -125 -117 -285t-43 -313q0 -323 207 -323
q100 0 155.5 81t55.5 226v354h242v-354q0 -146 56 -226.5t157 -80.5q204 0 204 323q0 153 -42.5 313t-114.5 285h247z" />
    <glyph glyph-name="uni0401" unicode="&#x401;" horiz-adv-x="1206" 
d="M414 1720q-53 0 -90 36.5t-37 88.5q0 51 37.5 88t89.5 37t89.5 -37t37.5 -88q0 -52 -37 -88.5t-90 -36.5zM854 1720q-54 0 -90.5 36t-36.5 89q0 51 36.5 88t90.5 37t90.5 -37t36.5 -88q0 -53 -36.5 -89t-90.5 -36zM193 0v1524h882v-224h-637v-419h586v-211h-586v-447h637
v-223h-882z" />
    <glyph glyph-name="uni0402" unicode="&#x402;" horiz-adv-x="1542" 
d="M993 940q218 0 350 -121t132 -340q0 -216 -130.5 -347.5t-355.5 -131.5h-47v209h21q122 0 191 66.5t69 185.5q0 129 -75 194.5t-210 65.5q-158 0 -287 -55v-666h-245v1298h-361v226h1151v-221h-545v-418q155 55 342 55z" />
    <glyph glyph-name="uni0408" unicode="&#x408;" horiz-adv-x="974" 
d="M57 330q111 -127 256 -127q111 0 174.5 71.5t63.5 206.5v1043h246v-1078q0 -210 -120.5 -340.5t-328.5 -130.5q-81 0 -158 27t-133 74v254z" />
    <glyph glyph-name="uni0409" unicode="&#x409;" horiz-adv-x="2074" 
d="M1409 1001q284 0 441 -123.5t157 -359.5q0 -237 -165 -374.5t-435 -137.5h-395v1292h-486v-610q0 -358 -123 -523t-391 -165v215q145 0 210 111.5t65 357.5v840h962v-523h160zM1419 219q158 0 249 78t91 215q0 136 -89.5 206t-252.5 70h-168v-569h170z" />
    <glyph glyph-name="uni040A" unicode="&#x40a;" horiz-adv-x="2177" 
d="M1526 936q281 0 433 -114t152 -339q0 -228 -156 -355.5t-427 -127.5h-418v713h-672v-713h-245v1524h245v-588h672v588h238v-588h178zM1532 209q159 0 247.5 68.5t88.5 197.5q0 252 -338 252h-182v-518h184z" />
    <glyph glyph-name="uni040B" unicode="&#x40b;" horiz-adv-x="1566" 
d="M1004 946q224 0 344 -112t120 -342v-492h-245v432q0 151 -66 219t-209 68q-167 0 -295 -53v-666h-245v1298h-363v226h363v2h245v-2h547v-221h-547v-412q160 55 351 55z" />
    <glyph glyph-name="uni040F" unicode="&#x40f;" horiz-adv-x="1521" 
d="M1329 1524v-1524h-457v-348h-223v348h-456v1524h245v-1299h647v1299h244z" />
    <glyph glyph-name="uni0410" unicode="&#x410;" horiz-adv-x="1495" 
d="M1479 0h-260l-162 428h-621l-162 -428h-256l588 1524h281zM745 1262l-235 -623h473z" />
    <glyph glyph-name="uni0411" unicode="&#x411;" horiz-adv-x="1298" 
d="M635 942q285 0 431 -117t146 -340q0 -225 -152.5 -355t-418.5 -130h-448v1524h925v-213h-680v-369h197zM629 213q158 0 246 68t88 196q0 125 -84 190.5t-252 65.5h-189v-520h191z" />
    <glyph glyph-name="uni0412" unicode="&#x412;" horiz-adv-x="1353" 
d="M975 786q135 -42 205.5 -136.5t70.5 -227.5q0 -87 -33.5 -162t-97 -133.5t-166 -92.5t-231.5 -34h-530v1524h503q242 0 375 -112t133 -288q0 -126 -62.5 -212.5t-166.5 -125.5zM436 1311v-441h256q130 0 203.5 63t73.5 163q0 99 -71 157t-196 58h-266zM709 215
q144 0 222.5 65t78.5 171q0 107 -80.5 169t-210.5 62h-283v-467h273z" />
    <glyph glyph-name="uni0413" unicode="&#x413;" horiz-adv-x="1071" 
d="M193 0v1524h835v-224h-590v-1300h-245z" />
    <glyph glyph-name="uni0414" unicode="&#x414;" horiz-adv-x="1570" 
d="M1298 225h197v-573h-225v348h-1012v-348h-227v573h153q66 95 106 243t40 404v652h968v-1299zM567 852q0 -408 -129 -627h615v1073h-486v-446z" />
    <glyph glyph-name="uni0415" unicode="&#x415;" horiz-adv-x="1206" 
d="M193 0v1524h882v-224h-637v-419h586v-211h-586v-447h637v-223h-882z" />
    <glyph glyph-name="uni0416" unicode="&#x416;" horiz-adv-x="2099" 
d="M2091 0h-301l-619 739v-739h-243v739l-619 -739h-301l662 772l-654 752h297l615 -731v731h243v-731l615 731h297l-653 -752z" />
    <glyph glyph-name="uni0417" unicode="&#x417;" horiz-adv-x="1198" 
d="M805 784q123 -30 199.5 -128t76.5 -234q0 -203 -145.5 -329t-390.5 -126q-255 0 -447 133v256q74 -70 189 -119t231 -49q141 0 227 69t86 183q0 232 -329 232h-185v209h203q135 0 212 59.5t77 167.5q0 107 -82 169t-221 62q-100 0 -202 -31.5t-183 -88.5v239
q190 101 418 101q249 0 381.5 -112t132.5 -306q0 -124 -71 -220.5t-177 -136.5z" />
    <glyph glyph-name="uni0418" unicode="&#x418;" horiz-adv-x="1648" 
d="M193 0v1524h233v-1153h2l791 1153h237v-1524h-233v1163h-2l-791 -1163h-237z" />
    <glyph glyph-name="uni0419" unicode="&#x419;" horiz-adv-x="1648" 
d="M1190 2025q1 -161 -99 -247t-255 -86t-256.5 86t-100.5 247h189q2 -90 43.5 -141t124.5 -51t124 51t41 141h189zM193 0v1524h233v-1153h2l791 1153h237v-1524h-233v1163h-2l-791 -1163h-237z" />
    <glyph glyph-name="uni041A" unicode="&#x41a;" horiz-adv-x="1396" 
d="M1393 0h-306l-649 739v-739h-245v1524h245v-733l647 733h295l-673 -754z" />
    <glyph glyph-name="uni041B" unicode="&#x41b;" horiz-adv-x="1449" 
d="M12 -10v217q145 0 210 111.5t65 357.5v848h970v-1524h-245v1298h-484v-620q0 -358 -124 -523t-392 -165z" />
    <glyph glyph-name="uni041C" unicode="&#x41c;" horiz-adv-x="1994" 
d="M496 1174l-164 -1174h-238l230 1524h292l385 -1153h3l374 1153h293l227 -1524h-239l-162 1182h-6l-387 -1182h-215l-387 1174h-6z" />
    <glyph glyph-name="uni041D" unicode="&#x41d;" horiz-adv-x="1611" 
d="M1174 0v655h-736v-655h-245v1524h245v-641h736v641h245v-1524h-245z" />
    <glyph glyph-name="uni041E" unicode="&#x41e;" horiz-adv-x="1736" 
d="M868 -33q-163 0 -305.5 60.5t-244.5 165.5t-161 252.5t-59 316.5q0 168 59 315.5t160.5 252.5t244.5 165.5t306 60.5t305.5 -60.5t244 -165.5t160 -252.5t58.5 -315.5q0 -169 -58.5 -316.5t-160 -252.5t-244 -165.5t-305.5 -60.5zM868 197q101 0 193.5 38.5t165 109
t116 179t43.5 238.5t-43.5 239t-116 179.5t-165.5 109.5t-193 39q-102 0 -195.5 -39t-166 -109.5t-115.5 -179.5t-43 -239q0 -131 43.5 -239.5t116.5 -178.5t166 -108.5t194 -38.5z" />
    <glyph glyph-name="uni041F" unicode="&#x41f;" horiz-adv-x="1560" 
d="M1124 0v1298h-686v-1298h-245v1524h1175v-1524h-244z" />
    <glyph glyph-name="uni0420" unicode="&#x420;" horiz-adv-x="1286" 
d="M193 0v1524h403q288 0 454.5 -136.5t166.5 -373.5q0 -236 -165 -383.5t-446 -147.5h-168v-483h-245zM618 707q161 0 256 79.5t95 219.5t-94 216t-257 76h-180v-591h180z" />
    <glyph glyph-name="uni0421" unicode="&#x421;" horiz-adv-x="1370" 
d="M1276 72q-191 -103 -410 -103q-153 0 -292 57t-245 158t-168.5 252t-62.5 328q0 176 62.5 326.5t168.5 251.5t245 157.5t292 56.5q221 0 410 -102v-252q-98 63 -188.5 94t-202.5 31q-103 0 -199.5 -39.5t-171.5 -110.5t-120.5 -179t-45.5 -236q0 -126 45.5 -234
t120.5 -179t171.5 -110.5t199.5 -39.5q111 0 201.5 31.5t189.5 95.5v-254z" />
    <glyph glyph-name="uni0422" unicode="&#x422;" horiz-adv-x="1267" 
d="M512 0v1298h-469v226h1182v-226h-469v-1298h-244z" />
    <glyph glyph-name="uni0423" unicode="&#x423;" horiz-adv-x="1382" 
d="M1128 1524h252l-485 -1114q-104 -236 -239.5 -330t-368.5 -94v215q132 0 210.5 43t135.5 153l-615 1127h267l471 -899z" />
    <glyph glyph-name="uni0424" unicode="&#x424;" horiz-adv-x="1806" 
d="M1718 782q0 -143 -53.5 -267.5t-145.5 -212.5t-221 -138.5t-276 -50.5v-144h-238v144q-196 0 -355 85.5t-250 239t-91 344.5q0 143 53.5 267.5t145.5 213t221 139t276 50.5v143h238v-143q147 0 276 -50.5t221.5 -138.5t145.5 -212.5t53 -268.5zM324 782q0 -196 131 -326
t329 -130v913q-198 0 -329 -130t-131 -327zM1022 326q200 0 331.5 130t131.5 326q0 197 -132 327t-331 130v-913z" />
    <glyph glyph-name="uni0425" unicode="&#x425;" horiz-adv-x="1382" 
d="M27 0l510 766l-504 758h282l381 -580l373 580h279l-502 -756l512 -768h-283l-387 586l-381 -586h-280z" />
    <glyph glyph-name="uni0426" unicode="&#x426;" horiz-adv-x="1605" 
d="M1331 225h199v-573h-223v348h-1114v1524h245v-1299h649v1299h244v-1299z" />
    <glyph glyph-name="uni0427" unicode="&#x427;" horiz-adv-x="1345" 
d="M907 1524h246v-1524h-246v614q-165 -59 -342 -59q-224 0 -345.5 119.5t-121.5 351.5v498h244v-447q0 -153 70.5 -224t216.5 -71q148 0 278 58v684z" />
    <glyph glyph-name="uni0428" unicode="&#x428;" horiz-adv-x="2091" 
d="M1653 1524h245v-1524h-1705v1524h245v-1299h486v1299h243v-1299h486v1299z" />
    <glyph glyph-name="uni0429" unicode="&#x429;" horiz-adv-x="2164" 
d="M1890 225h199v-573h-223v348h-1673v1524h245v-1299h482v1299h243v-1299h484v1299h243v-1299z" />
    <glyph glyph-name="uni042A" unicode="&#x42a;" horiz-adv-x="1544" 
d="M881 1001q281 0 438.5 -126t157.5 -361q0 -239 -164 -376.5t-434 -137.5h-412v1298h-424v226h668v-523h170zM889 215q158 0 249 77t91 214q0 136 -90 209t-252 73h-176v-573h178z" />
    <glyph glyph-name="uni042B" unicode="&#x42b;" horiz-adv-x="1828" 
d="M598 1001q281 0 438.5 -126t157.5 -361q0 -239 -164 -376.5t-434 -137.5h-403v1524h245v-523h160zM1391 1524h245v-1524h-245v1524zM606 215q158 0 249 77t91 214q0 136 -90 209t-252 73h-166v-573h168z" />
    <glyph glyph-name="uni042C" unicode="&#x42c;" horiz-adv-x="1277" 
d="M612 1001q281 0 438.5 -126t157.5 -361q0 -239 -164 -376.5t-434 -137.5h-417v1524h245v-523h174zM621 215q158 0 249 77t91 214q0 136 -90.5 209t-252.5 73h-180v-573h183z" />
    <glyph glyph-name="uni042D" unicode="&#x42d;" horiz-adv-x="1415" 
d="M541 1552q160 0 300.5 -54t246 -153.5t166.5 -250t61 -332.5t-61.5 -332t-168 -249t-249 -153.5t-304.5 -54.5q-225 0 -426 95v241q190 -110 406 -110q222 0 372 121.5t177 345.5h-729v206h727q-28 216 -176.5 333.5t-364.5 117.5q-237 0 -412 -104v237q203 96 435 96z
" />
    <glyph glyph-name="uni042E" unicode="&#x42e;" horiz-adv-x="2236" 
d="M1401 1550q156 0 292 -58.5t233.5 -161.5t153.5 -250t56 -316q0 -171 -56 -318.5t-153.5 -251t-233.5 -162.5t-292 -59q-191 0 -349.5 86t-258.5 241t-123 353h-232v-653h-245v1524h245v-652h232q34 301 237.5 489.5t493.5 188.5zM1401 199q215 0 352 158t137 407
q0 246 -137.5 403.5t-351.5 157.5t-352 -157t-138 -404q0 -248 138 -406.5t352 -158.5z" />
    <glyph glyph-name="uni042F" unicode="&#x42f;" horiz-adv-x="1331" 
d="M686 1524h453v-1524h-246v664l-537 -664h-303l525 592q-126 15 -218 60t-142.5 111t-73.5 138t-23 154q0 222 151 345.5t414 123.5zM694 784h199v514h-205q-158 0 -238.5 -65.5t-80.5 -188.5q0 -128 84 -194t241 -66z" />
    <glyph glyph-name="uni0430" unicode="&#x430;" horiz-adv-x="1370" 
d="M594 -27q-96 0 -186.5 42.5t-160.5 117t-112.5 185.5t-42.5 239q0 129 42.5 241t112.5 187t160.5 117.5t186.5 42.5q123 0 225 -58t162 -161l27 192h200v-1118h-200l-27 193q-60 -103 -162.5 -161.5t-224.5 -58.5zM655 195q135 0 226.5 102.5t91.5 261.5
q0 158 -91.5 261.5t-226.5 103.5q-137 0 -229 -103t-92 -262q0 -160 91.5 -262t229.5 -102z" />
    <glyph glyph-name="uni0431" unicode="&#x431;" horiz-adv-x="1341" 
d="M748 1083q147 0 261.5 -72.5t176 -197.5t61.5 -281q0 -245 -153.5 -402t-397.5 -157q-272 0 -423 186t-150 527q0 207 34.5 359t106 255t170 165.5t236.5 99.5q120 34 499 92v-225q-251 -33 -442 -78q-179 -45 -270 -158t-111 -330q66 102 173 159.5t229 57.5zM688 188
q143 0 233.5 96t90.5 248q0 150 -89 246t-229 96q-144 0 -238 -94t-94 -237q0 -154 92 -254.5t234 -100.5z" />
    <glyph glyph-name="uni0432" unicode="&#x432;" horiz-adv-x="1155" 
d="M850 573q96 -28 152.5 -99t56.5 -167q0 -141 -109.5 -224t-296.5 -83h-493v1118h479q180 0 282.5 -79t102.5 -216q0 -86 -47 -153.5t-127 -96.5zM395 940v-293h213q88 0 137.5 39t49.5 113q0 141 -195 141h-205zM612 176q211 0 211 158q0 74 -57 113.5t-156 39.5h-215
v-311h217z" />
    <glyph glyph-name="uni0433" unicode="&#x433;" horiz-adv-x="886" 
d="M160 0v1118h688v-203h-447v-915h-241z" />
    <glyph glyph-name="uni0434" unicode="&#x434;" horiz-adv-x="1327" 
d="M1087 203h168v-465h-217v262h-780v-262h-215v465h121q106 150 106 415v500h817v-915zM504 614q0 -237 -96 -411h440v715h-344v-304z" />
    <glyph glyph-name="uni0435" unicode="&#x435;" horiz-adv-x="1222" 
d="M1135 580q0 -44 -7 -95h-804q26 -146 129 -228.5t252 -82.5q193 0 364 133v-217q-173 -117 -389 -117q-272 0 -430 160.5t-158 421.5q0 131 44 242.5t118.5 187t174.5 118t212 42.5q102 0 191 -36.5t157 -106t107 -178.5t39 -244zM324 647h581q-4 143 -80 220t-186 77
q-117 0 -205.5 -81t-109.5 -216z" />
    <glyph glyph-name="uni0436" unicode="&#x436;" horiz-adv-x="1640" 
d="M1620 0h-285l-391 547v-547h-237v549l-394 -549h-282l440 580l-428 538h279l385 -518v518h237v-516l383 516h279l-426 -538z" />
    <glyph glyph-name="uni0437" unicode="&#x437;" horiz-adv-x="1030" 
d="M721 578q97 -30 155 -102.5t58 -170.5q0 -148 -122 -240t-329 -92q-219 0 -387 109v235q173 -141 381 -141q101 0 159 41.5t58 112.5t-62 110t-177 39h-172v176h176q98 0 152.5 42.5t54.5 113.5q0 64 -53.5 96.5t-153.5 32.5q-91 0 -183 -27.5t-157 -78.5v219
q70 44 166 68t194 24q201 0 311.5 -81t110.5 -222q0 -92 -51 -162.5t-129 -101.5z" />
    <glyph glyph-name="uni0438" unicode="&#x438;" horiz-adv-x="1282" 
d="M160 0v1116h225v-762h4l506 762h227v-1116h-227v756h-2l-496 -756h-237z" />
    <glyph glyph-name="uni0439" unicode="&#x439;" horiz-adv-x="1282" 
d="M993 1618q1 -161 -99 -247.5t-255 -86.5t-256 86.5t-100 247.5h188q2 -90 43.5 -141.5t124.5 -51.5t124.5 51.5t41.5 141.5h188zM160 0v1116h225v-762h4l506 762h227v-1116h-227v756h-2l-496 -756h-237z" />
    <glyph glyph-name="uni043A" unicode="&#x43a;" horiz-adv-x="1132" 
d="M1114 0h-289l-424 555v-555h-241v1118h241v-522l416 522h283l-451 -538z" />
    <glyph glyph-name="uni043B" unicode="&#x43b;" horiz-adv-x="1204" 
d="M37 -10l2 211q102 0 147 71.5t45 241.5v604h811v-1118h-241v913h-332v-424q0 -259 -105 -379t-327 -120z" />
    <glyph glyph-name="uni043C" unicode="&#x43c;" horiz-adv-x="1515" 
d="M106 0l121 1116h262l269 -764h4l270 764h254l125 -1116h-231l-64 762h-6l-264 -746h-180l-263 750h-6l-61 -766h-230z" />
    <glyph glyph-name="uni043D" unicode="&#x43d;" horiz-adv-x="1265" 
d="M160 0v1118h241v-456h463v456h242v-1118h-242v457h-463v-457h-241z" />
    <glyph glyph-name="uni043E" unicode="&#x43e;" horiz-adv-x="1316" 
d="M659 -27q-160 0 -290 75t-204.5 209.5t-74.5 301.5t75 301.5t205 209.5t289 75q160 0 290 -75t204 -209.5t74 -301.5t-74 -301.5t-204 -209.5t-290 -75zM659 195q85 0 157.5 42t119.5 126.5t47 195.5q0 84 -27 154t-72.5 115.5t-103.5 70.5t-121 25t-121 -25
t-103.5 -70.5t-73 -115.5t-27.5 -154t27.5 -154t73 -115t103.5 -70t121 -25z" />
    <glyph glyph-name="uni043F" unicode="&#x43f;" horiz-adv-x="1249" 
d="M160 0v1118h930v-1118h-242v913h-447v-913h-241z" />
    <glyph glyph-name="uni0440" unicode="&#x440;" horiz-adv-x="1372" 
d="M160 -430v1548h200l27 -192q60 103 161.5 161t221.5 58q99 0 191 -42t162 -116.5t112.5 -186t42.5 -241.5t-41.5 -241.5t-111 -186t-160.5 -116.5t-189 -42q-115 0 -217.5 56.5t-157.5 152.5v-612h-241zM713 195q138 0 229.5 102.5t91.5 263.5q0 158 -91.5 260.5
t-227.5 102.5t-227 -102.5t-91 -262.5t90.5 -262t225.5 -102z" />
    <glyph glyph-name="uni0441" unicode="&#x441;" horiz-adv-x="1083" 
d="M334 559q0 -164 104.5 -264t251.5 -100q173 0 291 88v-232q-137 -78 -317 -78q-161 0 -292.5 76t-206.5 211t-75 301q0 164 75 298t206.5 210t292.5 76q188 0 317 -80v-234q-132 93 -293 93q-145 0 -249.5 -101t-104.5 -264z" />
    <glyph glyph-name="uni0442" unicode="&#x442;" horiz-adv-x="983" 
d="M371 0v913h-330v205h903v-205h-332v-913h-241z" />
    <glyph glyph-name="uni0443" unicode="&#x443;" horiz-adv-x="1150" 
d="M1118 1118l-608 -1548h-244l193 467l-420 1081h262l281 -807h4l282 807h250z" />
    <glyph glyph-name="uni0444" unicode="&#x444;" horiz-adv-x="1607" 
d="M1518 559q0 -129 -47.5 -239.5t-128.5 -185t-190.5 -117t-231.5 -42.5v-405h-232v405q-122 0 -231.5 42.5t-190.5 117t-128.5 185t-47.5 239.5q0 128 47 238t128 185t190.5 117t232.5 42v499h232v-499q123 0 232.5 -42t190.5 -117t128 -185t47 -238zM326 559
q0 -168 102 -275.5t260 -109.5v768q-157 -2 -259.5 -109t-102.5 -274zM920 174q158 2 260 109.5t102 275.5q0 167 -102.5 274t-259.5 109v-768z" />
    <glyph glyph-name="uni0445" unicode="&#x445;" horiz-adv-x="1128" 
d="M1083 1118l-378 -549l391 -569h-275l-258 397h-2l-260 -397h-264l387 559l-383 559h268l254 -395h4l254 395h262z" />
    <glyph glyph-name="uni0446" unicode="&#x446;" horiz-adv-x="1312" 
d="M1075 203h168v-465h-215v262h-868v1118h241v-915h433v915h241v-915z" />
    <glyph glyph-name="uni0447" unicode="&#x447;" horiz-adv-x="1128" 
d="M727 1118h242v-1118h-242v422q-133 -45 -270 -45q-184 0 -277.5 92t-93.5 272v377h242v-323q0 -109 48 -158t152 -49q114 0 199 37v493z" />
    <glyph glyph-name="uni0448" unicode="&#x448;" horiz-adv-x="1740" 
d="M1339 1116h242v-1116h-1421v1116h241v-913h351v913h237v-913h350v913z" />
    <glyph glyph-name="uni0449" unicode="&#x449;" horiz-adv-x="1810" 
d="M1575 203h168v-465h-217v262h-1366v1116h241v-913h347v913h239v-913h346v913h242v-913z" />
    <glyph glyph-name="uni044A" unicode="&#x44a;" horiz-adv-x="1247" 
d="M776 750q184 0 298 -103.5t114 -267.5q0 -163 -124.5 -271t-311.5 -108h-414v913h-295v205h537v-368h196zM743 182q93 0 150 55.5t57 141.5t-51.5 138t-142.5 52h-176v-387h163z" />
    <glyph glyph-name="uni044B" unicode="&#x44b;" horiz-adv-x="1558" 
d="M596 750q183 0 296.5 -103.5t113.5 -267.5q0 -163 -124.5 -271t-312.5 -108h-409v1118h241v-368h195zM1155 1118h242v-1118h-242v1118zM559 182q93 0 150 55.5t57 141.5t-52 138t-143 52h-170v-387h158z" />
    <glyph glyph-name="uni044C" unicode="&#x44c;" horiz-adv-x="1075" 
d="M608 750q183 0 295.5 -103.5t112.5 -267.5q0 -163 -124.5 -271t-311.5 -108h-420v1118h241v-368h207zM571 182q93 0 150 55.5t57 141.5t-51.5 138t-142.5 52h-183v-387h170z" />
    <glyph glyph-name="uni044D" unicode="&#x44d;" horiz-adv-x="1110" 
d="M436 1145q254 0 418 -162t164 -424q0 -264 -164.5 -424t-417.5 -160q-210 0 -338 72v205q129 -76 312 -76q150 0 248.5 77.5t119.5 221.5h-502v180h500q-23 138 -119 212.5t-243 74.5q-182 0 -316 -76v205q132 74 338 74z" />
    <glyph glyph-name="uni044E" unicode="&#x44e;" horiz-adv-x="1777" 
d="M1130 1141q113 0 214.5 -41.5t177 -115.5t120 -184.5t44.5 -240.5t-44.5 -241t-120.5 -185.5t-177 -116t-214 -41.5q-207 0 -361 132t-187 352h-181v-459h-241v1118h241v-461h181q32 220 186 352t362 132zM1130 197q136 0 225 101t89 261q0 161 -88.5 261t-225.5 100
q-135 0 -224 -100.5t-89 -260.5t89 -261t224 -101z" />
    <glyph glyph-name="uni044F" unicode="&#x44f;" horiz-adv-x="1130" 
d="M549 1118h422v-1118h-242v473l-381 -473h-285l369 408q-160 24 -244 121t-84 229q0 160 115.5 260t329.5 100zM539 567h190v353h-188q-99 0 -151 -47.5t-52 -129.5q0 -176 201 -176z" />
    <glyph glyph-name="uni0451" unicode="&#x451;" horiz-adv-x="1222" 
d="M420 1313q-53 0 -90 36.5t-37 88.5q0 51 37.5 88t89.5 37t89.5 -37t37.5 -88q0 -52 -37 -88.5t-90 -36.5zM860 1313q-54 0 -90.5 36t-36.5 89q0 52 36.5 88.5t90.5 36.5t90.5 -36.5t36.5 -88.5q0 -53 -36.5 -89t-90.5 -36zM1135 580q0 -44 -7 -95h-804
q26 -146 129 -228.5t252 -82.5q193 0 364 133v-217q-173 -117 -389 -117q-272 0 -430 160.5t-158 421.5q0 131 44 242.5t118.5 187t174.5 118t212 42.5q102 0 191 -36.5t157 -106t107 -178.5t39 -244zM324 647h581q-4 143 -80 220t-186 77q-117 0 -205.5 -81t-109.5 -216z
" />
    <glyph glyph-name="uni0452" unicode="&#x452;" horiz-adv-x="1263" 
d="M715 1128q186 0 293.5 -104t107.5 -297v-559q0 -190 -41 -333t-135 -265h-276q109 118 159.5 252t50.5 330v501q0 254 -225 254q-107 0 -177.5 -62t-70.5 -177v-668h-241v1288h-160v176h160v176h241v-176h314v-176h-314v-309h2q48 67 131.5 108t180.5 41z" />
    <glyph glyph-name="uni0458" unicode="&#x458;" horiz-adv-x="563" 
d="M283 1335q-60 0 -101 40t-41 98q0 60 41 99.5t101 39.5t100.5 -39.5t40.5 -99.5q0 -59 -40.5 -98.5t-100.5 -39.5zM-47 -430q108 118 158.5 252.5t50.5 329.5v966h241v-950q0 -190 -41 -333t-135 -265h-274z" />
    <glyph glyph-name="uni0459" unicode="&#x459;" horiz-adv-x="1697" 
d="M1231 750q183 0 295 -103.5t112 -267.5q0 -163 -124.5 -271t-311.5 -108h-403v913h-332l2 -415q1 -257 -103.5 -377.5t-326.5 -120.5l2 211q103 0 148 72t44 241l-2 594h803v-368h197zM1192 182q93 0 150 55.5t57 141.5t-51.5 138t-143.5 52h-170v-387h158z" />
    <glyph glyph-name="uni045A" unicode="&#x45a;" horiz-adv-x="1744" 
d="M1282 705q185 0 295.5 -93t110.5 -252q0 -157 -124 -258.5t-313 -101.5h-403v506h-447v-506h-241v1118h241v-413h447v413h235v-413h199zM1245 178q95 0 151 48t56 132q0 168 -195 168h-174v-348h162z" />
    <glyph glyph-name="uni045B" unicode="&#x45b;" horiz-adv-x="1263" 
d="M715 1128q186 0 293.5 -104t107.5 -297v-727h-242v653q0 254 -225 254q-107 0 -177.5 -62t-70.5 -177v-668h-241v1288h-160v176h160v176h241v-176h314v-176h-314v-309h2q48 67 131.5 108t180.5 41z" />
    <glyph glyph-name="uni045F" unicode="&#x45f;" horiz-adv-x="1236" 
d="M1075 1116v-1116h-350v-262h-217v262h-348v1116h241v-913h433v913h241z" />
    <glyph glyph-name="Wgrave" unicode="&#x1e80;" horiz-adv-x="2230" 
d="M1063 2034l235 -351h-192l-291 351h248zM1493 0l-373 1186h-2l-373 -1186h-256l-454 1524h252l338 -1215h2l374 1215h234l379 -1217h2l330 1217h245l-446 -1524h-252z" />
    <glyph glyph-name="wgrave" unicode="&#x1e81;" horiz-adv-x="1789" 
d="M844 1626l235 -350h-192l-291 350h248zM1153 0l-252 817h-6l-252 -817h-278l-310 1118h254l207 -856h6l256 856h244l256 -856h4l215 856h238l-308 -1118h-274z" />
    <glyph glyph-name="Wacute" unicode="&#x1e82;" horiz-adv-x="2230" 
d="M1182 2034h248l-291 -351h-193zM1493 0l-373 1186h-2l-373 -1186h-256l-454 1524h252l338 -1215h2l374 1215h234l379 -1217h2l330 1217h245l-446 -1524h-252z" />
    <glyph glyph-name="wacute" unicode="&#x1e83;" horiz-adv-x="1789" 
d="M963 1626h247l-290 -350h-193zM1153 0l-252 817h-6l-252 -817h-278l-310 1118h254l207 -856h6l256 856h244l256 -856h4l215 856h238l-308 -1118h-274z" />
    <glyph glyph-name="Wdieresis" unicode="&#x1e84;" horiz-adv-x="2230" 
d="M899 1720q-53 0 -90 36.5t-37 88.5q0 51 37.5 88t89.5 37t89.5 -37t37.5 -88q0 -52 -37 -88.5t-90 -36.5zM1339 1720q-54 0 -90.5 36t-36.5 89q0 51 37 88t90 37t90 -37t37 -88q0 -53 -36.5 -89t-90.5 -36zM1493 0l-373 1186h-2l-373 -1186h-256l-454 1524h252l338 -1215
h2l374 1215h234l379 -1217h2l330 1217h245l-446 -1524h-252z" />
    <glyph glyph-name="wdieresis" unicode="&#x1e85;" horiz-adv-x="1789" 
d="M680 1313q-53 0 -90 36.5t-37 88.5q0 51 37.5 88t89.5 37t89.5 -37t37.5 -88q0 -52 -37 -88.5t-90 -36.5zM1120 1313q-54 0 -90.5 36t-36.5 89q0 52 36.5 88.5t90.5 36.5t90.5 -36.5t36.5 -88.5q0 -53 -36.5 -89t-90.5 -36zM1153 0l-252 817h-6l-252 -817h-278l-310 1118
h254l207 -856h6l256 856h244l256 -856h4l215 856h238l-308 -1118h-274z" />
    <glyph glyph-name="uni1E9E" unicode="&#x1e9e;" horiz-adv-x="1552" 
d="M1026 852q189 -8 310.5 -123.5t121.5 -294.5q0 -91 -34.5 -174t-99 -148.5t-166.5 -104t-228 -38.5q-206 0 -348 109v235q136 -129 311 -129q145 0 231 79.5t86 193.5t-85 187t-236 73h-205l403 526q-124 86 -270 86q-174 0 -285.5 -106.5t-111.5 -290.5v-932h-246v954
q0 267 185 434.5t481 167.5q325 0 565 -213z" />
    <glyph glyph-name="Ygrave" unicode="&#x1ef2;" horiz-adv-x="1382" 
d="M639 2034l235 -351h-192l-291 351h248zM571 0v629l-563 895h275l411 -672h4l408 672h266l-559 -893v-631h-242z" />
    <glyph glyph-name="ygrave" unicode="&#x1ef3;" horiz-adv-x="1148" 
d="M526 1626l236 -350h-193l-290 350h247zM1116 1118l-608 -1548h-244l193 467l-420 1081h262l281 -807h4l282 807h250z" />
    <glyph glyph-name="endash" unicode="&#x2013;" horiz-adv-x="1048" 
d="M143 555v197h762v-197h-762z" />
    <glyph glyph-name="emdash" unicode="&#x2014;" horiz-adv-x="1652" 
d="M143 555v197h1366v-197h-1366z" />
    <glyph glyph-name="quoteleft" unicode="&#x2018;" horiz-adv-x="526" 
d="M432 1524q-86 -289 -86 -486v-98h-221v84q0 193 131 500h176z" />
    <glyph glyph-name="quoteright" unicode="&#x2019;" horiz-adv-x="524" 
d="M113 940q86 289 86 485v99h221v-84q0 -193 -131 -500h-176z" />
    <glyph glyph-name="quotesinglbase" unicode="&#x201a;" horiz-adv-x="522" 
d="M70 -272q86 289 86 485v98h221v-84q0 -192 -131 -499h-176z" />
    <glyph glyph-name="quotedblleft" unicode="&#x201c;" horiz-adv-x="931" 
d="M432 1524q-86 -289 -86 -486v-98h-221v84q0 193 131 500h176zM840 1524q-86 -289 -86 -486v-98h-222v84q0 191 132 500h176z" />
    <glyph glyph-name="quotedblright" unicode="&#x201d;" horiz-adv-x="927" 
d="M113 940q86 289 86 485v99h221v-84q0 -193 -131 -500h-176zM516 940q86 289 86 485v99h221v-84q0 -193 -131 -500h-176z" />
    <glyph glyph-name="quotedblbase" unicode="&#x201e;" horiz-adv-x="937" 
d="M70 -274q86 289 86 485v98h221v-84q0 -192 -131 -499h-176zM485 -274q86 289 86 485v98h222v-84q0 -192 -131 -499h-177z" />
    <glyph glyph-name="dagger" unicode="&#x2020;" horiz-adv-x="1134" 
d="M465 -430v1331h-393v193h393v430h203v-430h393v-193h-393v-1331h-203z" />
    <glyph glyph-name="daggerdbl" unicode="&#x2021;" horiz-adv-x="1249" 
d="M725 1524v-430h395v-193h-395v-708h395v-193h-395v-430h-201v430h-395v193h395v708h-395v193h395v430h201z" />
    <glyph glyph-name="bullet" unicode="&#x2022;" horiz-adv-x="890" 
d="M170 760q0 116 80 196t196 80t196.5 -80.5t80.5 -195.5q0 -116 -80.5 -196.5t-196.5 -80.5q-115 0 -195.5 80.5t-80.5 196.5z" />
    <glyph glyph-name="ellipsis" unicode="&#x2026;" horiz-adv-x="1738" 
d="M266 -10q-63 0 -106 42t-43 105q0 64 43 107t106 43t106.5 -43t43.5 -107q0 -63 -43.5 -105t-106.5 -42zM868 -10q-63 0 -106 42t-43 105q0 64 43 107t106 43t106.5 -43t43.5 -107q0 -63 -43.5 -105t-106.5 -42zM1470 -10q-63 0 -106 42t-43 105q0 64 43 107t106 43
t106.5 -43t43.5 -107q0 -63 -43.5 -105t-106.5 -42z" />
    <glyph glyph-name="perthousand" unicode="&#x2030;" horiz-adv-x="2746" 
d="M856 1163q0 -172 -111 -284.5t-276 -112.5t-276 112t-111 285t111 284.5t276 111.5q166 0 276.5 -111.5t110.5 -284.5zM328 0l1003 1524h221l-1005 -1524h-219zM670 1163q0 102 -60 161.5t-141 59.5t-141 -59.5t-60 -161.5q0 -101 60 -162t141 -61q80 0 140.5 61
t60.5 162zM1798 362q0 -172 -110 -283.5t-275 -111.5q-166 0 -277.5 111.5t-111.5 283.5q0 173 111.5 285.5t277.5 112.5q165 0 275 -112t110 -286zM2671 362q0 -172 -110 -283.5t-275 -111.5q-166 0 -278 111.5t-112 283.5q0 173 112 285.5t278 112.5q165 0 275 -112
t110 -286zM1612 362q0 103 -60 163.5t-139 60.5q-82 0 -142.5 -60.5t-60.5 -163.5q0 -101 60.5 -162t142.5 -61q79 0 139 61t60 162zM2486 362q0 103 -60 163.5t-140 60.5q-81 0 -141 -60.5t-60 -163.5q0 -101 60 -162t141 -61q80 0 140 61t60 162z" />
    <glyph glyph-name="guilsinglleft" unicode="&#x2039;" horiz-adv-x="782" 
d="M655 1083v-241l-364 -283l364 -283v-241l-567 450v146z" />
    <glyph glyph-name="guilsinglright" unicode="&#x203a;" horiz-adv-x="782" 
d="M127 35v241l365 283l-365 283v241l567 -450v-146z" />
    <glyph glyph-name="fraction" unicode="&#x2044;" horiz-adv-x="370" 
d="M-401 0l1005 1524h174l-1005 -1524h-174z" />
    <glyph glyph-name="Euro" unicode="&#x20ac;" horiz-adv-x="1357" 
d="M999 1327q-176 0 -299.5 -91.5t-177.5 -248.5h514v-160h-547q-2 -20 -2 -65q0 -42 2 -62h547v-157h-516q52 -162 176 -254t303 -92q121 0 228 55v-236q-98 -49 -252 -49q-256 0 -446.5 159.5t-252.5 416.5h-180v157h156q-2 20 -2 62t2 65h-156v160h180
q65 254 255.5 411.5t443.5 157.5q158 0 252 -47v-235q-109 53 -228 53z" />
    <glyph glyph-name="uni20B9" unicode="&#x20b9;" horiz-adv-x="1341" 
d="M1235 1354h-322q92 -99 113 -228h209v-172h-213q-29 -142 -146 -238t-321 -120l547 -596h-305l-686 758h333q138 0 224.5 52.5t113.5 143.5h-663v172h665q-27 94 -110 146.5t-217 52.5h-338v199h1116v-170z" />
    <glyph glyph-name="uni20BA" unicode="&#x20ba;" horiz-adv-x="1447" 
d="M1362 772q10 -227 -66 -400.5t-236.5 -272.5t-385.5 -99h-348v436l-199 -114v200l199 115v147l-199 -114v198l199 115v541h245v-398l369 213v-200l-369 -213v-148l369 213v-198l-369 -213v-355h64q231 0 363 140t122 407h242z" />
    <glyph glyph-name="uni20BD" unicode="&#x20bd;" 
d="M719 535h-172v-158h289v-170h-289v-207h-244v207h-182v170h182v158h-182v194h182v795h416q279 0 435.5 -132.5t156.5 -361.5q0 -230 -156.5 -362.5t-435.5 -132.5zM547 1311v-582h176q157 0 248.5 76.5t91.5 214.5q0 137 -91.5 214t-248.5 77h-176z" />
    <glyph glyph-name="trademark" unicode="&#x2122;" horiz-adv-x="2017" 
d="M764 1524v-183h-246v-694h-182v694h-246v183h674zM1749 1524l135 -879h-182l-84 612h-4l-199 -612h-139l-195 608h-4l-88 -608h-178l133 879h209l197 -594h2l192 594h205z" />
    <glyph glyph-name="uni2126" unicode="&#x2126;" horiz-adv-x="1771" 
d="M1325 199h346v-199h-645v178q149 92 249.5 253.5t100.5 356.5q1 236 -137 387.5t-354 151.5q-217 0 -354.5 -151.5t-135.5 -387.5q0 -195 100 -356.5t248 -253.5v-178h-645v199h346q-62 47 -114 107.5t-95.5 138t-68 175t-25.5 203.5q-1 211 94 378.5t265.5 261
t384.5 93.5t384 -93.5t264.5 -261t94.5 -378.5q0 -206 -85.5 -366t-217.5 -258z" />
    <glyph glyph-name="arrowleft" unicode="&#x2190;" horiz-adv-x="1566" 
d="M680 1454l303 -2l-530 -567l1114 2v-244l-1114 2l530 -567h-303l-637 686z" />
    <glyph glyph-name="arrowup" unicode="&#x2191;" horiz-adv-x="1566" 
d="M1473 887l-3 -303l-567 530l2 -1114h-243l2 1114l-568 -530v303l686 637z" />
    <glyph glyph-name="arrowright" unicode="&#x2192;" horiz-adv-x="1566" 
d="M887 72l-303 2l530 567l-1114 -2v244l1114 -2l-530 567h303l637 -686z" />
    <glyph glyph-name="arrowdown" unicode="&#x2193;" horiz-adv-x="1566" 
d="M1473 637l-691 -637l-686 637v303l568 -530l-2 1114h243l-2 -1114l567 530z" />
    <glyph glyph-name="uni2196" unicode="&#x2196;" horiz-adv-x="1566" 
d="M1403 342l-172 -172l-815 813v-799l-219 213v981h981l213 -221h-805z" />
    <glyph glyph-name="uni2197" unicode="&#x2197;" horiz-adv-x="1566" 
d="M164 342l817 815h-805l213 221h981v-981l-219 -213v799l-815 -813z" />
    <glyph glyph-name="uni2198" unicode="&#x2198;" horiz-adv-x="1566" 
d="M164 1186l172 172l815 -813v798l219 -213v-980h-981l-213 221h805z" />
    <glyph glyph-name="uni2199" unicode="&#x2199;" horiz-adv-x="1566" 
d="M1403 1186l-817 -815h805l-213 -221h-981v980l219 213v-798l815 813z" />
    <glyph glyph-name="partialdiff" unicode="&#x2202;" horiz-adv-x="1339" 
d="M651 1655q142 0 254.5 -51.5t186 -144t112.5 -219t39 -277.5q0 -108 -20 -258q-15 -113 -46.5 -215.5t-85 -197.5t-124 -164.5t-169 -111t-214.5 -41.5q-220 0 -356 139t-136 373q0 134 46 251.5t127.5 203t200 135t257.5 49.5q158 0 274 -57q-14 171 -112.5 271
t-268.5 100q-133 0 -241 -54v211q116 58 276 58zM600 188q142 0 243 132.5t136 379.5q9 58 18 170q-114 52 -231 52q-100 0 -183.5 -35.5t-137 -95t-82.5 -135.5t-29 -160q0 -140 74.5 -224t191.5 -84z" />
    <glyph glyph-name="uni2206" unicode="&#x2206;" horiz-adv-x="1443" 
d="M-6 0l588 1524h280l586 -1524h-1454zM324 209h794l-397 1057z" />
    <glyph glyph-name="product" unicode="&#x220f;" horiz-adv-x="1484" 
d="M166 1524h1153v-1954h-246v1745h-661v-1745h-246v1954z" />
    <glyph glyph-name="summation" unicode="&#x2211;" horiz-adv-x="1359" 
d="M1243 1524v-213h-768l481 -764l-481 -762h772v-215h-1179l612 977l-612 977h1175z" />
    <glyph glyph-name="minus" unicode="&#x2212;" horiz-adv-x="1427" 
d="M154 662v200h1118v-200h-1118z" />
    <glyph glyph-name="radical" unicode="&#x221a;" horiz-adv-x="1443" 
d="M319 508l-251 -88l-48 158l445 165l266 -788h2l469 1939h215l-551 -2244h-241z" />
    <glyph glyph-name="infinity" unicode="&#x221e;" horiz-adv-x="1503" 
d="M1067 1087q132 0 222.5 -94t90.5 -231q0 -134 -90.5 -227t-222.5 -93q-95 0 -169.5 51.5t-145.5 141.5q-70 -90 -145.5 -141.5t-172.5 -51.5q-130 0 -220.5 93t-90.5 227q0 136 90 230.5t221 94.5q97 0 172.5 -51.5t145.5 -140.5q70 90 145 141t170 51zM459 616
q52 0 97.5 38.5t98.5 111.5q-54 72 -99 109.5t-97 37.5q-58 0 -99 -44t-41 -107q0 -61 40.5 -103.5t99.5 -42.5zM1044 616q58 0 98 42t40 104q0 63 -40 107t-98 44q-52 0 -97 -37.5t-99 -109.5q53 -73 98.5 -111.5t97.5 -38.5z" />
    <glyph glyph-name="integral" unicode="&#x222b;" horiz-adv-x="1083" 
d="M1038 1597v-211q-97 54 -180 54q-88 0 -139 -52t-51 -137v-1312q0 -95 -32.5 -170t-87.5 -120.5t-122.5 -69t-142.5 -23.5q-144 0 -240 57v211q89 -53 180 -53q89 0 140 51.5t51 136.5v1313q0 95 32.5 170t87.5 120.5t122.5 69t142.5 23.5q138 0 239 -58z" />
    <glyph glyph-name="approxequal" unicode="&#x2248;" horiz-adv-x="1523" 
d="M1376 1174q-2 -102 -32 -177t-79 -115t-103 -58.5t-115 -18.5q-68 0 -145 24t-133.5 52.5t-123.5 52.5t-119 24q-67 0 -115.5 -36.5t-58.5 -112.5h-192q1 82 21.5 147.5t52 106t75 67.5t87 37.5t91.5 10.5q69 0 145.5 -24t132.5 -53t123.5 -53t119.5 -24q67 0 115.5 36.5
t58.5 113.5h194zM1376 715q-2 -102 -32 -177t-79 -115t-103 -58.5t-115 -18.5q-68 0 -145 24t-133.5 53t-123.5 53t-119 24q-66 0 -115 -37t-59 -113h-192q1 82 21.5 147.5t52 106t75 67.5t87 37.5t91.5 10.5q69 0 145.5 -24t132.5 -53t123.5 -53t119.5 -24q67 0 115.5 36.5
t58.5 113.5h194z" />
    <glyph glyph-name="notequal" unicode="&#x2260;" horiz-adv-x="1427" 
d="M1272 856h-383l-135 -188h518v-201h-662l-219 -307h-217l219 307h-239v201h383l135 188h-518v201h661l219 307h217l-219 -307h240v-201z" />
    <glyph glyph-name="lessequal" unicode="&#x2264;" horiz-adv-x="1359" 
d="M1217 1161v236l-1084 -445v-231l1084 -442v235l-807 324zM131 0v195h1083v-195h-1083z" />
    <glyph glyph-name="greaterequal" unicode="&#x2265;" horiz-adv-x="1359" 
d="M145 1161l807 -323l-807 -324v-235l1084 442v231l-1084 445v-236zM145 0v195h1086v-195h-1086z" />
    <glyph glyph-name="lozenge" unicode="&#x25ca;" horiz-adv-x="1318" 
d="M1239 762l-473 -795h-211l-477 795l473 794h211zM981 762l-322 543h-4l-315 -543l319 -541h3z" />
    <glyph glyph-name="NULL" horiz-adv-x="0" 
 />
    <glyph glyph-name="i.loclTRK" horiz-adv-x="565" 
d="M283 1335q-60 0 -101 40t-41 98q0 60 41 99.5t101 39.5t100.5 -39.5t40.5 -99.5q0 -59 -40.5 -98.5t-100.5 -39.5zM162 0v1118h241v-1118h-241z" />
    <glyph glyph-name="zero.osf" horiz-adv-x="1402" 
d="M700 1143q112 0 217.5 -40.5t188.5 -114t133.5 -186t50.5 -245.5q0 -131 -50.5 -243t-133.5 -185.5t-188.5 -114.5t-217.5 -41t-217 40.5t-188 113t-133.5 185t-50.5 245.5t50.5 245.5t133.5 186t188.5 114t216.5 40.5zM700 915q-139 0 -242.5 -98t-103.5 -260
t103.5 -260t242.5 -98q140 0 244.5 98.5t104.5 259.5q0 83 -29.5 152t-79 113.5t-111.5 68.5t-129 24z" />
    <glyph glyph-name="one.osf" horiz-adv-x="841" 
d="M375 0v829l-287 -114v233l510 197h18v-1145h-241z" />
    <glyph glyph-name="two.osf" horiz-adv-x="1236" 
d="M1126 225v-225h-1044q160 121 264.5 202t191 153.5t133.5 120t79 93t42.5 80t10.5 74.5q2 85 -67 142t-183 57q-213 0 -387 -197v260q188 160 455 160q197 0 321.5 -103t124.5 -260q0 -63 -24.5 -124.5t-63 -114t-100.5 -110.5t-122.5 -104.5t-144.5 -103.5h514z" />
    <glyph glyph-name="three.osf" horiz-adv-x="1130" 
d="M145 1016q69 60 166 94.5t205 34.5q209 0 333 -117.5t124 -292.5q0 -118 -57.5 -216.5t-157.5 -143.5v-6q118 -44 191 -140.5t73 -238.5q0 -91 -32 -170.5t-92.5 -142t-157 -98.5t-216.5 -36q-243 0 -415 131v248q76 -71 172.5 -114.5t199.5 -43.5q135 0 215 71.5
t80 178.5t-79.5 176.5t-221.5 69.5h-170v197h131q142 0 219.5 69.5t77.5 171.5q0 96 -70.5 161t-189.5 65q-95 0 -182 -41.5t-146 -108.5v242z" />
    <glyph glyph-name="four.osf" horiz-adv-x="1327" 
d="M1249 207v-207h-243v-430h-228v430h-723v145l723 973h228v-911h243zM326 207h452v620l-452 -616v-4z" />
    <glyph glyph-name="five.osf" horiz-adv-x="1163" 
d="M999 1118v-225h-524l-69 -377q88 25 151 25q123 0 222.5 -40.5t162 -108.5t96 -154.5t33.5 -182.5q0 -77 -20.5 -150t-65 -139t-108.5 -115.5t-157.5 -78.5t-205.5 -29q-237 0 -418 140v266q76 -83 182.5 -128.5t219.5 -45.5q145 0 232 78t89 200q0 126 -92 207.5
t-254 81.5q-127 0 -268 -63l-35 26l133 813h696z" />
    <glyph glyph-name="six.osf" horiz-adv-x="1282" 
d="M692 993q128 0 243.5 -61t190 -175.5t74.5 -254.5q0 -110 -40.5 -208.5t-112 -170.5t-175 -114t-223.5 -42q-159 0 -286 71.5t-196 192t-69 265.5q0 126 55.5 241.5t163.5 245.5l437 541h293l-433 -537q38 6 78 6zM647 186q133 0 221 91.5t88 216.5q0 145 -100 229
t-240 84q-90 0 -174 -37q-54 -71 -79 -134.5t-25 -137.5q0 -126 88.5 -219t220.5 -93z" />
    <glyph glyph-name="seven.osf" horiz-adv-x="1155" 
d="M90 -430l698 1323h-692v225h1055l-801 -1548h-260z" />
    <glyph glyph-name="eight.osf" horiz-adv-x="1323" 
d="M938 784q130 -49 199 -149t69 -229q0 -91 -38 -171t-107.5 -139.5t-172.5 -94t-226 -34.5q-243 0 -393 127t-150 312q0 125 69.5 228.5t196.5 151.5v5q-100 46 -161.5 134.5t-61.5 211.5q0 82 34.5 157.5t97.5 134t158.5 93t209.5 34.5t209 -34.5t157.5 -92.5t96.5 -133
t34 -157q0 -124 -61 -214t-160 -137v-4zM393 1112q0 -104 75 -171t194 -67q120 0 195 67t75 171q0 97 -75.5 166.5t-194.5 69.5q-120 0 -194.5 -69t-74.5 -167zM662 682q-135 0 -217.5 -73t-82.5 -181q0 -105 82 -179.5t218 -74.5q139 0 222 74.5t83 179.5q0 108 -84 181
t-221 73z" />
    <glyph glyph-name="nine.osf" horiz-adv-x="1241" 
d="M623 1145q158 0 282.5 -70.5t191 -189.5t66.5 -264q0 -120 -54 -238t-163 -248l-459 -565h-292l446 551q-9 0 -28 -1t-29 -1q-96 0 -187 35.5t-162.5 97.5t-115 156.5t-43.5 203.5q0 108 40.5 205.5t111 169.5t173.5 115t222 43zM815 342q56 72 82.5 136t26.5 138
q0 129 -84 218.5t-217 89.5q-132 0 -218 -90t-86 -216q0 -136 91.5 -223.5t228.5 -87.5q99 0 176 35z" />
    <glyph glyph-name="zero.tf" 
d="M698 1556q114 0 214.5 -55.5t174.5 -156t117 -251.5t43 -333q0 -181 -42.5 -331.5t-116.5 -251t-174.5 -155.5t-215.5 -55t-216 55t-176 155.5t-118 251t-43 331.5q0 182 43 333t118 251.5t176 156t216 55.5zM698 1329q-134 0 -221.5 -152.5t-87.5 -416.5
q0 -260 88 -411.5t221 -151.5q132 0 221 152t89 411q0 262 -89 415.5t-221 153.5z" />
    <glyph glyph-name="one.tf" 
d="M1188 223v-223h-905v223h340v983l-359 -151v248l580 231h20v-1311h324z" />
    <glyph glyph-name="two.tf" 
d="M152 0q257 292 398.5 461t222 286.5t101.5 177t21 128.5q0 114 -78 195t-209 81q-112 0 -210.5 -50t-168.5 -128v258q71 65 181.5 106t232.5 41q228 0 365 -137t137 -346q0 -70 -24.5 -145t-64.5 -146.5t-112.5 -166t-146 -180t-187.5 -210.5h594v-225h-1052z" />
    <glyph glyph-name="three.tf" 
d="M256 1421q70 62 171.5 98.5t219.5 36.5q112 0 204.5 -33.5t152.5 -90.5t93 -131t33 -156q0 -116 -59 -207t-162 -139v-6q117 -43 194 -141t77 -238q0 -87 -35.5 -166.5t-100.5 -142t-168 -99.5t-229 -37q-251 0 -428 148v256q159 -180 399 -180q141 0 227.5 68.5
t86.5 176.5t-86.5 175t-239.5 67h-192v197h153q157 0 239.5 63.5t82.5 167.5q0 99 -73.5 163t-203.5 64q-106 0 -199.5 -42t-156.5 -111v239z" />
    <glyph glyph-name="four.tf" 
d="M1300 555v-207h-256v-348h-229v348h-735v146l756 1030h208v-969h256zM348 555h467v641l-467 -637v-4z" />
    <glyph glyph-name="five.tf" 
d="M1112 1524v-224h-524l-70 -368q70 24 152 24q120 0 219.5 -39.5t162.5 -106.5t97.5 -151.5t34.5 -177.5q0 -98 -34.5 -188t-101.5 -164t-177 -118t-248 -44q-245 0 -414 137v269q77 -83 182.5 -128.5t216.5 -45.5q148 0 236 77t88 199q0 125 -91.5 204t-254.5 79
q-129 0 -269 -64l-34 25l133 805h696z" />
    <glyph glyph-name="six.tf" 
d="M748 993q128 0 243.5 -61t189.5 -175.5t74 -254.5q0 -110 -40.5 -208.5t-112 -170.5t-174.5 -114t-223 -42q-159 0 -286 71.5t-196 192t-69 265.5q0 126 55.5 241.5t163.5 245.5l436 541h293l-432 -537q38 6 78 6zM702 186q133 0 221.5 91.5t88.5 216.5q0 145 -100 229
t-240 84q-90 0 -174 -37q-55 -72 -80 -135t-25 -137q0 -126 88.5 -219t220.5 -93z" />
    <glyph glyph-name="seven.tf" 
d="M221 0l686 1300h-692v224h1057l-791 -1524h-260z" />
    <glyph glyph-name="eight.tf" 
d="M973 784q128 -49 197 -149.5t69 -228.5q0 -91 -38 -171t-107 -139.5t-172 -94t-226 -34.5q-162 0 -287 60t-190 159t-65 220q0 125 69 228.5t195 151.5v5q-99 46 -160 134.5t-61 211.5q0 83 34.5 158t97 133.5t158 93t209.5 34.5t209.5 -34.5t157.5 -92.5t96.5 -133
t34.5 -157q0 -124 -61 -214t-160 -137v-4zM696 1348q-120 0 -195 -69t-75 -167q0 -104 75 -171t195 -67q119 0 195 67.5t76 170.5q0 97 -76.5 166.5t-194.5 69.5zM999 428q0 108 -83.5 181t-219.5 73q-135 0 -218 -73t-83 -181q0 -104 82.5 -179t218.5 -75q137 0 220 74.5
t83 179.5z" />
    <glyph glyph-name="nine.tf" 
d="M694 1556q240 0 390.5 -150t150.5 -372q0 -120 -54 -237.5t-163 -247.5l-445 -549h-290l428 535q-50 -5 -56 -5q-128 0 -243 60t-188.5 175t-73.5 259q0 145 67.5 266t193 193.5t283.5 72.5zM887 754q57 74 83.5 138t26.5 138q0 129 -84.5 218t-216.5 89
q-134 0 -219.5 -89.5t-85.5 -217.5q0 -135 93 -223t229 -88q90 0 174 35z" />
    <glyph glyph-name="zero.dnom" horiz-adv-x="966" 
d="M483 891q169 0 282.5 -124.5t113.5 -334.5t-113.5 -335.5t-282.5 -125.5t-282 125.5t-113 335.5t113 334.5t282 124.5zM483 719q-91 0 -149 -76.5t-58 -210.5q0 -135 58 -211t149 -76t149 76t58 211q0 134 -58 210.5t-149 76.5z" />
    <glyph glyph-name="one.dnom" horiz-adv-x="632" 
d="M283 0v659l-217 -90v179l374 153h23v-901h-180z" />
    <glyph glyph-name="two.dnom" horiz-adv-x="800" 
d="M711 164v-164h-658q192 212 281.5 323t118 166.5t28.5 108.5q0 55 -40.5 95t-112.5 40q-113 0 -209 -100v188q47 38 116 60t140 22q135 0 221 -75t86 -199q0 -98 -64.5 -195.5t-226.5 -269.5h320z" />
    <glyph glyph-name="three.dnom" horiz-adv-x="792" 
d="M119 815q41 33 111.5 54.5t144.5 21.5q142 0 221.5 -69t79.5 -171q0 -129 -127 -196v-4q72 -28 114 -84t42 -129q0 -111 -89.5 -189t-244.5 -78q-81 0 -155.5 24.5t-123.5 63.5v183q50 -53 122 -83t153 -30q70 0 116.5 31t46.5 86q0 60 -52 89.5t-144 29.5h-133v147h127
q83 0 125.5 34t42.5 81q0 45 -39 75t-101 31q-138 3 -237 -86v168z" />
    <glyph glyph-name="four.dnom" horiz-adv-x="882" 
d="M809 348v-153h-131v-195h-160v195h-459v112l447 580h172v-539h131zM256 348h262v332z" />
    <glyph glyph-name="five.dnom" horiz-adv-x="819" 
d="M700 874v-159h-366l-35 -183q46 11 113 11q158 0 241.5 -77t83.5 -192q0 -57 -22.5 -109.5t-67 -96.5t-121.5 -70.5t-176 -26.5q-75 0 -147.5 18t-120.5 48v174q110 -80 264 -80q90 0 149.5 37.5t59.5 99.5q0 64 -58 102t-149 38q-117 0 -207 -33l-20 16l86 483h493z" />
    <glyph glyph-name="six.dnom" horiz-adv-x="882" 
d="M469 584q149 0 247.5 -86t98.5 -217t-105 -220.5t-266 -89.5q-160 0 -265 93t-105 229q0 140 145 285l285 296h219l-285 -292q10 2 31 2zM444 127q85 0 139 47t54 115q0 73 -57.5 117.5t-135.5 44.5q-83 0 -135 -19q-59 -62 -59 -143q0 -67 55.5 -114.5t138.5 -47.5z" />
    <glyph glyph-name="seven.dnom" horiz-adv-x="831" 
d="M84 0l436 725h-438v162h729l-526 -887h-201z" />
    <glyph glyph-name="eight.dnom" horiz-adv-x="903" 
d="M657 446q74 -34 116 -90.5t42 -126.5q0 -113 -102 -185.5t-262 -72.5q-158 0 -260.5 73t-102.5 185q0 70 42 126.5t116 90.5q-62 32 -96.5 84t-34.5 115q0 107 94.5 176.5t239.5 69.5q149 0 244 -69.5t95 -176.5q0 -63 -34.5 -115t-96.5 -84zM449 754q-72 0 -118 -35.5
t-46 -91.5t46 -91.5t118 -35.5q74 0 121.5 36t47.5 91t-47.5 91t-121.5 36zM451 109q81 0 134.5 38t53.5 95q0 59 -53 97t-135 38t-135.5 -38.5t-53.5 -96.5q0 -57 53.5 -95t135.5 -38z" />
    <glyph glyph-name="nine.dnom" horiz-adv-x="876" 
d="M434 903q159 0 264 -91t105 -230q0 -72 -35 -138t-111 -143l-288 -301h-222l281 293h-16q-147 0 -245.5 83.5t-98.5 211.5q0 134 104 224.5t262 90.5zM567 446q58 67 58 140q0 71 -54 116.5t-137 45.5q-82 0 -135 -46t-53 -116q0 -71 52.5 -115.5t135.5 -44.5
q75 0 133 20z" />
    <glyph glyph-name="zero.numr" horiz-adv-x="966" 
d="M483 1540q169 0 282.5 -124.5t113.5 -334.5t-113.5 -335t-282.5 -125t-282 125t-113 335t113 334.5t282 124.5zM483 1368q-91 0 -149 -76.5t-58 -210.5q0 -135 58 -210.5t149 -75.5t149 75.5t58 210.5q0 134 -58 210.5t-149 76.5z" />
    <glyph glyph-name="one.numr" horiz-adv-x="630" 
d="M281 637v659l-218 -90v178l375 154h23v-901h-180z" />
    <glyph glyph-name="two.numr" horiz-adv-x="796" 
d="M709 801v-164h-658q192 212 281.5 323t118 166.5t28.5 108.5q0 55 -40.5 95t-112.5 40q-113 0 -209 -100v188q47 38 116 60t140 22q135 0 221 -75t86 -199q0 -98 -64.5 -195.5t-226.5 -269.5h320z" />
    <glyph glyph-name="three.numr" horiz-adv-x="790" 
d="M117 1464q41 33 111.5 54.5t144.5 21.5q142 0 221.5 -69t79.5 -171q0 -129 -127 -196v-4q72 -28 113.5 -83.5t41.5 -129.5q0 -111 -89 -188.5t-244 -77.5q-81 0 -155.5 24.5t-123.5 63.5v182q50 -53 122 -83t153 -30q70 0 116.5 31t46.5 86q0 60 -52 89.5t-144 29.5h-133
v147h127q83 0 125.5 34t42.5 81q0 45 -39 75t-101 31q-138 3 -237 -86v168z" />
    <glyph glyph-name="four.numr" horiz-adv-x="884" 
d="M809 985v-154h-131v-194h-160v194h-459v113l447 580h172v-539h131zM256 985h262v332z" />
    <glyph glyph-name="five.numr" horiz-adv-x="819" 
d="M700 1524v-160h-366l-35 -182q42 10 113 10q158 0 241.5 -76.5t83.5 -191.5q0 -57 -22.5 -109.5t-67 -96.5t-121.5 -70.5t-176 -26.5q-76 0 -148 17.5t-120 47.5v174q110 -80 264 -80q90 0 149.5 38t59.5 100q0 63 -58 101t-149 38q-117 0 -207 -33l-20 16l86 484h493z
" />
    <glyph glyph-name="six.numr" horiz-adv-x="882" 
d="M471 1233q149 0 247.5 -86t98.5 -217t-105 -220t-266 -89q-160 0 -265 92.5t-105 228.5q0 140 145 285l285 297h219l-285 -293q10 2 31 2zM446 776q85 0 139 47t54 115q0 73 -57.5 117.5t-135.5 44.5q-83 0 -135 -19q-59 -62 -59 -143q0 -67 55.5 -114.5t138.5 -47.5z
" />
    <glyph glyph-name="seven.numr" horiz-adv-x="825" 
d="M82 637l436 725h-438v162h729l-526 -887h-201z" />
    <glyph glyph-name="eight.numr" horiz-adv-x="903" 
d="M657 1096q74 -34 116 -90.5t42 -126.5q0 -113 -102 -185.5t-262 -72.5q-158 0 -260.5 73t-102.5 185q0 70 42 126.5t116 90.5q-62 33 -96.5 84.5t-34.5 113.5q0 107 94.5 176.5t239.5 69.5q149 0 244 -69.5t95 -176.5q0 -62 -34.5 -113.5t-96.5 -84.5zM449 1403
q-72 0 -118 -35.5t-46 -91.5t46 -91.5t118 -35.5q74 0 121.5 36t47.5 91t-47.5 91t-121.5 36zM451 758q81 0 134.5 38t53.5 95q0 59 -53 97t-135 38t-135.5 -38.5t-53.5 -96.5q0 -57 53.5 -95t135.5 -38z" />
    <glyph glyph-name="nine.numr" horiz-adv-x="876" 
d="M434 1540q159 0 264 -91t105 -230q0 -72 -35 -138t-111 -143l-288 -301h-222l281 293h-16q-147 0 -245.5 83.5t-98.5 211.5q0 134 104 224.5t262 90.5zM567 1083q58 67 58 140q0 70 -54 115.5t-137 45.5q-82 0 -135 -45.5t-53 -115.5q0 -71 52.5 -115.5t135.5 -44.5
q75 0 133 20z" />
    <glyph glyph-name="caron.alt" horiz-adv-x="585" 
d="M186 1208q2 15 9.5 60t11.5 85t4 87q0 96 -33 200h217q15 -73 15 -127q0 -142 -68 -305h-156z" />
    <glyph glyph-name="I.ss01" horiz-adv-x="925" 
d="M334 213v1096h-240v215h737v-215h-247v-1096h247v-213h-737v213h240z" />
    <glyph glyph-name="IJ.ss01" horiz-adv-x="2015" 
d="M334 213v1096h-240v215h737v-215h-247v-1096h247v-213h-737v213h240zM1837 1524v-1067q0 -221 -123 -351.5t-354 -130.5q-103 0 -192.5 34.5t-151.5 82.5v258q57 -65 141.5 -106t177.5 -41q120 0 187 68t67 190v837h-403v226h651z" />
    <glyph glyph-name="Iacute.ss01" horiz-adv-x="925" 
d="M522 2034h248l-291 -351h-192zM334 213v1096h-240v215h737v-215h-247v-1096h247v-213h-737v213h240z" />
    <glyph glyph-name="Icircumflex.ss01" horiz-adv-x="925" 
d="M549 2034l282 -351h-219l-153 203l-154 -203h-215l281 351h178zM334 213v1096h-240v215h737v-215h-247v-1096h247v-213h-737v213h240z" />
    <glyph glyph-name="Idieresis.ss01" horiz-adv-x="925" 
d="M240 1720q-53 0 -90 36.5t-37 88.5q0 51 37.5 88t89.5 37t89.5 -37t37.5 -88q0 -52 -37 -88.5t-90 -36.5zM680 1720q-54 0 -90.5 36t-36.5 89q0 51 36.5 88t90.5 37t90.5 -37t36.5 -88q0 -53 -36.5 -89t-90.5 -36zM334 213v1096h-240v215h737v-215h-247v-1096h247v-213
h-737v213h240z" />
    <glyph glyph-name="Idotaccent.ss01" horiz-adv-x="925" 
d="M457 1720q-51 0 -88 36.5t-37 88.5q0 51 37 88t88 37q54 0 91.5 -37t37.5 -88q0 -52 -37.5 -88.5t-91.5 -36.5zM334 213v1096h-240v215h737v-215h-247v-1096h247v-213h-737v213h240z" />
    <glyph glyph-name="Igrave.ss01" horiz-adv-x="925" 
d="M403 2034l236 -351h-193l-290 351h247zM334 213v1096h-240v215h737v-215h-247v-1096h247v-213h-737v213h240z" />
    <glyph glyph-name="Imacron.ss01" horiz-adv-x="925" 
d="M104 1763v164h707v-164h-707zM334 213v1096h-240v215h737v-215h-247v-1096h247v-213h-737v213h240z" />
    <glyph glyph-name="Iogonek.ss01" horiz-adv-x="925" 
d="M831 1309h-247v-1096h247v-213h-112q-191 -101 -191 -197q0 -50 35.5 -78t87.5 -28q55 0 68 10v-143q-11 -7 -44 -14t-69 -7q-116 0 -190 60t-74 161q0 128 127 236h-375v213h240v1096h-240v215h737v-215z" />
    <glyph glyph-name="J.ss01" horiz-adv-x="1056" 
d="M879 1524v-1067q0 -221 -123.5 -351.5t-354.5 -130.5q-103 0 -192.5 34.5t-151.5 82.5v258q57 -65 142 -106t178 -41q120 0 187 68t67 190v837h-404v226h652z" />
    <glyph glyph-name="a.ss01" horiz-adv-x="1179" 
d="M580 1145q213 0 332.5 -111t119.5 -291v-743h-182l-29 168q-57 -93 -151 -144t-207 -51q-168 0 -276.5 100t-108.5 251q0 149 109.5 250.5t306.5 101.5q166 0 305 -68v107q0 102 -65.5 162.5t-190.5 60.5q-99 0 -198 -36t-167 -91v215q74 54 179 86.5t223 32.5zM545 524
q-120 0 -183 -52.5t-63 -129.5q0 -75 60 -124.5t155 -49.5q117 0 201 71t84 181v39q-110 65 -254 65z" />
    <glyph glyph-name="aacute.ss01" horiz-adv-x="1179" 
d="M659 1626h248l-291 -350h-192zM580 1145q213 0 332.5 -111t119.5 -291v-743h-182l-29 168q-57 -93 -151 -144t-207 -51q-168 0 -276.5 100t-108.5 251q0 149 109.5 250.5t306.5 101.5q166 0 305 -68v107q0 102 -65.5 162.5t-190.5 60.5q-99 0 -198 -36t-167 -91v215
q74 54 179 86.5t223 32.5zM545 524q-120 0 -183 -52.5t-63 -129.5q0 -75 60 -124.5t155 -49.5q117 0 201 71t84 181v39q-110 65 -254 65z" />
    <glyph glyph-name="abreve.ss01" horiz-adv-x="1179" 
d="M956 1620q4 -80 -27 -145t-83.5 -104.5t-117 -61t-132.5 -21.5t-132.5 21.5t-117 61t-83.5 104.5t-27 145h170q3 -74 53.5 -123t136.5 -49t136.5 49t53.5 123h170zM580 1145q213 0 332.5 -111t119.5 -291v-743h-182l-29 168q-57 -93 -151 -144t-207 -51
q-168 0 -276.5 100t-108.5 251q0 149 109.5 250.5t306.5 101.5q166 0 305 -68v107q0 102 -65.5 162.5t-190.5 60.5q-99 0 -198 -36t-167 -91v215q74 54 179 86.5t223 32.5zM545 524q-120 0 -183 -52.5t-63 -129.5q0 -75 60 -124.5t155 -49.5q117 0 201 71t84 181v39
q-110 65 -254 65z" />
    <glyph glyph-name="acircumflex.ss01" horiz-adv-x="1179" 
d="M686 1626l283 -350h-219l-154 203l-154 -203h-215l281 350h178zM580 1145q213 0 332.5 -111t119.5 -291v-743h-182l-29 168q-57 -93 -151 -144t-207 -51q-168 0 -276.5 100t-108.5 251q0 149 109.5 250.5t306.5 101.5q166 0 305 -68v107q0 102 -65.5 162.5t-190.5 60.5
q-99 0 -198 -36t-167 -91v215q74 54 179 86.5t223 32.5zM545 524q-120 0 -183 -52.5t-63 -129.5q0 -75 60 -124.5t155 -49.5q117 0 201 71t84 181v39q-110 65 -254 65z" />
    <glyph glyph-name="adieresis.ss01" horiz-adv-x="1179" 
d="M377 1313q-53 0 -90 36.5t-37 88.5q0 51 37.5 88t89.5 37t89.5 -37t37.5 -88q0 -52 -37 -88.5t-90 -36.5zM817 1313q-54 0 -90.5 36t-36.5 89q0 52 37 88.5t90 36.5t90 -36.5t37 -88.5q0 -53 -36.5 -89t-90.5 -36zM580 1145q213 0 332.5 -111t119.5 -291v-743h-182
l-29 168q-57 -93 -151 -144t-207 -51q-168 0 -276.5 100t-108.5 251q0 149 109.5 250.5t306.5 101.5q166 0 305 -68v107q0 102 -65.5 162.5t-190.5 60.5q-99 0 -198 -36t-167 -91v215q74 54 179 86.5t223 32.5zM545 524q-120 0 -183 -52.5t-63 -129.5q0 -75 60 -124.5
t155 -49.5q117 0 201 71t84 181v39q-110 65 -254 65z" />
    <glyph glyph-name="agrave.ss01" horiz-adv-x="1179" 
d="M541 1626l235 -350h-192l-291 350h248zM580 1145q213 0 332.5 -111t119.5 -291v-743h-182l-29 168q-57 -93 -151 -144t-207 -51q-168 0 -276.5 100t-108.5 251q0 149 109.5 250.5t306.5 101.5q166 0 305 -68v107q0 102 -65.5 162.5t-190.5 60.5q-99 0 -198 -36t-167 -91
v215q74 54 179 86.5t223 32.5zM545 524q-120 0 -183 -52.5t-63 -129.5q0 -75 60 -124.5t155 -49.5q117 0 201 71t84 181v39q-110 65 -254 65z" />
    <glyph glyph-name="amacron.ss01" horiz-adv-x="1179" 
d="M242 1356v164h706v-164h-706zM580 1145q213 0 332.5 -111t119.5 -291v-743h-182l-29 168q-57 -93 -151 -144t-207 -51q-168 0 -276.5 100t-108.5 251q0 149 109.5 250.5t306.5 101.5q166 0 305 -68v107q0 102 -65.5 162.5t-190.5 60.5q-99 0 -198 -36t-167 -91v215
q74 54 179 86.5t223 32.5zM545 524q-120 0 -183 -52.5t-63 -129.5q0 -75 60 -124.5t155 -49.5q117 0 201 71t84 181v39q-110 65 -254 65z" />
    <glyph glyph-name="aogonek.ss01" horiz-adv-x="1179" 
d="M1032 0q-190 -101 -190 -197q0 -50 35.5 -78t87.5 -28q54 0 67 10v-143q-11 -7 -43.5 -14t-68.5 -7q-116 0 -190.5 60t-74.5 161q0 154 187 281l-21 123q-57 -93 -151 -144t-207 -51q-168 0 -276.5 100t-108.5 251q0 149 109.5 250.5t306.5 101.5q166 0 305 -68v107
q0 102 -65.5 162.5t-190.5 60.5q-99 0 -198 -36t-167 -91v215q74 54 179 86.5t223 32.5q213 0 332.5 -111t119.5 -291v-743zM799 420v39q-110 65 -254 65q-120 0 -183 -52.5t-63 -129.5q0 -75 60 -124.5t155 -49.5q117 0 201 71t84 181z" />
    <glyph glyph-name="aring.ss01" horiz-adv-x="1179" 
d="M598 1702q97 0 163 -61t66 -152q0 -92 -66 -153.5t-163 -61.5q-98 0 -164.5 61.5t-66.5 153.5q0 91 66.5 152t164.5 61zM598 1591q-47 0 -79 -29.5t-32 -72.5q0 -44 32 -74.5t79 -30.5q46 0 76.5 30.5t30.5 74.5q0 43 -30.5 72.5t-76.5 29.5zM580 1145q213 0 332.5 -111
t119.5 -291v-743h-182l-29 168q-57 -93 -151 -144t-207 -51q-168 0 -276.5 100t-108.5 251q0 149 109.5 250.5t306.5 101.5q166 0 305 -68v107q0 102 -65.5 162.5t-190.5 60.5q-99 0 -198 -36t-167 -91v215q74 54 179 86.5t223 32.5zM545 524q-120 0 -183 -52.5t-63 -129.5
q0 -75 60 -124.5t155 -49.5q117 0 201 71t84 181v39q-110 65 -254 65z" />
    <glyph glyph-name="atilde.ss01" horiz-adv-x="1179" 
d="M1001 1573q8 -138 -60 -207.5t-177 -69.5q-50 0 -96.5 19t-75.5 41.5t-67.5 41.5t-75.5 19q-53 0 -79 -34.5t-24 -79.5h-158q-7 138 62 207t176 69q42 0 80 -12.5t66 -30.5t54.5 -36.5t56.5 -31t60 -12.5q53 0 79 35t24 82h155zM580 1145q213 0 332.5 -111t119.5 -291
v-743h-182l-29 168q-57 -93 -151 -144t-207 -51q-168 0 -276.5 100t-108.5 251q0 149 109.5 250.5t306.5 101.5q166 0 305 -68v107q0 102 -65.5 162.5t-190.5 60.5q-99 0 -198 -36t-167 -91v215q74 54 179 86.5t223 32.5zM545 524q-120 0 -183 -52.5t-63 -129.5
q0 -75 60 -124.5t155 -49.5q117 0 201 71t84 181v39q-110 65 -254 65z" />
    <glyph glyph-name="g.ss01" horiz-adv-x="1232" 
d="M799 231q166 0 263 -89.5t97 -217.5q0 -105 -66 -190.5t-195.5 -137.5t-301.5 -53q-261 0 -407 92.5t-146 241.5q0 78 44 142t118 100q-72 66 -72 162q0 64 35.5 120.5t101.5 92.5q-127 105 -127 274q0 167 125.5 272t329.5 105q89 0 182 -27h375v-196h-135
q33 -74 33 -154q0 -167 -126 -272t-329 -105q-85 0 -172 23q-32 -9 -53 -34t-21 -56q0 -35 29 -64t94 -29h324zM598 979q-104 0 -171 -60.5t-67 -152.5q0 -91 67 -150t171 -59q103 0 169.5 59.5t66.5 151.5q0 91 -67 151t-169 60zM598 -272q154 0 244 51t90 127
q0 56 -48 94.5t-124 38.5h-344q-29 0 -43 2q-47 -19 -74 -55.5t-27 -79.5q0 -83 90 -130.5t236 -47.5z" />
    <glyph glyph-name="gbreve.ss01" horiz-adv-x="1232" 
d="M627 1288q-68 0 -132.5 21.5t-117.5 61t-84 104.5t-27 145h170q3 -74 54 -123t137 -49t136.5 49t53.5 123h170q4 -80 -27 -145t-83.5 -104.5t-117 -61t-132.5 -21.5zM799 231q166 0 263 -89.5t97 -217.5q0 -105 -66 -190.5t-195.5 -137.5t-301.5 -53q-261 0 -407 92.5
t-146 241.5q0 78 44 142t118 100q-72 66 -72 162q0 64 35.5 120.5t101.5 92.5q-127 105 -127 274q0 167 125.5 272t329.5 105q89 0 182 -27h375v-196h-135q33 -74 33 -154q0 -167 -126 -272t-329 -105q-85 0 -172 23q-32 -9 -53 -34t-21 -56q0 -35 29 -64t94 -29h324z
M598 979q-104 0 -171 -60.5t-67 -152.5q0 -91 67 -150t171 -59q103 0 169.5 59.5t66.5 151.5q0 91 -67 151t-169 60zM598 -272q154 0 244 51t90 127q0 56 -48 94.5t-124 38.5h-344q-29 0 -43 2q-47 -19 -74 -55.5t-27 -79.5q0 -83 90 -130.5t236 -47.5z" />
    <glyph glyph-name="gcommaaccent.ss01" horiz-adv-x="1232" 
d="M741 1280h-219q-41 215 96 442h170q-102 -234 -47 -442zM799 231q166 0 263 -89.5t97 -217.5q0 -105 -66 -190.5t-195.5 -137.5t-301.5 -53q-261 0 -407 92.5t-146 241.5q0 78 44 142t118 100q-72 66 -72 162q0 64 35.5 120.5t101.5 92.5q-127 105 -127 274
q0 167 125.5 272t329.5 105q89 0 182 -27h375v-196h-135q33 -74 33 -154q0 -167 -126 -272t-329 -105q-85 0 -172 23q-32 -9 -53 -34t-21 -56q0 -35 29 -64t94 -29h324zM598 979q-104 0 -171 -60.5t-67 -152.5q0 -91 67 -150t171 -59q103 0 169.5 59.5t66.5 151.5
q0 91 -67 151t-169 60zM598 -272q154 0 244 51t90 127q0 56 -48 94.5t-124 38.5h-344q-29 0 -43 2q-47 -19 -74 -55.5t-27 -79.5q0 -83 90 -130.5t236 -47.5z" />
    <glyph glyph-name="gdotaccent.ss01" horiz-adv-x="1232" 
d="M625 1313q-51 0 -88 36.5t-37 88.5q0 51 37 88t88 37q54 0 91.5 -37t37.5 -88q0 -52 -37.5 -88.5t-91.5 -36.5zM799 231q166 0 263 -89.5t97 -217.5q0 -105 -66 -190.5t-195.5 -137.5t-301.5 -53q-261 0 -407 92.5t-146 241.5q0 78 44 142t118 100q-72 66 -72 162
q0 64 35.5 120.5t101.5 92.5q-127 105 -127 274q0 167 125.5 272t329.5 105q89 0 182 -27h375v-196h-135q33 -74 33 -154q0 -167 -126 -272t-329 -105q-85 0 -172 23q-32 -9 -53 -34t-21 -56q0 -35 29 -64t94 -29h324zM598 979q-104 0 -171 -60.5t-67 -152.5q0 -91 67 -150
t171 -59q103 0 169.5 59.5t66.5 151.5q0 91 -67 151t-169 60zM598 -272q154 0 244 51t90 127q0 56 -48 94.5t-124 38.5h-344q-29 0 -43 2q-47 -19 -74 -55.5t-27 -79.5q0 -83 90 -130.5t236 -47.5z" />
    <glyph glyph-name="l.ss01" horiz-adv-x="669" 
d="M391 1640v-1275q0 -82 39.5 -121t122.5 -39q41 0 80 8v-211q-61 -16 -129 -16q-171 0 -262.5 97t-91.5 243v1314h241z" />
    <glyph glyph-name="lacute.ss01" horiz-adv-x="667" 
d="M334 2148h248l-291 -350h-193zM391 1640v-1275q0 -82 39.5 -121t122.5 -39q41 0 80 8v-211q-61 -16 -129 -16q-171 0 -262.5 97t-91.5 243v1314h241z" />
    <glyph glyph-name="lcaron.ss01" horiz-adv-x="722" 
d="M391 1640v-1275q0 -82 39.5 -121t122.5 -39q41 0 80 8v-211q-61 -16 -129 -16q-171 0 -262.5 97t-91.5 243v1314h241zM549 1208q2 12 9.5 59t11 86.5t3.5 86.5q0 99 -32 200h217q14 -68 14 -127q0 -144 -67 -305h-156z" />
    <glyph glyph-name="lcommaaccent.ss01" horiz-adv-x="667" 
d="M391 1640v-1275q0 -82 39.5 -121t122.5 -39q41 0 80 8v-211q-61 -16 -129 -16q-171 0 -262.5 97t-91.5 243v1314h241zM485 -162q41 -215 -96 -442h-170q102 234 47 442h219z" />
    <glyph glyph-name="lslash.ss01" horiz-adv-x="911" 
d="M805 928l-250 -142v-421q0 -82 39.5 -121t122.5 -39q41 0 80 8v-211q-61 -16 -129 -16q-171 0 -263 97t-92 243v325l-239 -135v223l239 135v766h242v-630l250 139v-221z" />
    <glyph glyph-name="fl.ss01" horiz-adv-x="1497" 
d="M227 0v913h-157v205h157v148q0 166 110.5 277.5t293.5 111.5q94 0 198 -33v-213q-85 29 -161 29q-201 0 -201 -199v-121h311v-205h-309v-913h-242zM1221 1640v-1275q0 -82 39 -121t122 -39q41 0 80 8v-211q-61 -16 -129 -16q-171 0 -262.5 97t-91.5 243v1314h242z" />
    <glyph glyph-name="A.sc" horiz-adv-x="1202" 
d="M928 0l-105 324h-446l-105 -324h-233l422 1221h280l420 -1221h-233zM436 506h330l-162 506h-4z" />
    <glyph glyph-name="Aacute.sc" horiz-adv-x="1202" 
d="M913 1731l-290 -351h-193l236 351h247zM928 0l-105 324h-446l-105 -324h-233l422 1221h280l420 -1221h-233zM436 506h330l-162 506h-4z" />
    <glyph glyph-name="Abreve.sc" horiz-adv-x="1202" 
d="M602 1393q-68 0 -132.5 21t-117 61t-83.5 104.5t-27 144.5h170q3 -74 53.5 -123t136.5 -49t137 49t54 123h170q4 -79 -27 -144t-84 -105t-117.5 -61t-132.5 -21zM928 0l-105 324h-446l-105 -324h-233l422 1221h280l420 -1221h-233zM436 506h330l-162 506h-4z" />
    <glyph glyph-name="Acircumflex.sc" horiz-adv-x="1202" 
d="M602 1583l-153 -203h-216l281 351h178l283 -351h-219zM928 0l-105 324h-446l-105 -324h-233l422 1221h280l420 -1221h-233zM436 506h330l-162 506h-4z" />
    <glyph glyph-name="Adieresis.sc" horiz-adv-x="1202" 
d="M383 1417q-53 0 -90 36.5t-37 88.5q0 51 37.5 88t89.5 37t89.5 -37t37.5 -88q0 -52 -37 -88.5t-90 -36.5zM823 1417q-54 0 -90.5 36t-36.5 89q0 52 37 88.5t90 36.5t90 -36.5t37 -88.5q0 -53 -36.5 -89t-90.5 -36zM928 0l-105 324h-446l-105 -324h-233l422 1221h280
l420 -1221h-233zM436 506h330l-162 506h-4z" />
    <glyph glyph-name="Agrave.sc" horiz-adv-x="1202" 
d="M782 1380h-192l-291 351h248zM928 0l-105 324h-446l-105 -324h-233l422 1221h280l420 -1221h-233zM436 506h330l-162 506h-4z" />
    <glyph glyph-name="Amacron.sc" horiz-adv-x="1202" 
d="M954 1624v-164h-706v164h706zM928 0l-105 324h-446l-105 -324h-233l422 1221h280l420 -1221h-233zM436 506h330l-162 506h-4z" />
    <glyph glyph-name="Aogonek.sc" horiz-adv-x="1202" 
d="M971 -197q0 -50 35.5 -78t87.5 -28q54 0 67 10v-143q-11 -7 -43.5 -14t-68.5 -7q-116 0 -190.5 60t-74.5 161q0 131 140 246l-101 314h-446l-105 -324h-233l422 1221h280l420 -1221q-190 -101 -190 -197zM436 506h330l-162 506h-4z" />
    <glyph glyph-name="Aring.sc" horiz-adv-x="1202" 
d="M604 1378q-98 0 -164.5 61.5t-66.5 153.5q0 91 66.5 152t164.5 61q97 0 163.5 -61.5t66.5 -151.5q0 -92 -66.5 -153.5t-163.5 -61.5zM604 1696q-47 0 -78.5 -30t-31.5 -73q0 -44 31.5 -74t78.5 -30q46 0 76.5 30t30.5 74q0 43 -31 73t-76 30zM928 0l-105 324h-446
l-105 -324h-233l422 1221h280l420 -1221h-233zM436 506h330l-162 506h-4z" />
    <glyph glyph-name="Atilde.sc" horiz-adv-x="1202" 
d="M352 1407h-157q-7 138 61.5 207t175.5 69q51 0 98 -19t76.5 -42t68 -42t75.5 -19q53 0 78.5 34.5t23.5 81.5h156q8 -138 -60.5 -207t-177.5 -69q-50 0 -96.5 19t-75.5 41.5t-67.5 41.5t-75.5 19q-53 0 -79 -35t-24 -80zM928 0l-105 324h-446l-105 -324h-233l422 1221h280
l420 -1221h-233zM436 506h330l-162 506h-4z" />
    <glyph glyph-name="AE.sc" horiz-adv-x="1718" 
d="M1593 1018h-487v-309h446v-185h-446v-321h487v-203h-716v324h-433l-200 -324h-267l773 1221h843v-203zM557 506h320v512h-5z" />
    <glyph glyph-name="B.sc" horiz-adv-x="1153" 
d="M844 627q209 -72 209 -287q0 -153 -117 -246.5t-330 -93.5h-430v1221h410q203 0 313.5 -86.5t110.5 -239.5q0 -188 -166 -268zM410 1032v-330h170q94 -1 149 44.5t55 123.5q0 77 -53.5 119.5t-152.5 42.5h-168zM592 190q107 0 167 47t60 130q0 80 -59.5 125t-167.5 45
h-182v-347h182z" />
    <glyph glyph-name="C.sc" horiz-adv-x="1085" 
d="M991 31q-123 -56 -282 -56q-120 0 -230 44.5t-194.5 124.5t-134.5 201t-50 265q0 143 50.5 264t134.5 201.5t194 125t230 44.5q165 0 282 -57v-221q-123 57 -248 57q-183 0 -294 -116t-111 -298q0 -183 111 -298t294 -115q123 0 248 55v-221z" />
    <glyph glyph-name="Cacute.sc" horiz-adv-x="1085" 
d="M739 1731h248l-291 -351h-192zM991 31q-123 -56 -282 -56q-120 0 -230 44.5t-194.5 124.5t-134.5 201t-50 265q0 143 50.5 264t134.5 201.5t194 125t230 44.5q165 0 282 -57v-221q-123 57 -248 57q-183 0 -294 -116t-111 -298q0 -183 111 -298t294 -115q123 0 248 55
v-221z" />
    <glyph glyph-name="Ccaron.sc" horiz-adv-x="1085" 
d="M1047 1731l-285 -351h-172l-285 351h219l152 -203l153 203h218zM991 31q-123 -56 -282 -56q-120 0 -230 44.5t-194.5 124.5t-134.5 201t-50 265q0 143 50.5 264t134.5 201.5t194 125t230 44.5q165 0 282 -57v-221q-123 57 -248 57q-183 0 -294 -116t-111 -298
q0 -183 111 -298t294 -115q123 0 248 55v-221z" />
    <glyph glyph-name="Ccedilla.sc" horiz-adv-x="1085" 
d="M743 1024q-183 0 -294 -116t-111 -298q0 -183 111 -298t294 -115q123 0 248 55v-221q-94 -44 -217 -54q-17 -194 -137 -335h-240q80 92 125.5 173.5t55.5 174.5q-100 21 -186.5 73t-151.5 129.5t-102.5 185.5t-37.5 232q0 143 50.5 264t134.5 201.5t194 125t230 44.5
q165 0 282 -57v-221q-123 57 -248 57z" />
    <glyph glyph-name="Cdotaccent.sc" horiz-adv-x="1085" 
d="M674 1417q-51 0 -88 36.5t-37 88.5q0 51 37 88t88 37q54 0 91.5 -37t37.5 -88q0 -52 -37.5 -88.5t-91.5 -36.5zM991 31q-123 -56 -282 -56q-120 0 -230 44.5t-194.5 124.5t-134.5 201t-50 265q0 143 50.5 264t134.5 201.5t194 125t230 44.5q165 0 282 -57v-221
q-123 57 -248 57q-183 0 -294 -116t-111 -298q0 -183 111 -298t294 -115q123 0 248 55v-221z" />
    <glyph glyph-name="D.sc" horiz-adv-x="1265" 
d="M475 1221q315 0 503.5 -168t188.5 -441q0 -277 -188 -444.5t-504 -167.5h-299v1221h299zM412 1004v-785h80q200 0 317 103t117 288q0 186 -117 290t-317 104h-80z" />
    <glyph glyph-name="Eth.sc" horiz-adv-x="1292" 
d="M502 1221q314 0 502 -168t188 -441q0 -277 -187.5 -444.5t-502.5 -167.5h-299v526h-152v172h152v523h299zM518 211q199 0 316.5 106t117.5 293q0 188 -117.5 295t-316.5 107h-86v-316h262v-168h-262v-317h86z" />
    <glyph glyph-name="Dcaron.sc" horiz-adv-x="1265" 
d="M1001 1731l-284 -351h-172l-285 351h219l152 -203l153 203h217zM475 1221q315 0 503.5 -168t188.5 -441q0 -277 -188 -444.5t-504 -167.5h-299v1221h299zM412 1004v-785h80q200 0 317 103t117 288q0 186 -117 290t-317 104h-80z" />
    <glyph glyph-name="Dcroat.sc" horiz-adv-x="1292" 
d="M502 1221q314 0 502 -168t188 -441q0 -277 -187.5 -444.5t-502.5 -167.5h-299v526h-152v172h152v523h299zM518 211q199 0 316.5 106t117.5 293q0 188 -117.5 295t-316.5 107h-86v-316h262v-168h-262v-317h86z" />
    <glyph glyph-name="E.sc" horiz-adv-x="1026" 
d="M176 0v1221h723v-203h-487v-307h448v-183h-448v-325h487v-203h-723z" />
    <glyph glyph-name="Eacute.sc" horiz-adv-x="1026" 
d="M598 1731h248l-291 -351h-193zM176 0v1221h723v-203h-487v-307h448v-183h-448v-325h487v-203h-723z" />
    <glyph glyph-name="Ecaron.sc" horiz-adv-x="1026" 
d="M905 1731l-284 -351h-172l-285 351h219l152 -203l153 203h217zM176 0v1221h723v-203h-487v-307h448v-183h-448v-325h487v-203h-723z" />
    <glyph glyph-name="Ecircumflex.sc" horiz-adv-x="1026" 
d="M625 1731l282 -351h-219l-153 203l-154 -203h-215l280 351h179zM176 0v1221h723v-203h-487v-307h448v-183h-448v-325h487v-203h-723z" />
    <glyph glyph-name="Edieresis.sc" horiz-adv-x="1026" 
d="M315 1417q-53 0 -90 36.5t-37 88.5q0 51 37.5 88t89.5 37t89.5 -37t37.5 -88q0 -52 -37 -88.5t-90 -36.5zM756 1417q-54 0 -90.5 36t-36.5 89q0 52 36.5 88.5t90.5 36.5t90.5 -36.5t36.5 -88.5q0 -53 -36.5 -89t-90.5 -36zM176 0v1221h723v-203h-487v-307h448v-183h-448
v-325h487v-203h-723z" />
    <glyph glyph-name="Edotaccent.sc" horiz-adv-x="1026" 
d="M532 1417q-51 0 -87.5 36.5t-36.5 88.5q0 51 36.5 88t87.5 37q54 0 92 -37t38 -88q0 -52 -38 -88.5t-92 -36.5zM176 0v1221h723v-203h-487v-307h448v-183h-448v-325h487v-203h-723z" />
    <glyph glyph-name="Egrave.sc" horiz-adv-x="1026" 
d="M479 1731l236 -351h-193l-291 351h248zM176 0v1221h723v-203h-487v-307h448v-183h-448v-325h487v-203h-723z" />
    <glyph glyph-name="Emacron.sc" horiz-adv-x="1026" 
d="M180 1460v164h707v-164h-707zM176 0v1221h723v-203h-487v-307h448v-183h-448v-325h487v-203h-723z" />
    <glyph glyph-name="Eogonek.sc" horiz-adv-x="1026" 
d="M899 1018h-487v-307h448v-183h-448v-325h487v-203q-190 -101 -190 -197q0 -50 35 -78t87 -28q55 0 68 10v-143q-11 -7 -44 -14t-69 -7q-116 0 -190 60t-74 161q0 128 127 236h-473v1221h723v-203z" />
    <glyph glyph-name="F.sc" horiz-adv-x="993" 
d="M176 0v1221h723v-220h-487v-331h446v-199h-446v-471h-236z" />
    <glyph glyph-name="G.sc" horiz-adv-x="1214" 
d="M1085 641v-596q-166 -70 -335 -70q-99 0 -192 24.5t-176.5 76.5t-146 125t-99 177.5t-36.5 227.5q0 145 51 266t138.5 202t204.5 126t249 45q172 0 318 -63v-221q-135 63 -291 63q-190 0 -312 -117.5t-122 -300.5q0 -97 36 -177.5t95.5 -130t132 -76.5t148.5 -27
q70 0 120 20v426h217z" />
    <glyph glyph-name="Gbreve.sc" horiz-adv-x="1214" 
d="M1059 1724q4 -79 -27 -144t-84 -105t-117.5 -61t-132.5 -21t-132.5 21t-117 61t-83.5 104.5t-27 144.5h170q3 -74 53.5 -123t136.5 -49t137 49t54 123h170zM1085 641v-596q-166 -70 -335 -70q-99 0 -192 24.5t-176.5 76.5t-146 125t-99 177.5t-36.5 227.5q0 145 51 266
t138.5 202t204.5 126t249 45q172 0 318 -63v-221q-135 63 -291 63q-190 0 -312 -117.5t-122 -300.5q0 -97 36 -177.5t95.5 -130t132 -76.5t148.5 -27q70 0 120 20v426h217z" />
    <glyph glyph-name="Gcommaaccent.sc" horiz-adv-x="1214" 
d="M1085 641v-596q-166 -70 -335 -70q-99 0 -192 24.5t-176.5 76.5t-146 125t-99 177.5t-36.5 227.5q0 145 51 266t138.5 202t204.5 126t249 45q172 0 318 -63v-221q-135 63 -291 63q-190 0 -312 -117.5t-122 -300.5q0 -97 36 -177.5t95.5 -130t132 -76.5t148.5 -27
q70 0 120 20v426h217zM803 -162q41 -215 -96 -442h-170q102 234 47 442h219z" />
    <glyph glyph-name="Gdotaccent.sc" horiz-adv-x="1214" 
d="M696 1417q-51 0 -88 36.5t-37 88.5q0 51 37 88t88 37q54 0 91.5 -37t37.5 -88q0 -52 -37.5 -88.5t-91.5 -36.5zM1085 641v-596q-166 -70 -335 -70q-99 0 -192 24.5t-176.5 76.5t-146 125t-99 177.5t-36.5 227.5q0 145 51 266t138.5 202t204.5 126t249 45q172 0 318 -63
v-221q-135 63 -291 63q-190 0 -312 -117.5t-122 -300.5q0 -97 36 -177.5t95.5 -130t132 -76.5t148.5 -27q70 0 120 20v426h217z" />
    <glyph glyph-name="H.sc" horiz-adv-x="1363" 
d="M954 0v504h-542v-504h-236v1221h236v-498h542v498h234v-1221h-234z" />
    <glyph glyph-name="Hbar.sc" horiz-adv-x="1388" 
d="M1331 1047v-158h-131v-889h-233v504h-543v-504h-236v889h-133v158h133v174h236v-174h543v174h233v-174h131zM967 723v166h-543v-166h543z" />
    <glyph glyph-name="I.sc" horiz-adv-x="587" 
d="M176 0v1221h236v-1221h-236z" />
    <glyph glyph-name="IJ.sc" horiz-adv-x="1390" 
d="M176 0v1221h236v-1221h-236zM657 231q61 -34 129 -34q98 0 152.5 62.5t54.5 182.5v779h234v-799q0 -202 -109 -322t-299 -120q-80 0 -162 30v221z" />
    <glyph glyph-name="Iacute.sc" horiz-adv-x="587" 
d="M356 1731h248l-291 -351h-192zM176 0v1221h236v-1221h-236z" />
    <glyph glyph-name="Icircumflex.sc" horiz-adv-x="587" 
d="M383 1731l283 -351h-220l-153 203l-154 -203h-215l281 351h178zM176 0v1221h236v-1221h-236z" />
    <glyph glyph-name="Idieresis.sc" horiz-adv-x="587" 
d="M74 1417q-53 0 -90 36.5t-37 88.5q0 51 37.5 88t89.5 37t89.5 -37t37.5 -88q0 -52 -37 -88.5t-90 -36.5zM514 1417q-54 0 -90.5 36t-36.5 89q0 52 36.5 88.5t90.5 36.5t90.5 -36.5t36.5 -88.5q0 -53 -36.5 -89t-90.5 -36zM176 0v1221h236v-1221h-236z" />
    <glyph glyph-name="Idotaccent.sc" horiz-adv-x="587" 
d="M291 1417q-51 0 -88 36.5t-37 88.5q0 51 37 88t88 37q54 0 91.5 -37t37.5 -88q0 -52 -37.5 -88.5t-91.5 -36.5zM176 0v1221h236v-1221h-236z" />
    <glyph glyph-name="Igrave.sc" horiz-adv-x="587" 
d="M238 1731l235 -351h-192l-291 351h248zM176 0v1221h236v-1221h-236z" />
    <glyph glyph-name="Imacron.sc" horiz-adv-x="587" 
d="M-61 1460v164h706v-164h-706zM176 0v1221h236v-1221h-236z" />
    <glyph glyph-name="Iogonek.sc" horiz-adv-x="587" 
d="M178 1221h236v-1221h-2q-191 -101 -191 -197q0 -50 35.5 -78t87.5 -28q55 0 68 10v-143q-11 -7 -44 -14t-69 -7q-116 0 -190 60t-74 161q0 135 143 250v1207z" />
    <glyph glyph-name="J.sc" horiz-adv-x="794" 
d="M61 231q61 -34 129 -34q98 0 152.5 62.5t54.5 182.5v779h234v-799q0 -202 -109 -322t-299 -120q-80 0 -162 30v221z" />
    <glyph glyph-name="K.sc" horiz-adv-x="1159" 
d="M1124 0h-272l-440 614v-614h-236v1221h236v-564l440 564h266l-465 -582z" />
    <glyph glyph-name="Kcommaaccent.sc" horiz-adv-x="1159" 
d="M653 639l471 -639h-272l-440 614v-614h-236v1221h236v-564l440 564h266zM498 -162h219q41 -215 -96 -442h-170q102 234 47 442z" />
    <glyph glyph-name="L.sc" horiz-adv-x="985" 
d="M176 0v1221h236v-1000h514v-221h-750z" />
    <glyph glyph-name="Lacute.sc" horiz-adv-x="985" 
d="M356 1731h248l-291 -351h-192zM176 0v1221h236v-1000h514v-221h-750z" />
    <glyph glyph-name="Lcaron.sc" horiz-adv-x="1007" 
d="M569 791q2 15 9.5 59.5t11.5 84.5t4 87q0 97 -33 201h217q15 -73 15 -127q0 -142 -68 -305h-156zM176 0v1221h236v-1000h514v-221h-750z" />
    <glyph glyph-name="Lcommaaccent.sc" horiz-adv-x="985" 
d="M176 0v1221h236v-1000h514v-221h-750zM655 -162q41 -215 -96 -442h-170q102 234 47 442h219z" />
    <glyph glyph-name="Ldot.sc" horiz-adv-x="1050" 
d="M176 0v1221h236v-1000h514v-221h-750zM788 518q-63 0 -106 42.5t-43 105.5q0 64 43 106.5t106 42.5t106.5 -42.5t43.5 -106.5q0 -63 -43.5 -105.5t-106.5 -42.5z" />
    <glyph glyph-name="Lslash.sc" horiz-adv-x="1048" 
d="M475 221h514v-221h-749v424l-195 -119v193l195 120v603h235v-457l242 149v-196l-242 -148v-348z" />
    <glyph glyph-name="M.sc" horiz-adv-x="1652" 
d="M436 909l-112 -909h-226l181 1221h264l282 -902h4l281 902h264l180 -1221h-227l-115 909h-4l-286 -909h-201l-279 909h-6z" />
    <glyph glyph-name="N.sc" horiz-adv-x="1370" 
d="M1194 1221v-1221h-227l-570 879v-879h-221v1221h236l561 -873v873h221z" />
    <glyph glyph-name="Nacute.sc" horiz-adv-x="1370" 
d="M776 1731h248l-291 -351h-192zM1194 1221v-1221h-227l-570 879v-879h-221v1221h236l561 -873v873h221z" />
    <glyph glyph-name="Ncaron.sc" horiz-adv-x="1370" 
d="M1083 1731l-284 -351h-172l-285 351h219l152 -203l153 203h217zM1194 1221v-1221h-227l-570 879v-879h-221v1221h236l561 -873v873h221z" />
    <glyph glyph-name="Ncommaaccent.sc" horiz-adv-x="1370" 
d="M1194 1221v-1221h-227l-570 879v-879h-221v1221h236l561 -873v873h221zM791 -162q40 -214 -97 -442h-170q102 234 47 442h220z" />
    <glyph glyph-name="Eng.sc" horiz-adv-x="1370" 
d="M973 1221h221v-1233q0 -202 -109.5 -323.5t-298.5 -121.5q-79 0 -163 33v219q65 -33 137 -33q96 0 152.5 59t60.5 171l-576 887v-879h-221v1221h236l561 -873v873z" />
    <glyph glyph-name="Ntilde.sc" horiz-adv-x="1370" 
d="M1118 1677q8 -138 -60 -207t-177 -69q-50 0 -96.5 19t-76 41.5t-68 41.5t-75.5 19q-53 0 -78.5 -35t-23.5 -80h-158q-7 138 62 207t176 69q51 0 98 -19t76 -42t67.5 -42t75.5 -19q53 0 79 34.5t24 81.5h155zM1194 1221v-1221h-227l-570 879v-879h-221v1221h236l561 -873
v873h221z" />
    <glyph glyph-name="O.sc" horiz-adv-x="1443" 
d="M721 1245q125 0 238.5 -46.5t198.5 -128.5t135 -201.5t50 -258.5t-50 -258.5t-135 -201.5t-198.5 -128.5t-238.5 -46.5t-238.5 46.5t-198 128.5t-134.5 201.5t-50 258.5t50 258.5t134.5 201.5t198 128.5t238.5 46.5zM721 1024q-155 0 -268 -114.5t-113 -301.5
q0 -185 113.5 -298t267.5 -113q99 0 185.5 48t142 143.5t55.5 219.5q0 94 -32.5 174t-86 132t-122 81t-142.5 29z" />
    <glyph glyph-name="Oacute.sc" horiz-adv-x="1443" 
d="M784 1731h248l-291 -351h-192zM721 1245q125 0 238.5 -46.5t198.5 -128.5t135 -201.5t50 -258.5t-50 -258.5t-135 -201.5t-198.5 -128.5t-238.5 -46.5t-238.5 46.5t-198 128.5t-134.5 201.5t-50 258.5t50 258.5t134.5 201.5t198 128.5t238.5 46.5zM721 1024
q-155 0 -268 -114.5t-113 -301.5q0 -185 113.5 -298t267.5 -113q99 0 185.5 48t142 143.5t55.5 219.5q0 94 -32.5 174t-86 132t-122 81t-142.5 29z" />
    <glyph glyph-name="Ocircumflex.sc" horiz-adv-x="1443" 
d="M811 1731l283 -351h-220l-153 203l-154 -203h-215l281 351h178zM721 1245q125 0 238.5 -46.5t198.5 -128.5t135 -201.5t50 -258.5t-50 -258.5t-135 -201.5t-198.5 -128.5t-238.5 -46.5t-238.5 46.5t-198 128.5t-134.5 201.5t-50 258.5t50 258.5t134.5 201.5t198 128.5
t238.5 46.5zM721 1024q-155 0 -268 -114.5t-113 -301.5q0 -185 113.5 -298t267.5 -113q99 0 185.5 48t142 143.5t55.5 219.5q0 94 -32.5 174t-86 132t-122 81t-142.5 29z" />
    <glyph glyph-name="Odieresis.sc" horiz-adv-x="1443" 
d="M502 1417q-53 0 -90 36.5t-37 88.5q0 51 37.5 88t89.5 37t89.5 -37t37.5 -88q0 -52 -37 -88.5t-90 -36.5zM942 1417q-54 0 -90.5 36t-36.5 89q0 52 36.5 88.5t90.5 36.5t90.5 -36.5t36.5 -88.5q0 -53 -36.5 -89t-90.5 -36zM721 1245q125 0 238.5 -46.5t198.5 -128.5
t135 -201.5t50 -258.5t-50 -258.5t-135 -201.5t-198.5 -128.5t-238.5 -46.5t-238.5 46.5t-198 128.5t-134.5 201.5t-50 258.5t50 258.5t134.5 201.5t198 128.5t238.5 46.5zM721 1024q-155 0 -268 -114.5t-113 -301.5q0 -185 113.5 -298t267.5 -113q99 0 185.5 48t142 143.5
t55.5 219.5q0 94 -32.5 174t-86 132t-122 81t-142.5 29z" />
    <glyph glyph-name="Ograve.sc" horiz-adv-x="1443" 
d="M666 1731l235 -351h-192l-291 351h248zM721 1245q125 0 238.5 -46.5t198.5 -128.5t135 -201.5t50 -258.5t-50 -258.5t-135 -201.5t-198.5 -128.5t-238.5 -46.5t-238.5 46.5t-198 128.5t-134.5 201.5t-50 258.5t50 258.5t134.5 201.5t198 128.5t238.5 46.5zM721 1024
q-155 0 -268 -114.5t-113 -301.5q0 -185 113.5 -298t267.5 -113q99 0 185.5 48t142 143.5t55.5 219.5q0 94 -32.5 174t-86 132t-122 81t-142.5 29z" />
    <glyph glyph-name="Ohungarumlaut.sc" horiz-adv-x="1443" 
d="M922 1731l-363 -351h-199l306 351h256zM1305 1731l-363 -351h-197l304 351h256zM721 1245q125 0 238.5 -46.5t198.5 -128.5t135 -201.5t50 -258.5t-50 -258.5t-135 -201.5t-198.5 -128.5t-238.5 -46.5t-238.5 46.5t-198 128.5t-134.5 201.5t-50 258.5t50 258.5
t134.5 201.5t198 128.5t238.5 46.5zM721 1024q-155 0 -268 -114.5t-113 -301.5q0 -185 113.5 -298t267.5 -113q99 0 185.5 48t142 143.5t55.5 219.5q0 94 -32.5 174t-86 132t-122 81t-142.5 29z" />
    <glyph glyph-name="Omacron.sc" horiz-adv-x="1443" 
d="M367 1460v164h706v-164h-706zM721 1245q125 0 238.5 -46.5t198.5 -128.5t135 -201.5t50 -258.5t-50 -258.5t-135 -201.5t-198.5 -128.5t-238.5 -46.5t-238.5 46.5t-198 128.5t-134.5 201.5t-50 258.5t50 258.5t134.5 201.5t198 128.5t238.5 46.5zM721 1024
q-155 0 -268 -114.5t-113 -301.5q0 -185 113.5 -298t267.5 -113q99 0 185.5 48t142 143.5t55.5 219.5q0 94 -32.5 174t-86 132t-122 81t-142.5 29z" />
    <glyph glyph-name="Oslash.sc" horiz-adv-x="1449" 
d="M1350 1135l-129 -134q125 -167 125 -391q0 -184 -86 -331t-227.5 -225.5t-309.5 -78.5q-217 0 -381 127l-119 -122l-106 100l121 125q-136 172 -136 405q0 139 50 258.5t134.5 201.5t198 128.5t238.5 46.5q226 0 397 -139l125 129zM336 608q0 -137 65 -237l560 573
q-104 84 -238 84q-75 0 -144.5 -29.5t-123.5 -82.5t-86.5 -133t-32.5 -175zM1112 608q0 129 -57 226l-553 -570q95 -71 221 -71q101 0 189 49t144 145.5t56 220.5z" />
    <glyph glyph-name="Otilde.sc" horiz-adv-x="1443" 
d="M1126 1677q8 -138 -60 -207t-177 -69q-50 0 -96.5 19t-76 41.5t-68 41.5t-75.5 19q-53 0 -78.5 -35t-23.5 -80h-158q-7 138 62 207t176 69q51 0 98 -19t76 -42t67.5 -42t75.5 -19q53 0 79 34.5t24 81.5h155zM721 1245q125 0 238.5 -46.5t198.5 -128.5t135 -201.5
t50 -258.5t-50 -258.5t-135 -201.5t-198.5 -128.5t-238.5 -46.5t-238.5 46.5t-198 128.5t-134.5 201.5t-50 258.5t50 258.5t134.5 201.5t198 128.5t238.5 46.5zM721 1024q-155 0 -268 -114.5t-113 -301.5q0 -185 113.5 -298t267.5 -113q99 0 185.5 48t142 143.5t55.5 219.5
q0 94 -32.5 174t-86 132t-122 81t-142.5 29z" />
    <glyph glyph-name="OE.sc" horiz-adv-x="1720" 
d="M100 610q0 138 50 257.5t134.5 201t198 128t238.5 46.5q118 0 205 -22h667v-203h-487v-307h448v-183h-448v-325h487v-203h-667q-104 -23 -205 -23q-168 0 -309 78t-226.5 224.5t-85.5 330.5zM340 608q0 -185 113.5 -298t267.5 -113q94 0 149 14v799q-47 14 -149 14
q-155 0 -268 -114.5t-113 -301.5z" />
    <glyph glyph-name="P.sc" horiz-adv-x="1093" 
d="M176 1221h324q245 0 381.5 -113.5t136.5 -306.5q0 -194 -134.5 -317.5t-373.5 -123.5h-98v-360h-236v1221zM518 563q129 0 197.5 64t68.5 168q0 99 -68.5 157t-197.5 58h-106v-447h106z" />
    <glyph glyph-name="Thorn.sc" horiz-adv-x="1146" 
d="M412 1221v-168h155q239 0 372.5 -113.5t133.5 -308.5q0 -194 -133.5 -318.5t-372.5 -124.5h-155v-188h-236v1221h236zM571 403q130 0 198.5 62.5t68.5 165.5q0 97 -68.5 153t-198.5 56h-159v-437h159z" />
    <glyph glyph-name="Q.sc" horiz-adv-x="1443" 
d="M1382 49l-131 -135l-176 168q-161 -107 -354 -107q-125 0 -238.5 46.5t-198 128.5t-134.5 201.5t-50 258.5t50 258.5t134.5 201.5t198 128.5t238.5 46.5t238.5 -46.5t198.5 -128.5t135 -201.5t50 -258.5q0 -230 -131 -399zM721 182q104 0 192 54l-225 215l131 135
l228 -217q65 105 65 239q0 189 -116 306.5t-275 117.5q-158 0 -272.5 -117.5t-114.5 -306.5q0 -188 115 -307t272 -119z" />
    <glyph glyph-name="R.sc" horiz-adv-x="1130" 
d="M680 453l389 -453h-285l-362 438h-10v-438h-236v1221h352q120 0 213.5 -30t152 -83.5t88.5 -124.5t30 -156q0 -134 -88 -236t-244 -138zM412 621h129q108 0 170.5 53.5t62.5 146.5q0 86 -62 136.5t-173 50.5h-127v-387z" />
    <glyph glyph-name="Racute.sc" horiz-adv-x="1130" 
d="M891 1731l-291 -351h-192l235 351h248zM680 453l389 -453h-285l-362 438h-10v-438h-236v1221h352q120 0 213.5 -30t152 -83.5t88.5 -124.5t30 -156q0 -134 -88 -236t-244 -138zM412 621h129q108 0 170.5 53.5t62.5 146.5q0 86 -62 136.5t-173 50.5h-127v-387z" />
    <glyph glyph-name="Rcaron.sc" horiz-adv-x="1130" 
d="M666 1380h-172l-285 351h219l152 -203l153 203h217zM680 453l389 -453h-285l-362 438h-10v-438h-236v1221h352q120 0 213.5 -30t152 -83.5t88.5 -124.5t30 -156q0 -134 -88 -236t-244 -138zM412 621h129q108 0 170.5 53.5t62.5 146.5q0 86 -62 136.5t-173 50.5h-127v-387
z" />
    <glyph glyph-name="Rcommaaccent.sc" horiz-adv-x="1130" 
d="M680 453l389 -453h-285l-362 438h-10v-438h-236v1221h352q120 0 213.5 -30t152 -83.5t88.5 -124.5t30 -156q0 -134 -88 -236t-244 -138zM412 621h129q108 0 170.5 53.5t62.5 146.5q0 86 -62 136.5t-173 50.5h-127v-387zM465 -162h219q41 -215 -96 -442h-170
q102 234 47 442z" />
    <glyph glyph-name="S.sc" horiz-adv-x="1015" 
d="M848 1165v-221q-126 94 -287 94q-93 0 -150 -36.5t-57 -98.5q0 -55 45 -92t136 -74q152 -62 210 -98q168 -102 178 -268q1 -11 1 -23q0 -163 -122 -268t-315 -105q-208 0 -368 117v248q70 -71 162 -114.5t190 -43.5q97 0 157 44.5t60 109.5q0 53 -43.5 90t-134.5 76
q-40 16 -58 24t-57.5 26t-60 30t-54.5 34t-52.5 41t-42 46.5t-35.5 55.5t-20.5 63.5t-8.5 74.5q0 147 110.5 247.5t296.5 100.5q187 0 320 -80z" />
    <glyph glyph-name="Sacute.sc" horiz-adv-x="1015" 
d="M594 1731h248l-291 -351h-193zM848 1165v-221q-126 94 -287 94q-93 0 -150 -36.5t-57 -98.5q0 -55 45 -92t136 -74q152 -62 210 -98q168 -102 178 -268q1 -11 1 -23q0 -163 -122 -268t-315 -105q-208 0 -368 117v248q70 -71 162 -114.5t190 -43.5q97 0 157 44.5t60 109.5
q0 53 -43.5 90t-134.5 76q-40 16 -58 24t-57.5 26t-60 30t-54.5 34t-52.5 41t-42 46.5t-35.5 55.5t-20.5 63.5t-8.5 74.5q0 147 110.5 247.5t296.5 100.5q187 0 320 -80z" />
    <glyph glyph-name="Scaron.sc" horiz-adv-x="1015" 
d="M901 1731l-285 -351h-172l-284 351h219l151 -203l154 203h217zM848 1165v-221q-126 94 -287 94q-93 0 -150 -36.5t-57 -98.5q0 -55 45 -92t136 -74q152 -62 210 -98q168 -102 178 -268q1 -11 1 -23q0 -163 -122 -268t-315 -105q-208 0 -368 117v248q70 -71 162 -114.5
t190 -43.5q97 0 157 44.5t60 109.5q0 53 -43.5 90t-134.5 76q-40 16 -58 24t-57.5 26t-60 30t-54.5 34t-52.5 41t-42 46.5t-35.5 55.5t-20.5 63.5t-8.5 74.5q0 147 110.5 247.5t296.5 100.5q187 0 320 -80z" />
    <glyph glyph-name="Scedilla.sc" horiz-adv-x="1015" 
d="M924 348q0 -134 -86.5 -231.5t-229.5 -128.5q-14 -198 -137 -346h-240q78 90 123 169t56 169q-165 19 -291 112v248q70 -71 162 -114.5t190 -43.5q97 0 157 44.5t60 109.5q0 53 -43.5 90t-134.5 76q-40 16 -58 24t-57.5 26t-60 30t-54.5 34t-52.5 41t-42 46.5t-35.5 55.5
t-20.5 63.5t-8.5 74.5q0 147 110.5 247.5t296.5 100.5q187 0 320 -80v-221q-126 94 -287 94q-93 0 -150 -36.5t-57 -98.5q0 -55 45 -92t136 -74q152 -62 210 -98q168 -102 178 -268q1 -11 1 -23z" />
    <glyph glyph-name="Scommaaccent.sc" horiz-adv-x="1015" 
d="M848 1165v-221q-126 94 -287 94q-93 0 -150 -36.5t-57 -98.5q0 -55 45 -92t136 -74q152 -62 210 -98q168 -102 178 -268q1 -11 1 -23q0 -163 -122 -268t-315 -105q-208 0 -368 117v248q70 -71 162 -114.5t190 -43.5q97 0 157 44.5t60 109.5q0 53 -43.5 90t-134.5 76
q-40 16 -58 24t-57.5 26t-60 30t-54.5 34t-52.5 41t-42 46.5t-35.5 55.5t-20.5 63.5t-8.5 74.5q0 147 110.5 247.5t296.5 100.5q187 0 320 -80zM614 -162q41 -215 -96 -442h-170q102 234 47 442h219z" />
    <glyph glyph-name="uni1E9E.sc" horiz-adv-x="1306" 
d="M893 696q136 -15 225.5 -108.5t89.5 -231.5q0 -56 -14.5 -109t-47.5 -103t-80.5 -87t-119 -59.5t-158.5 -22.5q-173 0 -292 86v222q50 -48 121 -78.5t147 -30.5q104 0 165.5 56t61.5 141q0 84 -63.5 136t-171.5 52h-178l313 422q-72 57 -203 57t-220 -78t-89 -219v-741
h-217v764q0 145 71 256t193 169t276 58q264 0 461 -188z" />
    <glyph glyph-name="T.sc" horiz-adv-x="1097" 
d="M430 0v1001h-373v220h983v-220h-372v-1001h-238z" />
    <glyph glyph-name="Tbar.sc" horiz-adv-x="1136" 
d="M1059 1001h-373v-362h250v-193h-250v-446h-237v446h-250v193h250v362h-373v220h983v-220z" />
    <glyph glyph-name="Tcaron.sc" horiz-adv-x="1097" 
d="M920 1731l-285 -351h-172l-285 351h219l152 -203l153 203h218zM430 0v1001h-373v220h983v-220h-372v-1001h-238z" />
    <glyph glyph-name="uni0162.sc" horiz-adv-x="1097" 
d="M57 1221h983v-220h-372v-1001h-19q-11 -205 -139 -358h-240q81 94 127 177.5t54 180.5h-21v1001h-373v220z" />
    <glyph glyph-name="uni021A.sc" horiz-adv-x="1097" 
d="M430 0v1001h-373v220h983v-220h-372v-1001h-238zM653 -162q41 -215 -96 -442h-170q102 234 47 442h219z" />
    <glyph glyph-name="U.sc" horiz-adv-x="1316" 
d="M1157 1221v-736q0 -232 -141.5 -370t-358.5 -140q-217 0 -357 138.5t-140 371.5v736h235v-750q0 -127 73 -200.5t189 -73.5q119 0 192 73.5t73 200.5v750h235z" />
    <glyph glyph-name="Uacute.sc" horiz-adv-x="1316" 
d="M723 1731h248l-291 -351h-193zM1157 1221v-736q0 -232 -141.5 -370t-358.5 -140q-217 0 -357 138.5t-140 371.5v736h235v-750q0 -127 73 -200.5t189 -73.5q119 0 192 73.5t73 200.5v750h235z" />
    <glyph glyph-name="Ucircumflex.sc" horiz-adv-x="1316" 
d="M750 1731l282 -351h-219l-154 203l-153 -203h-215l280 351h179zM1157 1221v-736q0 -232 -141.5 -370t-358.5 -140q-217 0 -357 138.5t-140 371.5v736h235v-750q0 -127 73 -200.5t189 -73.5q119 0 192 73.5t73 200.5v750h235z" />
    <glyph glyph-name="Udieresis.sc" horiz-adv-x="1316" 
d="M440 1417q-53 0 -90 36.5t-37 88.5q0 51 37.5 88t89.5 37t89.5 -37t37.5 -88q0 -52 -37 -88.5t-90 -36.5zM881 1417q-54 0 -90.5 36t-36.5 89q0 52 37 88.5t90 36.5t90 -36.5t37 -88.5q0 -53 -36.5 -89t-90.5 -36zM1157 1221v-736q0 -232 -141.5 -370t-358.5 -140
q-217 0 -357 138.5t-140 371.5v736h235v-750q0 -127 73 -200.5t189 -73.5q119 0 192 73.5t73 200.5v750h235z" />
    <glyph glyph-name="Ugrave.sc" horiz-adv-x="1316" 
d="M604 1731l236 -351h-193l-291 351h248zM1157 1221v-736q0 -232 -141.5 -370t-358.5 -140q-217 0 -357 138.5t-140 371.5v736h235v-750q0 -127 73 -200.5t189 -73.5q119 0 192 73.5t73 200.5v750h235z" />
    <glyph glyph-name="Uhungarumlaut.sc" horiz-adv-x="1316" 
d="M860 1731l-362 -351h-199l305 351h256zM1243 1731l-362 -351h-197l303 351h256zM1157 1221v-736q0 -232 -141.5 -370t-358.5 -140q-217 0 -357 138.5t-140 371.5v736h235v-750q0 -127 73 -200.5t189 -73.5q119 0 192 73.5t73 200.5v750h235z" />
    <glyph glyph-name="Umacron.sc" horiz-adv-x="1316" 
d="M305 1460v164h707v-164h-707zM1157 1221v-736q0 -232 -141.5 -370t-358.5 -140q-217 0 -357 138.5t-140 371.5v736h235v-750q0 -127 73 -200.5t189 -73.5q119 0 192 73.5t73 200.5v750h235z" />
    <glyph glyph-name="Uogonek.sc" horiz-adv-x="1316" 
d="M922 1221h235v-736q0 -138 -56 -249.5t-157 -176.5q-121 -84 -178 -144t-57 -116q0 -51 35 -77.5t90 -26.5q54 0 67 10v-143q-10 -7 -47 -14t-70 -7q-116 0 -188 59t-72 160q0 114 107 215q-207 9 -339 146.5t-132 363.5v736h235v-750q0 -126 72.5 -200t189.5 -74
q119 0 192 73.5t73 200.5v750z" />
    <glyph glyph-name="Uring.sc" horiz-adv-x="1316" 
d="M662 1806q97 0 163 -61t66 -152q0 -92 -66 -153.5t-163 -61.5q-99 0 -165.5 61.5t-66.5 153.5q0 91 67 152t165 61zM662 1696q-47 0 -79 -30t-32 -73q0 -44 32 -74t79 -30q46 0 76 30t30 74q0 43 -30.5 73t-75.5 30zM1157 1221v-736q0 -232 -141.5 -370t-358.5 -140
q-217 0 -357 138.5t-140 371.5v736h235v-750q0 -127 73 -200.5t189 -73.5q119 0 192 73.5t73 200.5v750h235z" />
    <glyph glyph-name="V.sc" horiz-adv-x="1189" 
d="M1147 1221l-406 -1221h-292l-408 1221h254l299 -1000h4l307 1000h242z" />
    <glyph glyph-name="W.sc" horiz-adv-x="1841" 
d="M1206 0l-282 928h-6l-279 -928h-254l-334 1221h244l223 -940h8l271 940h247l283 -940h4l225 940h236l-338 -1221h-248z" />
    <glyph glyph-name="Wacute.sc" horiz-adv-x="1841" 
d="M985 1731h248l-291 -351h-192zM1206 0l-282 928h-6l-279 -928h-254l-334 1221h244l223 -940h8l271 940h247l283 -940h4l225 940h236l-338 -1221h-248z" />
    <glyph glyph-name="Wcircumflex.sc" horiz-adv-x="1841" 
d="M1012 1731l282 -351h-219l-153 203l-154 -203h-215l281 351h178zM1206 0l-282 928h-6l-279 -928h-254l-334 1221h244l223 -940h8l271 940h247l283 -940h4l225 940h236l-338 -1221h-248z" />
    <glyph glyph-name="Wdieresis.sc" horiz-adv-x="1841" 
d="M702 1417q-53 0 -90 36.5t-37 88.5q0 51 37.5 88t89.5 37t89.5 -37t37.5 -88q0 -52 -37 -88.5t-90 -36.5zM1143 1417q-54 0 -90.5 36t-36.5 89q0 52 37 88.5t90 36.5t90 -36.5t37 -88.5q0 -53 -36.5 -89t-90.5 -36zM1206 0l-282 928h-6l-279 -928h-254l-334 1221h244
l223 -940h8l271 940h247l283 -940h4l225 940h236l-338 -1221h-248z" />
    <glyph glyph-name="Wgrave.sc" horiz-adv-x="1841" 
d="M866 1731l236 -351h-193l-291 351h248zM1206 0l-282 928h-6l-279 -928h-254l-334 1221h244l223 -940h8l271 940h247l283 -940h4l225 940h236l-338 -1221h-248z" />
    </font>
</defs>
</svg>
