<svg xmlns="http://www.w3.org/2000/svg" width="44" height="44" viewBox="0 0 44 44"><defs><style>.a{stroke:#e2e2e2;}.b{fill:#fff;}.c{stroke:none;}.d{fill:none;}</style></defs><g class="a" transform="translate(0 0)"><circle class="c" cx="22" cy="22" r="22"/><circle class="d" cx="22" cy="22" r="21.5"/></g><g transform="translate(12.408 10.44)"><path class="b" d="M52.015,134.917c-3.28-.019-5.993-6.714-5.993-10.123,0-5.57,4.178-6.789,5.788-6.789a6.66,6.66,0,0,1,2.184.537,4.882,4.882,0,0,0,1.247.357,3.881,3.881,0,0,0,.895-.29,7.17,7.17,0,0,1,2.7-.652h.006a5.527,5.527,0,0,1,4.625,2.336l.337.507-.485.366a4.085,4.085,0,0,0-1.959,3.369,3.8,3.8,0,0,0,2.122,3.515c.3.183.618.371.618.784,0,.269-2.149,6.05-5.269,6.05a4.238,4.238,0,0,1-1.779-.432,3.608,3.608,0,0,0-1.584-.381,4.074,4.074,0,0,0-1.254.339,6.142,6.142,0,0,1-2.175.507Z" transform="translate(-46.022 -112.881)"/><path class="b" d="M259.294,0c.081,2.93-2.014,4.963-4.107,4.835A4.669,4.669,0,0,1,259.294,0Z" transform="translate(-246.153)"/></g></svg>