<?xml version="1.0" encoding="utf-8"?>
<!-- Generator: Adobe Illustrator 24.2.3, SVG Export Plug-In . SVG Version: 6.00 Build 0)  -->
<svg version="1.1" id="Layer_1" xmlns="http://www.w3.org/2000/svg" xmlns:xlink="http://www.w3.org/1999/xlink" x="0px" y="0px"
	 viewBox="0 0 81.4 90" style="enable-background:new 0 0 81.4 90;" xml:space="preserve">
<style type="text/css">
	.st0{fill:url(#SVGID_1_);}
	.st1{opacity:0.5;fill:#67C9CD;enable-background:new    ;}
	.st2{fill:url(#SVGID_2_);}
	.st3{fill:url(#SVGID_3_);}
	.st4{fill:#67C9CD;}
	.st5{fill:#288ACA;}
	.st6{clip-path:url(#SVGID_5_);}
	.st7{fill:url(#SVGID_6_);}
	.st8{fill:url(#SVGID_7_);}
	.st9{fill:url(#SVGID_8_);}
	.st10{fill:url(#SVGID_9_);}
	.st11{fill:url(#SVGID_10_);}
	.st12{fill:url(#SVGID_11_);}
	.st13{fill:#30C5F4;}
	.st14{fill:url(#SVGID_12_);}
	.st15{opacity:0.3;fill:url(#SVGID_13_);enable-background:new    ;}
	.st16{opacity:0.7;fill:#67C9CD;enable-background:new    ;}
	.st17{opacity:0.3;fill:#67C9CD;enable-background:new    ;}
	.st18{opacity:0.8;fill:url(#SVGID_14_);enable-background:new    ;}
	.st19{opacity:0.3;fill:url(#SVGID_15_);enable-background:new    ;}
	.st20{opacity:0.6;fill:url(#SVGID_16_);enable-background:new    ;}
</style>
<g transform="translate(0)">
	<g transform="translate(48.027 44.189)">
		<g transform="translate(0)">
			
				<linearGradient id="SVGID_1_" gradientUnits="userSpaceOnUse" x1="-73.0265" y1="2.511398e-02" x2="-71.9473" y2="2.511398e-02" gradientTransform="matrix(7.559 0 0 7.5587 557.7074 8.5602)">
				<stop  offset="0" style="stop-color:#46A4DC"/>
				<stop  offset="0.24" style="stop-color:#46A4DC;stop-opacity:0.984"/>
				<stop  offset="0.448" style="stop-color:#46A4DC;stop-opacity:0.933"/>
				<stop  offset="0.643" style="stop-color:#48A5DB;stop-opacity:0.851"/>
				<stop  offset="0.83" style="stop-color:#49A6DC;stop-opacity:0.737"/>
				<stop  offset="1" style="stop-color:#4CA8DD;stop-opacity:0.6"/>
			</linearGradient>
			<path class="st0" d="M13.9,8.7c0,2.3-1.8,4.1-4.1,4.1c-0.2,0-0.3,0-0.5,0c-2-0.3-3.6-2-3.6-4c0-0.3,0-0.6,0.1-0.9
				c0.4-1.9,2.1-3.2,4-3.2c0.1,0,0.1,0,0.2,0l0,0h0.1c0.1,0,0.1,0,0.2,0c0.1,0,0.1,0,0.2,0l0,0h0.2c0.1,0,0.1,0,0.2,0
				c0.1,0,0.1,0,0.2,0h0.1h0.1c0.1,0.1,0.3,0.1,0.4,0.2c0,0,0.1,0,0.1,0.1c0.1,0,0.1,0.1,0.2,0.1C13.1,6,13.9,7.3,13.9,8.7z"/>
			<path class="st1" d="M12.5,7.3c0.8,1.8,0.1,3.9-1.7,4.8c-1.8,0.8-3.9,0-4.8-1.8c-0.2-0.5-0.3-1-0.3-1.6c0-0.3,0-0.6,0.1-0.9
				c0.4-1.9,2.1-3.2,4-3.2c0.1,0,0.1,0,0.2,0l0,0h0.1c0,0,0.1,0,0.2,0c0.1,0,0.1,0,0.2,0l0,0h0.2c0.1,0,0.1,0,0.2,0
				c0.1,0,0.1,0,0.2,0h0.1h0.1c0.1,0.1,0.3,0.1,0.4,0.2c0,0,0.1,0,0.1,0.1C11.9,4.9,11.9,5,12,5C12.3,5.9,12.5,6.6,12.5,7.3z"/>
			
				<linearGradient id="SVGID_2_" gradientUnits="userSpaceOnUse" x1="-73.7908" y1="2.905949e-02" x2="-72.7115" y2="2.905949e-02" gradientTransform="matrix(5.865 0 0 7.5287 438.4758 8.5312)">
				<stop  offset="0" style="stop-color:#4389C8"/>
				<stop  offset="0.161" style="stop-color:#438AC9;stop-opacity:0.984"/>
				<stop  offset="0.3" style="stop-color:#4A8FCC;stop-opacity:0.933"/>
				<stop  offset="0.431" style="stop-color:#5699D2;stop-opacity:0.851"/>
				<stop  offset="0.557" style="stop-color:#67A4D9;stop-opacity:0.733"/>
				<stop  offset="0.68" style="stop-color:#7FB4E1;stop-opacity:0.584"/>
				<stop  offset="0.799" style="stop-color:#9AC8EC;stop-opacity:0.396"/>
				<stop  offset="0.915" style="stop-color:#BDDEF5;stop-opacity:0.184"/>
				<stop  offset="1" style="stop-color:#DAF1FD;stop-opacity:0"/>
			</linearGradient>
			<path class="st2" d="M12,8.3c0,1.9-1.1,3.6-2.8,4.5c-2-0.3-3.6-2-3.6-4c0-0.3,0-0.6,0.1-0.9c0.4-1.9,2.1-3.2,4-3.2
				c0.1,0,0.1,0,0.2,0l0,0H10c0.1,0,0.1,0,0.2,0c0.1,0,0.1,0,0.2,0C11.5,5.6,12,6.9,12,8.3z"/>
		</g>
		
			<linearGradient id="SVGID_3_" gradientUnits="userSpaceOnUse" x1="-75.0626" y1="0.474" x2="-73.9834" y2="0.474" gradientTransform="matrix(4.269 0 0 3.7644 326.2317 4.7656)">
			<stop  offset="0" style="stop-color:#4389C8"/>
			<stop  offset="0.161" style="stop-color:#438AC9;stop-opacity:0.984"/>
			<stop  offset="0.3" style="stop-color:#4A8FCC;stop-opacity:0.933"/>
			<stop  offset="0.431" style="stop-color:#5699D2;stop-opacity:0.851"/>
			<stop  offset="0.557" style="stop-color:#67A4D9;stop-opacity:0.733"/>
			<stop  offset="0.68" style="stop-color:#7FB4E1;stop-opacity:0.584"/>
			<stop  offset="0.799" style="stop-color:#9AC8EC;stop-opacity:0.396"/>
			<stop  offset="0.915" style="stop-color:#BDDEF5;stop-opacity:0.184"/>
			<stop  offset="1" style="stop-color:#DAF1FD;stop-opacity:0"/>
		</linearGradient>
		<path class="st3" d="M10.4,6c0,1.5-1.2,2.6-2.6,2.6c-0.7,0-1.5-0.3-2-0.9c0.4-1.9,2.1-3.2,4-3.2c0.1,0,0.1,0,0.2,0l0,0l0,0
			C10.3,5,10.4,5.5,10.4,6z"/>
	</g>
	<g transform="translate(11.103)">
		<path class="st4" d="M25.7,29.5c1.2,0-0.3-0.7-0.3-0.7s-2.1-0.7-5.4,1.6c-2.4,1.6-8,5.5-8,5.5l-4.4-6.5L5.5,33
			c0,0,5.5,6.8,9.9,6.6c3.1-0.4,6.1-1.4,8.7-3.2L25.7,29.5z"/>
		<path class="st5" d="M24.2,28.5"/>
		<g transform="translate(0 15.24)">
			<g>
				<g>
					<defs>
						<path id="SVGID_4_" d="M60.7,66.2c0,0-0.6-2.8-2.4-3.5S43,57.2,41.8,54.3S39,41.5,37.1,38s0.8-5.3,2-11.1c0,0,1-3.7,0.5-5.4
							c-0.5-1.7-1.2-4.5-5.1-5.6c0,0-1.6-1.3-0.8-1.2s1.8-0.8,1.9-2.5s1.6-6.5-1.1-8.7c-2.2-1.8-8.2-2.5-9,4.3v1.4
							c0,0-0.5,0.3-0.5,1.6c0,0.9,0.1,1.8,0.2,2.7c0,0-2.4,0.4-3.2,3.6c-1,4.7-1,14.9,0.5,18.7s0.4-0.1,0.4-0.1
							c-5.4,1.1-10.6,3-15.4,5.6c0,0-1.6-1.4-4.2,0.4c-2.5,1.9,5,19.4,5.7,23.7l0.1,0.5c0,0-0.1,2.1-4.6,2.3c-0.9,0-1.6,0.7-1.7,1.5
							c0,0.7,0.4,1.3,1,1.5c1.2,0.4,3.5,0.2,6.5,0c2-0.2,4.8-0.2,5.3-0.6c1-0.9,1.2-2.3,0.6-3.5c-0.4-0.7-1.2-1.4-1.2-2.6
							s-1.3-12.8-2.8-15.6c0,0,0.2-0.9,3.5-0.4s8.5-0.8,10-1.3c3-1.1,2.2-0.9,2.2-0.9s2,10.2,5.5,11.8l0,0l-0.8,1.6
							c0,0-0.7,1.9,6.8,3.9c5.2,1.6,10.3,3.6,15.2,6c0.6,0.3,1-0.1,1.1,0.1c1.2,1.5,1,3.1,2.3,3.5s4.4,0.7,5.1-0.4
							C63.8,71.7,66.2,70,60.7,66.2z"/>
					</defs>
					<clipPath id="SVGID_5_">
						<use xlink:href="#SVGID_4_"  style="overflow:visible;"/>
					</clipPath>
					<g class="st6">
						
							<linearGradient id="SVGID_6_" gradientUnits="userSpaceOnUse" x1="4.2057" y1="-0.7196" x2="3.3175" y2="-0.2037" gradientTransform="matrix(98.204 0 0 98.436 -330.9781 84.5411)">
							<stop  offset="0" style="stop-color:#46A4DC"/>
							<stop  offset="0.159" style="stop-color:#46A5DB;stop-opacity:0.984"/>
							<stop  offset="0.297" style="stop-color:#4CA8DD;stop-opacity:0.937"/>
							<stop  offset="0.427" style="stop-color:#54AEDE;stop-opacity:0.855"/>
							<stop  offset="0.551" style="stop-color:#60B8E5;stop-opacity:0.741"/>
							<stop  offset="0.673" style="stop-color:#6FC2E9;stop-opacity:0.592"/>
							<stop  offset="0.791" style="stop-color:#83CFEE;stop-opacity:0.412"/>
							<stop  offset="0.905" style="stop-color:#9BDBF2;stop-opacity:0.2"/>
							<stop  offset="1" style="stop-color:#B4E3F3;stop-opacity:0"/>
						</linearGradient>
						<ellipse class="st7" cx="37.9" cy="39.4" rx="53" ry="53.1"/>
						<path class="st5" d="M34.1,31.6c0,5,1.2,10,3.7,14.4c-10.3,0-18.6-10.8-18.6-24c0-3.6,0.6-7.2,1.9-10.6
							c0.9-0.1,1.8-0.1,2.8-0.1c5.4,0,10.8,1,15.8,3.1C36,19.4,34,25.4,34.1,31.6z"/>
						
							<linearGradient id="SVGID_7_" gradientUnits="userSpaceOnUse" x1="2.7573" y1="-0.3836" x2="3.8365" y2="-0.3836" gradientTransform="matrix(29.8486 0 0 37.3577 -54.6502 57.8695)">
							<stop  offset="0" style="stop-color:#46A4DC"/>
							<stop  offset="0.159" style="stop-color:#46A5DB;stop-opacity:0.984"/>
							<stop  offset="0.297" style="stop-color:#4CA8DD;stop-opacity:0.937"/>
							<stop  offset="0.427" style="stop-color:#54AEDE;stop-opacity:0.855"/>
							<stop  offset="0.551" style="stop-color:#60B8E5;stop-opacity:0.741"/>
							<stop  offset="0.673" style="stop-color:#6FC2E9;stop-opacity:0.592"/>
							<stop  offset="0.791" style="stop-color:#83CFEE;stop-opacity:0.412"/>
							<stop  offset="0.905" style="stop-color:#9BDBF2;stop-opacity:0.2"/>
							<stop  offset="1" style="stop-color:#B4E3F3;stop-opacity:0"/>
						</linearGradient>
						<path class="st8" d="M59.9,59.5c-1.6,1.2-3.4,2.2-5.3,2.8c-9.7,3.1-22.2,2-26.1-13.4C25.8,38.2,30.3,27.3,40,24.2
							c2.3-0.7,4.8-1,7.2-0.7c-6.2,4.8-9,13.5-6.3,21.9C43.5,53.3,52.6,58.7,59.9,59.5z"/>
						
							<linearGradient id="SVGID_8_" gradientUnits="userSpaceOnUse" x1="3.7963" y1="-0.6378" x2="2.9901" y2="0.2482" gradientTransform="matrix(36.287 0 0 19.2119 -106.7981 44.2261)">
							<stop  offset="0" style="stop-color:#4389C8"/>
							<stop  offset="0.161" style="stop-color:#438AC9;stop-opacity:0.984"/>
							<stop  offset="0.3" style="stop-color:#4A8FCC;stop-opacity:0.933"/>
							<stop  offset="0.431" style="stop-color:#5699D2;stop-opacity:0.851"/>
							<stop  offset="0.557" style="stop-color:#67A4D9;stop-opacity:0.733"/>
							<stop  offset="0.68" style="stop-color:#7FB4E1;stop-opacity:0.584"/>
							<stop  offset="0.799" style="stop-color:#9AC8EC;stop-opacity:0.396"/>
							<stop  offset="0.915" style="stop-color:#BDDEF5;stop-opacity:0.184"/>
							<stop  offset="1" style="stop-color:#DAF1FD;stop-opacity:0"/>
						</linearGradient>
						<path class="st9" d="M34.6,38.3c0,5.9-8.8,10.7-19.7,10.7c-9.9,0-18-3.9-19.5-9c2.7,0.9,5.5,1.3,8.4,1.3c9.5,0,11-5.9,14.9-13
							C24.7,27.6,34.6,32.8,34.6,38.3z"/>
						
							<linearGradient id="SVGID_9_" gradientUnits="userSpaceOnUse" x1="2.9678" y1="0.2485" x2="2.481" y2="-1.107" gradientTransform="matrix(17.339 0 0 37.6487 -41.1691 72.547)">
							<stop  offset="0" style="stop-color:#46A4DC"/>
							<stop  offset="0.159" style="stop-color:#46A5DB;stop-opacity:0.984"/>
							<stop  offset="0.297" style="stop-color:#4CA8DD;stop-opacity:0.937"/>
							<stop  offset="0.427" style="stop-color:#54AEDE;stop-opacity:0.855"/>
							<stop  offset="0.551" style="stop-color:#60B8E5;stop-opacity:0.741"/>
							<stop  offset="0.673" style="stop-color:#6FC2E9;stop-opacity:0.592"/>
							<stop  offset="0.791" style="stop-color:#83CFEE;stop-opacity:0.412"/>
							<stop  offset="0.905" style="stop-color:#9BDBF2;stop-opacity:0.2"/>
							<stop  offset="1" style="stop-color:#B4E3F3;stop-opacity:0"/>
						</linearGradient>
						<path class="st10" d="M14.2,60.1c0,8.9-3.7,16.4-8.9,19.5c1.1-3.7-2.7-6.5-2.7-10.9c0-12-0.3-23.7-7.1-28.3
							c1.5-0.8,3.1-0.8,4.7-1.2C7.3,37.2,14.2,48.5,14.2,60.1z"/>
						
							<linearGradient id="SVGID_10_" gradientUnits="userSpaceOnUse" x1="2.9793" y1="0.2684" x2="2.4915" y2="-1.0968" gradientTransform="matrix(17.339 0 0 37.444 -38.6501 81.3084)">
							<stop  offset="0" style="stop-color:#46A4DC"/>
							<stop  offset="0.159" style="stop-color:#46A5DB;stop-opacity:0.984"/>
							<stop  offset="0.297" style="stop-color:#4CA8DD;stop-opacity:0.937"/>
							<stop  offset="0.427" style="stop-color:#54AEDE;stop-opacity:0.855"/>
							<stop  offset="0.551" style="stop-color:#60B8E5;stop-opacity:0.741"/>
							<stop  offset="0.673" style="stop-color:#6FC2E9;stop-opacity:0.592"/>
							<stop  offset="0.791" style="stop-color:#83CFEE;stop-opacity:0.412"/>
							<stop  offset="0.905" style="stop-color:#9BDBF2;stop-opacity:0.2"/>
							<stop  offset="1" style="stop-color:#B4E3F3;stop-opacity:0"/>
						</linearGradient>
						<path class="st11" d="M16.9,69.5c0,8.9-3.7,16.4-8.9,19.5c1.1-3.7-2.7-6.5-2.7-10.9c0-12-0.3-23.7-7.1-28.3
							c1.5-0.8,3.1-1.2,4.7-1.2C10.6,48.6,16.9,57.9,16.9,69.5z"/>
						
							<linearGradient id="SVGID_11_" gradientUnits="userSpaceOnUse" x1="3.1582" y1="-1.1318" x2="3.5834" y2="0.3781" gradientTransform="matrix(38.0126 0 0 18.9841 -78.612 67.0648)">
							<stop  offset="0" style="stop-color:#46A4DC"/>
							<stop  offset="0.159" style="stop-color:#46A5DB;stop-opacity:0.984"/>
							<stop  offset="0.297" style="stop-color:#4CA8DD;stop-opacity:0.937"/>
							<stop  offset="0.427" style="stop-color:#54AEDE;stop-opacity:0.855"/>
							<stop  offset="0.551" style="stop-color:#60B8E5;stop-opacity:0.741"/>
							<stop  offset="0.673" style="stop-color:#6FC2E9;stop-opacity:0.592"/>
							<stop  offset="0.791" style="stop-color:#83CFEE;stop-opacity:0.412"/>
							<stop  offset="0.905" style="stop-color:#9BDBF2;stop-opacity:0.2"/>
							<stop  offset="1" style="stop-color:#B4E3F3;stop-opacity:0"/>
						</linearGradient>
						<path class="st12" d="M64.9,69.2C53.1,68,41.6,62.4,42.1,56.7c0.2-1.4,0.8-2.6,1.9-3.6c-6.6,1.1-11.3,4-11.7,7.8
							c-0.6,5.7,10.9,11.2,22.8,12.5c9.1,0.9,14.7-1,18.2-4.5C70.6,69.5,67.7,69.6,64.9,69.2z"/>
					</g>
				</g>
			</g>
		</g>
		<path class="st4" d="M22.6,11.6C16.2,20.4,5.8,33.7,5.8,33.7l-1.8-1c0,0,2.4-4.9,6-11.7c4.8-9.1,10.8-19.8,12.6-19.9
			c0.4,0,0.8,0,1.2,0.1C26.3,1.7,28.1,4,22.6,11.6z"/>
		<path class="st13" d="M35,25.7c0,0.3,0,0.6-0.1,0.8c-0.5,3.3-2.7,5.8-5,5.5s-3.8-3.3-3.3-6.6c0.1-0.4,0.1-0.8,0.3-1.2
			c1.6,0.6,3.3,1.1,5,1.3C32.9,25.7,34,25.7,35,25.7z"/>
		<path class="st4" d="M6.9,34.5c0,0-3-1-3.6-2.4c-0.7-1.4,0-1.3,0.9-4.2c0.2-0.9,1-1.5,2-1.4c0.1,0,0.2,0.1,0.4,0.1
			c0.3,0.1,2.5,3.9,2.2,4.7C8.1,32.4,7.5,33.5,6.9,34.5z"/>
		<path class="st13" d="M11.4,28.8L9,31.6c-0.7,0.4-2.8-1.7-3.3-4c-0.1-0.5,1.1-2.2,1.2-2.9c0.3-0.8,0.9-1.5,1.5-2.1
			c0.5-0.4,0.9-0.6,1.2-0.4c1,0.9,1.8,2,2.3,3.3C11.8,26.7,11.6,27.8,11.4,28.8z"/>
		
			<linearGradient id="SVGID_12_" gradientUnits="userSpaceOnUse" x1="1.143" y1="2.181036e-02" x2="2.2222" y2="2.181036e-02" gradientTransform="matrix(9.1199 0 0 3.593 16.0525 25.4476)">
			<stop  offset="0" style="stop-color:#61CDF6"/>
			<stop  offset="0.249" style="stop-color:#61CCF1"/>
			<stop  offset="0.463" style="stop-color:#5ECBEC"/>
			<stop  offset="0.665" style="stop-color:#5FC9E1"/>
			<stop  offset="0.858" style="stop-color:#62C9D7"/>
			<stop  offset="1" style="stop-color:#67C9CD"/>
		</linearGradient>
		<path class="st14" d="M26.5,23.6c0,0,0.5,2.5,1.8,3s7.4,1.4,7.8,0.4c0.3-0.5,0.3-1.2,0-1.7C32.8,25.4,29.5,24.8,26.5,23.6z"/>
		
			<linearGradient id="SVGID_13_" gradientUnits="userSpaceOnUse" x1="1.7134" y1="-0.4537" x2="2.7928" y2="-0.4537" gradientTransform="matrix(12.785 0 0 18.3949 -11.9259 19.3956)">
			<stop  offset="0" style="stop-color:#46A4DC"/>
			<stop  offset="0.159" style="stop-color:#46A5DB;stop-opacity:0.984"/>
			<stop  offset="0.297" style="stop-color:#4CA8DD;stop-opacity:0.937"/>
			<stop  offset="0.427" style="stop-color:#54AEDE;stop-opacity:0.855"/>
			<stop  offset="0.551" style="stop-color:#60B8E5;stop-opacity:0.741"/>
			<stop  offset="0.673" style="stop-color:#6FC2E9;stop-opacity:0.592"/>
			<stop  offset="0.791" style="stop-color:#83CFEE;stop-opacity:0.412"/>
			<stop  offset="0.905" style="stop-color:#9BDBF2;stop-opacity:0.2"/>
			<stop  offset="1" style="stop-color:#B4E3F3;stop-opacity:0"/>
		</linearGradient>
		<path class="st15" d="M23.8,1.2C22.6,9.6,17.5,17,10,21c4.8-9.1,10.8-19.8,12.6-19.9C23,1.1,23.4,1.1,23.8,1.2z"/>
		<path class="st16" d="M25.4,28.8c0,0,1.1,0.6,1.4-0.1c0,0-0.2,2.3,0.4,2.9c0.8,0.4,1.6,0.8,2.5,1c0.6,0.1,2.4,0.2,2.4,0.2
			s-11,8.6-10.2,16C21.9,48.8,18.9,29.8,25.4,28.8z"/>
		<path class="st13" d="M39.8,38.3c0,0-0.4,2.9-4.5,3.8c-4.6,1-18.5,1.4-20.2,0c-0.5-0.6-1-1.2-1.4-1.9c-2.2-3.4-5.5-9.8-5.5-9.8
			l3.3-1.7l8.3,7.4c0,0,9.5-3.5,14.9-3.6c1.3-0.1,2.7,0.3,3.7,1.1C40.1,35.4,39.8,38.3,39.8,38.3z"/>
		<path class="st4" d="M26.6,27.7c0,0,0.2,2,0.8,2.3s5.4,1.6,6,0.8c0.4-0.4,0.6-0.9,0.7-1.5c0,0-0.6,1.3-1.1,1.4s-4.4-0.3-5.6-1.1
			c-0.4-0.9-0.7-1.8-0.8-2.7L26.6,27.7z"/>
		<path class="st4" d="M26.6,26c0,0,0.2,2,0.8,2.3s5.9,1.6,6.5,0.9c0.4-0.4,0.7-0.9,0.8-1.5c0,0-0.7,1.3-1.2,1.4
			c-0.6,0-4.8-0.3-6.1-1.1c-0.4-0.9-0.7-1.8-0.8-2.7V26z"/>
		<path class="st4" d="M29.2,28.6c0,0-0.5,3.2-0.2,3.8l-0.3-0.1l0.1-3.8L29.2,28.6z"/>
		<path class="st4" d="M31.6,29c0,0-0.9,3.6-1.2,3.7h0.4l1.2-3.5L31.6,29z"/>
		<path class="st17" d="M34.6,32.5c-5.4,0.1-14.9,3.6-14.9,3.6l-8.3-7.4l-0.1,0.1l0.1-0.1c-0.1-1-0.4-1.9-0.8-2.9
			c-0.6-1.2-1.4-2.3-2.2-3.3c-0.6,0.6-1.1,1.3-1.5,2.1c-0.2,0.6-1.3,2.4-1.2,2.9c0.5,2.1,2.4,4.2,3.2,4c1.1,2,3.3,6.1,4.9,8.6
			c2,0.3,4,0.5,6,0.5c8.5,0,15.8-3,18.6-7.1C37.2,32.8,35.9,32.4,34.6,32.5z"/>
		
			<linearGradient id="SVGID_14_" gradientUnits="userSpaceOnUse" x1="2.0326" y1="7.917846e-02" x2="3.1112" y2="7.917846e-02" gradientTransform="matrix(15.576 0 0 7.633 -20.5012 59.5456)">
			<stop  offset="0" style="stop-color:#46A4DC"/>
			<stop  offset="0.24" style="stop-color:#46A4DC;stop-opacity:0.984"/>
			<stop  offset="0.448" style="stop-color:#46A4DC;stop-opacity:0.933"/>
			<stop  offset="0.643" style="stop-color:#48A5DB;stop-opacity:0.851"/>
			<stop  offset="0.83" style="stop-color:#49A6DC;stop-opacity:0.737"/>
			<stop  offset="1" style="stop-color:#4CA8DD;stop-opacity:0.6"/>
		</linearGradient>
		<path class="st18" d="M28,61.7c0,0-6.1,2.6-11.1,2.2c0,0-3.3-0.7-4.8,0.3L11.2,62c1.6,0.6,3.2,0.9,4.9,0.9c5.4,0,9.8-3,10.4-6.8
			l1.2,1.2L28,61.7z"/>
		<path class="st17" d="M33.6,19.7c0,2-1.9,3.7-4.3,3.7c-1.3,0-2.5-0.5-3.4-1.4c0.3-2.5,2.3-4.4,4.9-4.4c0.9,0,1.7,0.2,2.5,0.7
			C33.5,18.7,33.6,19.2,33.6,19.7z"/>
	</g>
	<g transform="translate(0 8.381)">
		
			<linearGradient id="SVGID_15_" gradientUnits="userSpaceOnUse" x1="25.2513" y1="-0.4464" x2="26.3305" y2="-0.4464" gradientTransform="matrix(56.92 0 0 56.7366 -1435.431 57.7404)">
			<stop  offset="0" style="stop-color:#46A4DC"/>
			<stop  offset="0.159" style="stop-color:#46A5DB;stop-opacity:0.984"/>
			<stop  offset="0.297" style="stop-color:#4CA8DD;stop-opacity:0.937"/>
			<stop  offset="0.427" style="stop-color:#54AEDE;stop-opacity:0.855"/>
			<stop  offset="0.551" style="stop-color:#60B8E5;stop-opacity:0.741"/>
			<stop  offset="0.673" style="stop-color:#6FC2E9;stop-opacity:0.592"/>
			<stop  offset="0.791" style="stop-color:#83CFEE;stop-opacity:0.412"/>
			<stop  offset="0.905" style="stop-color:#9BDBF2;stop-opacity:0.2"/>
			<stop  offset="1" style="stop-color:#B4E3F3;stop-opacity:0"/>
		</linearGradient>
		<path class="st19" d="M63.3,58.3c-11.3,7.8-29.4,5.9-43.9-5.4C2.4,39.6-3.2,18.4,6.9,5.4c1-1.3,2.2-2.5,3.5-3.6
			C8.2,4.7,6.6,8,5.5,11.5C2.2,22.4,6,34.7,12,41.1c-2.5-2.8-4.6-9.3-5.2-13.6C6,24,5.9,20.3,6.5,16.7c-0.7,11.5,5.6,24.6,17.4,33.8
			C36.6,60.3,52.1,63,63.3,58.3z"/>
		
			<linearGradient id="SVGID_16_" gradientUnits="userSpaceOnUse" x1="25.3152" y1="-0.4008" x2="26.394" y2="-0.4008" gradientTransform="matrix(65.836 0 0 34.954 -1658.1759 52.8811)">
			<stop  offset="0" style="stop-color:#46A4DC"/>
			<stop  offset="0.159" style="stop-color:#46A5DB;stop-opacity:0.984"/>
			<stop  offset="0.297" style="stop-color:#4CA8DD;stop-opacity:0.937"/>
			<stop  offset="0.427" style="stop-color:#54AEDE;stop-opacity:0.855"/>
			<stop  offset="0.551" style="stop-color:#60B8E5;stop-opacity:0.741"/>
			<stop  offset="0.673" style="stop-color:#6FC2E9;stop-opacity:0.592"/>
			<stop  offset="0.791" style="stop-color:#83CFEE;stop-opacity:0.412"/>
			<stop  offset="0.905" style="stop-color:#9BDBF2;stop-opacity:0.2"/>
			<stop  offset="1" style="stop-color:#B4E3F3;stop-opacity:0"/>
		</linearGradient>
		<path class="st20" d="M79.5,46.6C71.1,57.4,53.2,61,36,54.5C18.9,48.1,7.9,33.7,8.5,20C9.1,33,19.8,46.2,36,52.4
			c12.3,4.7,24.9,4.9,34.2,0.2C73.5,51,76.7,49,79.5,46.6z"/>
	</g>
</g>
</svg>
