<?xml version="1.0" encoding="utf-8"?>
<!-- Generator: Adobe Illustrator 24.2.3, SVG Export Plug-In . SVG Version: 6.00 Build 0)  -->
<svg version="1.1" id="Layer_1" xmlns="http://www.w3.org/2000/svg" xmlns:xlink="http://www.w3.org/1999/xlink" x="0px" y="0px"
	 viewBox="0 0 62 90" style="enable-background:new 0 0 62 90;" xml:space="preserve">
<style type="text/css">
	.st0{fill:url(#SVGID_1_);}
	.st1{fill:url(#SVGID_2_);}
</style>
<g transform="translate(0 0)">
	
		<linearGradient id="SVGID_1_" gradientUnits="userSpaceOnUse" x1="-116.04" y1="-104.2305" x2="-115.0399" y2="-104.2305" gradientTransform="matrix(60.5611 0 0 84.1112 7028.209 8811.7861)">
		<stop  offset="0" style="stop-color:#4789C8"/>
		<stop  offset="0.384" style="stop-color:#428DCB"/>
		<stop  offset="1" style="stop-color:#3854A5"/>
	</linearGradient>
	<path class="st0" d="M61.1,29.1c0.2-0.3,0.2-0.6,0.1-1c-0.3-1-2.5-1-2.5-1l-0.3-0.5c-0.3-0.2-0.2-0.2-1-0.2
		c-0.7-0.1-1.9,0.9-1.9,0.9s-4.7,0.2-6.5-0.6c-1.4-0.6-2.9-1.1-4.3-1.5v-0.5c-0.2-0.8-2.1-3.4-2.2-3.9s-0.2-2.4-0.3-3
		s-1.1-1.5-1.1-1.5s-0.1-0.2,0-0.3s1.6,0.3,2.2,0.3s0.9-1,0.9-1l0.8-0.1c0.2-0.3,0.3-0.5,0.1-0.7c0,0,0-0.1,0-0.2h0.1l0.2-0.1
		c0-0.4,0.1-0.7,0.4-1c0.4,0.1,0.8,0.1,1.1-0.1c0.5-0.5-0.4-2.6-0.4-2.6c0.2,0,0.3-0.1,0.4-0.2c0.3-0.2,0-2,0-2
		c0.2,0.1,0.5,0.1,0.6-0.1c0,0,0-0.1,0.1-0.1C47.9,5.8,46.3,4,43,2.9c-0.8-0.3-1.7-0.3-2.5,0L40.4,3c0,0,0,0-0.1,0
		c-0.2,0.1-0.5,0.2-0.7,0.3l0,0l0,0l0,0c-0.1,0.1-0.2,0.1-0.3,0.2v0.1l0,0l0,0l0,0l0,0c-0.1,0.1-0.2,0.1-0.3,0.2h0.1c0,0,0,0-0.1,0
		l0,0l0,0c-0.2,0.2-0.5,0.4-0.7,0.7c0.1,0,0.1,0,0,0l0,0l0,0h0.1l0,0l0,0l0,0h0.1c0,0,0,0-0.1,0c-0.2,0.2-0.3,0.4-0.5,0.6l0,0l0,0
		c0,0,0,0-0.1,0l0,0l0,0c-0.1,0.1-0.1,0.2-0.2,0.3l0.1,0.1l-0.1,0.1l0,0l-0.1,0.1c0,0,0,0,0,0.1l0,0l0,0C37.1,6,37,6.2,37,6.4
		c0,0,0,0,0.1,0c0,0.1,0,0.1-0.1,0.2l0,0c0.1,0,0.1,0.1,0.1,0.2H37c0,0.1,0,0.1,0,0.2l0,0h0.1v0.1l0,0c0,0,0,0,0,0.1c0,0,0,0-0.1,0
		c0,0,0,0,0,0.1h0.1c0,0,0,0-0.1,0v0.1c0,0,0,0,0.1,0s0.1,0,0,0H37l-0.1,0.2l0,0v0.1l0,0l0,0v0.1v0.1l0,0l0,0l0,0l0,0l0,0
		c0,0,0.1,0,0,0.1c-0.1,0-0.1,0.1-0.1,0.1c0,0.1,0,0.2,0,0.3c0,0,0,0,0,0.1l0,0l0,0c0,0.5,0,1.2,0,1.7s-0.3,0.9-0.7,1l-0.3,0.3l0,0
		v0.1l0,0c-0.2,0.2-0.4,0.5-0.6,0.7l0,0c-0.1,0.1-0.2,0.2-0.3,0.3l0,0l0,0l0,0l0,0l0,0l0,0l0,0l0,0c0,0,0,0,0,0.1l0,0c0,0,0,0,0-0.1
		c-0.1,0.1-0.2,0.2-0.3,0.3l0,0l0.1,0.1v0.1h0.1c0,0.1-0.1,0.1-0.1,0.1l0,0v-0.1c-0.1,0-0.1,0-0.1-0.1l0,0l0,0
		c-0.1,0-0.1,0.1-0.2,0.1l0,0c0,0,0,0-0.1,0l0,0l0,0L34,13.4l0,0l0,0c0.1,0,0.2,0,0.3,0.1c0,0,0.1,0,0.1,0.1c0,0,0,0,0,0.1
		c0,0,0,0,0,0.1s0,0.1-0.1,0.2c-0.1,0.1-0.3,0-0.4-0.1l0,0l0,0c0,0-0.1-0.1-0.1-0.2c-0.3,0.3-0.7,0.5-1.1,0.7l0,0c0,0,0,0.1-0.1,0
		l0,0c-0.1,0-0.2,0.1-0.3,0.1c0,0.1,0,0.1-0.1,0.1l-0.1-0.1c-0.6,0.2-1.2,0.4-2.1,0.7l-0.4,0.6c-0.1,0-0.3,0-0.4,0l0,0
		c-0.2,0-0.6,0-1.1,0c-0.2,0-0.4,0-0.6,0l0,0l0,0c-0.1,0-0.3,0-0.4,0.1c0,0.1,0,0.2,0,0.3C27,16.1,27,16,27,16
		c-0.2,0-0.5,0.1-0.7,0.2l0,0l0,0c0,0,0.1,0,0.1,0.1s-0.1,0-0.2,0.1v-0.1c-1.8,0.4-3.9,1.1-3.9,1.1v0.4c0,0-0.2,0.1-0.6,0.2
		c0,0.1,0,0.1-0.1,0.2c-0.1,0-0.1,0-0.2-0.1l0,0c0,0.1,0,0.2,0.1,0.3c0,0.1-0.2,0.1-0.3,0.1l0,0c0,0.1-0.1,0.1-0.1,0.1v-0.1h0.1
		c0-0.1,0-0.2,0-0.3L21,17.8c0.1,0,0.1,0,0.2,0.1c0,0.1-0.1,0-0.1,0.1C21,18,21,17.9,21,17.8l0,0c-0.7,0.2-1.4,0.5-2,0.9
		c-1.2,1.6-2.2,3.2-3.1,5l0,0l0,0l0,0c0,0.1,0,0.1,0,0.2H16c0,0,0,0,0,0.1l0,0l0,0c0,0,0.1,0,0,0.1l0,0l0,0
		c-0.1,0.1-0.1,0.1-0.2,0.1l0,0l0,0l-0.1-0.1l-0.1,0.1l0,0l0,0l0,0l0,0l0,0l0,0l0,0l0,0l0,0l0,0l0,0l0,0c0,0,0,0.1-0.1,0.1l-0.1,0.1
		c0.1,0,0.1,0,0.2,0c0,0,0,0,0,0.1h0.1c-0.1,0.1-0.1,0.1-0.2,0c-0.1,0.1-0.1,0.1-0.2,0l0,0l0,0l0,0.5c0,0,0.1,0,0.1,0.1l0,0
		c0,0,0,0,0.1,0v0.1l0,0c0,0.1-0.1,0.1-0.1,0.2c0,0-0.1,0-0.1-0.1c-0.2,0.3-0.3,0.6-0.5,0.9l0,0c0.1,0.1,0,0.2,0.1,0.3
		c0,0-0.1-0.1-0.1,0s0,0.1,0,0.1c-0.1,0,0-0.1-0.1-0.1c0,0,0,0-0.1,0l0,0v0.1l0,0h-0.1l-0.1,0.1l0,0L14.2,27c0,0.1,0,0.2,0,0.4h0.1
		l0,0l0,0v0.1c-0.1,0.1-0.1,0.1-0.2,0.1l0,0l0,0c-0.1,0-0.1-0.1-0.1-0.1l0,0l0,0c0,0,0,0-0.1,0l-0.1,0.1c0,0,0,0,0.1,0l0,0l0,0l0,0
		l0,0l0,0h-0.1l0,0c0,0,0,0.1-0.1,0.1l0,0L13.6,28l0,0v-0.1c0.1,0,0.1-0.1,0.2,0c0,0,0,0,0,0.1h0.1c-0.1,0.1-0.1,0.1-0.2,0
		c-0.1,0.1-0.1,0.1-0.2,0l0,0c0,0,0,0-0.1,0l-0.1,0.3v0.1l0,0c-0.3,0.6-0.5,1-0.5,1s-1.4,1.3-2,1.8s-1.3,3-1.5,3.9
		c0,0-0.1,1,0.3,0.8c0.2-0.1,0.1-0.7,0.7-1.3l0,0c-0.1-0.1-0.1-0.1-0.2-0.2c0,0,0,0,0-0.1l0,0c-0.1,0-0.1-0.1-0.1-0.2
		c0.1,0,0.1-0.1,0.1-0.1l0,0h0.1c0,0,0,0,0.1-0.1c0.1,0,0.3,0.1,0.3,0.2c0,0,0.1,0,0.1,0.1c0,0,0,0,0,0.1c0,0,0,0,0,0.1
		s0,0.2-0.1,0.2c0,0,0,0.1-0.1,0.1l0,0l0,0c0.1,0.1,0,0,0,1.8c0,0,0,0,0.1,0v0.1h-0.1l0,0c0,0.1,0,0.1,0,0.2c0,0.1,0.2,0.2,0.3,0.2
		s0.1-0.1,0.2-0.2c0.1-0.2,0.1-0.7,0.2-1.1c0.1-0.3,0.1-0.6,0.1-0.7l0,0c0,0,0,0,0-0.1c0,0,0,0,0.1,0c0,0,0,0,0,0.1l0.1,0.1
		c-0.1,0.2-0.1,0.3-0.1,0.5l0,0l0,0c0,0.1,0,0.2-0.1,0.3c0,0,0,0,0.1,0.1c-0.1,0-0.1,0.1-0.1,0.1l0,0l0,0c0,0.3-0.1,0.5-0.1,0.8
		c0.1,0,0.2,0,0.1,0.1h-0.1c0,0,0,0,0,0.1c0,0,0.1,0,0.1,0.1s-0.1,0.1-0.1,0.2c0,0.2,0,0.3,0,0.4c0,0.4,0.5,0.6,0.7,0.2
		c0.1-0.3,0.1-0.7,0.1-1l0,0c0,0,0,0,0-0.1l0,0c0-0.1,0-0.1,0-0.2c0.1-0.3,0.2-0.6,0.3-0.9v-0.1l0,0c0-0.1,0.1-0.1,0.1-0.2h0.1
		c0.3,2.1-0.5,3.8,0.5,3.4c0.4-0.2,0.1-1.9,0.9-4c0.1-0.2,0.5-0.3,0.5-0.1c0.2,0.7,0.6,1.3,1.2,1.7c0.4,0.1,0.3-1.1-0.1-1.7
		C15.2,34,15,33.2,15,32.3h-0.1c-0.2,0-0.2-0.2-0.1-0.3c0,0,0,0,0-0.1c0,0,0,0,0.1,0l0.1-0.1c0-0.3-0.1-0.5-0.1-0.5
		c0.1-0.2,0.2-0.4,0.4-0.6c-0.1-0.1,0-0.2,0.1-0.2l0,0c0.1-0.1,0.1-0.2,0.2-0.3v-0.1l0,0c0.6-0.8,1.2-1.7,1.8-2.5l0,0c0,0,0,0,0-0.1
		l0,0l0,0c2.2-2.7,4.5-5.2,5-5.8c0.6-0.8,0.8-0.4,0.8-0.4v0.5c0.8,0.4,1.8,0.3,2.6-0.1l0.1,0.7c-1.3,4.6,0.1,7.4,0.7,8.2l0,0l0,0
		c0,0,0,0,0-0.1h0.1c0,0.1-0.1,0.1-0.1,0l0,0l0,0l0,0l0,0l0,0c0.1,0.1,0.1,0.1,0.1,0.1s0,0.3,0,0.7c0.1,0,0.1,0.1,0.1,0.2l0,0l0,0
		v0.1v-0.1c0,0,0,0,0,0.1c0,0,0,0-0.1,0l0,0v-0.1c0,0,0,0-0.1,0c0,0.1,0,0.2,0,0.3v0.1l0,0c0,0.1,0,0.2,0,0.3c0,0,0,0,0,0.1
		s0,0.1,0,0.1l0,0v0.1l0,0c0,0.1,0,0.1,0,0.2l0,0h0.1v0.1l0,0c0,0,0,0,0,0.1h-0.1c0,0.1-0.1,0.3-0.1,0.5l0,0l0,0v0.2v0.1l0,0l0,0
		l0,0l0,0l0,0c0,0,0,0,0,0.1c-0.1,0-0.1,0.1-0.1,0.1v0.2l0,0l0,0c0,0.2-0.1,0.4-0.1,0.6c0-0.1,0.1,0,0.1,0h-0.1
		c0,0.1-0.1,0.2-0.1,0.3c0.1,0,0.2,0,0.3,0.1l0,0c0,0,0,0,0.1,0c0,0,0,0.1,0,0c0.4,0.8,0.4,0.9,0.4,1l0,0l0,0c0.1,0,0,0,0,0l0,0
		c0,0,0,0.1-0.1,0.1l0.1,0.1c-0.1,0.1-0.2,0-0.2-0.1c-0.1,0-0.2-0.1-0.3-0.1l0,0l0,0c0,0,0,0-0.1,0.1c0,0.1,0,0.1-0.1,0.2l0,0l0,0
		l0,0v0.1c0,0,0,0-0.1,0C26,37,25.5,38,24.6,40.1c-0.3,0.6-0.5,1.2-0.6,1.8c0.1,0,0,0.1,0,0.1c0,0.1,0,0.2-0.1,0.3l0,0
		c0.1,0,0.1,0,0,0h-0.1c0,0.1,0,0.2,0,0.3l0,0l0,0c0,0,0,0.1,0,0l0,0l0,0c0,0.1,0,0.2,0,0.3l0,0l0,0c0,0.1,0,0.2,0,0.2l0,0l0,0
		c0,0.1,0,0.2,0,0.3c0,0,0,0,0.1,0c0,0,0,0.1-0.1,0.1c0,0.4,0.1,0.8,0.2,1.2c0.1,0,0.1,0,0.2,0c0,0,0,0,0,0.1h0.1
		c-0.1,0.1-0.1,0.1-0.2,0l0,0v0.1c-0.1,0.4-0.2,0.8-0.1,1.2c0,0,0,0,0,0.1l0,0c0,0.1,0,0.1,0,0.1l-0.1,0.1c0,0,0.1,0,0.1,0.1
		c0,0,0,0.1-0.1,0.1v0.1h-0.1c0,0.2-0.1,0.4-0.1,0.6c0,0,0.1,0,0.1,0.1c0,0,0,0-0.1,0c0,0.2,0,0.4,0,0.4l-0.4,0.8c0,0,0.1,0,0,0.1
		h-0.1L23,49c0.1,0,0.1,0.1,0,0.1h-0.1l-0.1,0.1c0,0,0,0,0,0.1l0,0l0,0l0,0h0.1c0,0.1-0.1,0.1-0.1,0.1l0.2,0.3l0,0c0,0,0,0,0-0.1
		h0.1c0,0.1-0.1,0.1-0.1,0l0,0l0,0c0,0.1-0.1,0-0.1,0l0,0l0,0l0,0l0,0l-0.3,0.6l0,0c0,0,0,0,0,0.1l0,0l-0.1,0.1c0,0,0,0,0,0.1l0,0
		c0,0,0,0-0.1,0l-0.1,0.2c0,0,0,0,0,0.1c0,0,0.1,0,0.1,0.1h-0.1c0,0.2,0,0.5,0,0.9l0.1-0.1c0.2,0,0.1,0.2-0.1,0.2l0,0
		c0,0.2,0,0.4,0,0.5l0,0c0.1,0,0.1,0,0,0h-0.1c0,0.4-0.1,0.8-0.1,1.2c-0.2,0.5,0,1.1,0.4,1.5c-0.1,1-0.3,2.1-0.5,3.1
		c-0.9,1-2,1.7-3.4,2c-1.2,0.1-2.5,0.4-3.6,1c0,0,0.1,0,0,0.1l0,0h-0.1c0,0,0,0,0-0.1c-0.1,0-0.2,0.1-0.3,0.1c0.1,0,0.1,0.1,0,0.1
		c0,0-0.1,0-0.1-0.1l0,0c-0.1,0-0.2,0.1-0.2,0.1l0,0l0,0c-0.2,0.1-0.4,0.3-0.6,0.4v0.1c0,0-0.1,0-0.1-0.1c-0.3,0.2-0.5,0.4-0.8,0.6
		c0,0-0.9,0.6-2.1,1.4c0,0,0.1,0,0.1,0.1S10.7,64,10.7,64l-0.1-0.1C10.1,64.2,9.5,64.6,9,65c0,0,0,0,0,0.1l0,0
		c-1.2,0.8-2.4,1.5-2.7,1.7c-0.3-0.3-0.7-0.6-1.1-0.6l0,0c0,0.1-0.1,0-0.1,0.1c0.1,0.1,0,0.2-0.1,0.3c-0.1,0-0.2-0.1-0.2-0.2
		s0.1-0.2,0.2-0.2l0,0l0,0c-1,0-2.1,0.3-3,0.8c-0.2,0.1-0.3,0.2-0.4,0.4l-0.5,0.1c-0.2,0.1-0.3,0.2-0.3,0.4v0.2
		c0,0.2,0.1,0.3,0.3,0.4h0.1c0,0.2,0,0.3,0,0.5H1.1c-0.2,0.1-0.3,0.2-0.3,0.4v0.2c0,0.2,0.1,0.3,0.3,0.4h0.1c0.1,1.2,0.1,2.5,0,3.7
		c0,0.3-0.1,0.7-0.1,1.1L0.9,75c-0.1,0-0.2,0.2-0.2,0.3v0.1c0,0.1,0.1,0.2,0.2,0.2l0.3,0.1c0,0.1,0,0.2,0,0.2L1,76
		c-0.1,0-0.2,0.2-0.2,0.3v0.1c0,0.1,0.1,0.2,0.2,0.2l0.3,0.1c0.1,0.4,0.2,0.8,0.3,1.2l-0.2,0.2c-0.1,0.1-0.1,0.2-0.1,0.3v0.1
		c0,0.1,0.1,0.2,0.3,0.1h0.2C2,78.7,2,78.8,2,78.8L1.9,79c-0.1,0.1-0.1,0.2-0.1,0.3v0.1c0,0.1,0.1,0.2,0.3,0.1h0.3
		c0.4,0.6,0.8,1.1,1.1,1.2c0.6,0.1,1-1.2,1.2-2.4c0.1-0.7,0.3-1.4,0.6-2l0,0c-0.1-0.1-0.1-0.3,0-0.4c0.1,0,0.1-0.1,0.2-0.1h0.1
		c0.1-0.2,0.2-0.5,0.4-0.7c0.7-1.2,1.6-3.6,2.1-4c0.8-0.8,5.7-2.2,8.5-3.1s2.8-1.5,2.8-1.5c4-0.4,5.1-1.3,7.8-3.3
		c2.8-2.1,4-6.5,4-6.5c0.4-0.8,1-1.5,1.6-2.2c1,0,2-1.4,2-1.4c0.4,0.5,0.8,1,1.2,1.5h0.9c1.8,1.2,3.3,2.7,4.5,4.5
		c-3.1,2.6-3.8,9.3-3.9,10.7c-0.3,1.7-0.8,3.4-1.4,5c-0.2,0-0.4,0.1-0.5,0.3l-0.5,1.2c-0.9,0-1.4,0.9-1.7,1.7
		c-0.2,0.6-0.1,1.2,0.1,1.8l-0.2,0.4c-0.1,0.2-0.1,0.3,0.1,0.5l0.1,0.1c0.1,0.1,0.3,0.2,0.5,0.1l0.3-0.2l0.3,0.2l-0.2,0.4
		c-0.1,0.2-0.1,0.3,0.1,0.5l0.1,0.1c0.1,0.1,0.3,0.2,0.5,0.1l0.1-0.1l0,0l0,0l0.2-0.1c0,0-0.1,0-0.1-0.1h0.1v0.1l0.2-0.1
		c0.3,0.3,0.7,0.6,1,0.8l0,0c0,0.1,0.1,0.1,0.1,0.2l0.3,0.2c0-0.1,0-0.1,0-0.2c0.3-0.1,0.5,0.2,0.3,0.5l0.3,0.2c0.1,0,0.2-0.1,0.2,0
		c0.1,0,0.2,0.1,0.2,0.3v0.1c0.1,0.1,0.3,0.3,0.4,0.4l-0.1,0.3c0,0.1,0,0.2,0.1,0.3l0.1,0.1c0.1,0.1,0.2,0.1,0.3,0l0.2-0.1l0.1,0.1
		l0.1,0.1h-0.1c0,0.1,0,0.2,0.1,0.3l0.1,0.1c0.1,0.1,0.2,0.1,0.3,0l0.2-0.1c0.4,0.2,0.7,0.4,1.1,0.5v0.3c0,0.1,0,0.2,0.1,0.3
		l0.1,0.1c0.1,0,0.2,0,0.3-0.1l0.2-0.3l0.1,0.1v0.4c0,0.1,0,0.2,0.1,0.3l0.1,0.1c0.1,0,0.2,0,0.3-0.1l0.3-0.3l-0.2-0.1
		c0.2,0.1,0.3,0.1,0.5,0.1c0.4,0.1,0.9,0,1.2-0.4c0.4-0.5-0.6-1.9-1.2-2.5c0,0-0.1,0-0.1-0.1l0,0l-0.1-0.1c-0.1,0-0.1-0.1-0.2-0.1
		l0,0l0,0l0,0c0,0,0,0-0.1,0c0,0,0,0,0-0.1l0,0l0,0v-0.1c-0.4-0.7-0.8-1.4-1-2.2c-0.1,0-0.1,0-0.2-0.1c0-0.1,0-0.1,0.1-0.1l0,0
		c-0.1-0.2-0.1-0.4-0.1-0.6c0-0.1,0-0.1,0-0.2l0,0c-0.2,0-0.2-0.2-0.1-0.4l0.1-0.1c0-0.2,0-0.3,0-0.5C41,79,41,78.9,41,78.8
		c0,0,0-0.1,0.1-0.1v-0.1l0,0l0,0c0-0.5-0.1-0.9-0.3-1.4h-0.1c-0.1,0-0.1,0-0.2,0c-0.1,0-0.2,0.1-0.3,0.1c0,0,0,0,0-0.1
		c-0.1,0.1-0.2,0.1-0.3,0l0,0c0,0.1-0.1,0.1-0.1,0.1v-0.1h0.1c0.1-0.2-0.1-0.3,0-0.5c0.1,0,0.2,0,0.2,0.1c0-0.1,0.1-0.1,0.1-0.2
		s0-0.3,0-0.5c0.1-0.9,1.7-3.4,2.2-4.7s2.5-5.6,2.5-5.6l1.2-2.8l-0.3-0.3c0.5-1,1-1.9,1.6-2.8c0.5-0.9,0.7-1.9,0.7-2.8
		c0.4-3.2-8.7-15.4-9.1-16.4c-0.1-0.3,0.1-0.7,0.4-0.8l0,0l-0.2-1c0.3-0.5,0.3-1.1,0-1.6c0-0.5-0.1-1-0.2-1.5v-1.1
		c1-0.5,1-2.7,1-2.7c0.3-0.2,1-0.5,0.3-1.7c0.6-0.6,0.5-2.1,0.5-2.1c1.3,2.9,14.6,1.6,14.6,1.6c1,0.8,2.2,1.1,3.4,1
		c0.3,0.3,0.7,0.4,1.1,0.3c0,0.2-0.2,0.7,0.2,0.7c0.2-0.1,0.4-0.2,0.5-0.3c0.2-0.4,0.3-0.9,0.3-1.4C61.2,29.9,61.3,29.4,61.1,29.1z"
		/>
	
		<linearGradient id="SVGID_2_" gradientUnits="userSpaceOnUse" x1="-111.0199" y1="-98.9761" x2="-109.7199" y2="-98.9761" gradientTransform="matrix(16.3808 0 0 16.372 1859.1667 1699.5088)">
		<stop  offset="0" style="stop-color:#7FCBF1"/>
		<stop  offset="1" style="stop-color:#3576BC"/>
	</linearGradient>
	<path class="st1" d="M53.1,70.9c-1.2,0-2.5,0.3-3.6,0.8c0.1,0.1,0,0.3-0.1,0.2c-0.1,0,0-0.1,0-0.2c-0.3,0.2-0.6,0.3-0.9,0.5h0.1
		c0,0,0,0,0,0.1c0,0,0,0,0.1,0c0,0.1,0,0.2-0.1,0.2c0,0,0-0.1-0.1,0c0-0.1,0-0.1,0-0.2h-0.1c0,0,0,0,0-0.1c-0.6,0.4-1.1,0.9-1.6,1.4
		c0,0,0,0.1-0.1,0.1l0,0c-0.2,0.2-0.4,0.5-0.6,0.8l0,0v-0.1c0,0,0.1,0,0.2,0.1c0,0.1,0,0.1-0.1,0.1c0,0-0.1,0-0.1-0.1v0.1l0,0l0,0
		l0,0c-0.8,1.3-1.3,2.8-1.3,4.4v0.1c0,0,0.1-0.1,0.2-0.1c0,0.1,0,0.2,0,0.2h0.1c0,0.1,0,0.2-0.2,0.2c0-0.1,0-0.1,0-0.2h-0.1
		c0,1.2,0.3,2.4,0.9,3.5h0.1c0,0,0,0,0,0.1c0.1,0.2,0.3,0.5,0.4,0.7l0,0c0.2,0,0.2,0,0,0h-0.1l0.1,0.1h0.1v0.1c0,0,0,0-0.1,0.1
		c0.2,0.2,0.3,0.4,0.5,0.6l0,0c0.1,0,0.1,0.1,0.1,0.2l0.1,0.1l0.1-0.1c0.1,0,0.2,0.1,0.2,0.2v0.1c0,0,0,0-0.1,0
		c3.2,3.2,8.4,3.1,11.6-0.1c3.2-3.2,3.1-8.4-0.1-11.6C57.3,71.7,55.3,70.8,53.1,70.9z"/>
</g>
</svg>
