<svg xmlns="http://www.w3.org/2000/svg" width="43.536" height="43.536" viewBox="0 0 43.536 43.536"><defs><style>.a{fill:#fff;stroke:#e2e2e2;}.b{fill:#59c36a;}.c{fill:#00a66c;}.d{fill:#ffda2d;}.e{fill:#4086f4;}.f{fill:#4175df;}.g{fill:#ff641a;}.h{fill:#f03800;}.i{stroke:none;}.j{fill:none;}</style></defs><g class="a"><circle class="i" cx="21.768" cy="21.768" r="21.768"/><circle class="j" cx="21.768" cy="21.768" r="21.268"/></g><g transform="translate(10.192 10.192)"><g transform="translate(0 0)"><path class="b" d="M53.085,302.047A10.991,10.991,0,0,1,36.4,299.22l.722-3.327,3.2-.594a5.9,5.9,0,0,0,5.614,4.155,5.777,5.777,0,0,0,3.439-1.12l3.074.469Z" transform="translate(-34.82 -282.479)"/><path class="c" d="M263.151,368.912l-.638-3.243-3.074-.469A5.777,5.777,0,0,1,256,366.32v5.253A11.1,11.1,0,0,0,263.151,368.912Z" transform="translate(-244.886 -349.345)"/><g transform="translate(0 5.488)"><path class="d" d="M5.253,132.027a6.07,6.07,0,0,0,.247,1.706l-3.92,3.92a10.807,10.807,0,0,1,0-11.253l3.146.542L5.5,130.32A6.069,6.069,0,0,0,5.253,132.027Z" transform="translate(0 -126.4)"/></g><path class="e" d="M252.766,198.6a11.1,11.1,0,0,1-3.964,8.453l-3.712-3.712a5.764,5.764,0,0,0,1.81-2.136h-5.249a.645.645,0,0,1-.651-.651v-3.907a.645.645,0,0,1,.651-.651h10.281a.644.644,0,0,1,.638.534A11.044,11.044,0,0,1,252.766,198.6Z" transform="translate(-230.537 -187.49)"/><path class="f" d="M261.249,201.21a5.764,5.764,0,0,1-1.81,2.136l3.712,3.712a11.008,11.008,0,0,0,3.768-10.524.644.644,0,0,0-.638-.534H256v5.21Z" transform="translate(-244.885 -187.49)"/><path class="g" d="M53.267,3.1a.657.657,0,0,1-.182.482L50.3,6.36a.638.638,0,0,1-.847.065,5.826,5.826,0,0,0-3.517-1.172A5.9,5.9,0,0,0,40.32,9.408L36.4,5.488A10.984,10.984,0,0,1,53.033,2.622a.685.685,0,0,1,.234.482Z" transform="translate(-34.82 0)"/><path class="h" d="M259.517,6.426a.638.638,0,0,0,.847-.065l2.787-2.774a.657.657,0,0,0,.182-.482.685.685,0,0,0-.234-.482A11.081,11.081,0,0,0,256,0V5.253A5.826,5.826,0,0,1,259.517,6.426Z" transform="translate(-244.886 0)"/></g></g></svg>