<?xml version="1.0" encoding="utf-8"?>
<!-- Generator: Adobe Illustrator 24.2.3, SVG Export Plug-In . SVG Version: 6.00 Build 0)  -->
<svg version="1.1" id="Layer_1" xmlns="http://www.w3.org/2000/svg" xmlns:xlink="http://www.w3.org/1999/xlink" x="0px" y="0px"
	 viewBox="0 0 75.1 90" style="enable-background:new 0 0 75.1 90;" xml:space="preserve">
<style type="text/css">
	.st0{fill:url(#SVGID_1_);}
</style>
<linearGradient id="SVGID_1_" gradientUnits="userSpaceOnUse" x1="-95.5408" y1="-104.2095" x2="-96.3241" y2="-103.9564" gradientTransform="matrix(67.4622 0 0 79.221 6509.312 8293.418)">
	<stop  offset="0" style="stop-color:#656AB1"/>
	<stop  offset="1" style="stop-color:#41C0EE"/>
</linearGradient>
<path class="st0" d="M1,47.9c0.5-1.3,0.9-2.7,1.4-4c0.4-0.9,0.8-1.8,1.4-2.7c2.5-3.8,5-7.6,7.5-11.4c0.1-0.2,0.2-0.4,0.2-0.6
	c0-1.7,0.9-3.2,2.3-4.1c1.4-1,2.9-1.9,4.5-2.7c2.7-1.5,2.1-1.5,2-4.5c0-0.5-0.2-1-0.3-1.5c-0.2-2.7,1.7-5,4.3-5.5
	c1.8-0.5,3.7-0.2,5.3,0.7c0.9,0.4,1.3,1.4,0.9,2.3c0,0.1-0.1,0.2-0.1,0.2c-0.1,0.2,0,0.5,0,0.7c0.4,1.1,0.4,2.3-0.2,3.3
	c-0.1,0.1-0.1,0.2-0.1,0.3c0.3,1.8-1,3.2-1.2,4.8c0,0.3-0.7,0.7-1,0.7c-1,0-1.9,0.5-2.4,1.4c1.7,2.1,3.4,4.2,5.1,6.3
	c0.4,0.3,0.8,0.5,1.3,0.6c1.4,0.3,2.8,0.6,4.2,0.9c2.7,0.5,5.5,1,8.2,1.5c0.1,0,0.2,0,0.3,0c1.4,0.5,1.8-0.4,2.4-1.4
	c1.4-2.8,2.3-5.8,2.7-9c0-1.1-0.1-2.1-0.2-3.2c0-1.4,0.1-2.7,0.3-4.1c0.1-0.9,0.7-1.6,1.6-1.9c1.3-0.6,2.5-1.2,3.8-1.9
	c-0.2-0.6-0.4-1.2-0.6-1.7c-0.1-0.2-0.2-0.3-0.4-0.3C53,11,52.4,9.7,52.8,8.6c0-0.1,0.1-0.2,0.1-0.2C53,8.1,53,7.9,53,7.6
	c0-1,0.1-1.9,0.3-2.8c0.5-1.6,2-2.7,3.7-2.6c0.3,0,0.5,0,0.8,0c1.8-0.2,3.5,1.1,3.8,2.9v0.1c0.2,1,0.3,2,0.4,3.1
	c0.1,0.8-0.1,1.6-0.5,2.2c-0.3,0.7-0.4,1.5-0.4,2.2c3.7,0.7,6.1,3.2,8.3,5.9c0.8,1.2,1.3,2.5,1.7,3.9c0.6,1.6,1,3.3,1.4,5
	c0.3,0.9,0.6,1.8,0.8,2.7c0.2,0.6,0.3,1.2,0.3,1.9c0.2,3.3,0,6.6-0.5,9.9c0,0.8,0,1.7,0.2,2.5c0.1,0.9,0.2,1.7,0.4,2.6
	c0,0.3,0.1,0.6,0.1,1c0,0.2,0,0.5,0,0.7l-0.7-0.1c-0.1,1-0.3,1-1,0.6c-0.5,0.9-0.6,0.9-1.4-0.3l-0.1,1.4l-0.2,0.1
	c-0.2-0.2-0.5-0.4-0.6-0.7c-0.3-0.8-0.5-1.7-0.7-2.6c-0.1-0.6,0-1.3,0.1-1.9c0.3-1.3,0.6-2.6,0.7-3.9c0-3.3-0.1-6.6-0.2-9.9
	c0-0.8-0.5-1.6-1.3-1.9c0,1.7,0,3.4,0,5.1c0.1,1.4,0.4,2.9,0.9,4.2c0.3,1.1,0.3,2.3,0,3.4c-0.3,1.3-0.6,2.6-1.1,3.9
	c-0.1,0.2-0.5,0.4-0.6,0.6c-0.5,0.8-1,1.6-1.5,2.4c-0.9,1.3-1.8,2.6-2.7,3.9c-0.3,0.4-0.6,0.8-0.9,1.2c-0.7,0.8-0.8,2-0.4,2.9
	c1,2.8,1.5,5.8,1.5,8.8c0.1,1.9,0.3,3.8,0.5,5.6c0.2,0.8,0.5,1.5,0.8,2.3c0.3,0.9,0.6,1.9,0.7,2.8s-0.3,1.2-1.2,1.2
	c-1,0-1.9-0.1-2.9-0.1c-0.3,0-0.6,0-0.9,0c0,0.9,0.1,1.8,0.1,2.6c0.1,0.5-0.3,0.9-0.8,1h-0.1c-2.6,0.3-5.2,0.7-7.9,1
	c-0.8,0.1-1.5,0-2.2-0.2c-0.4-0.2-0.7-0.6-0.8-1c0-0.3,0.5-0.8,0.8-0.9c1.6-0.7,3.3-1,4.5-2.5c-0.4-0.6-1.7-1-0.8-1.9
	c0.4-0.5,1.4-0.4,2.2-0.6c0.3-0.7-0.1-2,1.4-2.1c-0.1-4.3-0.2-8.7-0.3-13c0-0.9-0.6-1.8-0.8-2.8c-0.3-2.1-0.2-4.3-0.8-6.2
	c-0.9-2.7-0.2-5.3-0.1-7.9c0.2-3.2,0.1-6.3-0.3-9.5c0-0.3-0.1-0.6-0.2-0.8c-0.2-1-0.4-2-0.7-3c-0.2-0.8-0.4-1.5-0.7-2.2
	c-0.1,0.5-0.1,1-0.2,1.5c-0.1,1.6-0.7,3.1-1.6,4.4c-1.3,2-3,3.8-4.9,5.2c-1.2,0.8-2.5,1.6-3.8,2.3c-0.3,0.1-0.6,0-0.8-0.2
	c-0.4-0.7-0.7-1.4-0.9-2.2c-0.3-1.2-0.8-1.5-2-1.4c-2.3,0-4.7,0.1-7-0.1c-1-0.1-2-0.5-2.9-0.9c-1.3-0.6-2.4-1.3-3.7-2
	c-0.3,0.8-0.7,1.5-1.1,2.3c-1.2,1.8-2.5,3.5-3.7,5.2c-0.3,0.4-0.7,0.9-1,1.3c-0.8,1.2-1.7,2.3-2.5,3.5c-0.2,0.2-0.3,0.4-0.4,0.7
	c-0.2,0.9-0.8,1.7-1.7,2.1c0.4,0.7,0.9,1.3,1.2,2l0.6,1.1c0.7,1.3,1.6,3,2.4,4.6c0.6,1,0.4,2.3-0.4,3.1c-0.4,0.4-0.5,1.1-0.3,1.6
	c0.4,1,0.2,2.2-0.5,3.1c-2,3-3.6,6.2-4.9,9.6c-0.3,0.7-0.2,1.3,0.4,1.6c1,0.5,2.1,1,3.2,1.5c0.7,0.3,1.8,0.2,1.7,1.2
	c-0.1,1.1-1.2,0.8-1.9,0.8c-1.4,0.1-2.9,0-4.3,0c-0.3,0.7-0.5,1.3-0.6,1.9c0,0.2,0.1,0.4,0.2,0.6c1.6,1.7,3.3,3.3,5.7,3.8
	c0.2,0,0.5,0.1,0.6,0.3c0.3,0.3,0.5,0.7,0.6,1.1c0,0.2-0.6,0.6-0.9,0.5c-4.1,0.1-8.3-0.4-12.3-1.3c-1.2-0.3-1.6-1.1-1.1-2.4
	c0.4-0.9,0.9-1.8,1.4-2.7c0.5-0.8,0.4-1.7,0-2.4c-0.4-0.9-0.3-1.9,0.2-2.6c0.7-1.3,1.4-2.6,2.1-3.9c0.1-0.3,0.2-0.7,0.2-1
	c0.4-2,0.7-4,1.1-6c0.2-0.8,0.6-1.6,0.9-2.4c-0.7-0.6-1.4-1.3-2-2c-1.3-1.7-2.6-3.5-3.9-5.3c-0.4-0.5-0.8-1-1.2-1.5
	c-0.7-1.4-1.6-3-2.1-4.8V47.9z"/>
</svg>
