<svg xmlns="http://www.w3.org/2000/svg" viewBox="0 0 16.622 16.633"><defs><style>.a{fill:#fff;}</style></defs><path class="a" d="M38.057,44.717a8.3,8.3,0,0,1-5.881-2.454,8.215,8.215,0,0,1-2.419-5.872,8.338,8.338,0,0,1,8.3-8.308h.02a8.317,8.317,0,0,1,.014,16.633ZM32.9,41.832c.128.1.253.2.373.306a6.082,6.082,0,0,0,.7.538,7.689,7.689,0,0,0,4.063,1.238,7.9,7.9,0,0,0,3.524-.887,6.4,6.4,0,0,0,1.639-1.174,5.545,5.545,0,0,0-1.537-1.957,5.671,5.671,0,0,0-3.545-1.29,6.151,6.151,0,0,0-1.51.2,5.6,5.6,0,0,0-3.7,3.011Zm5.159-4.025a6.336,6.336,0,0,1,5.74,3.4,7.28,7.28,0,0,0,1.76-4.542,7.5,7.5,0,1,0-15-.191,7.369,7.369,0,0,0,1.75,4.717,6.353,6.353,0,0,1,5.746-3.383Zm-.015-.71a3.463,3.463,0,0,1-2.5-1.039,3.59,3.59,0,0,1-1-2.621,3.5,3.5,0,0,1,3.531-3.385H38.1a3.43,3.43,0,0,1,2.443,1.014,3.587,3.587,0,0,1,1.046,2.559A3.512,3.512,0,0,1,38.049,37.1Zm.018-6.227a2.74,2.74,0,0,0-2.71,2.679,2.725,2.725,0,0,0,2.709,2.739,2.722,2.722,0,0,0,2.706-2.7,2.721,2.721,0,0,0-2.7-2.714Z" transform="translate(-29.757 -28.084)"/></svg>