<?xml version="1.0" encoding="utf-8"?>
<!-- Generator: Adobe Illustrator 23.1.1, SVG Export Plug-In . SVG Version: 6.00 Build 0)  -->
<svg version="1.1" id="Layer_1" xmlns="http://www.w3.org/2000/svg" xmlns:xlink="http://www.w3.org/1999/xlink" x="0px" y="0px"
	 viewBox="0 0 456 91.5" style="enable-background:new 0 0 456 91.5;" xml:space="preserve">
<style type="text/css">
	.st0{fill:#FFFFFF;}
	.st1{fill:none;stroke:#FFFFFF;stroke-miterlimit:10;}
	.st2{fill-rule:evenodd;clip-rule:evenodd;fill:#FFFFFF;}
	.st3{fill:url(#SVGID_1_);}
</style>
<g>
	<path class="st0" d="M62.9,5.5c-0.9-1.5-2.5-2.4-4.2-2.4h-8.8c-1,0-1.9,0.3-2.7,0.8c-0.8-0.5-1.7-0.8-2.7-0.8h-8.8
		c-1,0-1.9,0.3-2.7,0.8c-0.8-0.5-1.7-0.8-2.7-0.8h-8.8c-1,0-1.9,0.3-2.7,0.8c-0.8-0.5-1.7-0.8-2.7-0.8H7.3C5.7,3.1,4.1,4,3.2,5.3
		C3,5.6,2.9,5.9,2.9,6.2v52.2c0,0,0,0.1,0,0.1C3.1,75,16.5,88.4,33,88.4c7.9,0,15.4-3.1,21.1-8.6c5.6-5.5,8.8-12.9,9-20.8
		c0-0.1,0-0.1,0-0.2V6.3C63.1,6.1,63,5.8,62.9,5.5 M62.3,40.6C62.3,40.6,62.3,40.6,62.3,40.6C62.3,40.7,62.3,40.7,62.3,40.6v18.2
		c0,0,0,0.1,0,0.1c-0.2,7.7-3.3,14.9-8.8,20.3C48,84.6,40.8,87.6,33,87.6C17,87.6,3.8,74.5,3.7,58.5c0,0,0,0,0-0.1V6.2
		c0-0.2,0-0.3,0.1-0.4c0.8-1.2,2.1-1.9,3.5-1.9h8.8c1,0,2,0.4,2.7,1c0.7-0.6,1.7-1,2.7-1h8.8c1,0,2,0.4,2.7,1c0.7-0.6,1.7-1,2.7-1
		h8.8c1,0,2,0.4,2.7,1c0.7-0.6,1.7-1,2.7-1h8.8c1.5,0,2.8,0.8,3.6,2c0.1,0.1,0.1,0.3,0.1,0.4V40.6z"/>
	<path class="st0" d="M9.1,19.7l1.9,6.1l1.9-6.1h2.2v15H13v-9.8l-1.1,3.7h-1.7L9.1,25v9.6H6.9v-15H9.1z M16.9,19.7h2.2v12.7H23V19.7
		h2.2V33l-1.7,1.7h-5L16.9,33V19.7z M29.1,19.7l1.9,6.1l1.9-6.1h2.2v15H33v-9.8l-1.1,3.7h-1.7L29.1,25v9.6h-2.2v-15H29.1z
		 M43.5,19.7l1.7,1.7v4.4l-1.1,1.1l1.1,1.1v5l-1.7,1.7h-6.6v-15H43.5z M39.1,25.8H43v-3.9h-3.9V25.8z M39.1,32.4H43V28h-3.9V32.4z
		 M46.4,34.7V21.4l1.7-1.7h5l1.7,1.7v13.3h-2.2V28h-3.9v6.6H46.4z M48.6,25.8h3.9v-3.9h-3.9V25.8z M58.5,34.7h-2.2v-15h2.2V34.7z"/>
	<path class="st0" d="M13.6,36.2l1.7,1.7v2.8H13v-2.2H9.1V49H13v-2.2h2.2v2.8l-1.7,1.7h-5l-1.7-1.7V37.9l1.7-1.7H13.6z M18.7,51.2
		h-2.2v-15h2.2V51.2z M19.9,36.2h8.3v2.2h-3v12.7H23V38.5h-3V36.2z M31,36.3l1.9,4.9l2-4.9h2.2L34,44v7.2h-2.2V44l-3-7.7H31z"/>
	<polygon class="st0" points="49.6,6.6 49.6,12.3 44.2,12.3 44.2,6.6 35.4,6.6 35.4,12.3 30,12.3 30,6.6 21.2,6.6 21.2,12.3 
		15.9,12.3 15.9,6.6 7.1,6.6 7.1,11 7.1,13.9 7.1,17.7 58.4,17.7 58.4,13.9 58.4,11 58.4,6.6 	"/>
	<path class="st0" d="M13.2,74.6c0.8,0.9,1.6,1.8,2.5,2.5h34.1c0.9-0.8,1.7-1.6,2.5-2.5H13.2z"/>
	<path class="st0" d="M9.6,68.9c0.4,0.9,0.9,1.7,1.4,2.5h43.5c0.5-0.8,1-1.7,1.4-2.5H9.6z"/>
	<path class="st0" d="M19.9,80.2c3.8,2.2,8.1,3.4,12.8,3.4c4.7,0,9-1.2,12.8-3.4H19.9z"/>
	<path class="st0" d="M35.2,46.4v4.8h23.4v-4.8H35.2z M38.2,50.1l-0.9-0.6l-0.9,0.6l0.3-1.1l-0.9-0.7l1.1,0l0.4-1.1l0.4,1.1l1.1,0
		L37.8,49L38.2,50.1z M41.4,50.1l-0.9-0.6l-0.9,0.6l0.3-1.1L39,48.3l1.1,0l0.4-1.1l0.4,1.1l1.1,0L41,49L41.4,50.1z M44.6,50.1
		l-0.9-0.6l-0.9,0.6l0.3-1.1l-0.9-0.7l1.1,0l0.4-1.1l0.4,1.1l1.1,0L44.3,49L44.6,50.1z M47.8,50.1l-0.9-0.6l-0.9,0.6l0.3-1.1
		l-0.9-0.7l1.1,0l0.4-1.1l0.4,1.1l1.1,0L47.5,49L47.8,50.1z M51,50.1l-0.9-0.6l-0.9,0.6l0.3-1.1l-0.9-0.7l1.1,0l0.4-1.1l0.4,1.1
		l1.1,0L50.7,49L51,50.1z M54.2,50.1l-0.9-0.6l-0.9,0.6l0.3-1.1l-0.9-0.7l1.1,0l0.4-1.1l0.4,1.1l1.1,0L53.9,49L54.2,50.1z
		 M57.4,50.1l-0.9-0.6l-0.9,0.6l0.3-1.1L55,48.3l1.1,0l0.4-1.1l0.4,1.1l1.1,0L57.1,49L57.4,50.1z"/>
	<path class="st0" d="M51.9,37.4v6.5h5.4v-1.2h1.2v1.5l-0.9,0.9h-7.1l-0.9-0.9v-7.1l0.9-0.9h7.1l0.9,0.9v1.5h-1.2v-1.2H51.9z
		 M48.3,36.2v1.2h-6v2.2h4.5v1.2h-4.5v4.3H40v-9H48.3z"/>
	<path class="st0" d="M57.7,54.3c0-0.4-0.3-0.7-0.7-0.7H9.2c-0.4,0-0.7,0.3-0.7,0.7V56h49.3V54.3z M7.8,63.3c0,0.3,0.3,0.6,0.6,0.6
		c0.3,0,0.6-0.3,0.3-0.6v-6.8H7.8V63.3z M57.4,56.5v6.8c-0.3,0.3,0,0.6,0.3,0.6c0.3,0,0.6-0.3,0.6-0.6v-6.8H57.4z M9.3,63.3h0.4v1.1
		h2v-1.1h1.7c-0.1,0.1-0.1,0.2-0.2,0.3H12v0.8h1c0,0.7,0.4,1.2,1,1.5H9.7v0.3h47.2v-0.3h-4.8c0.6-0.2,1-0.8,1-1.5h1v-0.8h-1.3
		c-0.1-0.1-0.1-0.2-0.2-0.3h1.7v1.1h2v-1.1h0.4v-6.8H9.3V63.3z M54.6,58.4c0-0.4,0.3-0.7,0.7-0.7h0.2c0.4,0,0.7,0.3,0.7,0.7v1.4
		c0,0.4-0.3,0.7-0.7,0.7h-0.2c-0.4,0-0.7-0.3-0.7-0.7V58.4z M45.3,65.8c0.6-0.2,1-0.8,1-1.5h0.9v0.7H49v-0.7h0.9
		c0,0.7,0.4,1.2,1,1.5H45.3z M44.6,65.7c-0.7,0-1.3-0.6-1.3-1.3h0.2c0,0.6,0.5,1.1,1.1,1.1c0.6,0,1.1-0.5,1.1-1.1h0.2
		C45.9,65.1,45.4,65.7,44.6,65.7 M51.1,58c0-0.2,0.2-0.4,0.4-0.4h1.1c0.2,0,0.4,0.2,0.4,0.4v0.5h-1.9V58z M51.1,58.8H53v1.4
		c0,0.2-0.2,0.4-0.4,0.4h-1.1c-0.2,0-0.4-0.2-0.4-0.4V58.8z M51.5,65.4c0.6,0,1.1-0.5,1.1-1.1h0.2c0,0.7-0.6,1.3-1.3,1.3
		c-0.7,0-1.3-0.6-1.3-1.3h0.2C50.5,65,50.9,65.4,51.5,65.4 M50.1,63.6H49v-0.3h1.3C50.3,63.4,50.2,63.5,50.1,63.6 M47.6,58
		c0-0.2,0.2-0.4,0.4-0.4h1.1c0.2,0,0.4,0.2,0.4,0.4v0.5h-1.9V58z M47.6,58.8h1.9v1.4c0,0.2-0.2,0.4-0.4,0.4H48
		c-0.2,0-0.4-0.2-0.4-0.4V58.8z M47.1,63.6H46c-0.1-0.1-0.1-0.2-0.2-0.3h1.3V63.6z M42.9,58c0-0.2,0.2-0.4,0.4-0.4h2.4
		c0.2,0,0.4,0.2,0.4,0.4v0.5h-3.2L42.9,58L42.9,58z M42.9,58.8h3.2v1.4c0,0.2-0.2,0.4-0.4,0.4h-2.4c-0.2,0-0.4-0.2-0.4-0.4V58.8z
		 M37.2,58c0-0.2,0.2-0.4,0.4-0.4H40c0.2,0,0.4,0.2,0.4,0.4v0.5h-3.2V58z M37.2,58.8h3.2v1.4c0,0.2-0.2,0.4-0.4,0.4h-2.4
		c-0.2,0-0.4-0.2-0.4-0.4L37.2,58.8L37.2,58.8z M31.5,58c0-0.2,0.2-0.4,0.4-0.4h2.4c0.2,0,0.4,0.2,0.4,0.4v0.5h-3.2V58z M31.5,58.8
		h3.2v1.4c0,0.2-0.2,0.4-0.4,0.4h-2.4c-0.2,0-0.4-0.2-0.4-0.4V58.8z M37.2,65.1v-1.8h6.3c-0.1,0.1-0.1,0.2-0.2,0.3H42v0.8h1
		c0,0.7,0.4,1.2,1,1.5H22.2c0.6-0.2,1-0.8,1-1.5h1v-0.8h-1.3c-0.1-0.1-0.1-0.2-0.2-0.3H29v1.8H37.2z M21.5,65.7
		c-0.7,0-1.3-0.6-1.3-1.3h0.2c0,0.6,0.5,1.1,1.1,1.1c0.6,0,1.1-0.5,1.1-1.1h0.2C22.8,65.1,22.2,65.7,21.5,65.7 M25.8,58
		c0-0.2,0.2-0.4,0.4-0.4h2.4c0.2,0,0.4,0.2,0.4,0.4v0.5h-3.2V58z M25.8,58.8H29v1.4c0,0.2-0.2,0.4-0.4,0.4h-2.4
		c-0.2,0-0.4-0.2-0.4-0.4L25.8,58.8L25.8,58.8z M20.1,58c0-0.2,0.2-0.4,0.4-0.4h2.4c0.2,0,0.4,0.2,0.4,0.4v0.5h-3.2V58z M20.1,58.8
		h3.2v1.4c0,0.2-0.2,0.4-0.4,0.4h-2.4c-0.2,0-0.4-0.2-0.4-0.4V58.8z M19,63.3h1.3c-0.1,0.1-0.1,0.2-0.2,0.3H19V63.3z M19,64.4h0.9
		c0,0.7,0.4,1.2,1,1.5h-5.6c0.6-0.2,1-0.8,1-1.5h0.9v0.7H19V64.4z M16.7,58c0-0.2,0.2-0.4,0.4-0.4h1.1c0.2,0,0.4,0.2,0.4,0.4v0.5
		h-1.9V58z M16.7,58.8h1.9v1.4c0,0.2-0.2,0.4-0.4,0.4H17c-0.2,0-0.4-0.2-0.4-0.4V58.8z M17.1,63.3v0.3H16c-0.1-0.1-0.1-0.2-0.2-0.3
		H17.1z M15.7,64.4h0.2c0,0.7-0.6,1.3-1.3,1.3c-0.7,0-1.3-0.6-1.3-1.3h0.2c0,0.6,0.5,1.1,1.1,1.1C15.2,65.4,15.7,65,15.7,64.4
		 M13.2,58c0-0.2,0.2-0.4,0.4-0.4h1.1c0.2,0,0.4,0.2,0.4,0.4v0.5h-1.9V58z M13.2,58.8h1.9v1.4c0,0.2-0.2,0.4-0.4,0.4h-1.1
		c-0.2,0-0.4-0.2-0.4-0.4V58.8z M9.9,58.4c0-0.4,0.3-0.7,0.7-0.7h0.2c0.4,0,0.7,0.3,0.7,0.7v1.4c0,0.4-0.3,0.7-0.7,0.7h-0.2
		c-0.4,0-0.7-0.3-0.7-0.7V58.4z"/>
	<path class="st0" d="M15.2,64.4c0,0.3-0.2,0.6-0.6,0.6c-0.3,0-0.6-0.2-0.6-0.6c0-0.3,0.2-0.6,0.6-0.6
		C14.9,63.8,15.2,64.1,15.2,64.4"/>
	<path class="st0" d="M22.1,64.4c0,0.3-0.2,0.6-0.6,0.6c-0.3,0-0.6-0.2-0.6-0.6c0-0.3,0.2-0.6,0.6-0.6
		C21.8,63.8,22.1,64.1,22.1,64.4"/>
	<path class="st0" d="M45.2,64.4c0,0.3-0.2,0.6-0.6,0.6c-0.3,0-0.6-0.2-0.6-0.6c0-0.3,0.2-0.6,0.6-0.6
		C44.9,63.8,45.2,64.1,45.2,64.4"/>
	<path class="st0" d="M52.1,64.4c0,0.3-0.2,0.6-0.6,0.6c-0.3,0-0.6-0.2-0.6-0.6c0-0.3,0.2-0.6,0.6-0.6
		C51.8,63.8,52.1,64.1,52.1,64.4"/>
</g>
<line class="st1" x1="89.1" y1="20.8" x2="89.1" y2="70.7"/>
<g>
	<g>
		<path class="st0" d="M192.3,42.5l-4.1-1.8c-1.5-0.7-2.6-1.3-3.2-1.9c-0.6-0.6-0.9-1.3-0.9-2.2c0-1.1,0.4-2,1.3-2.6
			c0.8-0.6,1.9-0.9,3.2-0.9c2.7,0,5,1.4,6.8,4.1l5-3.8c-1.1-2.1-2.7-3.7-4.7-4.9c-2-1.2-4.4-1.8-7.1-1.8c-3.4,0-6.3,0.9-8.5,2.8
			c-2.2,1.9-3.4,4.3-3.4,7.3c0,2.3,0.7,4.3,2.2,5.9c1.5,1.6,3.6,3.1,6.4,4.3l3.8,1.7c1.2,0.5,2,1,2.5,1.2c0.5,0.3,1,0.7,1.4,1.3
			c0.4,0.6,0.6,1.2,0.6,1.9c0,1.2-0.5,2.2-1.4,2.9c-0.9,0.7-2.1,1.1-3.7,1.1c-3.4,0-6.3-1.7-8.8-5.2l-5,3.8c1.4,2.4,3.3,4.3,5.6,5.8
			c2.4,1.4,5.1,2.1,8.1,2.1c3.6,0,6.6-1,9-2.9c2.3-1.9,3.5-4.5,3.5-7.8c0-2.4-0.7-4.4-2.2-6C197.5,45.3,195.3,43.9,192.3,42.5z"/>
		<path class="st0" d="M220.6,35.7c-3.8,0-6.7,1.3-8.6,3.9v-3.4h-6.7v36.5h7.3V60.4c2,2.2,4.6,3.2,8,3.2c3.8,0,6.9-1.3,9.3-4
			c2.4-2.7,3.6-6,3.6-10.1c0-4-1.2-7.4-3.6-10C227.5,37,224.4,35.7,220.6,35.7z M224.1,55c-1.3,1.4-3,2-4.9,2
			c-1.9,0-3.5-0.6-4.8-1.9c-1.3-1.3-2-3.1-2-5.5c0-2.4,0.7-4.2,2-5.5c1.3-1.2,2.9-1.9,4.8-1.9c2,0,3.6,0.7,4.9,2
			c1.3,1.4,2,3.1,2,5.4C226.1,51.9,225.5,53.6,224.1,55z"/>
		<path class="st0" d="M250.3,35.7c-4,0-7.4,1.3-10.2,4c-2.8,2.7-4.2,6-4.2,9.9c0,4,1.4,7.3,4.1,10c2.8,2.7,6.1,4,10.1,4
			s7.4-1.4,10.2-4.1s4.2-6,4.2-9.9c0-3.9-1.4-7.2-4.2-9.9C257.6,37,254.3,35.7,250.3,35.7z M255.2,54.9c-1.3,1.4-3,2.1-4.9,2.1
			c-2,0-3.7-0.7-5-2c-1.3-1.4-1.9-3.1-1.9-5.2c0-2.1,0.6-3.9,1.9-5.3c1.3-1.4,3-2.1,5-2.1c2,0,3.6,0.7,4.9,2.1c1.3,1.4,2,3.2,2,5.2
			C257.2,51.8,256.6,53.5,255.2,54.9z"/>
		<path class="st0" d="M297.7,56.2c-0.8-0.6-1.2-1.7-1.2-3.2V42.4h7.6v-6.2h-7.6v-6.8h-7.3v6.6H285v0c-0.7-0.2-1.5-0.2-2.4-0.2
			c-3.1,0-5.5,1.2-7.3,3.6v-3.2h-6.7V63h7.3V49.7c0-2.3,0.6-4,1.9-5.2c1.3-1.2,3-2,5.2-2h1.9v0h4.2v11.2c0,3.4,0.9,5.9,2.8,7.5
			c1.9,1.7,4.5,2.5,7.9,2.5c1.6,0,3.3-0.2,5-0.6v-6.1c-1.9,0.1-3,0.2-3.5,0.2C299.7,57.1,298.5,56.8,297.7,56.2z"/>
		<path class="st0" d="M320,47l-2.6-1.1c-1-0.4-1.8-0.8-2.2-1.1c-0.4-0.3-0.6-0.8-0.6-1.3c0-1.3,1-1.9,2.9-1.9c2.2,0,4.2,0.8,6,2.5
			l3.7-4.5c-2.4-2.7-5.6-4.1-9.6-4.1c-2.9,0-5.3,0.7-7.1,2.1c-1.8,1.4-2.7,3.4-2.7,5.9c0,2,0.6,3.6,1.8,4.8c1.2,1.2,3,2.3,5.5,3.4
			l2.9,1.2c1,0.4,1.7,0.8,2.1,1.1c0.4,0.3,0.6,0.7,0.6,1.3c0,0.7-0.3,1.3-1,1.6c-0.6,0.4-1.5,0.6-2.4,0.6c-2.7,0-5.2-1.2-7.5-3.6
			l-3.7,4.4c2.6,3.5,6.3,5.2,11.1,5.2c3,0,5.5-0.8,7.5-2.3c2-1.5,2.9-3.6,2.9-6.3c0-2-0.6-3.6-1.8-4.8C324.5,49.1,322.6,48,320,47z"
			/>
		<path class="st0" d="M344.3,26.7L328.3,63h7.8l2-4.6h14.6l2,4.6h7.8l-15.9-36.3H344.3z M340.8,52.4l4.7-12l4.7,12H340.8z"/>
		<path class="st0" d="M384.1,38.9c-1.9-2.1-4.6-3.2-8-3.2c-3.8,0-6.9,1.3-9.3,4c-2.4,2.6-3.6,6-3.6,10c0,4,1.2,7.4,3.6,10
			c2.4,2.6,5.5,4,9.3,4s6.6-1.3,8.6-4V63h6.7V22.5h-7.3V38.9z M382.2,55.2c-1.3,1.2-2.9,1.9-4.8,1.9c-2,0-3.6-0.7-4.9-2
			c-1.3-1.4-2-3.1-2-5.4c0-2.2,0.7-4,2-5.3c1.3-1.4,3-2,4.9-2c1.8,0,3.4,0.6,4.8,1.9c1.3,1.3,2,3.1,2,5.5
			C384.2,52.1,383.5,53.9,382.2,55.2z"/>
		<path class="st0" d="M416.3,38.9c-1.9-2.1-4.6-3.2-8-3.2c-3.8,0-6.9,1.3-9.3,4c-2.4,2.6-3.6,6-3.6,10c0,4,1.2,7.4,3.6,10
			c2.4,2.6,5.5,4,9.3,4s6.6-1.3,8.6-4V63h6.7V22.5h-7.3V38.9z M414.4,55.2c-1.3,1.2-2.9,1.9-4.8,1.9c-2,0-3.6-0.7-4.9-2
			c-1.3-1.4-2-3.1-2-5.4c0-2.2,0.7-4,2-5.3c1.3-1.4,3-2,4.9-2c1.8,0,3.4,0.6,4.8,1.9c1.3,1.3,2,3.1,2,5.5
			C416.4,52.1,415.8,53.9,414.4,55.2z"/>
		<path class="st0" d="M448.4,38.6c-2.1-2-4.9-2.9-8.3-2.9c-4.7,0-8.6,1.8-11.7,5.5l3.8,4.5c2.3-2.4,4.7-3.7,7.1-3.7
			c1.6,0,2.9,0.4,3.7,1.2c0.8,0.8,1.3,2,1.3,3.5v1.2h-6.7c-3.1,0-5.6,0.7-7.4,2.1c-1.8,1.4-2.7,3.3-2.7,5.7c0,2.3,0.8,4.3,2.5,5.8
			c1.7,1.5,3.9,2.2,6.8,2.2c3.4,0,6.1-1.1,8.2-3.2V63h6.7V47.1C451.5,43.4,450.5,40.6,448.4,38.6z M444.2,53c0,1.5-0.5,2.8-1.6,3.8
			c-1.1,1-2.4,1.5-4,1.5c-1.2,0-2.1-0.3-2.8-0.8c-0.7-0.5-1.1-1.2-1.1-2.1c0-1.8,1.2-2.7,3.7-2.7h5.7V53z"/>
	</g>
	<g>
		<g>
			<path class="st2" d="M137.4,17.4c-3.3,0-6.4,0.6-9.4,1.6c2.3,1.1,4.2,2.7,5.6,4.8c1.2-0.2,2.5-0.3,3.8-0.3
				c12.3,0,22.3,10,22.3,22.3c0,12.3-10,22.3-22.3,22.3c-12.3,0-22.3-10-22.3-22.3c0-0.8,0-1.6,0.1-2.4c-2.1-1.3-3.9-3.1-5.1-5.2
				c-0.7,2.4-1,5-1,7.6c0,15.7,12.7,28.4,28.4,28.4s28.4-12.7,28.4-28.4C165.8,30.1,153.1,17.4,137.4,17.4z"/>
		</g>
		<g>
			<g>
				<g>
					<linearGradient id="SVGID_1_" gradientUnits="userSpaceOnUse" x1="108.3614" y1="31.4664" x2="135.9123" y2="31.4664">
						<stop  offset="0" style="stop-color:#9E1D22"/>
						<stop  offset="0.6603" style="stop-color:#EF6935"/>
						<stop  offset="1" style="stop-color:#F69834"/>
					</linearGradient>
					<circle class="st3" cx="122.1" cy="31.5" r="13.8"/>
				</g>
				<g>
					<defs>
						<path id="SVGID_2_" d="M121.5,45.2c-7.6-0.3-13.5-6.8-13.2-14.3s6.8-13.5,14.4-13.2c7.6,0.3,13.5,6.8,13.2,14.3
							S129.2,45.5,121.5,45.2z"/>
					</defs>
					<clipPath id="SVGID_3_">
						<use xlink:href="#SVGID_2_"  style="overflow:visible;"/>
					</clipPath>
				</g>
			</g>
			<path class="st0" d="M116.1,42.3c1.4-0.1,3.4-0.7,4.7-1.1c1.6,0.8,3.4,1.2,5.2,1.3c0,0.7,0,1.4,0.1,2.1c0,0,0.4-0.1,0.6-0.2
				c-0.1-0.7-0.1-1.3-0.1-2c1.3-1.2,2.9-2.8,3.7-4.4l4-1.3c0.1,0.2,0.1,0.5,0.2,0.8c1.6-3.1,1.6-6.8,1.4-7.5
				c-0.9-1.4-1.9-2.7-2.9-4.1c0-1.5-0.5-3.1-1.2-4.5c-0.2-0.3-1.1-1-1.2-1c-1.5-0.7-3.3-1-4.9-1.1c-0.6-0.6-1.6-1.3-2.3-1.7
				c-0.5,0-1.4,0-1.7,0c1.2,0.5,2.5,1.2,3.4,2.1c-0.5,1.1-0.9,2.4-1.3,3.6c-1.9,0.1-3.8,0.7-5.5,1.6c-1.2-0.8-2.4-1.5-3.7-2
				c0.2-1.1,0.5-2.6,1.4-3.3c1.4-0.8,3.3-1.4,4.7-1.8c-0.2,0-0.7,0.1-0.7,0.1c-2.5,0.3-4.7,1.7-5,1.9c-0.5,0.9-0.8,2.2-1,3.2
				c-1.7,1-3.1,2.8-4.2,4.4l-0.7,0.1c-0.1,0.2-0.1,0.5-0.2,0.7l0.9-0.1c0.3,1.7,0.8,3.3,1.8,4.6c-0.2,1.6-0.5,3.4-0.4,5.1
				c-0.4,0.1-0.7,0.1-1.1,0.1c0.5,1.1,2.8,4.6,6.4,6.1C116.3,43.4,116.1,42.9,116.1,42.3z M132.5,26.6c0.9,1.2,2.3,2.9,3,4.1
				c0,1.8-0.4,3.7-1.3,5.4l-4,1.3c-0.9-1.3-1.9-2.7-2.8-3.9c0.5-1.8,0.9-3.6,1.3-5.4C130,27.5,131.2,27,132.5,26.6z M118.5,25.6
				c1.7-0.8,3.5-1.4,5.4-1.5c1.7,0.9,3,2.2,4.1,3.8c-0.3,1.9-0.8,3.7-1.3,5.4c-1.7,0.6-3.5,1.2-5.3,1.7c-1.3-1.3-2.7-2.6-4.1-3.9
				C117.7,29.2,118,27.4,118.5,25.6z M111.7,37.9c-0.1-1.6,0.2-3.5,0.4-5.1c1.6-0.4,3.2-0.8,4.8-1.2c1.3,1.3,2.7,2.6,4.1,3.9
				c-0.3,1.6-0.6,3.6-0.4,5.2c-1.2,0.3-3.6,1.1-4.6,1.1C114.4,40.6,113,39.3,111.7,37.9z"/>
		</g>
	</g>
</g>
</svg>
