<svg xmlns="http://www.w3.org/2000/svg" width="238.73" height="235.32" viewBox="0 0 238.73 235.32"><defs><style>.a{fill:none;}.b,.c,.d{stroke:none;}.c{fill:#aacffa;}.d{fill:#69a2e6;}</style></defs><g transform="translate(-0.034 -0.017)"><g class="a" transform="translate(17.738 22.987) rotate(1)"><path class="b" d="M103.155,0c56.933-.038,103.056,44.331,103.018,99.1s-46.222,99.2-103.155,99.237S-.038,154.006,0,99.237,46.222.038,103.155,0Z"/><path class="c" d="M 103.1750411987305 30.00003051757812 C 62.8525390625 30.02674865722656 30.0263671875 61.09552001953125 30.00004577636719 99.25752258300781 C 29.9874267578125 117.497917175293 37.41865539550781 134.7032470703125 50.92465209960938 147.7041320800781 C 64.74676513671875 161.0092468261719 83.22148895263672 168.3366851806641 102.9984283447266 168.3366851806641 C 143.3209228515625 168.3099670410156 176.1470336914062 137.2411956787109 176.1733703613281 99.07924652099609 C 176.1859893798828 80.83885955810547 168.7547607421875 63.63352966308594 155.2487640380859 50.63262939453125 C 141.4266510009766 37.32746887207031 122.9519271850586 30.00003051757812 103.2278213500977 30.00003051757812 L 103.1750411987305 30.00003051757812 M 103.2278137207031 0 C 160.1322021484375 0 206.2111358642578 44.35086059570312 206.1733703613281 99.09996795654297 C 206.1355895996094 153.869140625 159.9514770507812 198.2989196777344 103.0183181762695 198.3366851806641 C 102.9974670410156 198.3367004394531 102.9665069580078 198.3367156982422 102.9456634521484 198.3367156982422 C 46.04121398925781 198.3367156982422 -0.0377197265625 153.9859161376953 4.57763671875e-05 99.23680114746094 C 0.0378265380859375 44.46763610839844 46.221923828125 0.0377960205078125 103.1551513671875 3.0517578125e-05 C 103.1760025024414 1.52587890625e-05 103.2069625854492 0 103.2278137207031 0 Z"/></g><g class="a" transform="translate(4.07 0.017) rotate(1)"><path class="b" d="M117.4,0C182.214-.017,234.746,51.739,234.73,115.6s-52.576,115.643-117.4,115.66S-.017,179.52,0,115.66,52.576.017,117.4,0Z"/><path class="d" d="M 117.402946472168 29.99998474121094 C 69.22119140625 30.012451171875 30.01242065429688 68.44279479980469 30.00001525878906 115.6675643920898 C 29.99406433105469 138.4498596191406 39.01448059082031 159.88916015625 55.399658203125 176.0360412597656 C 71.90489196777344 192.30126953125 93.88935852050781 201.2589111328125 117.3268356323242 201.2589111328125 C 165.508544921875 201.2464447021484 204.7173614501953 162.8161010742188 204.7297668457031 115.5913314819336 C 204.7357177734375 92.80903625488281 195.7153015136719 71.36973571777344 179.3301239013672 55.22285461425781 C 162.8248901367188 38.95762634277344 140.8404235839844 29.99998474121094 117.4265365600586 29.99998474121094 L 117.402946472168 29.99998474121094 M 117.4265594482422 -3.0517578125e-05 C 182.2344665527344 -3.0517578125e-05 234.7464752197266 51.74653625488281 234.7297668457031 115.5991516113281 C 234.7129516601562 179.4595031738281 182.1534118652344 231.2421569824219 117.3345947265625 231.2589111328125 C 117.3266830444336 231.2589263916016 117.3111343383789 231.2589263916016 117.30322265625 231.2589263916016 C 52.49531555175781 231.2589263916016 -0.016693115234375 179.5122985839844 1.52587890625e-05 115.6597442626953 C 0.0167694091796875 51.79939270019531 52.57635498046875 0.0167388916015625 117.3951873779297 -1.52587890625e-05 C 117.4030990600586 -3.0517578125e-05 117.4186477661133 -3.0517578125e-05 117.4265594482422 -3.0517578125e-05 Z"/></g></g></svg>