<svg id="Layer_1" data-name="Layer 1" xmlns="http://www.w3.org/2000/svg" xmlns:xlink="http://www.w3.org/1999/xlink" viewBox="0 0 204 40"><defs><style>.cls-1,.cls-2{fill:#fff;}.cls-2{fill-rule:evenodd;}.cls-3{fill:url(#linear-gradient);}</style><linearGradient id="linear-gradient" x1="2.02" y1="11.68" x2="18.08" y2="11.68" gradientUnits="userSpaceOnUse"><stop offset="0" stop-color="#9f1f24"/><stop offset="0.66" stop-color="#ef6934"/><stop offset="1" stop-color="#f79934"/></linearGradient></defs><title>Artboard 3 copy</title><path class="cls-1" d="M51,18.13l-2.37-1A7.81,7.81,0,0,1,46.71,16a1.66,1.66,0,0,1-.55-1.31,1.74,1.74,0,0,1,.74-1.5,3.17,3.17,0,0,1,1.84-.52,4.68,4.68,0,0,1,4,2.4l2.9-2.24A7.43,7.43,0,0,0,52.88,10,7.69,7.69,0,0,0,48.74,8.9a7.48,7.48,0,0,0-4.94,1.63,5.25,5.25,0,0,0-2,4.26,4.94,4.94,0,0,0,1.31,3.47,11.67,11.67,0,0,0,3.73,2.52l2.24,1c.67.31,1.16.55,1.46.72a2.6,2.6,0,0,1,.82.74,1.85,1.85,0,0,1,.36,1.12A2,2,0,0,1,51,26.05a3.47,3.47,0,0,1-2.18.62q-2.92,0-5.1-3l-2.93,2.2a9.05,9.05,0,0,0,8,4.6A7.91,7.91,0,0,0,54,28.75a5.6,5.6,0,0,0,2-4.54,5.06,5.06,0,0,0-1.26-3.51A11.54,11.54,0,0,0,51,18.13Z"/><path class="cls-1" d="M67.42,14.13a5.79,5.79,0,0,0-5,2.3V14.48H58.5V35.74h4.26V28.56a6,6,0,0,0,4.66,1.89,7,7,0,0,0,5.43-2.33A8.37,8.37,0,0,0,75,22.26a8.26,8.26,0,0,0-2.13-5.83A7.09,7.09,0,0,0,67.42,14.13ZM69.5,25.39a4.07,4.07,0,0,1-5.66.07,4.29,4.29,0,0,1-1.15-3.2,4.16,4.16,0,0,1,1.17-3.2A3.94,3.94,0,0,1,66.63,18a3.82,3.82,0,0,1,2.88,1.18,4.27,4.27,0,0,1,1.15,3.13A4.23,4.23,0,0,1,69.5,25.39Z"/><path class="cls-1" d="M84.74,14.13a8.22,8.22,0,0,0-5.92,2.35,7.71,7.71,0,0,0-2.43,5.78,7.8,7.8,0,0,0,2.41,5.81,8.14,8.14,0,0,0,5.91,2.35,8.26,8.26,0,0,0,6-2.37,7.7,7.7,0,0,0,2.46-5.79,7.66,7.66,0,0,0-2.46-5.78A8.29,8.29,0,0,0,84.74,14.13Zm2.88,11.18a3.8,3.8,0,0,1-2.88,1.2,3.85,3.85,0,0,1-2.9-1.18,4.23,4.23,0,0,1-1.13-3,4.34,4.34,0,0,1,1.13-3.07A3.8,3.8,0,0,1,84.74,18a3.76,3.76,0,0,1,2.88,1.23,4.25,4.25,0,0,1,1.15,3.05A4.15,4.15,0,0,1,87.62,25.31Z"/><path class="cls-1" d="M112.36,26.09a2.29,2.29,0,0,1-.69-1.88V18.07h4.41V14.48h-4.41V10.54h-4.25v3.84H105v0a4.6,4.6,0,0,0-1.38-.11,5.14,5.14,0,0,0-4.29,2.08V14.48h-3.9V30.07h4.25V22.29a3.91,3.91,0,0,1,1.13-3,4.51,4.51,0,0,1,3.06-1.18h3.59v6.52A5.55,5.55,0,0,0,109.06,29a6.63,6.63,0,0,0,4.59,1.47,12.15,12.15,0,0,0,2.93-.38V26.51c-1.09.09-1.76.13-2,.13A3.6,3.6,0,0,1,112.36,26.09Z"/><path class="cls-1" d="M125.37,20.72l-1.51-.63a4.75,4.75,0,0,1-1.28-.65.93.93,0,0,1-.36-.74c0-.73.56-1.1,1.67-1.1a5,5,0,0,1,3.5,1.48l2.14-2.62a7.18,7.18,0,0,0-5.61-2.36,6.52,6.52,0,0,0-4.14,1.25,4.13,4.13,0,0,0-1.59,3.44,3.85,3.85,0,0,0,1,2.81,9.78,9.78,0,0,0,3.2,1.95l1.67.69a6.9,6.9,0,0,1,1.24.65.88.88,0,0,1,.37.77,1,1,0,0,1-.57,1,2.79,2.79,0,0,1-1.42.33,6.07,6.07,0,0,1-4.38-2.11l-2.14,2.58a7.65,7.65,0,0,0,6.46,3A6.94,6.94,0,0,0,128,29.13a4.36,4.36,0,0,0,1.72-3.66,3.77,3.77,0,0,0-1.06-2.79A10.06,10.06,0,0,0,125.37,20.72Z"/><path class="cls-1" d="M139.51,8.9l-9.29,21.17h4.57L136,27.36h8.51l1.16,2.71h4.57L140.93,8.9Zm-2,15,2.74-7,2.74,7Z"/><path class="cls-1" d="M162.72,16a5.93,5.93,0,0,0-4.66-1.86,7.07,7.07,0,0,0-5.43,2.32,8.29,8.29,0,0,0-2.13,5.84,8.29,8.29,0,0,0,2.13,5.84,7,7,0,0,0,5.43,2.32,5.81,5.81,0,0,0,5-2.33v1.95H167V6.45h-4.26Zm-1.1,9.5a3.92,3.92,0,0,1-2.77,1.08A3.84,3.84,0,0,1,156,25.39a4.27,4.27,0,0,1-1.15-3.13,4.23,4.23,0,0,1,1.16-3.1,4,4,0,0,1,5.64-.07,4.22,4.22,0,0,1,1.17,3.2A4.16,4.16,0,0,1,161.62,25.49Z"/><path class="cls-1" d="M181.5,16a6,6,0,0,0-4.67-1.86,7.07,7.07,0,0,0-5.43,2.32,8.28,8.28,0,0,0-2.12,5.84,8.28,8.28,0,0,0,2.12,5.84,7,7,0,0,0,5.43,2.32,5.81,5.81,0,0,0,5-2.33v1.95h3.91V6.45H181.5Zm-1.11,9.5a3.92,3.92,0,0,1-2.77,1.08,3.85,3.85,0,0,1-2.88-1.18,4.27,4.27,0,0,1-1.15-3.13,4.2,4.2,0,0,1,1.17-3.1,4,4,0,0,1,5.63-.07,4.22,4.22,0,0,1,1.17,3.2A4.16,4.16,0,0,1,180.39,25.49Z"/><path class="cls-1" d="M200.19,15.85a6.81,6.81,0,0,0-4.87-1.72,8.51,8.51,0,0,0-6.8,3.22l2.2,2.61a5.82,5.82,0,0,1,4.13-2.14,3,3,0,0,1,2.16.72,2.73,2.73,0,0,1,.74,2v.69h-3.91a7,7,0,0,0-4.3,1.21A4,4,0,0,0,188,25.79a4.33,4.33,0,0,0,1.45,3.35,5.68,5.68,0,0,0,3.94,1.31,6.24,6.24,0,0,0,4.75-1.89v1.51H202V20.81A6.5,6.5,0,0,0,200.19,15.85Zm-2.44,8.39a2.86,2.86,0,0,1-.95,2.22,3.3,3.3,0,0,1-2.33.87,2.62,2.62,0,0,1-1.62-.46,1.46,1.46,0,0,1-.61-1.24c0-1.05.72-1.58,2.17-1.58h3.34Z"/><path class="cls-2" d="M19,3.48a16.49,16.49,0,0,0-5.47.93,8,8,0,0,1,3.24,2.78A12.67,12.67,0,0,1,19,7a13,13,0,1,1-13,13A12.66,12.66,0,0,1,6,18.61a8,8,0,0,1-3-3.06A16.53,16.53,0,1,0,19,3.48Z"/><circle class="cls-3" cx="10.05" cy="11.68" r="8.03"/><path class="cls-1" d="M6.55,18a14.63,14.63,0,0,0,2.75-.64,7.86,7.86,0,0,0,3,.79,8.2,8.2,0,0,0,.08,1.21l.36-.1a11.76,11.76,0,0,1-.06-1.2,9.7,9.7,0,0,0,2.14-2.56l2.3-.74a2.56,2.56,0,0,1,.11.49A7.94,7.94,0,0,0,18,10.9c-.51-.83-1.1-1.57-1.67-2.36a5.6,5.6,0,0,0-.71-2.6,7,7,0,0,0-.69-.6,8.18,8.18,0,0,0-2.87-.67,6.84,6.84,0,0,0-1.35-1,8,8,0,0,0-1,0,6.65,6.65,0,0,1,2,1.24A15.77,15.77,0,0,0,11,7a9.29,9.29,0,0,0-3.22.91A18.9,18.9,0,0,0,5.62,6.72a3.35,3.35,0,0,1,.83-1.95A13.89,13.89,0,0,1,9.18,3.7l-.43,0a7.83,7.83,0,0,0-2.93,1.1A5.39,5.39,0,0,0,5.24,6.7,8.41,8.41,0,0,0,2.81,9.24l-.43,0c0,.13-.08.28-.11.41l.49,0a6.36,6.36,0,0,0,1.06,2.71,21.13,21.13,0,0,0-.23,3,3.61,3.61,0,0,1-.65.08A8.1,8.1,0,0,0,6.69,19,5.4,5.4,0,0,1,6.55,18ZM16.1,8.84a25.53,25.53,0,0,1,1.73,2.41,7.09,7.09,0,0,1-.74,3.13l-2.33.74c-.5-.76-1.1-1.54-1.65-2.28.3-1,.55-2.1.76-3.18C14.61,9.36,15.36,9.07,16.1,8.84Zm-8.17-.6a9.33,9.33,0,0,1,3.15-.89,7.26,7.26,0,0,1,2.41,2.2,26.28,26.28,0,0,1-.76,3.18c-1,.36-2,.7-3.09,1-.78-.74-1.59-1.5-2.37-2.26A27.11,27.11,0,0,1,7.93,8.24ZM4,15.42a19,19,0,0,1,.23-3C5.13,12.2,6.09,12,7,11.71c.78.77,1.58,1.53,2.37,2.27A12.46,12.46,0,0,0,9.13,17a18.22,18.22,0,0,1-2.68.61A14.21,14.21,0,0,1,4,15.42Z"/></svg>