<svg id="Layer_1" data-name="Layer 1" xmlns="http://www.w3.org/2000/svg" xmlns:xlink="http://www.w3.org/1999/xlink" viewBox="0 0 204 40"><defs><style>.cls-1,.cls-2{fill:#fff;}.cls-2{fill-rule:evenodd;}.cls-3{fill:url(#linear-gradient);}</style><linearGradient id="linear-gradient" x1="2.02" y1="11.67" x2="18.09" y2="11.67" gradientUnits="userSpaceOnUse"><stop offset="0" stop-color="#9f1f24"/><stop offset="0.66" stop-color="#ef6934"/><stop offset="1" stop-color="#f79934"/></linearGradient></defs><title>Artboard 2 copy</title><path class="cls-1" d="M51,18.13l-2.37-1A7.81,7.81,0,0,1,46.71,16a1.66,1.66,0,0,1-.55-1.31,1.74,1.74,0,0,1,.74-1.5,3.17,3.17,0,0,1,1.84-.52,4.68,4.68,0,0,1,4,2.4l2.9-2.24A7.43,7.43,0,0,0,52.88,10,7.69,7.69,0,0,0,48.74,8.9a7.48,7.48,0,0,0-4.94,1.63,5.25,5.25,0,0,0-2,4.26,4.94,4.94,0,0,0,1.31,3.47,11.67,11.67,0,0,0,3.73,2.52l2.24,1c.67.31,1.16.55,1.46.72a2.6,2.6,0,0,1,.82.74,1.85,1.85,0,0,1,.36,1.12A2,2,0,0,1,51,26.05a3.47,3.47,0,0,1-2.18.62q-2.92,0-5.1-3l-2.93,2.2a9.05,9.05,0,0,0,8,4.6A7.91,7.91,0,0,0,54,28.75a5.6,5.6,0,0,0,2-4.54,5.06,5.06,0,0,0-1.26-3.51A11.54,11.54,0,0,0,51,18.13Z"/><path class="cls-1" d="M67.42,14.13a5.79,5.79,0,0,0-5,2.3V14.48H58.5V35.74h4.26V28.56a6,6,0,0,0,4.66,1.89,7,7,0,0,0,5.43-2.33A8.37,8.37,0,0,0,75,22.26a8.26,8.26,0,0,0-2.13-5.83A7.09,7.09,0,0,0,67.42,14.13ZM69.5,25.39a4.07,4.07,0,0,1-5.66.07,4.29,4.29,0,0,1-1.15-3.2,4.16,4.16,0,0,1,1.17-3.2A3.94,3.94,0,0,1,66.63,18a3.82,3.82,0,0,1,2.88,1.18,4.27,4.27,0,0,1,1.15,3.13A4.23,4.23,0,0,1,69.5,25.39Z"/><path class="cls-1" d="M84.74,14.13a8.22,8.22,0,0,0-5.92,2.35,7.71,7.71,0,0,0-2.43,5.78,7.8,7.8,0,0,0,2.41,5.81,8.63,8.63,0,0,0,11.86,0,7.7,7.7,0,0,0,2.46-5.79,7.66,7.66,0,0,0-2.46-5.78A8.29,8.29,0,0,0,84.74,14.13Zm2.88,11.18a3.8,3.8,0,0,1-2.88,1.2,3.85,3.85,0,0,1-2.9-1.18,4.23,4.23,0,0,1-1.13-3,4.34,4.34,0,0,1,1.13-3.07A3.8,3.8,0,0,1,84.74,18a3.76,3.76,0,0,1,2.88,1.23,4.25,4.25,0,0,1,1.15,3.05A4.15,4.15,0,0,1,87.62,25.31Z"/><path class="cls-1" d="M112.36,26.09a2.29,2.29,0,0,1-.69-1.88V18.07h4.41V14.48h-4.41V10.54h-4.25v3.84H105v0a4.6,4.6,0,0,0-1.38-.11,5.14,5.14,0,0,0-4.29,2.08V14.48h-3.9V30.07h4.25V22.29a3.91,3.91,0,0,1,1.13-3,4.51,4.51,0,0,1,3.06-1.18h3.59v6.52A5.55,5.55,0,0,0,109.06,29a6.63,6.63,0,0,0,4.59,1.47,12.15,12.15,0,0,0,2.93-.38V26.51c-1.09.09-1.76.13-2,.13A3.6,3.6,0,0,1,112.36,26.09Z"/><path class="cls-1" d="M125.37,20.72l-1.51-.63a4.75,4.75,0,0,1-1.28-.65.93.93,0,0,1-.36-.74c0-.73.56-1.1,1.67-1.1a5,5,0,0,1,3.5,1.48l2.14-2.62a7.18,7.18,0,0,0-5.61-2.36,6.52,6.52,0,0,0-4.14,1.25,4.13,4.13,0,0,0-1.59,3.44,3.85,3.85,0,0,0,1,2.81,9.78,9.78,0,0,0,3.2,1.95l1.67.69a6.9,6.9,0,0,1,1.24.65.88.88,0,0,1,.37.77,1,1,0,0,1-.57,1,2.79,2.79,0,0,1-1.42.33,6.07,6.07,0,0,1-4.38-2.11l-2.14,2.58a7.65,7.65,0,0,0,6.46,3A6.94,6.94,0,0,0,128,29.13a4.36,4.36,0,0,0,1.72-3.66,3.77,3.77,0,0,0-1.06-2.79A10.06,10.06,0,0,0,125.37,20.72Z"/><path class="cls-1" d="M139.51,8.9l-9.29,21.17h4.57L136,27.36h8.51l1.16,2.71h4.57L140.93,8.9Zm-2,15,2.74-7,2.74,7Z"/><path class="cls-1" d="M162.72,16a5.93,5.93,0,0,0-4.66-1.86,7.07,7.07,0,0,0-5.43,2.32,8.29,8.29,0,0,0-2.13,5.84,8.29,8.29,0,0,0,2.13,5.84,7,7,0,0,0,5.43,2.32,5.81,5.81,0,0,0,5-2.33v1.95H167V6.45h-4.26Zm-1.1,9.5a3.92,3.92,0,0,1-2.77,1.08A3.84,3.84,0,0,1,156,25.39a4.27,4.27,0,0,1-1.15-3.13,4.23,4.23,0,0,1,1.16-3.1,4,4,0,0,1,5.64-.07,4.22,4.22,0,0,1,1.17,3.2A4.16,4.16,0,0,1,161.62,25.49Z"/><path class="cls-1" d="M181.5,16a6,6,0,0,0-4.67-1.86,7.07,7.07,0,0,0-5.43,2.32,8.28,8.28,0,0,0-2.12,5.84,8.28,8.28,0,0,0,2.12,5.84,7,7,0,0,0,5.43,2.32,5.81,5.81,0,0,0,5-2.33v1.95h3.91V6.45H181.5Zm-1.11,9.5a3.92,3.92,0,0,1-2.77,1.08,3.85,3.85,0,0,1-2.88-1.18,4.27,4.27,0,0,1-1.15-3.13,4.2,4.2,0,0,1,1.17-3.1,4,4,0,0,1,5.63-.07,4.22,4.22,0,0,1,1.17,3.2A4.16,4.16,0,0,1,180.39,25.49Z"/><path class="cls-1" d="M200.19,15.85a6.81,6.81,0,0,0-4.87-1.72,8.51,8.51,0,0,0-6.8,3.22l2.2,2.61a5.82,5.82,0,0,1,4.13-2.14,3,3,0,0,1,2.16.72,2.73,2.73,0,0,1,.74,2v.69h-3.91a7,7,0,0,0-4.3,1.21A4,4,0,0,0,188,25.79a4.33,4.33,0,0,0,1.45,3.35,5.68,5.68,0,0,0,3.94,1.31,6.24,6.24,0,0,0,4.75-1.89v1.51H202V20.81A6.5,6.5,0,0,0,200.19,15.85Zm-2.44,8.39a2.86,2.86,0,0,1-.95,2.22,3.3,3.3,0,0,1-2.33.87,2.62,2.62,0,0,1-1.62-.46,1.46,1.46,0,0,1-.61-1.24c0-1.05.72-1.58,2.17-1.58h3.34Z"/><path class="cls-2" d="M35.48,20a16.53,16.53,0,0,0-2.14-8.12h0c-.2-.35-.41-.69-.63-1l-.24-.34q-.3-.42-.63-.84l-.27-.33c-.3-.35-.61-.7-.94-1s-.8-.75-1.22-1.1l-.58-.43c-.24-.18-.47-.36-.72-.53s-.48-.29-.72-.43-.43-.28-.66-.4L26,5.06c-.24-.11-.48-.23-.72-.33s-.49-.19-.74-.27-.52-.2-.79-.28L23,4c-.28-.07-.55-.15-.83-.2s-.57-.09-.86-.13-.49-.09-.74-.11c-.54,0-1.08-.08-1.63-.08s-1,0-1.51.07c-.16,0-.31,0-.47.06-.34,0-.68.08-1,.15s-.4.08-.6.13-.56.12-.84.2l-.66.2-.38.12h0c-.43.15-.86.33-1.28.51l2.57,2.77a13.31,13.31,0,0,1,2.46-.58L17.77,7c.39,0,.78,0,1.17,0s.86,0,1.29.06l.57.08c.23,0,.46.06.69.11s.43.1.64.16a5.66,5.66,0,0,1,.59.15c.21.06.42.14.62.21l.58.22c.2.08.38.17.57.26l.59.28.52.31c.19.12.39.22.57.35l.56.41.46.34q.49.4,1,.87c.32.32.61.65.89,1a13,13,0,0,1,.22,16.12c-.11.14-.21.29-.32.42-.26.31-.52.6-.8.88a12.71,12.71,0,0,1-.95.86l-.46.35c-.19.13-.37.28-.56.4s-.38.24-.57.35l-.52.31-.59.28-.57.27-.58.21-.62.22-.59.15-.64.15c-.23.05-.46.08-.69.11l-.57.08c-.43,0-.85.07-1.29.07s-.86,0-1.28-.07l-.57-.08c-.23,0-.46-.06-.69-.11s-.43-.1-.64-.15l-.6-.15-.61-.22L14,32c-.19-.08-.37-.18-.56-.27l-.59-.28-.52-.31a5.43,5.43,0,0,1-.57-.35c-.19-.12-.37-.27-.56-.4l-.47-.35a12.59,12.59,0,0,1-.94-.86h0a12.56,12.56,0,0,1-.85-.95c-.13-.15-.23-.31-.35-.46s-.28-.37-.41-.56l-.35-.57c-.1-.18-.21-.35-.3-.52s-.2-.4-.29-.6S7,25.17,6.92,25s-.14-.39-.22-.58-.15-.41-.21-.62-.1-.39-.15-.59-.12-.43-.16-.65-.07-.45-.1-.68S6,21.48,6,21.28c0-.42-.06-.85-.06-1.28A11.73,11.73,0,0,1,6,18.67,13.41,13.41,0,0,1,6.29,17L4.75,15.26l-1.28-1A13.11,13.11,0,0,0,3,15.56H3c-.11.39-.2.78-.28,1.17,0,.14-.05.27-.07.41-.06.34-.11.69-.15,1,0,.14,0,.28,0,.42,0,.47-.07.94-.07,1.41s0,1.09.08,1.63c0,.25.07.49.11.73s.07.58.13.87.13.55.2.82.12.5.19.75.18.53.28.79.17.49.27.74.22.48.33.71.23.51.36.75.26.45.4.67.28.49.43.72.35.48.53.71.28.4.44.59c.34.42.7.81,1.07,1.19l0,0,0,0c.38.38.78.74,1.19,1.08.2.16.4.29.6.44s.46.36.7.52.49.3.73.44.43.27.66.39.5.25.75.36l.72.34c.24.1.49.18.74.27s.52.19.78.27.5.13.75.19.55.15.82.2.59.1.88.14.48.08.72.1a16.14,16.14,0,0,0,3.26,0c.25,0,.49-.07.73-.1s.58-.08.87-.14.55-.13.82-.2.5-.11.75-.19.53-.18.79-.27.5-.17.74-.27l.72-.34c.25-.12.5-.23.75-.36s.44-.26.66-.39.49-.28.72-.44.48-.34.71-.52.4-.28.59-.44c.42-.35.82-.71,1.2-1.09h0c.36-.36.7-.73,1-1.12l.3-.38c.2-.27.41-.53.6-.81s.22-.34.33-.52.31-.48.45-.73.22-.41.33-.61l.19-.36h0A16.56,16.56,0,0,0,35.48,20Z"/><circle class="cls-3" cx="10.05" cy="11.67" r="8.03"/><path class="cls-1" d="M3.43,7.13l-.24.38.38.37A.19.19,0,0,0,3.72,8a.2.2,0,0,0,.16-.07.22.22,0,0,0,0-.3Z"/><path class="cls-1" d="M8.12,11.82a.22.22,0,0,0-.3,0,.21.21,0,0,0,0,.31l1.41,1.41a.2.2,0,0,0,.16.07.19.19,0,0,0,.15-.07.22.22,0,0,0,0-.3Z"/><path class="cls-1" d="M13.78,17.48a.22.22,0,0,0-.3,0,.21.21,0,0,0,0,.31l.74.74.2-.12.17-.12Z"/><path class="cls-1" d="M5.29,9A.22.22,0,0,0,5,9,.21.21,0,0,0,5,9.3L6.4,10.71a.19.19,0,0,0,.15.07.2.2,0,0,0,.16-.07.22.22,0,0,0,0-.3Z"/><path class="cls-1" d="M11,14.65a.22.22,0,0,0-.3,0,.21.21,0,0,0,0,.31l1.41,1.42a.23.23,0,0,0,.16.06.22.22,0,0,0,.15-.06.23.23,0,0,0,0-.31Z"/><path class="cls-1" d="M6,4.72H6l-.35.21,0,0,.54.55a.23.23,0,0,0,.16.06.22.22,0,0,0,.15-.06.23.23,0,0,0,0-.31Z"/><path class="cls-1" d="M13.59,12.26a.23.23,0,0,0-.31,0,.21.21,0,0,0,0,.31L14.69,14a.25.25,0,0,0,.16.06A.22.22,0,0,0,15,14a.21.21,0,0,0,0-.31Z"/><path class="cls-1" d="M7.92,6.6a.22.22,0,0,0-.3,0,.21.21,0,0,0,0,.31L9,8.33a.23.23,0,0,0,.16.06.22.22,0,0,0,.15-.06.21.21,0,0,0,0-.31Z"/><path class="cls-1" d="M16.42,15.1a.21.21,0,0,0-.31,0,.2.2,0,0,0,0,.3l.66.67c.08-.13.16-.26.23-.39Z"/><path class="cls-1" d="M10.76,9.43a.23.23,0,0,0-.31,0,.21.21,0,0,0,0,.31l1.41,1.42a.25.25,0,0,0,.16.06.22.22,0,0,0,.15-.06.21.21,0,0,0,0-.31Z"/><path class="cls-1" d="M4.59,5.79,4.4,6,4.34,6l-.06.08L15.63,17.45l.07-.07.06-.06.17-.18Z"/></svg>