<svg xmlns="http://www.w3.org/2000/svg" width="166.25" height="28.922" viewBox="0 0 166.25 28.922"><defs><style>.a,.c{fill:#fff;}.a{fill-rule:evenodd;}.b{fill:#0cd664;}.d{fill:#2add4d;}</style></defs><path class="a" d="M14.461,28.065A14.033,14.033,0,1,0,.428,14.033,14.033,14.033,0,0,0,14.461,28.065Zm0-2.875A11.157,11.157,0,1,0,3.3,14.033,11.158,11.158,0,0,0,14.461,25.19Z"/><path class="b" d="M6.784,13.569A6.784,6.784,0,1,0,0,6.785,6.784,6.784,0,0,0,6.784,13.569Z"/><path class="c" d="M38.849,10.355a1.957,1.957,0,0,0,1.035,1.678,10.8,10.8,0,0,0,3.285,1.107,9.314,9.314,0,0,1,4.392,1.928A4.577,4.577,0,0,1,48.989,18.6a4.92,4.92,0,0,1-1.821,3.856,7.019,7.019,0,0,1-4.82,1.607,7.753,7.753,0,0,1-5.07-1.571,7.109,7.109,0,0,1-2.428-4.142l2.964-1.5c.536,2.821,2.035,4.249,4.5,4.249a3.738,3.738,0,0,0,2.392-.678,2.043,2.043,0,0,0,.893-1.75,2.017,2.017,0,0,0-1.071-1.821,10.415,10.415,0,0,0-3.356-1.107A8.619,8.619,0,0,1,37.1,13.89a4.486,4.486,0,0,1-1.5-3.5,4.27,4.27,0,0,1,1.75-3.571A7.2,7.2,0,0,1,41.884,5.5a6.617,6.617,0,0,1,6.784,4.57L46.026,11.6a4.155,4.155,0,0,0-4.213-3.178,4.325,4.325,0,0,0-2.142.464A1.661,1.661,0,0,0,38.849,10.355ZM50.382,28.922V11.069H53.6V12.89a4.9,4.9,0,0,1,1.821-1.571,5.643,5.643,0,0,1,2.535-.607,5.392,5.392,0,0,1,4.142,1.821,6.918,6.918,0,0,1,1.678,4.856,6.616,6.616,0,0,1-1.75,4.82,5.677,5.677,0,0,1-4.32,1.857A5,5,0,0,1,53.6,22.138v6.784Zm9.141-14.14a3.372,3.372,0,0,0-2.535-1.071,3.318,3.318,0,0,0-2.535,1.071,3.8,3.8,0,0,0,0,5.213,3.372,3.372,0,0,0,2.535,1.071A3.318,3.318,0,0,0,59.523,20a3.64,3.64,0,0,0,1.035-2.607A3.8,3.8,0,0,0,59.523,14.783ZM76.341,12.5a6.067,6.067,0,0,1,2.071,4.892,6.154,6.154,0,0,1-2.035,4.892,7.5,7.5,0,0,1-9.712,0,6.154,6.154,0,0,1-2.035-4.892A6.154,6.154,0,0,1,66.664,12.5a7.219,7.219,0,0,1,4.856-1.785A7.128,7.128,0,0,1,76.341,12.5Zm-7.391,7.57a3.805,3.805,0,0,0,5.142,0,3.524,3.524,0,0,0,1.071-2.678,3.523,3.523,0,0,0-1.071-2.678,3.805,3.805,0,0,0-5.142,0,3.523,3.523,0,0,0-1.071,2.678A3.523,3.523,0,0,0,68.949,20.067Zm18.817-9.177v2.964a4.407,4.407,0,0,0-1.535-.107,2.63,2.63,0,0,0-2.214,1.071A4.346,4.346,0,0,0,83.2,17.5v6.249H79.983V11.069H83.2v2a3.774,3.774,0,0,1,3.535-2.357A3.713,3.713,0,0,1,87.767,10.891Zm1.571.179V7.641h3.214v3.428H95.3v2.607H92.551v5.749c0,1.178.536,1.785,1.607,1.785a3.687,3.687,0,0,0,1.071-.143l.321,2.642a5.867,5.867,0,0,1-2.142.357c-2.714,0-4.035-1.357-4.035-4.035V13.676Zm10.355,3.106c0,.786,1,1.392,3,1.785a7.114,7.114,0,0,1,3.214,1.393,3.206,3.206,0,0,1,1,2.5,3.963,3.963,0,0,1-1.357,3.035,5.321,5.321,0,0,1-3.642,1.178A5.954,5.954,0,0,1,98.265,23a6.386,6.386,0,0,1-2.142-2.714l2.571-1.642a4.911,4.911,0,0,0,1.25,2,2.837,2.837,0,0,0,2,.75,2.532,2.532,0,0,0,1.393-.357A1.2,1.2,0,0,0,103.942,20a1.064,1.064,0,0,0-.643-.964,6.746,6.746,0,0,0-2.071-.643q-4.392-.857-4.392-3.964a3.078,3.078,0,0,1,1.393-2.678,5.723,5.723,0,0,1,3.356-.964,5.947,5.947,0,0,1,3.214.75,5.776,5.776,0,0,1,2,2.428l-2.321,1.393a2.989,2.989,0,0,0-2.857-2.214C100.336,13.069,99.693,13.426,99.693,14.175Zm8.355,9.534V5.856h3.214V12.6a4.971,4.971,0,0,1,4.142-1.928,5.76,5.76,0,0,1,4.32,1.785,6.807,6.807,0,0,1,1.714,4.892,6.591,6.591,0,0,1-1.749,4.856,5.774,5.774,0,0,1-4.321,1.821,4.77,4.77,0,0,1-4.106-1.928v1.571h-3.214Zm4.035-3.642a3.709,3.709,0,0,0,5.142,0,3.583,3.583,0,0,0,1-2.642,3.583,3.583,0,0,0-1-2.642,3.709,3.709,0,0,0-5.142,0,3.583,3.583,0,0,0-1,2.642A3.7,3.7,0,0,0,112.083,20.067Zm23-1.892H125.33a3.5,3.5,0,0,0,1.107,2.321,3.421,3.421,0,0,0,2.357.857,3.748,3.748,0,0,0,3.5-2.321l2.392,1.392a6.129,6.129,0,0,1-5.927,3.713,6.36,6.36,0,0,1-4.606-1.857,6.537,6.537,0,0,1-1.893-4.82,6.472,6.472,0,0,1,6.642-6.677,5.947,5.947,0,0,1,4.428,1.785,6.311,6.311,0,0,1,1.749,4.535Zm-6.248-5a3.363,3.363,0,0,0-2.179.75,4.084,4.084,0,0,0-1.285,1.892h6.784a3.185,3.185,0,0,0-1.107-1.964A3.411,3.411,0,0,0,128.83,13.176Zm7.284-2.107V7.641h3.213v3.428h2.75v2.607h-2.75v5.749c0,1.178.536,1.785,1.607,1.785a3.685,3.685,0,0,0,1.071-.143l.322,2.642a5.869,5.869,0,0,1-2.143.357c-2.713,0-4.035-1.357-4.035-4.035V13.676Zm8.891,12.64A1.714,1.714,0,1,0,143.291,22,1.715,1.715,0,0,0,145.005,23.709Zm3.142,0V11.069h3.213v12.64ZM164.179,12.5a6.066,6.066,0,0,1,2.071,4.892,6.153,6.153,0,0,1-2.035,4.892,7.5,7.5,0,0,1-9.712,0,6.154,6.154,0,0,1-2.036-4.892A6.154,6.154,0,0,1,154.5,12.5a7.448,7.448,0,0,1,9.676,0Zm-7.427,7.57a3.806,3.806,0,0,0,5.142,0,3.524,3.524,0,0,0,1.071-2.678,3.524,3.524,0,0,0-1.071-2.678,3.806,3.806,0,0,0-5.142,0,3.524,3.524,0,0,0-1.071,2.678A3.524,3.524,0,0,0,156.752,20.067Z"/><path class="d" d="M147.965,7.57a1.716,1.716,0,1,0,1.716-1.716A1.694,1.694,0,0,0,147.965,7.57Z"/></svg>