<svg id="Layer_1" data-name="Layer 1" xmlns="http://www.w3.org/2000/svg" xmlns:xlink="http://www.w3.org/1999/xlink" viewBox="0 0 204 40"><defs><style>.cls-1,.cls-3{fill:#fff;}.cls-1{fill-rule:evenodd;}.cls-2{fill:url(#linear-gradient);}</style><linearGradient id="linear-gradient" x1="2.02" y1="11.65" x2="18.12" y2="11.65" gradientUnits="userSpaceOnUse"><stop offset="0" stop-color="#9f1f24"/><stop offset="0.66" stop-color="#ef6934"/><stop offset="1" stop-color="#f79934"/></linearGradient></defs><title>Artboard 1 copy</title><path class="cls-1" d="M19,3.44A16.56,16.56,0,1,0,35.54,20,16.56,16.56,0,0,0,19,3.44ZM19,33A13,13,0,1,1,32,20,13,13,0,0,1,19,33Z"/><circle class="cls-2" cx="10.07" cy="11.65" r="8.05"/><path class="cls-3" d="M49.84,18.24l-2.38-1a7.75,7.75,0,0,1-1.89-1.1A1.64,1.64,0,0,1,45,14.78a1.74,1.74,0,0,1,.74-1.51,3.16,3.16,0,0,1,1.86-.52,4.72,4.72,0,0,1,4,2.41l2.92-2.25A7.56,7.56,0,0,0,51.79,10a7.8,7.8,0,0,0-4.17-1.08,7.52,7.52,0,0,0-5,1.63,5.33,5.33,0,0,0-2,4.3A4.94,4.94,0,0,0,42,18.36a11.59,11.59,0,0,0,3.76,2.54l2.25,1c.68.31,1.17.56,1.48.73a2.58,2.58,0,0,1,.82.74,1.89,1.89,0,0,1,.37,1.13,2.05,2.05,0,0,1-.8,1.7,3.5,3.5,0,0,1-2.19.61c-2,0-3.68-1-5.14-3L39.59,26a9.09,9.09,0,0,0,8.09,4.63A8,8,0,0,0,53,28.93,5.66,5.66,0,0,0,55,24.36a5.08,5.08,0,0,0-1.27-3.54A11.36,11.36,0,0,0,49.84,18.24Z"/><path class="cls-3" d="M66.43,14.21a5.83,5.83,0,0,0-5,2.31v-2H57.45V36h4.29V28.74a6,6,0,0,0,4.69,1.9,7.08,7.08,0,0,0,5.48-2.35,8.44,8.44,0,0,0,2.14-5.9,8.35,8.35,0,0,0-2.14-5.87A7.15,7.15,0,0,0,66.43,14.21Zm2.1,11.34a3.93,3.93,0,0,1-2.89,1.19,3.89,3.89,0,0,1-2.81-1.13,4.29,4.29,0,0,1-1.16-3.22,4.21,4.21,0,0,1,1.18-3.22,3.94,3.94,0,0,1,2.79-1.09,3.85,3.85,0,0,1,2.9,1.19,4.28,4.28,0,0,1,1.16,3.15A4.27,4.27,0,0,1,68.53,25.55Z"/><path class="cls-3" d="M83.88,14.21a8.24,8.24,0,0,0-6,2.36,7.79,7.79,0,0,0-2.44,5.82,7.85,7.85,0,0,0,2.42,5.86,8.22,8.22,0,0,0,5.95,2.36,8.32,8.32,0,0,0,6-2.38,7.78,7.78,0,0,0,2.47-5.84,7.74,7.74,0,0,0-2.47-5.82A8.31,8.31,0,0,0,83.88,14.21Zm2.91,11.26a4.14,4.14,0,0,1-5.83,0,4.27,4.27,0,0,1-1.14-3.07A4.37,4.37,0,0,1,81,19.33a3.86,3.86,0,0,1,2.92-1.22,3.81,3.81,0,0,1,2.91,1.24,4.32,4.32,0,0,1,1.15,3.07A4.22,4.22,0,0,1,86.79,25.47Z"/><path class="cls-3" d="M111.71,26.25a2.27,2.27,0,0,1-.7-1.89V18.17h4.44V14.56H111v-4h-4.28v3.87h-2.48v0a4.67,4.67,0,0,0-1.39-.11,5.17,5.17,0,0,0-4.32,2.09v-1.9H94.61v15.7h4.28V22.42A3.93,3.93,0,0,1,100,19.36a4.54,4.54,0,0,1,3.08-1.19h3.62v6.57a5.68,5.68,0,0,0,1.64,4.43A6.75,6.75,0,0,0,113,30.64a12.38,12.38,0,0,0,2.95-.38V26.68c-1.1.08-1.78.12-2,.12A3.55,3.55,0,0,1,111.71,26.25Z"/><path class="cls-3" d="M124.81,20.84l-1.52-.64a4.69,4.69,0,0,1-1.29-.65.93.93,0,0,1-.36-.74q0-1.11,1.68-1.11a5,5,0,0,1,3.52,1.49L129,16.55a7.22,7.22,0,0,0-5.65-2.37,6.55,6.55,0,0,0-4.17,1.25,4.14,4.14,0,0,0-1.6,3.47,3.85,3.85,0,0,0,1.06,2.83,9.63,9.63,0,0,0,3.22,2l1.68.7a7.08,7.08,0,0,1,1.25.65.9.9,0,0,1,.37.78,1.07,1.07,0,0,1-.57,1,2.83,2.83,0,0,1-1.43.33A6.09,6.09,0,0,1,118.75,25l-2.16,2.61a7.7,7.7,0,0,0,6.51,3,7,7,0,0,0,4.39-1.33,4.4,4.4,0,0,0,1.73-3.68,3.84,3.84,0,0,0-1.06-2.81A10.07,10.07,0,0,0,124.81,20.84Z"/><path class="cls-3" d="M139.05,8.94l-9.36,21.32h4.61l1.17-2.73H144l1.17,2.73h4.6L140.48,8.94ZM137,24l2.76-7,2.76,7Z"/><path class="cls-3" d="M162.44,16.08a6,6,0,0,0-4.7-1.87,7.08,7.08,0,0,0-5.47,2.33,8.35,8.35,0,0,0-2.14,5.88,8.37,8.37,0,0,0,2.14,5.89,7.11,7.11,0,0,0,5.47,2.33,5.86,5.86,0,0,0,5-2.35v2h3.93V6.47h-4.28Zm-1.11,9.56a4,4,0,0,1-2.8,1.1,3.89,3.89,0,0,1-2.9-1.19,4.35,4.35,0,0,1-1.16-3.16,4.22,4.22,0,0,1,1.18-3.12,3.86,3.86,0,0,1,2.88-1.19,3.92,3.92,0,0,1,2.8,1.12,4.27,4.27,0,0,1,1.17,3.22A4.19,4.19,0,0,1,161.33,25.64Z"/><path class="cls-3" d="M181.35,16.08a6,6,0,0,0-4.7-1.87,7.08,7.08,0,0,0-5.47,2.33A8.35,8.35,0,0,0,169,22.42a8.37,8.37,0,0,0,2.14,5.89,7.11,7.11,0,0,0,5.47,2.33,5.86,5.86,0,0,0,5-2.35v2h3.93V6.47h-4.28Zm-1.11,9.56a4,4,0,0,1-2.8,1.1,3.89,3.89,0,0,1-2.9-1.19,4.35,4.35,0,0,1-1.16-3.16,4.22,4.22,0,0,1,1.18-3.12,3.86,3.86,0,0,1,2.88-1.19,3.92,3.92,0,0,1,2.8,1.12,4.27,4.27,0,0,1,1.17,3.22A4.19,4.19,0,0,1,180.24,25.64Z"/><path class="cls-3" d="M200.18,15.94a6.82,6.82,0,0,0-4.91-1.73,8.6,8.6,0,0,0-6.85,3.23l2.22,2.64a5.88,5.88,0,0,1,4.16-2.16,3,3,0,0,1,2.17.73,2.7,2.7,0,0,1,.75,2v.7h-3.94a6.94,6.94,0,0,0-4.33,1.22,4,4,0,0,0-1.6,3.35,4.33,4.33,0,0,0,1.46,3.37,5.68,5.68,0,0,0,4,1.32,6.31,6.31,0,0,0,4.79-1.9v1.52H202V20.93A6.56,6.56,0,0,0,200.18,15.94Zm-2.46,8.45a2.89,2.89,0,0,1-1,2.24,3.32,3.32,0,0,1-2.34.87,2.68,2.68,0,0,1-1.64-.46,1.48,1.48,0,0,1-.62-1.25q0-1.59,2.19-1.59h3.37Z"/></svg>