<svg id="Layer_1" data-name="Layer 1" xmlns="http://www.w3.org/2000/svg" xmlns:xlink="http://www.w3.org/1999/xlink" viewBox="0 0 204 40"><defs><style>.cls-1,.cls-2{fill:#fff;}.cls-2{fill-rule:evenodd;}.cls-3{fill:url(#linear-gradient);}</style><linearGradient id="linear-gradient" x1="2.02" y1="11.76" x2="17.91" y2="11.76" gradientUnits="userSpaceOnUse"><stop offset="0" stop-color="#9f1f24"/><stop offset="0.66" stop-color="#ef6934"/><stop offset="1" stop-color="#f79934"/></linearGradient></defs><title>Artboard 4 copy</title><path class="cls-1" d="M50.62,18.13l-2.37-1A7.91,7.91,0,0,1,46.38,16a1.66,1.66,0,0,1-.56-1.31,1.72,1.72,0,0,1,.75-1.5,3.1,3.1,0,0,1,1.84-.52,4.7,4.7,0,0,1,4,2.4l2.9-2.24A7.55,7.55,0,0,0,52.56,10a7.84,7.84,0,0,0-4.15-1.07,7.44,7.44,0,0,0-4.95,1.63,5.27,5.27,0,0,0-2,4.27,5,5,0,0,0,1.31,3.48,11.62,11.62,0,0,0,3.74,2.52l2.24,1c.67.32,1.16.56,1.47.73a2.58,2.58,0,0,1,.82.74,1.83,1.83,0,0,1,.36,1.12,2,2,0,0,1-.79,1.69,3.45,3.45,0,0,1-2.18.61c-1.95,0-3.66-1-5.11-3l-2.93,2.21a9,9,0,0,0,8,4.61,7.93,7.93,0,0,0,5.24-1.7,5.63,5.63,0,0,0,2.06-4.55A5,5,0,0,0,54.5,20.7,11.49,11.49,0,0,0,50.62,18.13Z"/><path class="cls-1" d="M67.13,14.12a5.8,5.8,0,0,0-5,2.31v-2H58.2v21.3h4.26V28.58a6,6,0,0,0,4.67,1.89,7,7,0,0,0,5.44-2.33,8.4,8.4,0,0,0,2.13-5.88,8.25,8.25,0,0,0-2.13-5.83A7.07,7.07,0,0,0,67.13,14.12ZM69.21,25.4a4,4,0,0,1-5.66.07,4.28,4.28,0,0,1-1.16-3.21,4.16,4.16,0,0,1,1.17-3.2A3.93,3.93,0,0,1,66.34,18a3.87,3.87,0,0,1,2.89,1.19,4.28,4.28,0,0,1,1.15,3.14A4.2,4.2,0,0,1,69.21,25.4Z"/><path class="cls-1" d="M84.49,14.12a8.19,8.19,0,0,0-5.93,2.35,7.72,7.72,0,0,0-2.44,5.79,7.82,7.82,0,0,0,2.42,5.83,8.15,8.15,0,0,0,5.92,2.35,8.28,8.28,0,0,0,6-2.37,7.75,7.75,0,0,0,2.47-5.81,7.71,7.71,0,0,0-2.47-5.79A8.27,8.27,0,0,0,84.49,14.12Zm2.89,11.21a4.1,4.1,0,0,1-5.79,0,4.2,4.2,0,0,1-1.14-3,4.31,4.31,0,0,1,1.14-3.08,4,4,0,0,1,5.79,0,4.32,4.32,0,0,1,1.15,3.07A4.19,4.19,0,0,1,87.38,25.33Z"/><path class="cls-1" d="M112.17,26.1a2.29,2.29,0,0,1-.69-1.88V18.07h4.41v-3.6h-4.41v-4h-4.27v3.85h-2.46v0a4.64,4.64,0,0,0-1.39-.11,5.15,5.15,0,0,0-4.29,2.08V14.47H95.16V30.09h4.26V22.3a3.92,3.92,0,0,1,1.13-3.05,4.52,4.52,0,0,1,3.07-1.19h3.59V24.6a5.58,5.58,0,0,0,1.65,4.4,6.65,6.65,0,0,0,4.6,1.47,12.23,12.23,0,0,0,2.94-.38V26.53c-1.09.08-1.77.12-2,.12A3.54,3.54,0,0,1,112.17,26.1Z"/><path class="cls-1" d="M125.21,20.72l-1.52-.63a4.75,4.75,0,0,1-1.28-.65.93.93,0,0,1-.36-.74c0-.74.56-1.11,1.67-1.11a5,5,0,0,1,3.51,1.49l2.14-2.62a7.16,7.16,0,0,0-5.62-2.37,6.51,6.51,0,0,0-4.15,1.25A4.14,4.14,0,0,0,118,18.79a3.8,3.8,0,0,0,1.06,2.81,9.51,9.51,0,0,0,3.2,2l1.67.69a7.08,7.08,0,0,1,1.25.65.91.91,0,0,1,.36.77,1.07,1.07,0,0,1-.57,1,2.76,2.76,0,0,1-1.42.33,6.07,6.07,0,0,1-4.38-2.12L117,27.44a7.66,7.66,0,0,0,6.47,3,7,7,0,0,0,4.37-1.32,4.38,4.38,0,0,0,1.72-3.67,3.8,3.8,0,0,0-1.05-2.79A10.23,10.23,0,0,0,125.21,20.72Z"/><path class="cls-1" d="M139.38,8.88l-9.31,21.21h4.57l1.17-2.71h8.52l1.17,2.71h4.58L140.8,8.88Zm-2,15,2.74-7,2.75,7Z"/><path class="cls-1" d="M162.64,16A6,6,0,0,0,158,14.12a7.06,7.06,0,0,0-5.45,2.32,8.34,8.34,0,0,0-2.13,5.86,8.33,8.33,0,0,0,2.13,5.85A7.06,7.06,0,0,0,158,30.47a5.84,5.84,0,0,0,5-2.33v1.95h3.91V6.42h-4.26Zm-1.1,9.52a3.93,3.93,0,0,1-2.78,1.09,3.87,3.87,0,0,1-2.89-1.19,4.28,4.28,0,0,1-1.15-3.14,4.2,4.2,0,0,1,1.17-3.1A3.86,3.86,0,0,1,158.76,18a3.92,3.92,0,0,1,2.78,1.12,4.28,4.28,0,0,1,1.16,3.21A4.19,4.19,0,0,1,161.54,25.5Z"/><path class="cls-1" d="M181.45,16a6,6,0,0,0-4.67-1.86,7,7,0,0,0-5.44,2.32,8.34,8.34,0,0,0-2.14,5.86,8.34,8.34,0,0,0,2.14,5.85,7,7,0,0,0,5.44,2.32,5.84,5.84,0,0,0,5-2.33v1.95h3.91V6.42h-4.26Zm-1.1,9.52a3.93,3.93,0,0,1-2.78,1.09,3.87,3.87,0,0,1-2.89-1.19,4.28,4.28,0,0,1-1.15-3.14,4.2,4.2,0,0,1,1.17-3.1A3.87,3.87,0,0,1,177.57,18a3.92,3.92,0,0,1,2.78,1.12,4.25,4.25,0,0,1,1.17,3.21A4.16,4.16,0,0,1,180.35,25.5Z"/><path class="cls-1" d="M200.19,15.84a6.79,6.79,0,0,0-4.88-1.72,8.54,8.54,0,0,0-6.82,3.22L190.7,20a5.86,5.86,0,0,1,4.13-2.15,3,3,0,0,1,2.17.73,2.71,2.71,0,0,1,.74,2v.69h-3.92a6.93,6.93,0,0,0-4.3,1.22,3.94,3.94,0,0,0-1.6,3.33,4.34,4.34,0,0,0,1.45,3.36,5.71,5.71,0,0,0,3.95,1.31,6.28,6.28,0,0,0,4.77-1.89v1.51H202V20.81A6.57,6.57,0,0,0,200.19,15.84Zm-2.45,8.41a2.89,2.89,0,0,1-1,2.23,3.32,3.32,0,0,1-2.33.87,2.69,2.69,0,0,1-1.63-.46,1.48,1.48,0,0,1-.62-1.25c0-1.05.73-1.58,2.18-1.58h3.35Z"/><path class="cls-2" d="M35.12,20A16.28,16.28,0,0,0,33,12h0c-.19-.34-.4-.68-.62-1l-.24-.33c-.19-.29-.4-.56-.62-.84-.09-.11-.17-.22-.26-.32-.3-.36-.61-.7-.94-1a15.51,15.51,0,0,0-1.2-1.09l-.58-.43c-.23-.18-.46-.36-.71-.52s-.47-.29-.71-.43-.43-.27-.66-.39-.49-.24-.74-.36S25.26,5,25,4.89s-.49-.18-.73-.27l-.78-.27-.74-.19L22,4c-.29-.06-.57-.09-.86-.13s-.48-.08-.72-.1a14.28,14.28,0,0,0-3.11,0c-.16,0-.32,0-.47.06-.34,0-.67.08-1,.14l-.59.13c-.28.06-.56.12-.83.2l-.65.2c-.13,0-.26.07-.38.12h0c-.42.15-.84.32-1.26.5l2.55,2.74a12.62,12.62,0,0,1,2.43-.57l.52-.07a11.27,11.27,0,0,1,1.16-.06c.43,0,.85,0,1.27.07l.57.08.68.1.64.16c.19,0,.39.09.58.15s.41.14.61.21l.58.21.56.26c.19.1.39.18.58.29s.35.2.52.3.38.22.56.34l.56.41c.15.11.31.22.45.34a12.71,12.71,0,0,1,.95.86c.31.31.6.64.88,1A12.83,12.83,0,0,1,29,27.83l-.32.42c-.25.3-.52.59-.79.87a10.64,10.64,0,0,1-.94.84,5.48,5.48,0,0,1-.46.34c-.18.14-.36.28-.55.41s-.37.23-.56.34l-.52.31-.58.28-.56.26c-.19.08-.39.14-.58.21s-.4.15-.61.21-.39.1-.58.15-.43.12-.64.16l-.68.1a5.58,5.58,0,0,1-.57.08c-.42,0-.84.07-1.27.07s-.85,0-1.27-.07a5.58,5.58,0,0,1-.57-.08l-.67-.1c-.22,0-.43-.1-.64-.16L15,32.32l-.61-.21c-.19-.07-.39-.13-.58-.21l-.55-.26-.59-.28-.51-.31c-.19-.11-.39-.22-.57-.34l-.55-.4L10.6,30a12.16,12.16,0,0,1-.93-.84l0,0c-.3-.3-.58-.62-.85-.94-.12-.15-.23-.3-.34-.46s-.28-.36-.41-.55-.23-.37-.34-.56-.21-.34-.3-.52-.19-.39-.29-.59-.18-.36-.25-.55-.15-.39-.22-.58-.15-.4-.21-.61-.1-.39-.15-.59-.11-.42-.16-.63-.07-.45-.1-.68S6,21.46,6,21.27c0-.42-.06-.84-.06-1.27A11.67,11.67,0,0,1,6,18.68,13.07,13.07,0,0,1,6.24,17L4.72,15.31l-1.27-1c-.16.44-.31.88-.44,1.33H3c-.11.38-.2.77-.28,1.16,0,.13,0,.27-.07.4-.06.34-.11.68-.14,1,0,.14,0,.28,0,.42,0,.46-.06.92-.06,1.39a14.35,14.35,0,0,0,.08,1.61c0,.25.07.49.1.73s.08.57.13.86.13.54.2.81.12.49.19.74.18.52.27.78.17.49.27.73.22.47.33.71.23.5.36.74.26.44.39.66.27.48.43.71.34.47.52.7.28.4.43.59c.34.41.69.8,1.07,1.18l0,0,0,0c.37.37.76.72,1.17,1.06.2.16.4.29.59.44s.46.35.7.51.48.3.72.44.43.27.65.39.5.24.75.35.46.23.7.33.49.18.74.27.51.19.77.27.5.13.75.19.53.15.81.2.57.09.86.13l.72.11a17.43,17.43,0,0,0,3.23,0l.71-.11c.29,0,.58-.07.87-.13s.54-.13.81-.2.5-.11.74-.19l.78-.27c.24-.09.49-.17.73-.27s.47-.22.71-.33.5-.22.74-.35.44-.26.66-.39.48-.28.71-.44.47-.34.7-.51.4-.28.59-.44c.41-.34.81-.7,1.19-1.07h0c.35-.36.69-.73,1-1.11.11-.12.2-.25.3-.38s.41-.53.6-.8.22-.34.32-.51.31-.48.45-.73l.32-.6.19-.36h0A16.37,16.37,0,0,0,35.12,20Z"/><circle class="cls-3" cx="9.97" cy="11.76" r="7.95"/><path class="cls-1" d="M12.05,14.53c.08-.17.16-.34.25-.5a1.8,1.8,0,0,0,.1-1.14,7.92,7.92,0,0,0,0-1.46l.09,0c.31.42.86,1.08,1.18,1.49a.69.69,0,0,0,.65.38c.08,0,.17.07.26.1s.19.14.29,0a.24.24,0,0,0,0-.3c-.26-.24-.3-.69-.78-.73-.23,0-.63-.87-.67-1.1a6.31,6.31,0,0,1,1.23,1.19c.16.24.17.12.35.33a.17.17,0,0,0,.19.07c.09,0,.08-.11.07-.19,0-.28.11-.23.28-.16s.2.29.27.22-.15-.32-.19-.4a2.6,2.6,0,0,0-.15-.28c-.11-.23-.22-.22-.48-.16s-.26-.2-.35-.35-.09-.24.12-.27c.46,0,.87-.17.66-.56a2.6,2.6,0,0,1-.21-.76s.08,0,.11,0,.11.14.17.2.13.08.21,0h0c.1,0,.17,0,.25-.09l.15-.06h.07c.1,0,.15-.06.16-.16a.23.23,0,0,1,.17-.23.35.35,0,0,0,.14-.13c0-.06.07-.14.11-.2s.07-.1.12-.13a.28.28,0,0,0,.1-.33,1.55,1.55,0,0,0-.12-.22c-.05-.07-.12-.13-.17-.19a.54.54,0,0,0-.44-.23h0c-.13-.08-.26,0-.39,0l-.1,0-.27.17-.14.14c0,.06-.2.5-.27.46-.4.4-.65-.31-.65-.31-.18-.32-.48-.51-.74-.26a3.42,3.42,0,0,1-.58.49A1.61,1.61,0,0,1,11.74,9a.63.63,0,0,0-.77.18,5.41,5.41,0,0,1-1.42,1.29.17.17,0,0,1-.2,0A1.93,1.93,0,0,0,8.52,10c-.07,0-.14,0-.13-.14a5.44,5.44,0,0,0-.21-1.56A5.2,5.2,0,0,1,8,7.44a.49.49,0,0,0-.45-.52c-.15,0-.19-.08-.16-.24a.86.86,0,0,0-.78-1.09A.83.83,0,0,0,6,5.84a.46.46,0,0,0-.19.63l0,.12c.09.65.09.65-.56.6A1,1,0,0,0,4.45,8,1.09,1.09,0,0,1,4,8.66a2.21,2.21,0,0,0-.43.66V9.7a2.37,2.37,0,0,0,1.48.78c.17,0,.47.12.33.3-.4.52-.18.55.26.36.18-.07.17.18.1.3a8.39,8.39,0,0,1-.5.81,1.61,1.61,0,0,0-.17.28L2,11.64s0,.1,0,.15l3,.93a7.92,7.92,0,0,0-.26.78.92.92,0,0,0,.51,1.08c.2.12.38.26.57.4a1.64,1.64,0,0,1,.55,1.47.75.75,0,0,1-.15.38.32.32,0,0,0,.28.48.74.74,0,0,0,.69-.69,1.47,1.47,0,0,1,.15-1,.41.41,0,0,0-.16-.6,1.27,1.27,0,0,1-.61-.85,1,1,0,0,0-.22-.45.24.24,0,0,1,0-.41l.13-.11,1.37.44L8,13.7a1.51,1.51,0,0,1,.58,1.18A1.35,1.35,0,0,0,9,16c.19.13.2.39.24.6a1.43,1.43,0,0,0,.39.85.26.26,0,0,1,.08.13.77.77,0,0,0,.64.66h.44s.13-.08.11-.12c-.74-1-.25-.81.6-.27.05,0,.13,0,.19,0s.3,0,.37-.16-.06-.31-.2-.38a1,1,0,0,1-.5-.5.49.49,0,0,1-.06-.39,10.21,10.21,0,0,1,.55-1.52l4.56,1.43.32-.42ZM5.37,9.82a5.37,5.37,0,0,1-.74-.52c-.06-.05.44-.8.44-.8S5.49,9.86,5.37,9.82ZM6.72,13a1.69,1.69,0,0,0,.2-.25.18.18,0,0,1,.32,0,4,4,0,0,1,.24.33c0,.06.07.12.11.17Zm4.09,1.68c0,.35,0,.7-.06,1a1.78,1.78,0,0,1-.48,1.16q-.36-1.4-.84-2.76l1.39.44S10.81,14.63,10.81,14.67Zm.3-.81a.81.81,0,0,0-.21.34l-1.6-.46q-.44-1.2-.9-2.4a2.08,2.08,0,0,1,.81.43.8.8,0,0,0,.92,0,4.24,4.24,0,0,1,.5-.18c.28-.11.39,0,.37.26a3.52,3.52,0,0,0,.24,1.36A.57.57,0,0,1,11.11,13.86Z"/></svg>