<?xml version="1.0" encoding="utf-8"?>
<!-- Generator: Adobe Illustrator 23.0.3, SVG Export Plug-In . SVG Version: 6.00 Build 0)  -->
<svg version="1.1" id="Layer_1" xmlns="http://www.w3.org/2000/svg" xmlns:xlink="http://www.w3.org/1999/xlink" x="0px" y="0px"
	 viewBox="0 0 204.1 40" style="enable-background:new 0 0 204.1 40;" xml:space="preserve">
<style type="text/css">
	.st0{fill:#FFFFFF;}
	.st1{fill-rule:evenodd;clip-rule:evenodd;fill:#FFFFFF;}
	.st2{fill:url(#SVGID_1_);}
</style>
<title>Artboard 1 copy 2</title>
<path class="st0" d="M59.7,8.6c1.3,0.8,2.4,1.9,3.2,3.3l-3.3,2.6c-0.9-1.7-2.7-2.7-4.6-2.8c-0.8,0-1.5,0.2-2.1,0.6
	c-0.6,0.4-0.9,1-0.9,1.7c0,0.6,0.2,1.1,0.6,1.5c0.7,0.5,1.4,0.9,2.2,1.3l2.7,1.2c1.7,0.7,3.2,1.7,4.5,3c1,1.1,1.5,2.5,1.5,4
	c0.1,2-0.8,4-2.4,5.2c-1.7,1.4-3.8,2.1-6,2c-3.8,0.1-7.4-2-9.3-5.3l3.4-2.5c1.7,2.3,3.6,3.5,5.9,3.5c0.9,0.1,1.8-0.2,2.5-0.7
	c0.6-0.5,0.9-1.2,0.9-2c0-0.5-0.1-0.9-0.4-1.3c-0.3-0.4-0.6-0.6-1-0.9c-0.3-0.2-0.9-0.5-1.7-0.8L52.8,21c-1.6-0.7-3.1-1.7-4.3-2.9
	c-1-1.1-1.6-2.5-1.5-4c-0.1-1.9,0.8-3.7,2.3-4.9c1.6-1.3,3.6-2,5.7-1.9C56.6,7.2,58.3,7.7,59.7,8.6z M84.9,12.2h-7.7v19.6h-4.9V12.2
	h-7.7V7.8h20.3V12.2z M107.4,21.8c0.1,2.8-0.9,5.5-2.9,7.6c-4.2,3.8-10.5,3.8-14.7,0c-2-2-3-4.8-2.8-7.6V7.8h4.9v14.5
	c-0.1,1.5,0.4,2.9,1.5,4c2.2,1.9,5.4,1.9,7.6,0c1-1.1,1.5-2.5,1.4-4V7.8h4.9V21.8z M135.3,7.3v24.5h-4.9V18.9l-6,7.6h-1.6l-6-7.6
	v12.9h-4.9V7.3h1.6l10.2,13l10.1-13L135.3,7.3z M155.2,9.9c1.6,1.4,2.5,3.5,2.4,5.6c0.1,2.1-0.8,4.2-2.4,5.6c-1.7,1.5-4,2.3-6.2,2.2
	h-4.1v8.5h-4.9v-24h9C151.2,7.7,153.4,8.4,155.2,9.9z M144.8,12.1V19h4.1c1,0,2-0.3,2.7-1c0.7-0.7,1-1.6,1-2.5c0-0.9-0.3-1.8-1-2.5
	c-0.7-0.7-1.7-1-2.6-0.9L144.8,12.1z M176.8,12.2h-11.3v4.9h8.3v4.2h-8.3v6.1h11.7v4.4h-16.6v-24h16.2L176.8,12.2z M197.9,11
	c2.4,2.2,3.8,5.4,3.6,8.7c0.1,3.3-1.2,6.5-3.6,8.7c-2.6,2.3-6,3.5-9.4,3.4h-7.9v-24h7.9C191.9,7.6,195.3,8.7,197.9,11z M185.5,12.2
	v15.2h2.9c2.2,0.1,4.3-0.7,5.9-2.1c1.5-1.4,2.3-3.5,2.2-5.6c0.1-2.1-0.7-4.1-2.2-5.5c-1.6-1.4-3.7-2.1-5.9-2L185.5,12.2z"/>
<path class="st1" d="M22.1,1c-2.1,0-4.3,0.4-6.3,1.1c1.5,0.7,2.8,1.8,3.7,3.2C20.3,5.1,21.2,5,22.1,5c8.3,0,15,6.7,15,15
	s-6.7,15-15,15s-15-6.7-15-15c0-0.5,0-1.1,0.1-1.6c-1.4-0.8-2.6-2.1-3.4-3.5c-0.5,1.7-0.7,3.4-0.7,5.1c0,10.5,8.5,19,19,19
	s19-8.5,19-19S32.6,1,22.1,1L22.1,1z"/>
<linearGradient id="SVGID_1_" gradientUnits="userSpaceOnUse" x1="2.6" y1="29.57" x2="21.06" y2="29.57" gradientTransform="matrix(1 0 0 -1 0 40)">
	<stop  offset="0" style="stop-color:#9E1D22"/>
	<stop  offset="0.66" style="stop-color:#EF6935"/>
	<stop  offset="1" style="stop-color:#F69834"/>
</linearGradient>
<circle class="st2" cx="11.8" cy="10.4" r="9.2"/>
<path class="st0" d="M7.8,17.7C8.9,17.6,10,17.3,11,17c1.1,0.5,2.3,0.8,3.5,0.9c0,0.5,0,0.9,0.1,1.4c0,0,0.3-0.1,0.4-0.1
	c0-0.5-0.1-0.9-0.1-1.4c1-0.8,1.8-1.8,2.5-2.9L20,14c0.1,0.2,0.1,0.4,0.1,0.6c0.8-1.5,1.1-3.3,0.9-5c-0.6-1-1.3-1.8-1.9-2.7
	c0-1.1-0.3-2.1-0.8-3c-0.1-0.2-0.8-0.7-0.8-0.7c-1-0.5-2.2-0.7-3.3-0.8c-0.5-0.4-1-0.8-1.6-1.1c-0.4,0-0.7,0-1.1,0
	c0.8,0.3,1.6,0.8,2.3,1.4c-0.4,0.8-0.7,1.6-0.9,2.4c-1.3,0.1-2.5,0.4-3.7,1C8.4,5.6,7.6,5.1,6.7,4.7c0.1-0.8,0.4-1.6,1-2.2
	c1-0.5,2.1-0.9,3.1-1.2l-0.5,0.1C9.2,1.5,8,1.9,7,2.6C6.6,3.2,6.4,4,6.3,4.7C5.2,5.5,4.2,6.5,3.5,7.6L3,7.7C3,7.8,2.9,8,2.9,8.1
	l0.6-0.1c0.2,1.1,0.6,2.2,1.2,3.1c-0.2,1.1-0.3,2.3-0.3,3.4c-0.2,0-0.5,0.1-0.8,0.1c1,1.8,2.5,3.2,4.3,4.1
	C7.9,18.5,7.8,18.1,7.8,17.7z M18.8,7.2c0.7,0.9,1.4,1.8,2,2.8c0,1.2-0.3,2.5-0.9,3.6l-2.7,0.9c-0.6-0.9-1.3-1.8-1.9-2.6
	c0.3-1.2,0.6-2.4,0.9-3.7C17.1,7.8,17.9,7.4,18.8,7.2L18.8,7.2z M9.4,6.5c1.1-0.5,2.4-0.9,3.6-1c1.1,0.6,2,1.5,2.8,2.5
	c-0.2,1.2-0.5,2.5-0.9,3.6c-1.2,0.4-2.3,0.8-3.6,1.1c-0.9-0.9-1.8-1.7-2.7-2.6C8.8,8.9,9.1,7.7,9.4,6.5z M4.8,14.7
	c0-1.1,0.1-2.3,0.3-3.4c1.1-0.3,2.2-0.5,3.2-0.8c0.9,0.9,1.8,1.8,2.7,2.6c-0.2,1.1-0.3,2.3-0.3,3.5c-1,0.3-2,0.6-3.1,0.7
	C6.6,16.6,5.7,15.7,4.8,14.7z"/>
</svg>
