<?xml version="1.0" encoding="utf-8"?>
<!-- Generator: Adobe Illustrator 23.0.3, SVG Export Plug-In . SVG Version: 6.00 Build 0)  -->
<svg version="1.1" id="Layer_1" xmlns="http://www.w3.org/2000/svg" xmlns:xlink="http://www.w3.org/1999/xlink" x="0px" y="0px"
	 viewBox="0 0 204.1 40" style="enable-background:new 0 0 204.1 40;" xml:space="preserve">
<style type="text/css">
	.st0{fill-rule:evenodd;clip-rule:evenodd;fill:#FFFFFF;}
	.st1{fill:#FFFFFF;}
	.st2{fill:url(#SVGID_1_);}
</style>
<title>Artboard 1 copy</title>
<path class="st0" d="M41.1,20c0-3.3-0.8-6.5-2.5-9.3l0,0c-0.2-0.4-0.5-0.8-0.7-1.2l-0.3-0.4c-0.2-0.3-0.5-0.6-0.7-1l-0.3-0.4
	c-0.3-0.4-0.7-0.8-1.1-1.2c-0.4-0.4-0.9-0.9-1.4-1.3c-0.2-0.2-0.5-0.3-0.7-0.5s-0.5-0.4-0.8-0.6s-0.5-0.3-0.8-0.5L31,3.2
	c-0.3-0.2-0.6-0.3-0.9-0.4s-0.5-0.3-0.8-0.4s-0.6-0.2-0.9-0.3s-0.6-0.2-0.9-0.3S27,1.7,26.7,1.6s-0.6-0.2-0.9-0.2s-0.7-0.1-1-0.1
	S24.3,1.2,24,1.2C23.3,1,22.7,1,22.1,1s-1.2,0-1.7,0.1l-0.5,0.1c-0.4,0-0.8,0.1-1.1,0.2c-0.2,0-0.5,0.1-0.7,0.1L17,1.7
	c-0.3,0.1-0.5,0.1-0.8,0.2L15.8,2l0,0c-0.5,0.2-1,0.4-1.5,0.6l3,3.2c0.9-0.3,1.9-0.5,2.8-0.7L20.7,5c0.5,0,0.9-0.1,1.4-0.1
	s1,0,1.5,0.1l0.7,0.1L25,5.3c0.2,0,0.5,0.1,0.7,0.2s0.5,0.1,0.7,0.2s0.5,0.2,0.7,0.2s0.5,0.2,0.7,0.2s0.4,0.2,0.6,0.3
	s0.5,0.2,0.7,0.3l0.6,0.4c0.2,0.1,0.4,0.2,0.6,0.4S30.8,7.9,31,8c0.2,0.1,0.4,0.2,0.5,0.4c0.4,0.3,0.7,0.6,1.1,1s0.7,0.8,1,1.1
	c4.4,5.4,4.5,13,0.2,18.5c-0.1,0.2-0.2,0.3-0.4,0.5c-0.3,0.4-0.6,0.7-0.9,1s-0.7,0.7-1.1,1L31,32c-0.2,0.2-0.4,0.3-0.6,0.5
	s-0.4,0.3-0.6,0.4l-0.6,0.3c-0.2,0.1-0.5,0.2-0.7,0.3s-0.4,0.2-0.6,0.3S27.4,34,27.2,34s-0.5,0.2-0.7,0.2s-0.5,0.1-0.7,0.2
	s-0.5,0.1-0.7,0.2s-0.5,0.1-0.8,0.1l-0.7,0.1C23,35,22.6,35,22.1,35s-1,0-1.5-0.1l-0.7-0.1c-0.3,0-0.5-0.1-0.8-0.1l-0.7-0.2
	l-0.7-0.2c-0.2-0.1-0.5-0.2-0.7-0.2s-0.5-0.2-0.7-0.2s-0.4-0.2-0.6-0.3s-0.5-0.2-0.7-0.3s-0.4-0.2-0.6-0.3s-0.4-0.3-0.7-0.4
	s-0.4-0.3-0.6-0.5s-0.4-0.3-0.5-0.4c-0.4-0.3-0.7-0.6-1.1-1l0,0c-0.4-0.4-0.7-0.7-1-1.1c-0.1-0.2-0.3-0.4-0.4-0.5l-0.5-0.6
	c-0.1-0.2-0.3-0.4-0.4-0.7S9,27.3,8.9,27.1s-0.2-0.5-0.3-0.7S8.3,26,8.2,25.8S8.1,25.3,8,25.1s-0.2-0.5-0.2-0.7s-0.1-0.5-0.2-0.7
	S7.4,23.2,7.4,23s-0.1-0.5-0.1-0.8s-0.1-0.4-0.1-0.7c0-0.5-0.1-1-0.1-1.5s0-1,0.1-1.5c0.1-0.6,0.2-1.3,0.3-1.9l-1.8-2l-1.5-1.2
	c-0.2,0.5-0.4,1-0.5,1.5l0,0c-0.1,0.4-0.2,0.9-0.3,1.3c0,0.2-0.1,0.3-0.1,0.5c-0.1,0.4-0.1,0.8-0.2,1.2c0,0.2,0,0.3,0,0.5
	C3.1,18.9,3,19.5,3,20s0,1.2,0.1,1.9c0,0.3,0.1,0.6,0.1,0.8s0.1,0.7,0.2,1s0.2,0.6,0.2,1s0.1,0.6,0.2,0.9s0.2,0.6,0.3,0.9
	s0.2,0.6,0.3,0.9s0.3,0.5,0.4,0.8s0.3,0.6,0.4,0.9s0.3,0.5,0.4,0.8s0.3,0.6,0.5,0.8s0.4,0.5,0.6,0.8S7,32,7.2,32.2
	c0.4,0.5,0.8,0.9,1.2,1.4l0,0l0,0c0.4,0.4,0.9,0.8,1.4,1.2c0.2,0.2,0.5,0.3,0.7,0.5s0.5,0.4,0.8,0.6s0.6,0.3,0.8,0.5
	s0.5,0.3,0.8,0.5s0.6,0.3,0.9,0.4s0.5,0.3,0.8,0.4s0.6,0.2,0.9,0.3s0.6,0.2,0.9,0.3s0.6,0.2,0.9,0.2s0.6,0.2,0.9,0.2s0.7,0.1,1,0.2
	S19.7,39,20,39c1.2,0.1,2.5,0.1,3.8,0c0.3,0,0.6-0.1,0.8-0.1s0.7-0.1,1-0.2s0.6-0.2,0.9-0.2s0.6-0.1,0.9-0.2s0.6-0.2,0.9-0.3
	s0.6-0.2,0.9-0.3s0.5-0.2,0.8-0.4s0.6-0.3,0.9-0.4s0.5-0.3,0.8-0.5s0.6-0.3,0.8-0.5s0.5-0.4,0.8-0.6s0.5-0.3,0.7-0.5
	c0.5-0.4,0.9-0.8,1.4-1.2l0,0c0.4-0.4,0.8-0.8,1.2-1.3c0.1-0.1,0.2-0.3,0.3-0.4c0.2-0.3,0.5-0.6,0.7-0.9s0.3-0.4,0.4-0.6
	s0.3-0.6,0.5-0.9s0.2-0.5,0.4-0.7c0.1-0.1,0.2-0.3,0.2-0.4l0,0C40.4,25.6,41.1,22.8,41.1,20z"/>
<path class="st1" d="M59.7,8.6c1.3,0.8,2.4,1.9,3.2,3.3l-3.3,2.6c-0.9-1.7-2.7-2.7-4.6-2.8c-0.8,0-1.5,0.2-2.1,0.6
	c-0.6,0.4-0.9,1-0.9,1.7c0,0.6,0.2,1.1,0.6,1.5c0.7,0.5,1.4,0.9,2.2,1.3l2.7,1.2c1.7,0.7,3.2,1.7,4.5,3c1,1.1,1.5,2.5,1.5,4
	c0.1,2-0.8,4-2.4,5.2c-1.7,1.4-3.8,2.1-6,2c-3.8,0.1-7.4-2-9.3-5.3l3.4-2.5c1.7,2.3,3.6,3.5,5.9,3.5c0.9,0.1,1.8-0.2,2.5-0.7
	c0.6-0.5,0.9-1.2,0.9-2c0-0.5-0.1-0.9-0.4-1.3c-0.3-0.4-0.6-0.6-1-0.9c-0.3-0.2-0.9-0.5-1.7-0.8L52.8,21c-1.6-0.7-3.1-1.7-4.3-2.9
	c-1-1.1-1.6-2.5-1.5-4c-0.1-1.9,0.8-3.7,2.3-4.9c1.6-1.3,3.6-2,5.7-1.9C56.6,7.2,58.3,7.7,59.7,8.6z M84.9,12.2h-7.7v19.6h-4.9V12.2
	h-7.7V7.8h20.3C84.9,7.8,84.9,12.2,84.9,12.2z M107.4,21.8c0.1,2.8-0.9,5.5-2.9,7.6c-4.2,3.8-10.5,3.8-14.7,0c-2-2-3-4.8-2.8-7.6
	v-14h4.9v14.5c-0.1,1.5,0.4,2.9,1.5,4c2.2,1.9,5.4,1.9,7.6,0c1-1.1,1.5-2.5,1.4-4V7.8h4.9L107.4,21.8L107.4,21.8z M135.3,7.3v24.5
	h-4.9V18.9l-6,7.6h-1.6l-6-7.6v12.9h-4.9V7.3h1.6l10.2,13l10.1-13L135.3,7.3z M155.2,9.9c1.6,1.4,2.5,3.5,2.4,5.6
	c0.1,2.1-0.8,4.2-2.4,5.6c-1.7,1.5-4,2.3-6.2,2.2h-4.1v8.5H140v-24h9C151.2,7.7,153.4,8.4,155.2,9.9z M144.8,12.1V19h4.1
	c1,0,2-0.3,2.7-1s1-1.6,1-2.5s-0.3-1.8-1-2.5s-1.7-1-2.6-0.9H144.8z M176.8,12.2h-11.3v4.9h8.3v4.2h-8.3v6.1h11.7v4.4h-16.6v-24
	h16.2L176.8,12.2z M197.9,11c2.4,2.2,3.8,5.4,3.6,8.7c0.1,3.3-1.2,6.5-3.6,8.7c-2.6,2.3-6,3.5-9.4,3.4h-7.9v-24h7.9
	C191.9,7.6,195.3,8.7,197.9,11z M185.5,12.2v15.2h2.9c2.2,0.1,4.3-0.7,5.9-2.1c1.5-1.4,2.3-3.5,2.2-5.6c0.1-2.1-0.7-4.1-2.2-5.5
	c-1.6-1.4-3.7-2.1-5.9-2L185.5,12.2z"/>
<linearGradient id="SVGID_1_" gradientUnits="userSpaceOnUse" x1="2.62" y1="10.4" x2="21.08" y2="10.4">
	<stop  offset="0" style="stop-color:#9E1D22"/>
	<stop  offset="0.66" style="stop-color:#EF6935"/>
	<stop  offset="1" style="stop-color:#F69834"/>
</linearGradient>
<circle class="st2" cx="11.9" cy="10.4" r="9.2"/>
<g>
	<path class="st1" d="M4.8,5.7L4.2,5.2C4.1,5.3,4.1,5.5,4,5.6L4.4,6c0.1,0,0.1,0.1,0.2,0.1s0.1,0,0.2-0.1C4.8,6,4.9,5.8,4.8,5.7
		L4.8,5.7z"/>
	<path class="st1" d="M9.6,10.6c-0.1-0.1-0.2-0.1-0.3,0S9.2,10.8,9.2,11c0,0,0,0,0.1,0l1.6,1.6c0,0,0.1,0.1,0.2,0.1
		c0.1,0,0.2-0.1,0.2-0.3c0-0.1,0-0.1-0.1-0.2L9.6,10.6z"/>
	<path class="st1" d="M15.8,17.2c-0.1,0.1-0.1,0.2,0,0.3l0.9,0.8l0.2-0.1l0.2-0.1l-0.9-0.9C16,17,15.9,17,15.8,17.2z"/>
	<path class="st1" d="M6.4,7.3C6.3,7.2,6.1,7.2,6,7.3C5.9,7.4,5.9,7.6,6,7.7l1.7,1.6c0.1,0.1,0.3,0.1,0.4,0c0-0.1,0-0.2-0.1-0.3
		L6.4,7.3z"/>
	<path class="st1" d="M14.5,15.5l-1.6-1.6c-0.1-0.1-0.3-0.1-0.4,0c-0.1,0.1-0.1,0.3,0,0.4l0,0l1.6,1.6c0,0.1,0.1,0.1,0.2,0.1
		c0.1,0,0.1,0,0.2-0.1C14.6,15.7,14.6,15.6,14.5,15.5L14.5,15.5z"/>
	<path class="st1" d="M7.6,3.4c0.1,0,0.2-0.2,0.2-0.3c0,0,0,0,0-0.1L7.2,2.4L6.8,2.7l0.6,0.6C7.5,3.4,7.6,3.4,7.6,3.4z"/>
	<path class="st1" d="M15.6,11.5l1.6,1.6c0.1,0.1,0.3,0.1,0.4,0s0.1-0.3,0-0.4L16,11.1c-0.1-0.1-0.2-0.1-0.3,0S15.4,11.3,15.6,11.5
		C15.5,11.4,15.5,11.4,15.6,11.5z"/>
	<path class="st1" d="M10.7,6.6c0,0,0.1,0.1,0.2,0.1c0.1,0,0.1-0.1,0.2-0.1c0.1-0.1,0.1-0.2,0-0.3l0,0L9.4,4.6
		C9.3,4.5,9.1,4.5,9,4.6S8.9,4.9,9,5L10.7,6.6z"/>
	<path class="st1" d="M19.2,14.4c-0.1-0.1-0.3-0.1-0.3,0c-0.1,0.1-0.1,0.3,0,0.4l0,0l0.8,0.8c0.1-0.1,0.2-0.3,0.3-0.4L19.2,14.4z"/>
	<path class="st1" d="M13.9,9.8c0,0,0.1,0.1,0.2,0.1c0.1,0,0.1,0,0.2-0.1c0.1-0.1,0.1-0.3,0-0.4l0,0l-1.6-1.6
		c-0.1-0.1-0.3-0.1-0.4,0l0,0c-0.1,0.1-0.1,0.3,0,0.4L13.9,9.8z"/>
	<path class="st1" d="M5.3,3.9L5.3,3.9C5.3,4,5.2,4,5.2,4l13,13.1l0.1-0.1l0.1-0.1l0.2-0.2l-13-13L5.3,3.9z"/>
</g>
</svg>
