<svg id="Layer_1" data-name="Layer 1" xmlns="http://www.w3.org/2000/svg" xmlns:xlink="http://www.w3.org/1999/xlink" viewBox="0 0 204.13 40"><defs><style>.cls-1{fill:url(#linear-gradient);}.cls-2,.cls-3{fill:#002b61;}.cls-3{fill-rule:evenodd;}</style><linearGradient id="linear-gradient" x1="2.63" y1="10.43" x2="21.09" y2="10.43" gradientUnits="userSpaceOnUse"><stop offset="0" stop-color="#9e1d22"/><stop offset="0.66" stop-color="#ef6935"/><stop offset="1" stop-color="#f69834"/></linearGradient></defs><title>Artboard 1</title><circle class="cls-1" cx="11.86" cy="10.43" r="9.23"/><path class="cls-2" d="M59.72,8.55a8.7,8.7,0,0,1,3.15,3.31l-3.35,2.59a5.41,5.41,0,0,0-4.58-2.77,3.62,3.62,0,0,0-2.13.6A2,2,0,0,0,52,14a1.91,1.91,0,0,0,.64,1.51,9.27,9.27,0,0,0,2.16,1.26L57.48,18a13,13,0,0,1,4.48,3A5.86,5.86,0,0,1,63.42,25a6.47,6.47,0,0,1-2.37,5.24,9.14,9.14,0,0,1-6,2,10.53,10.53,0,0,1-5.48-1.44,10.4,10.4,0,0,1-3.8-3.88l3.38-2.54c1.68,2.33,3.64,3.49,5.9,3.49a4,4,0,0,0,2.51-.71,2.32,2.32,0,0,0,.91-1.95A2.12,2.12,0,0,0,58,23.89a2.88,2.88,0,0,0-.94-.85c-.36-.2-.92-.48-1.7-.84L52.79,21a13.18,13.18,0,0,1-4.31-2.91,5.66,5.66,0,0,1-1.51-4,6.1,6.1,0,0,1,2.25-4.93,8.66,8.66,0,0,1,5.72-1.88A9,9,0,0,1,59.72,8.55Zm25.17,3.64H77.17V31.77H72.26V12.19H64.58V7.75H84.89Zm22.49,9.64a10.12,10.12,0,0,1-2.86,7.56,10.95,10.95,0,0,1-14.67,0A10.16,10.16,0,0,1,87,21.83V7.75h4.91V22.2a5,5,0,0,0,5.28,5.46A5.27,5.27,0,0,0,101,26.24a5.39,5.39,0,0,0,1.46-4V7.75h4.91ZM135.29,7.31V31.77h-4.91V18.92l-6,7.61h-1.6l-6-7.61V31.77h-4.91V7.31h1.6l10.16,13,10.15-13Zm19.89,2.57a7.13,7.13,0,0,1,2.42,5.62,7.19,7.19,0,0,1-2.42,5.62,9,9,0,0,1-6.24,2.17h-4.11v8.48h-4.92v-24h9A9.09,9.09,0,0,1,155.18,9.88Zm-10.35,2.2V19h4.11a3.61,3.61,0,0,0,2.67-1,3.38,3.38,0,0,0,1-2.53,3.25,3.25,0,0,0-1-2.47,3.66,3.66,0,0,0-2.65-.95Zm31.95.11H165.53v4.88h8.26v4.18h-8.26v6.08h11.69v4.44h-16.6v-24h16.16ZM197.89,11a11.1,11.1,0,0,1,3.64,8.66,11.33,11.33,0,0,1-3.66,8.7,13.39,13.39,0,0,1-9.45,3.38h-7.86v-24h7.86A13.59,13.59,0,0,1,197.89,11Zm-12.41,1.16V27.33h2.91a8.23,8.23,0,0,0,5.86-2.09,7.28,7.28,0,0,0,2.22-5.55,7.1,7.1,0,0,0-2.2-5.5,8.43,8.43,0,0,0-5.88-2Z"/><path class="cls-3" d="M22.08,1a19,19,0,0,0-6.29,1.07,9.25,9.25,0,0,1,3.73,3.2A14.34,14.34,0,0,1,22.08,5a15,15,0,1,1-15,15,14,14,0,0,1,.09-1.6,9.25,9.25,0,0,1-3.43-3.51A19,19,0,1,0,22.08,1Z"/></svg>