<?xml version="1.0" encoding="utf-8"?>
<!-- Generator: Adobe Illustrator 23.0.3, SVG Export Plug-In . SVG Version: 6.00 Build 0)  -->
<svg version="1.1" id="Layer_1" xmlns="http://www.w3.org/2000/svg" xmlns:xlink="http://www.w3.org/1999/xlink" x="0px" y="0px"
	 viewBox="0 0 204.1 40" style="enable-background:new 0 0 204.1 40;" xml:space="preserve">
<style type="text/css">
	.st0{fill-rule:evenodd;clip-rule:evenodd;fill:#FFFFFF;}
	.st1{fill:#FFFFFF;}
	.st2{fill:url(#SVGID_1_);}
</style>
<title>Artboard 1 copy 3</title>
<path class="st0" d="M41.1,20c0-3.3-0.8-6.5-2.5-9.3l0,0c-0.2-0.4-0.5-0.8-0.7-1.2l-0.3-0.4c-0.2-0.3-0.5-0.6-0.7-1l-0.3-0.4
	c-0.3-0.4-0.7-0.8-1.1-1.2c-0.4-0.4-0.9-0.9-1.4-1.3c-0.2-0.2-0.5-0.3-0.7-0.5s-0.5-0.4-0.8-0.6s-0.5-0.3-0.8-0.5L31,3.2
	c-0.3-0.2-0.6-0.3-0.9-0.4s-0.5-0.3-0.8-0.4s-0.6-0.2-0.9-0.3s-0.6-0.2-0.9-0.3S27,1.7,26.7,1.6s-0.6-0.2-0.9-0.2s-0.7-0.1-1-0.1
	s-0.5-0.1-0.8-0.1C23.3,1,22.7,1,22.1,1s-1.2,0-1.7,0.1l-0.5,0.1c-0.4,0-0.8,0.1-1.1,0.2c-0.2,0-0.5,0.1-0.7,0.1L17,1.7
	c-0.3,0.1-0.5,0.1-0.8,0.2l-0.4,0.1l0,0c-0.5,0.2-1,0.4-1.5,0.6l3,3.2c0.9-0.3,1.9-0.5,2.8-0.7l0.6-0.1c0.5,0,0.9-0.1,1.4-0.1
	c0.5,0,1,0,1.5,0.1l0.7,0.1L25,5.3c0.2,0,0.5,0.1,0.7,0.2s0.5,0.1,0.7,0.2s0.5,0.2,0.7,0.2s0.5,0.2,0.7,0.2s0.4,0.2,0.6,0.3
	s0.5,0.2,0.7,0.3l0.6,0.4c0.2,0.1,0.4,0.2,0.6,0.4S30.8,7.9,31,8s0.4,0.2,0.5,0.4c0.4,0.3,0.7,0.6,1.1,1s0.7,0.8,1,1.1
	c4.4,5.4,4.5,13,0.2,18.5c-0.1,0.2-0.2,0.3-0.4,0.5c-0.3,0.4-0.6,0.7-0.9,1s-0.7,0.7-1.1,1L31,32c-0.2,0.2-0.4,0.3-0.6,0.5
	s-0.4,0.3-0.6,0.4l-0.6,0.3c-0.2,0.1-0.5,0.2-0.7,0.3s-0.4,0.2-0.6,0.3s-0.5,0.2-0.7,0.2s-0.5,0.2-0.7,0.2s-0.5,0.1-0.7,0.2
	s-0.5,0.1-0.7,0.2s-0.5,0.1-0.8,0.1l-0.7,0.1C23,35,22.6,35,22.1,35c-0.5,0-1,0-1.5-0.1l-0.7-0.1c-0.3,0-0.5-0.1-0.8-0.1l-0.7-0.2
	l-0.7-0.2c-0.2-0.1-0.5-0.2-0.7-0.2s-0.5-0.2-0.7-0.2s-0.4-0.2-0.6-0.3s-0.5-0.2-0.7-0.3s-0.4-0.2-0.6-0.3s-0.4-0.3-0.7-0.4
	s-0.4-0.3-0.6-0.5s-0.4-0.3-0.5-0.4c-0.4-0.3-0.7-0.6-1.1-1l0,0c-0.4-0.4-0.7-0.7-1-1.1c-0.1-0.2-0.3-0.4-0.4-0.5l-0.5-0.6
	c-0.1-0.2-0.3-0.4-0.4-0.7S9,27.3,8.9,27.1s-0.2-0.5-0.3-0.7S8.3,26,8.2,25.8S8.1,25.3,8,25.1s-0.2-0.5-0.2-0.7s-0.1-0.5-0.2-0.7
	S7.4,23.2,7.4,23s-0.1-0.5-0.1-0.8s-0.1-0.4-0.1-0.7c0-0.5-0.1-1-0.1-1.5s0-1,0.1-1.5c0.1-0.6,0.2-1.3,0.3-1.9l-1.8-2l-1.5-1.2
	c-0.2,0.5-0.4,1-0.5,1.5l0,0c-0.1,0.4-0.2,0.9-0.3,1.3c0,0.2-0.1,0.3-0.1,0.5c-0.1,0.4-0.1,0.8-0.2,1.2c0,0.2,0,0.3,0,0.5
	c0,0.5-0.1,1.1-0.1,1.6s0,1.2,0.1,1.9c0,0.3,0.1,0.6,0.1,0.8s0.1,0.7,0.2,1s0.2,0.6,0.2,1s0.1,0.6,0.2,0.9s0.2,0.6,0.3,0.9
	s0.2,0.6,0.3,0.9s0.3,0.5,0.4,0.8s0.3,0.6,0.4,0.9s0.3,0.5,0.4,0.8s0.3,0.6,0.5,0.8s0.4,0.5,0.6,0.8s0.3,0.5,0.5,0.7
	c0.4,0.5,0.8,0.9,1.2,1.4l0,0l0,0c0.4,0.4,0.9,0.8,1.4,1.2c0.2,0.2,0.5,0.3,0.7,0.5s0.5,0.4,0.8,0.6s0.6,0.3,0.8,0.5
	s0.5,0.3,0.8,0.5s0.6,0.3,0.9,0.4s0.5,0.3,0.8,0.4s0.6,0.2,0.9,0.3s0.6,0.2,0.9,0.3s0.6,0.2,0.9,0.2s0.6,0.2,0.9,0.2s0.7,0.1,1,0.2
	s0.5,0.1,0.8,0.1c1.2,0.1,2.5,0.1,3.8,0c0.3,0,0.6-0.1,0.8-0.1s0.7-0.1,1-0.2s0.6-0.2,0.9-0.2s0.6-0.1,0.9-0.2s0.6-0.2,0.9-0.3
	s0.6-0.2,0.9-0.3s0.5-0.2,0.8-0.4s0.6-0.3,0.9-0.4s0.5-0.3,0.8-0.5s0.6-0.3,0.8-0.5s0.5-0.4,0.8-0.6s0.5-0.3,0.7-0.5
	c0.5-0.4,0.9-0.8,1.4-1.2l0,0c0.4-0.4,0.8-0.8,1.2-1.3c0.1-0.1,0.2-0.3,0.3-0.4c0.2-0.3,0.5-0.6,0.7-0.9s0.3-0.4,0.4-0.6
	s0.3-0.6,0.5-0.9s0.2-0.5,0.4-0.7c0.1-0.1,0.2-0.3,0.2-0.4l0,0C40.4,25.6,41.1,22.8,41.1,20z"/>
<path class="st1" d="M59.7,8.6c1.3,0.8,2.4,1.9,3.2,3.3l-3.3,2.6c-0.9-1.7-2.7-2.7-4.6-2.8c-0.8,0-1.5,0.2-2.1,0.6
	c-0.6,0.4-0.9,1-0.9,1.7c0,0.6,0.2,1.1,0.6,1.5c0.7,0.5,1.4,0.9,2.2,1.3l2.7,1.2c1.7,0.7,3.2,1.7,4.5,3c1,1.1,1.5,2.5,1.5,4
	c0.1,2-0.8,4-2.4,5.2c-1.7,1.4-3.8,2.1-6,2c-3.8,0.1-7.4-2-9.3-5.3l3.4-2.5c1.7,2.3,3.6,3.5,5.9,3.5c0.9,0.1,1.8-0.2,2.5-0.7
	c0.6-0.5,0.9-1.2,0.9-2c0-0.5-0.1-0.9-0.4-1.3c-0.3-0.4-0.6-0.6-1-0.9c-0.3-0.2-0.9-0.5-1.7-0.8L52.8,21c-1.6-0.7-3.1-1.7-4.3-2.9
	c-1-1.1-1.6-2.5-1.5-4c-0.1-1.9,0.8-3.7,2.3-4.9c1.6-1.3,3.6-2,5.7-1.9C56.6,7.2,58.3,7.7,59.7,8.6z M84.9,12.2h-7.7v19.6h-4.9V12.2
	h-7.7V7.8h20.3V12.2z M107.4,21.8c0.1,2.8-0.9,5.5-2.9,7.6c-4.2,3.8-10.5,3.8-14.7,0c-2-2-3-4.8-2.8-7.6V7.8h4.9v14.5
	c-0.1,1.5,0.4,2.9,1.5,4c2.2,1.9,5.4,1.9,7.6,0c1-1.1,1.5-2.5,1.4-4V7.8h4.9V21.8z M135.3,7.3v24.5h-4.9V18.9l-6,7.6h-1.6l-6-7.6
	v12.9h-4.9V7.3h1.6l10.2,13l10.1-13L135.3,7.3z M155.2,9.9c1.6,1.4,2.5,3.5,2.4,5.6c0.1,2.1-0.8,4.2-2.4,5.6c-1.7,1.5-4,2.3-6.2,2.2
	h-4.1v8.5h-4.9v-24h9C151.2,7.7,153.4,8.4,155.2,9.9z M144.8,12.1V19h4.1c1,0,2-0.3,2.7-1c0.7-0.7,1-1.6,1-2.5c0-0.9-0.3-1.8-1-2.5
	c-0.7-0.7-1.7-1-2.6-0.9L144.8,12.1z M176.8,12.2h-11.3v4.9h8.3v4.2h-8.3v6.1h11.7v4.4h-16.6v-24h16.2L176.8,12.2z M197.9,11
	c2.4,2.2,3.8,5.4,3.6,8.7c0.1,3.3-1.2,6.5-3.6,8.7c-2.6,2.3-6,3.5-9.4,3.4h-7.9v-24h7.9C191.9,7.6,195.3,8.7,197.9,11z M185.5,12.2
	v15.2h2.9c2.2,0.1,4.3-0.7,5.9-2.1c1.5-1.4,2.3-3.5,2.2-5.6c0.1-2.1-0.7-4.1-2.2-5.5c-1.6-1.4-3.7-2.1-5.9-2L185.5,12.2z"/>
<linearGradient id="SVGID_1_" gradientUnits="userSpaceOnUse" x1="2.62" y1="29.57" x2="21.08" y2="29.57" gradientTransform="matrix(1 0 0 -1 0 40)">
	<stop  offset="0" style="stop-color:#9E1D22"/>
	<stop  offset="0.66" style="stop-color:#EF6935"/>
	<stop  offset="1" style="stop-color:#F69834"/>
</linearGradient>
<circle class="st2" cx="11.9" cy="10.4" r="9.2"/>
<path class="st1" d="M14.3,13.6l0.3-0.6c0.2-0.4,0.2-0.9,0.1-1.3c0-0.6,0-1.1,0-1.7h0.1c0.4,0.5,1,1.2,1.4,1.7
	c0.1,0.3,0.4,0.5,0.8,0.4c0.1,0,0.2,0.1,0.3,0.1s0.2,0.2,0.3,0c0.1-0.1,0.1-0.2,0-0.3c-0.3-0.3-0.3-0.8-0.9-0.9
	c-0.3,0-0.7-1-0.8-1.3c0.5,0.4,1,0.9,1.4,1.4c0.2,0.3,0.2,0.1,0.4,0.4c0,0.1,0.1,0.1,0.2,0.1c0.1,0,0.1-0.1,0.1-0.2
	c0-0.3,0.1-0.3,0.3-0.2s0.2,0.3,0.3,0.2s-0.2-0.4-0.2-0.4c-0.1-0.1-0.1-0.2-0.2-0.3c-0.1-0.3-0.3-0.3-0.6-0.2
	c-0.2,0-0.3-0.2-0.4-0.4s-0.1-0.3,0.1-0.3c0.5-0.1,1-0.2,0.8-0.7c-0.1-0.3-0.2-0.6-0.2-0.9c0-0.1,0.1,0,0.1,0l0.2,0.2
	c0.1,0.1,0.2,0.1,0.2,0c0,0,0,0,0,0l0,0c0.1,0,0.2-0.1,0.3-0.1L19,8.4h0.1c0.1,0,0.2-0.1,0.2-0.2c0,0,0,0,0,0c0-0.1,0.1-0.2,0.1-0.2
	c0.1,0,0.1-0.1,0.2-0.2c0-0.1,0.1-0.2,0.1-0.2c0-0.1,0.1-0.1,0.1-0.2C20,7.4,20.1,7.2,20,7.1c0-0.1-0.1-0.2-0.1-0.3
	c0-0.1-0.1-0.1-0.2-0.2c-0.1-0.2-0.3-0.3-0.5-0.3l0,0c-0.1-0.1-0.3,0-0.5,0c0,0-0.1,0-0.1,0l-0.3,0.2c-0.1,0.1-0.1,0.1-0.2,0.2
	c-0.1,0.1-0.2,0.6-0.3,0.5C17.3,7.7,17,6.8,17,6.8c-0.2-0.4-0.5-0.6-0.9-0.3c-0.2,0.2-0.4,0.4-0.7,0.6c-0.5,0.2-1,0.3-1.5,0.1
	c-0.3-0.2-0.7-0.1-0.9,0.2c-0.5,0.6-1,1.1-1.6,1.5c-0.1,0-0.2,0.1-0.2,0c-0.3-0.3-0.6-0.4-1-0.5c-0.1,0-0.2-0.1-0.1-0.2
	c0-0.6-0.1-1.2-0.2-1.8c-0.1-0.3-0.1-0.7-0.2-1c0-0.3-0.2-0.6-0.5-0.6c0,0,0,0,0,0C9,4.8,8.9,4.7,9,4.5C9.1,4,8.8,3.4,8.3,3.3
	c-0.1,0-0.2,0-0.3,0c-0.3,0-0.6,0.1-0.8,0.3C6.9,3.7,6.9,4,7,4.3c0,0,0,0,0,0c0,0,0,0.1,0,0.2c0.1,0.8,0.1,0.8-0.6,0.7
	C6,5.1,5.5,5.6,5.4,6c0,0.3-0.2,0.6-0.4,0.8C4.8,7,4.6,7.3,4.5,7.6V8c0.4,0.5,1,0.8,1.7,0.9C6.4,9,6.8,9,6.6,9.3
	C6.1,9.9,6.4,9.9,6.9,9.7C7.1,9.6,7.1,9.9,7,10c-0.2,0.3-0.4,0.6-0.6,0.9c-0.1,0.1-0.1,0.2-0.2,0.3l-3.6-1c0,0.1,0,0.1,0,0.2
	l3.5,1.1c-0.1,0.3-0.2,0.6-0.3,0.9c-0.1,0.5,0.1,1,0.6,1.3c0.2,0.1,0.4,0.3,0.7,0.5c0.5,0.4,0.7,1.1,0.6,1.7c0,0.2-0.1,0.3-0.2,0.4
	c-0.1,0.2,0,0.4,0.2,0.5c0.1,0,0.1,0,0.2,0c0.4,0,0.8-0.4,0.8-0.8c-0.1-0.4,0-0.8,0.2-1.2c0.1-0.2,0.1-0.5-0.1-0.7c0,0,0,0-0.1,0
	C8.3,14,8,13.6,8,13.2c0-0.2-0.1-0.4-0.3-0.5c-0.1-0.1-0.2-0.3-0.1-0.4c0,0,0-0.1,0.1-0.1l0.2-0.1l1.6,0.5l0.1,0.1
	c0.4,0.3,0.7,0.8,0.7,1.4c0,0.5,0.2,0.9,0.6,1.2c0.2,0.2,0.2,0.5,0.3,0.7c0,0.4,0.2,0.7,0.5,1c0,0,0.1,0.1,0.1,0.2
	c0.1,0.4,0.4,0.7,0.8,0.8h0.5c0,0,0.1-0.1,0.1-0.1c-0.9-1.2-0.3-0.9,0.7-0.3c0.1,0,0.1,0,0.2,0s0.4,0,0.4-0.2s-0.1-0.4-0.2-0.5
	c-0.3-0.1-0.5-0.3-0.6-0.6c-0.1-0.1-0.1-0.3-0.1-0.4c0.2-0.6,0.4-1.2,0.6-1.8l5.3,1.7c0.1-0.2,0.2-0.3,0.4-0.5L14.3,13.6z M6.5,8.2
	C6.2,8,5.9,7.8,5.7,7.6C5.6,7.5,6.2,6.6,6.2,6.6S6.7,8.2,6.5,8.2z M8.1,11.9c0.1-0.1,0.2-0.2,0.2-0.3c0.1-0.2,0.2-0.1,0.4,0
	S8.9,11.8,9,12l0.1,0.2L8.1,11.9z M12.8,13.9c0,0.4,0,0.8-0.1,1.2c0,0.5-0.2,1-0.6,1.3c-0.3-1.1-0.6-2.1-1-3.2l1.6,0.5
	C12.8,13.7,12.8,13.8,12.8,13.9L12.8,13.9z M13.2,12.9c-0.1,0.1-0.2,0.2-0.2,0.4l-1.9-0.5c-0.3-0.9-0.7-1.9-1-2.8
	c0.3,0.1,0.7,0.3,0.9,0.5c0.3,0.2,0.7,0.2,1.1,0c0.2-0.1,0.4-0.2,0.6-0.2c0.3-0.1,0.4,0,0.4,0.3c0,0.5,0.1,1.1,0.3,1.6
	C13.5,12.4,13.4,12.7,13.2,12.9z"/>
</svg>
