<?xml version="1.0" encoding="utf-8"?>
<!-- Generator: Adobe Illustrator 23.1.0, SVG Export Plug-In . SVG Version: 6.00 Build 0)  -->
<svg version="1.1" id="Layer_1" xmlns="http://www.w3.org/2000/svg" xmlns:xlink="http://www.w3.org/1999/xlink" x="0px" y="0px"
	 viewBox="0 0 300 300" style="enable-background:new 0 0 300 300;" xml:space="preserve">

	 <style>
	 .bg-color{
	fill: #00306c;
	 }
	 </style>
<g class="bg-color">
	<path d="M149.6,292.4c-34,0-68-0.3-102,0.1c-18.9,0.3-33.3-6.6-41.3-24.1c-8.1-17.7-2.7-33.7,9.6-47.3
		c20.7-22.8,47.6-35.4,75.9-45.4c21.9-7.7,23-11.1,9.1-28.9c-20.6-26.5-27.4-56.1-18-88.6C92.8,24,123.3,3.8,157.5,8
		c36.3,4.4,60.5,30.9,63.3,69.2c2.1,27.6-6.7,51.5-24,72.5c-10.8,13.1-8.6,17.9,6.7,24.7c21.9,9.7,43.5,20.4,64.2,32.3
		c8.6,5,15.7,13.7,21.8,22c9.9,13.3,10.8,28.2,2.6,42.9c-7.9,14.1-20.1,20.8-36.1,20.8C220.5,292.3,185,292.3,149.6,292.4z"/>
</g>
</svg>
