<svg xmlns="http://www.w3.org/2000/svg" width="44" height="44"><g stroke="#e2e2e2"><circle cx="22" cy="22" r="22" stroke="none"/><circle cx="22" cy="22" r="21.5" fill="none"/></g><path d="M18.401 32.476c-3.28-.019-5.993-6.714-5.993-10.123 0-5.57 4.178-6.789 5.788-6.789a6.66 6.66 0 012.184.537 4.882 4.882 0 001.247.357 3.881 3.881 0 00.895-.29 7.17 7.17 0 012.7-.652h.006a5.527 5.527 0 014.625 2.336l.337.507-.485.366a4.085 4.085 0 00-1.959 3.369 3.8 3.8 0 002.122 3.515c.3.183.618.371.618.784 0 .269-2.149 6.05-5.269 6.05a4.238 4.238 0 01-1.779-.432 3.608 3.608 0 00-1.584-.381 4.074 4.074 0 00-1.254.339 6.142 6.142 0 01-2.175.507zm7.148-22.036c.081 2.93-2.014 4.963-4.107 4.835a4.669 4.669 0 014.107-4.835z" fill="#fff"/></svg>