<svg version="1.1" id="Layer_1" xmlns="http://www.w3.org/2000/svg" x="0" y="0" viewBox="0 0 300 300" xml:space="preserve"><path d="M149.9 0c-20.6 0-37.3 16.7-37.3 37.3s16.7 37.3 37.3 37.3c20.6 0 37.3-16.7 37.3-37.3S170.5 0 149.9 0zm0 59.4c-12.2 0-22.1-9.9-22.1-22.1s9.9-22.1 22.1-22.1S172 25.1 172 37.3s-9.9 22.1-22.1 22.1zm117.6 14.9c0-15.5-12.6-28.2-28.2-28.2-15.5 0-28.2 12.6-28.2 28.2 0 15.5 12.6 28.2 28.2 28.2 15.5 0 28.2-12.6 28.2-28.2zm-44.3 0c0-8.8 7.2-16 16-16s16 7.2 16 16-7.2 16-16 16c-8.8.1-16-7.1-16-16zM60.6 44.1c-16.6 0-30.2 13.5-30.2 30.2 0 16.6 13.5 30.2 30.2 30.2S90.8 91 90.8 74.3c0-16.6-13.5-30.2-30.2-30.2zm0 48.3c-10 0-18.1-8.1-18.1-18.1 0-10 8.1-18.1 18.1-18.1s18.1 8.1 18.1 18.1c0 10-8.1 18.1-18.1 18.1zm-37.1 52.3c-10.5 0-19.1 8.6-19.1 19.1s8.6 19.1 19.1 19.1c10.5 0 19.1-8.6 19.1-19.1s-8.5-19.1-19.1-19.1zm0 30.1c-6.1 0-11-4.9-11-11s4.9-11 11-11 11 4.9 11 11-4.9 11-11 11zm253-30.3c-10.5 0-19.1 8.6-19.1 19.1s8.6 19.1 19.1 19.1c10.5 0 19.1-8.6 19.1-19.1s-8.6-19.1-19.1-19.1zm0 30.1c-6.1 0-11-4.9-11-11s4.9-11 11-11 11 4.9 11 11-5 11-11 11zm-37.2 65.5c-7.1 0-12.9 5.8-12.9 12.9 0 7.1 5.8 12.9 12.9 12.9s12.9-5.8 12.9-12.9c0-7.1-5.8-12.9-12.9-12.9zm0 19.7c-3.8 0-6.8-3.1-6.8-6.8s3.1-6.8 6.8-6.8 6.8 3.1 6.8 6.8-3.1 6.8-6.8 6.8zM60.7 240c-7.1 0-12.9 5.8-12.9 12.9 0 7.1 5.8 12.9 12.9 12.9 7.1 0 12.9-5.8 12.9-12.9 0-7.1-5.8-12.9-12.9-12.9zm0 19.7c-3.8 0-6.8-3.1-6.8-6.8 0-3.8 3.1-6.8 6.8-6.8s6.8 3.1 6.8 6.8c0 3.8-3.1 6.8-6.8 6.8zm99.2 30.4c0 5.4-4.4 9.9-9.9 9.9-5.4 0-9.9-4.4-9.9-9.9s4.4-9.9 9.9-9.9c5.5.1 9.9 4.5 9.9 9.9z"/></svg>