<svg xmlns="http://www.w3.org/2000/svg" width="49.574" height="49.564"><defs><style>.b{fill:#225cc2}</style></defs><path d="M48.95 24.462v-.176q-.005-.185-.014-.369c0-.068-.005-.136-.009-.2a20.842 20.842 0 00-.039-.601c-.01-.142-.023-.283-.036-.424l-.032-.309-.021-.191q-.02-.176-.043-.352l-.013-.1a24.222 24.222 0 00-16.067-19.6 24.025 24.025 0 011.093 4.622c0 .032.009.064.013.1q.023.176.043.352l.021.191a22.866 22.866 0 01.068.733c.007.081.012.162.017.243q.013.179.022.358c0 .068.007.136.01.2.006.123.01.246.014.369v.176c0 .181.006.362.006.543 0 .164 0 .33-.006.5 0 .085 0 .17-.007.255 0 .055 0 .111-.006.167a24.166 24.166 0 01-22.588 23.2l-.251.015-.256.012-.316.012-.207.006c-.178 0-.356.006-.533.006s-.377 0-.564-.007h-.06c-.184 0-.367-.012-.551-.02h-.057q-.282-.014-.564-.034h-.021q-.887-.065-1.761-.194h-.01q-.278-.042-.555-.089l-.061-.011q-.257-.045-.512-.095l-.118-.024q-.187-.038-.373-.079a16.32 16.32 0 01-.318-.072l-.186-.044q-1.105-.267-2.177-.636a24.247 24.247 0 0017.15 15.609l.185.044.318.072q.186.041.373.079l.118.024c.17.034.341.065.512.1l.061.01c.184.032.369.061.555.089h.01q.873.128 1.76.194h.022q.281.02.564.034h.057c.183.008.367.015.551.02h.06c.188 0 .376.006.564.006s.355 0 .533-.006l.207-.006.316-.012.256-.012.251-.015a24.167 24.167 0 0022.587-23.2c0-.056 0-.111.006-.167q0-.127.007-.255c0-.167.006-.334.006-.5q0-.272-.007-.543z" fill="#dcddde"/><path class="b" d="M36.524 28.173c-.166.309-.408.665-.648 1.085-.12.21-.261.426-.408.655s-.29.473-.455.718c-.332.491-.682 1.024-1.08 1.566-.191.277-.4.549-.615.829l-.322.424-.341.422-.345.429-.363.425c-.24.287-.494.567-.75.85a36.33 36.33 0 01-1.605 1.663c-.276.272-.561.535-.842.8s-.567.523-.862.766c-.578.5-1.162.976-1.738 1.427s-1.146.872-1.7 1.259-1.081.746-1.575 1.074a58.828 58.828 0 01-2.457 1.515l-.713.4-.256.14s.1-.008.291-.038.468-.072.814-.157.77-.185 1.246-.333 1.006-.335 1.578-.562a23.039 23.039 0 003.733-1.933c.326-.208.654-.424.975-.658s.648-.47.967-.723.633-.516.946-.783.612-.554.91-.84a23.619 23.619 0 001.673-1.815l.387-.469c.125-.158.241-.323.361-.483l.353-.478c.114-.16.218-.326.326-.487.214-.323.425-.639.606-.966s.375-.633.53-.953.324-.618.457-.923l.383-.882c.22-.576.419-1.1.558-1.581s.26-.895.332-1.245.124-.626.162-.812l.05-.288-.152.251c-.095.165-.243.403-.411.711zM6.425 35.228c-.149.2-.3.4-.446.6q.184.345.366.662c.206-.285.414-.57.626-.85a.342.342 0 00-.546-.413zm1.987-2.457c-.326.377-.651.766-.967 1.155a.342.342 0 10.531.43c.311-.383.632-.766.953-1.138a.342.342 0 00-.517-.447zm2.151-2.327a47.94 47.94 0 00-1.044 1.092.342.342 0 00.5.464c.331-.358.677-.72 1.029-1.076a.342.342 0 00-.487-.481zm2.303-2.189c-.378.338-.754.682-1.116 1.025a.343.343 0 00.471.5c.356-.338.726-.677 1.1-1.01a.342.342 0 10-.455-.511zm2.447-2.04c-.4.313-.8.634-1.182.952a.342.342 0 10.437.526c.378-.314.77-.63 1.166-.939a.342.342 0 10-.421-.539zm2.577-1.881c-.417.285-.835.58-1.242.876a.342.342 0 10.4.553c.4-.292.814-.582 1.226-.863a.342.342 0 00-.385-.565zm2.696-1.712c-.432.255-.869.522-1.3.794a.342.342 0 00.366.578c.423-.268.854-.532 1.28-.783a.342.342 0 00-.348-.589zm2.803-1.538c-.454.23-.907.469-1.347.709a.342.342 0 10.329.6c.433-.237.88-.473 1.327-.7a.342.342 0 10-.309-.61zm2.895-1.354c-.464.2-.931.409-1.389.622a.342.342 0 00.144.652.335.335 0 00.144-.032c.452-.21.913-.417 1.371-.613a.342.342 0 00-.27-.628zm2.973-1.166c-.485.172-.965.351-1.425.531a.342.342 0 10.249.637c.454-.178.927-.354 1.406-.524a.342.342 0 10-.229-.644zm3.04-.97c-.482.137-.971.284-1.454.438a.342.342 0 00.1.668.346.346 0 00.1-.016c.477-.152.959-.3 1.435-.432a.342.342 0 00-.187-.658zm3.091-.771c-.489.105-.986.22-1.477.342a.342.342 0 00.082.674.356.356 0 00.082-.01c.484-.12.975-.233 1.457-.338a.342.342 0 10-.144-.668zm3.221.108a.342.342 0 00-.1-.676c-.5.073-1 .156-1.492.245a.342.342 0 00.06.679.307.307 0 00.061-.006c.489-.088.984-.169 1.471-.242zM6.68 37.054a19.243 19.243 0 00.318.501.34.34 0 00.254-.139c.282-.391.576-.786.873-1.174a.342.342 0 10-.542-.417c-.3.393-.6.793-.886 1.191a.3.3 0 00-.017.038zm1.966-2.026a.341.341 0 00.481-.046c.312-.378.632-.753.953-1.116a.342.342 0 10-.513-.453c-.324.369-.65.75-.967 1.133a.343.343 0 00.046.482zm2.044-2.343a.342.342 0 00.483-.014 53.3 53.3 0 011.027-1.055.342.342 0 00-.483-.484c-.354.352-.7.712-1.042 1.07a.342.342 0 00.015.483zm2.196-2.21a.341.341 0 00.483.018 41.65 41.65 0 011.1-.987.342.342 0 00-.45-.516c-.371.323-.745.66-1.113 1a.342.342 0 00-.02.485zm2.395-2.548a.342.342 0 00.432.531c.384-.313.775-.621 1.161-.917a.342.342 0 10-.415-.543c-.397.299-.793.612-1.178.929zm2.503-1.908a.342.342 0 00.2.621.336.336 0 00.2-.064c.4-.284.809-.567 1.22-.84a.342.342 0 00-.379-.57c-.42.278-.837.569-1.241.853zm3.92-2.517c-.434.25-.869.51-1.291.771a.342.342 0 10.359.581 48.58 48.58 0 011.273-.76.342.342 0 10-.342-.593zm2.785-1.487c-.444.219-.895.45-1.339.686a.342.342 0 10.322.6c.438-.233.882-.461 1.32-.677a.342.342 0 10-.3-.613zm2.876-1.305c-.461.191-.925.393-1.38.6a.342.342 0 10.282.623c.448-.2.906-.4 1.361-.59a.342.342 0 00-.262-.631zm2.952-1.116c-.472.161-.949.332-1.415.507a.342.342 0 00.121.662.332.332 0 00.12-.022c.459-.173.928-.341 1.394-.5a.342.342 0 00-.221-.647zm3.014-.918c-.48.13-.965.269-1.442.414a.342.342 0 00.1.67.336.336 0 00.1-.015c.471-.143.949-.281 1.422-.408a.342.342 0 00-.179-.661zm3.061-.725c-.483.1-.975.2-1.463.319a.342.342 0 00.078.675.325.325 0 00.078-.009 49.83 49.83 0 011.442-.314.342.342 0 00-.135-.671zM4.605 27.019a.342.342 0 00-.483.028c-.211.237-.423.482-.634.728.033.28.07.557.1.831 0 .029.01.057.015.086.338-.4.683-.806 1.026-1.192a.342.342 0 00-.024-.481zm.958-.694a.343.343 0 00.248-.107c.359-.378.732-.76 1.109-1.134a.342.342 0 00-.482-.486c-.381.379-.76.765-1.123 1.149a.342.342 0 00.248.577zm2.385-2.359a.34.34 0 00.233-.092c.384-.357.782-.716 1.181-1.065a.342.342 0 00-.45-.515c-.405.354-.808.717-1.2 1.079a.342.342 0 00.233.593zm2.536-2.211a.341.341 0 00.216-.078c.407-.333.828-.667 1.249-.992a.342.342 0 00-.417-.542c-.427.329-.853.667-1.265 1a.342.342 0 00.217.607zm2.674-2.053a.339.339 0 00.2-.065c.428-.308.869-.615 1.311-.913a.342.342 0 10-.382-.567c-.448.3-.894.613-1.328.925a.342.342 0 00.2.62zm2.802-1.887a.342.342 0 00.182-.053c.446-.281.906-.56 1.367-.831a.342.342 0 00-.347-.589c-.467.274-.932.558-1.384.841a.342.342 0 00.182.632zm2.916-1.71a.339.339 0 00.163-.042c.461-.251.937-.5 1.417-.745a.342.342 0 00-.31-.61c-.486.246-.968.5-1.435.755a.342.342 0 00.164.642zm3.019-1.526a.337.337 0 00.144-.033c.489-.228.98-.449 1.46-.656a.342.342 0 00-.271-.628c-.486.21-.983.433-1.478.664a.342.342 0 00.145.652zm4.496-2.568c-.505.182-1.015.374-1.515.571a.342.342 0 00.25.637c.494-.195 1-.385 1.5-.564a.342.342 0 00-.232-.644zm3.229-1.05a58.63 58.63 0 00-1.545.475.342.342 0 00.1.667.337.337 0 00.1-.017 53.73 53.73 0 011.526-.469.342.342 0 10-.191-.657zm3.282-.846c-.519.116-1.046.243-1.568.377a.342.342 0 00.085.673.349.349 0 00.085-.011 54.242 54.242 0 011.549-.372.342.342 0 10-.15-.667zm1.863.312c.513-.1 1.04-.19 1.565-.274a.342.342 0 00-.108-.676c-.532.085-1.065.178-1.584.277a.342.342 0 00.063.678.334.334 0 00.064-.005zM3.39 26.582v.082l.008.095.014.168c.27-.31.545-.621.824-.927a.342.342 0 00-.506-.461c-.121.134-.242.269-.363.4 0 .147.01.3.015.442zm3.193-2.993a.342.342 0 10-.475-.491c-.387.374-.774.76-1.151 1.147a.342.342 0 00.49.477c.372-.386.754-.767 1.136-1.133zm2.5-2.274a.342.342 0 10-.443-.52c-.41.349-.822.712-1.225 1.076a.342.342 0 10.459.507c.397-.36.804-.715 1.209-1.063zm2.643-2.117a.342.342 0 00-.41-.547c-.435.327-.869.664-1.292 1a.342.342 0 10.426.535c.417-.333.846-.665 1.276-.988zm1.438-1.043c.441-.309.891-.615 1.337-.909a.342.342 0 10-.376-.571c-.452.3-.908.607-1.354.92a.342.342 0 10.393.56zm2.839-1.863c.46-.282.928-.56 1.393-.825a.342.342 0 10-.34-.593c-.47.269-.944.55-1.409.835a.342.342 0 10.357.583zm2.951-1.686c.471-.25.956-.5 1.441-.738a.342.342 0 00-.3-.613c-.491.243-.982.494-1.459.747a.342.342 0 10.321.6zm2.909-1.47a.342.342 0 00.141-.031c.492-.223.991-.442 1.483-.648a.342.342 0 00-.265-.631c-.5.209-1 .43-1.5.657a.342.342 0 00.142.653zm5.005-2.331a.341.341 0 00-.435-.21c-.511.178-1.028.367-1.538.561a.342.342 0 10.244.639c.5-.192 1.014-.379 1.519-.555a.342.342 0 00.21-.435zm3.262-1.003a.342.342 0 00-.421-.237c-.524.146-1.051.3-1.567.464a.342.342 0 10.2.652c.51-.159 1.03-.314 1.547-.459a.341.341 0 00.241-.42zm3.306-.797a.342.342 0 00-.406-.263c-.532.114-1.067.237-1.589.366a.342.342 0 00.081.674.355.355 0 00.082-.009 50.576 50.576 0 011.569-.361.342.342 0 00.263-.407z"/><path class="b" d="M37.56 3.548A24.847 24.847 0 0024.769 0v1.807h.311l1 .049c.333.014.664.062.994.091a23.293 23.293 0 013.84.764 22.17 22.17 0 016.627 3.205 23.629 23.629 0 012.626 2.169 24.606 24.606 0 012.111 2.368 21.926 21.926 0 012.795 4.748 20.39 20.39 0 011.264 4.026 21.128 21.128 0 01.381 2.673l.053.951-.161-.937c-.047-.306-.143-.676-.234-1.114-.042-.219-.118-.449-.181-.7s-.127-.512-.221-.784a22.334 22.334 0 00-1.555-3.811 23.255 23.255 0 00-2.98-4.368 23.494 23.494 0 00-2.129-2.126 24.1 24.1 0 00-2.561-1.931 20.611 20.611 0 00-2.579-1.416 22.687 22.687 0 011.933 2.512c-.439.068-.881.139-1.315.217a.342.342 0 00.06.679.359.359 0 00.061-.005 55.03 55.03 0 011.584-.262h.01c.338.547.669 1.132.983 1.76A54 54 0 003.738 29.432q.063.327.133.646c.091-.111.18-.223.271-.333a.342.342 0 01.527.435l-.6.738.1.4a21.8 21.8 0 00.814 2.383c.223.549.457 1.064.693 1.544a50.1 50.1 0 0133.6-19.713q.211.922.351 1.912a.332.332 0 00-.139-.011c-.49.066-.988.14-1.477.222a.342.342 0 00.056.679.367.367 0 00.056 0c.483-.081.973-.153 1.456-.218a.35.35 0 00.127-.044 26.415 26.415 0 01-1.1 10.634 23.962 23.962 0 01-19.664 17.368 22.088 22.088 0 01-9.938-5.848l-.648-.614a21.817 21.817 0 01-1.788-2.026 20.66 20.66 0 01-2.236-3.578 22.578 22.578 0 01-1.024-2.4 23.578 23.578 0 01-.78-2.8c-.092-.5-.2-1.008-.261-1.533l-.054-.395-.014-.1-.011-.113-.018-.2-.072-.792a23.579 23.579 0 01.047-3.421 24.041 24.041 0 01.612-3.557 21.125 21.125 0 011.262-3.565 22.325 22.325 0 014.448-6.529 22.4 22.4 0 0114.608-6.737c.328-.017.641-.043.979-.052l.718-.006V0a24.79 24.79 0 00-24.3 29.573.337.337 0 00.041.2 24.77 24.77 0 0035.506 17.092 24.782 24.782 0 001.538-43.316zm-.667 7.634c.277-.043.557-.083.838-.122q.15.319.293.651c-.345.046-.689.095-1.026.147a.323.323 0 01-.053 0 .342.342 0 01-.052-.68zm-3.271.613a57.335 57.335 0 011.554-.318.342.342 0 11.127.672c-.5.095-1.018.2-1.534.314a.31.31 0 01-.073.008.342.342 0 01-.073-.676zm-3.235.821a55 55 0 011.535-.417.342.342 0 01.169.663c-.511.131-1.02.269-1.515.412a.35.35 0 01-.095.014.342.342 0 01-.094-.671zm-3.183 1.024c.5-.178 1.007-.351 1.508-.513a.342.342 0 11.211.651c-.5.16-1 .33-1.489.506a.335.335 0 01-.115.02.342.342 0 01-.115-.664zm-3.117 1.224c.486-.208.982-.412 1.475-.607a.342.342 0 11.252.636c-.487.192-.977.394-1.457.6a.337.337 0 01-.134.028.342.342 0 01-.136-.657zm-3.036 1.418c.47-.238.952-.472 1.435-.7a.342.342 0 11.29.619c-.477.224-.953.455-1.416.69a.338.338 0 01-.155.037.342.342 0 01-.155-.647zm-2.942 1.6c.46-.269.927-.535 1.388-.787a.342.342 0 11.329.6c-.455.249-.916.51-1.371.777a.338.338 0 01-.172.047.342.342 0 01-.173-.637zm-2.834 1.784c.444-.3.893-.593 1.336-.871a.342.342 0 11.365.578c-.436.275-.88.565-1.318.86a.342.342 0 11-.382-.567zm-2.712 1.966c.414-.319.844-.639 1.276-.952a.342.342 0 01.4.554 50.31 50.31 0 00-1.26.94.342.342 0 01-.417-.542zm-2.58 2.118c.4-.348.805-.694 1.211-1.028a.342.342 0 01.435.528c-.4.329-.8.671-1.195 1.015a.344.344 0 01-.225.084.342.342 0 01-.226-.6zm-2.435 2.271a59.59 59.59 0 011.14-1.1.342.342 0 11.467.5 52.71 52.71 0 00-1.126 1.086.342.342 0 01-.483 0 .342.342 0 01.003-.491zM5.27 28.432c.346-.391.7-.783 1.065-1.166a.343.343 0 01.5.469c-.356.378-.71.766-1.051 1.151a.342.342 0 01-.512-.454zm1.561 4.547c-.319.39-.633.788-.934 1.181a.342.342 0 11-.543-.416c.3-.4.623-.8.947-1.2a.342.342 0 01.53.433zm2.082-2.391c-.342.368-.682.745-1.012 1.123a.342.342 0 01-.515-.451c.335-.382.68-.765 1.027-1.137a.342.342 0 01.5.465zm2.241-2.258c-.369.349-.734.7-1.086 1.058a.342.342 0 01-.485-.483c.356-.358.727-.719 1.1-1.072a.343.343 0 11.47.5zm2.387-2.114c-.386.32-.774.652-1.155.988a.342.342 0 01-.453-.513c.385-.34.779-.677 1.171-1a.342.342 0 01.437.526zm2.524-1.962c-.41.3-.819.606-1.219.914a.337.337 0 01-.209.072.342.342 0 01-.21-.612c.4-.313.819-.625 1.235-.927a.342.342 0 01.4.553zm2.647-1.8c-.426.271-.856.552-1.275.836a.342.342 0 11-.383-.566c.425-.288.86-.573 1.293-.847a.342.342 0 11.366.577zm2.76-1.628c-.445.244-.892.5-1.327.754a.342.342 0 01-.346-.59c.442-.259.894-.516 1.345-.764a.342.342 0 01.329.6zm2.859-1.45c-.461.216-.923.441-1.373.667a.335.335 0 01-.154.037.342.342 0 01-.155-.647c.456-.23.924-.458 1.391-.677a.342.342 0 01.29.619zm2.76-1.2q-.619.245-1.232.508a.305.305 0 01-.121.025.309.309 0 01-.122-.594c.413-.177.833-.35 1.247-.514a.31.31 0 01.228.575zm3.2-1.135a49.03 49.03 0 00-1.444.487.336.336 0 01-.114.02.342.342 0 01-.114-.664c.486-.172.978-.338 1.463-.494a.342.342 0 11.209.651zm3.073-.878c-.493.124-.987.256-1.47.393a.323.323 0 01-.094.014.342.342 0 01-.093-.671c.489-.139.991-.273 1.49-.4a.342.342 0 11.167.663zm-5.264-.355a54.837 54.837 0 00-6.489 2.858 55.026 55.026 0 00-6.069 3.664 56.02 56.02 0 00-4.857 3.8c-1.354 1.187-2.426 2.227-3.154 2.977S6.4 30.292 6.399 30.291s.377-.47 1.072-1.267 1.721-1.906 3.045-3.146a47.647 47.647 0 014.786-3.946c.923-.663 1.9-1.318 2.916-1.947s2.074-1.226 3.15-1.789 2.177-1.076 3.274-1.55 2.2-.892 3.27-1.267a47.637 47.637 0 015.981-1.652 47.23 47.23 0 014.328-.684l.316-.033.028.079-.311.051a55.62 55.62 0 00-4.253.872 56.258 56.258 0 00-5.903 1.792zm8.38-.323c-.489.09-.989.19-1.488.3a.337.337 0 01-.072.008.342.342 0 01-.072-.676 44.664 44.664 0 011.509-.3.342.342 0 11.124.673zm1.645-.274a.3.3 0 01-.051 0 .342.342 0 01-.05-.68c.317-.047.639-.091.962-.133.063.219.121.442.179.667-.352.044-.7.091-1.046.141z"/><path class="b" d="M21.423 3.672c.772-.164 1.487-.295 2.127-.373s1.2-.131 1.666-.164.831-.046 1.082-.046l.384-.011-.381-.051a17.89 17.89 0 00-2.784-.141 18.332 18.332 0 00-2.2.175 18.624 18.624 0 00-2.574.519 20.089 20.089 0 00-2.78.969c-.242.1-.466.208-.7.315l-.174.085-.094.044-.086.046-.348.184-.7.371c-.238.12-.456.278-.686.416l-.684.432c-.224.151-.44.317-.661.475s-.444.316-.658.486l-.63.524a22.871 22.871 0 00-2.307 2.3c-.351.407-.671.834-.994 1.25-.293.438-.6.859-.869 1.293l-.388.653a7.177 7.177 0 00-.361.651l-.324.652c-.11.213-.213.426-.3.644l-.269.636a6.2 6.2 0 00-.242.623c-.137.417-.285.814-.4 1.2l-.3 1.124c-.079.361-.14.706-.2 1.028a8.581 8.581 0 00-.142.91l-.092.774c-.04.467-.042.835-.057 1.085l-.017.384.287-1.442.187-.746.1-.422c.036-.146.088-.295.133-.449.1-.308.19-.637.3-.979l.387-1.066c.3-.733.638-1.515 1.05-2.316.095-.2.207-.4.324-.6l.349-.607c.234-.409.512-.8.77-1.219s.581-.8.874-1.206l.486-.582c.166-.193.316-.4.492-.587a21.717 21.717 0 012.223-2.165l.594-.506c.2-.164.415-.313.621-.47s.413-.313.625-.46l.647-.419c.424-.29.872-.531 1.307-.784l.326-.188.081-.047.078-.04.17-.087c.226-.115.452-.234.67-.332a25.043 25.043 0 012.613-1.06 24.174 24.174 0 012.449-.683z"/></svg>