<svg xmlns="http://www.w3.org/2000/svg" width="686" height="622.023"><defs><style>.b{fill:#225cc2}</style></defs><g transform="translate(-527.593 391.603)" opacity=".1"><path class="b" d="M870.588-391.6h331.315c10.192 0 11.69 1.515 11.69 11.824v598.654c0 10-1.524 11.542-11.385 11.542H538.993c-9.878 0-11.4-1.537-11.4-11.529v-598.655c0-10.316 1.5-11.836 11.679-11.836q165.658-.005 331.316 0zM688.594 227.8V112.771c0-8.744 1.891-10.676 10.5-10.677q170.9-.011 341.8 0c8.628 0 10.52 1.927 10.522 10.656q.014 54.536 0 109.073v5.99h122.2c2.629-22.894 14.952-37.065 37.346-42.537V-84.768h-270c-4.186 48.064-41.226 68.236-69.57 68.54-38.514.412-64.966-24.447-72.475-68.516H530.179v270.619c25.211 3.209 37.523 15.152 43.262 41.922zm522.38-574.468a44.969 44.969 0 01-26.033-14.542c-7.053-7.94-10.288-17.507-11.23-27.632h-121.36v114.126c0 9.445-1.906 11.4-11.122 11.4q-170.605.009-341.21 0c-9.235 0-11.172-1.971-11.174-11.352q-.015-53.661-.005-107.321v-7.028h-115.4c-3.949 25-18.3 39.124-43.087 42.052V-87.67h268.49c7.331-43.24 31.416-68.1 67.28-69.661 16.705-.726 31.971 3.6 45.448 13.524 18.87 13.894 28 33.1 29.3 56.118h270.1zM793.72-388.8H691.17v113.959c0 8.363.868 9.194 9.461 9.194h339.994c8.53 0 9.382-.835 9.384-9.271q.014-53.945-.008-107.888c0-2.038-.18-4.076-.268-5.936H946.3c0 10.335.038 20.235-.012 30.135-.039 7.724-2.366 10.063-10.125 10.068q-66.191.037-132.382 0c-7.713-.005-10.013-2.36-10.05-10.144-.047-9.892-.011-19.785-.011-30.117zm255.373 616.577V112.958c0-7.915-.645-8.539-8.768-8.539q-170.3-.007-340.591 0c-8.278 0-8.8.548-8.8 9.094q-.008 54.238.009 108.476c0 1.882.165 3.764.259 5.794h102.213c0-10.34-.032-20.393.011-30.447.032-7.846 2.124-9.927 10.088-9.93q65.9-.033 131.8 0c7.988 0 10.08 2.073 10.111 9.9.041 10.055.01 20.11.01 30.465zM937.9-87.41c.79-33.1-27.245-68.358-69.121-67.579-42.592.793-67.9 37.584-66.542 67.273h58.106c5.326-10.5 11.588-10.877 18.522-1.212a4.557 4.557 0 003.275 1.455c18.436.088 36.875.063 55.76.063zm-136.188 2.337c1.678 24.962 12.258 44.189 33.271 56.6 24.017 14.184 48.632 13.686 72.146-1.308 19.761-12.6 29.656-31.346 31.148-55.287-19.3 0-37.916-.067-56.527.133-1.411.015-3.1 1.684-4.149 2.993-4.278 5.335-11.13 5.828-14.72.219-1.976-3.088-4.059-3.514-7.083-3.38-3.1.138-6.215.03-9.323.03zm-5.66-303.768c0 9.934-.008 19.236 0 28.538.01 8.556.862 9.439 9.227 9.44q64.73.011 129.458 0c1.36 0 3.037.468 4.014-.152 1.918-1.219 4.846-2.995 4.911-4.638.435-10.976.226-21.979.226-33.189zm147.054 616.6c0-10.072.011-19.572 0-29.072-.012-8.321-.634-8.953-8.952-8.954q-64.655-.012-129.31 0c-1.551 0-3.431-.471-4.578.229-1.75 1.068-4.2 2.926-4.255 4.519-.37 10.992-.2 22-.2 33.277zm-372.785-617c-11.833 0-23.667-.162-35.486.188-1.64.048-4.546 2.584-4.593 4.042-.379 11.738-.212 23.493-.212 35.26 22.225-1.035 39.832-18.385 40.291-39.488zm.162 617.318c-1.483-22.1-18.775-38.89-40.5-39.461 0 11.631-.217 23.267.252 34.874.065 1.6 3.486 4.31 5.431 4.382 11.434.419 22.896.207 34.817.207zm640.76-577.72c0-11.652.22-22.922-.218-34.165-.072-1.868-2.939-5.1-4.642-5.188-9.854-.5-19.746-.244-29.589-.244-.984 18.584 15.781 37.968 34.449 39.599zM1176.5 228.07c10.036 0 19.7.254 29.324-.219 1.87-.092 5.091-2.951 5.157-4.634.457-11.539.24-23.1.24-34.684-18.046 1.054-34.199 19.352-34.721 39.537z"/><circle class="b" cx="10" cy="10" r="10" transform="translate(860.101 -97.079)"/><circle class="b" cx=".25" cy=".25" r=".25" transform="translate(870.282 -56.051)"/></g></svg>