<svg xmlns="http://www.w3.org/2000/svg" width="360.463" height="601.12"><defs><style>.b{fill:#103c8c}</style></defs><g opacity=".1"><path class="b" d="M180.228 0H354.32c5.355 0 6.142.863 6.142 6.732v587.815c0 5.691-.8 6.572-5.983 6.572H5.989c-5.191 0-5.989-.875-5.989-6.565V6.739C0 .865.788 0 6.136 0h174.092zM84.6 599.627V534.13c0-4.979.994-6.078 5.518-6.079q89.8-.006 179.6 0c4.533 0 5.528 1.1 5.529 6.067q.007 31.053 0 62.106v3.41h64.216c1.381-13.035 7.857-21.1 19.623-24.22V293.34H217.213c-2.2 27.368-21.662 38.853-36.556 39.026-20.237.235-34.137-13.92-38.083-39.012H1.359v282.4c13.248 1.827 19.717 8.628 22.732 23.871zM359.087 25.586a23.225 23.225 0 01-13.679-8.28C341.7 12.786 340 7.335 339.506 1.57h-63.769v64.983c0 5.378-1 6.493-5.844 6.493q-89.646.006-179.292 0c-4.852 0-5.87-1.123-5.871-6.464q-.008-30.554 0-61.108v-4H24.093c-2.075 14.235-9.615 22.277-22.64 23.945v266.267h141.081c3.852-24.621 16.508-38.778 35.353-39.665a34.536 34.536 0 0123.881 7.7c9.916 7.911 14.713 18.847 15.4 31.954h141.919zM139.838 1.598H85.953v64.888c0 4.762.455 5.235 4.971 5.235h178.652c4.483 0 4.93-.475 4.931-5.279q.007-30.715 0-61.431c0-1.161-.094-2.321-.141-3.38h-54.354c0 5.884.02 11.522-.007 17.159-.02 4.4-1.243 5.73-5.32 5.732q-34.781.022-69.561 0c-4.053 0-5.261-1.344-5.281-5.776-.024-5.634-.006-11.267-.006-17.151zm134.187 598.018v-65.375c0-4.507-.339-4.862-4.607-4.862H90.453c-4.35 0-4.624.312-4.625 5.178v61.765c0 1.072.086 2.143.136 3.3h53.711c0-5.888-.017-11.613.006-17.337.017-4.467 1.116-5.653 5.3-5.654q34.628-.018 69.257 0c4.2 0 5.3 1.18 5.313 5.639.021 5.725 0 11.45 0 17.347zM215.6 291.835c.416-18.848-14.316-38.922-36.32-38.479-22.38.452-35.678 21.4-34.964 38.3h30.532c2.8-5.976 6.089-6.193 9.732-.69a2.315 2.315 0 001.721.828c9.685.056 19.374.041 29.299.041zm-71.56 1.331c.882 14.213 6.441 25.161 17.482 32.228 12.617 8.076 25.554 7.793 37.909-.745 10.382-7.175 15.581-17.848 16.369-31.48-10.143 0-19.924-.038-29.7.076-.741.009-1.628.959-2.18 1.7-2.247 3.038-5.848 3.319-7.734.125a3.452 3.452 0 00-3.722-1.924c-1.63.078-3.266.017-4.9.017zM141.066 1.572v16.249c.006 4.872.454 5.375 4.849 5.375q34.012.006 68.024 0c.715 0 1.6.266 2.109-.087 1.008-.694 2.547-1.705 2.58-2.641.229-6.25.119-12.515.119-18.9zm77.271 598.035c0-5.735.006-11.144 0-16.554-.006-4.738-.333-5.1-4.7-5.1q-33.974-.007-67.947 0c-.815 0-1.8-.268-2.406.13-.92.608-2.208 1.666-2.236 2.573-.194 6.259-.1 12.529-.1 18.948zM22.451 1.346c-6.217 0-12.435-.092-18.646.107a3.417 3.417 0 00-2.414 2.3c-.2 6.683-.112 13.377-.112 20.077 11.679-.589 20.931-10.468 21.172-22.484zm.085 598.44c-.779-12.584-9.866-22.144-21.278-22.469 0 6.622-.114 13.248.132 19.857.034.911 1.831 2.455 2.853 2.5 6.009.235 12.029.112 18.293.112zm336.691-575.9c0-6.635.116-13.051-.114-19.453-.039-1.064-1.545-2.9-2.439-2.954-5.178-.284-10.376-.139-15.548-.139-.517 10.587 8.293 21.625 18.101 22.553zm-18.254 575.9c5.273 0 10.35.144 15.408-.125a3.885 3.885 0 002.71-2.639c.24-6.571.126-13.156.126-19.749-9.483.597-17.971 11.013-18.244 22.513z"/><circle class="b" cx="5.791" cy="5.791" r="5.791" transform="translate(173.536 286.047)"/><circle class="b" cx="3.35" cy="3.35" r="3.35" transform="translate(175.978 34.083)"/><circle class="b" cx="3.35" cy="3.35" r="3.35" transform="translate(175.978 553.748)"/></g></svg>