<svg version="1.1" id="Layer_1" xmlns="http://www.w3.org/2000/svg" x="0" y="0" viewBox="0 0 300 300" xml:space="preserve"><style/><path id="Path_7979" d="M150 0C67.2 0 0 67.2 0 150s67.2 150 150 150 150-67.2 150-150S232.8 0 150 0zm140 148.1l-24.5-29.4 8.1-34.5c10.5 19.7 16.1 41.6 16.4 63.9zm-23.8-76.2l-10.4 44.2-54.8 18.3-46-36.8V43.4l52.5-21c23.8 10.7 44.1 27.9 58.7 49.5zm-71.8 70L181.1 195h-62.2l-13.3-53.1 44.4-35.5 44.4 35.5zm-.5-124.8L150 34.6l-44.1-17.5c28.5-9.5 59.4-9.5 88 0zM92.3 22.5L145 43.4v54.2l-46 36.8-54.8-18.3-10.4-44.2c14.5-21.5 34.8-38.6 58.5-49.4zM26.5 84.2l8.1 34.5-24.5 29.4c.2-22.3 5.8-44.2 16.4-63.9zm-15.8 78.9l31-37.3 54.2 18.1 13.8 55-26.8 35.6-49.9-7.8c-12.6-19-20.2-40.9-22.3-63.6zm30.7 75l40.7 6.4 24.6 38.6c-25.7-8.4-48.4-24-65.3-45zm79.5 48.8L91 240.3l26.4-35.2h65l26.8 35.4-26 45.6c-20.4 4.9-41.7 5.2-62.3.8zm76.3-5.2l21.3-37.3 40.2-6.3c-16.1 19.9-37.4 35-61.5 43.6zm69.8-55.1l-49.5 7.9-27-35.6 13.8-55 54.2-18.1 30.9 37.2c-2.2 22.8-9.8 44.7-22.4 63.6z" fill="#103c8c"/></svg>