<svg xmlns="http://www.w3.org/2000/svg" width="43.536" height="43.536"><g fill="#fff" stroke="#e2e2e2"><circle cx="21.768" cy="21.768" r="21.768" stroke="none"/><circle cx="21.768" cy="21.768" r="21.268" fill="none"/></g><path d="M28.457 29.76a10.991 10.991 0 01-16.685-2.827l.722-3.327 3.2-.594a5.9 5.9 0 005.614 4.155 5.777 5.777 0 003.439-1.12l3.074.469z" fill="#59c36a"/><path d="M28.457 29.759l-.638-3.243-3.074-.469a5.777 5.777 0 01-3.439 1.12v5.253a11.1 11.1 0 007.151-2.661z" fill="#00a66c"/><path d="M15.445 21.307a6.07 6.07 0 00.247 1.706l-3.92 3.92a10.807 10.807 0 010-11.253l3.146.542.774 3.378a6.069 6.069 0 00-.247 1.707z" fill="#ffda2d"/><path d="M32.421 21.302a11.1 11.1 0 01-3.964 8.453l-3.712-3.712a5.764 5.764 0 001.81-2.136h-5.249a.645.645 0 01-.651-.651v-3.907a.645.645 0 01.651-.651h10.281a.644.644 0 01.638.534 11.044 11.044 0 01.196 2.07z" fill="#4086f4"/><path d="M26.556 23.912a5.764 5.764 0 01-1.81 2.136l3.712 3.712a11.008 11.008 0 003.768-10.524.644.644 0 00-.638-.534H21.307v5.21z" fill="#4175df"/><path d="M28.639 13.292a.657.657 0 01-.182.482l-2.785 2.778a.638.638 0 01-.847.065 5.826 5.826 0 00-3.517-1.172 5.9 5.9 0 00-5.616 4.155l-3.92-3.92a10.984 10.984 0 0116.633-2.866.685.685 0 01.234.482z" fill="#ff641a"/><path d="M24.823 16.618a.638.638 0 00.847-.065l2.787-2.774a.657.657 0 00.182-.482.685.685 0 00-.234-.482 11.081 11.081 0 00-7.099-2.623v5.253a5.826 5.826 0 013.517 1.173z" fill="#f03800"/></svg>