<svg xmlns="http://www.w3.org/2000/svg" width="34.259" height="66.295"><path d="M32.832 33.148c.1-6.308-1.977 6.164-4.54 5.326s-3.619 0-3.619 0H22.24s.639 9.359-5.406 11.262-3.919 1.907-6.991 0 1.254.55 1.772 3.789-1.772 12.128-1.772 12.128h5.423l13.025-2.867s1.684-10.412 2.513-13.049 1.933-10.281 2.028-16.589z" fill="#dcddde"/><path d="M33.987 34.37a21.873 21.873 0 00-.493-3.614 3.638 3.638 0 00-1.765-2.853 4.056 4.056 0 00-2.907-.778 3.151 3.151 0 00-1.368.666c0-.022 0-.045-.007-.067-.357-2.075-2.278-2.679-3.95-2.558a5.277 5.277 0 00-1.856.505 3.915 3.915 0 00-.828-1.579 4.721 4.721 0 00-4.382-1.234 3.435 3.435 0 00-1.586.71 40.091 40.091 0 00-.3-4.99c-.223-1.862-.15-7.59-.149-7.647v-.011l-.281-7.483v-.023C13.895.967 12.201.276 11.336.252h-.01A3.46 3.46 0 008.018 3.09a63.452 63.452 0 00-.681 8.015c-.814 5.013-1.164 14.141-1.218 15.736-.394.143-1.375.417-1.5.46a3.816 3.816 0 00-2.137 2.022 16.225 16.225 0 00-1.445 4.378c-.156.756-.285 1.521-.416 2.281a18.562 18.562 0 00-.366 2.4 5.108 5.108 0 001.051 2.952l.045.058a55.7 55.7 0 001.757 1.928c.331.358.658.707.99 1.06.5.541 1 1.078 1.479 1.646.5.586 1.037 1.118 1.559 1.65.349.349.7.7 1.021 1.06a27.875 27.875 0 011.986 2.666 9.148 9.148 0 01.725 1.543.208.208 0 01.018.054 9.336 9.336 0 01-.023 2.822c-.362 2.433-.727 4.8-1.081 7.1l-.3 1.9.108.05-.035.065a6.165 6.165 0 00.846.3l.127.054a.065.065 0 000-.017 22.28 22.28 0 004.995.755c.348.015.72.024 1.111.024a27.894 27.894 0 0011.295-2.443c0 .024-.006.048-.007.072.142-.083.284-.171.426-.262.108-.05.217-.1.325-.152l-.022-.047.113-.075c.1-1.1.228-2.209.375-3.305a86.048 86.048 0 011.677-8.815c.438-1.856.787-3.09 1.119-4.289.447-1.6.867-3.1 1.413-5.787a24.089 24.089 0 00.639-6.579zm-6.471-5.581l.031.027a2.58 2.58 0 011.436-.917 3.385 3.385 0 012.36.693 2.154 2.154 0 011.021.877 1.491 1.491 0 01.125.7 3.556 3.556 0 00-.671-.7 3.64 3.64 0 00-.707-.452 2.52 2.52 0 00-.809-.277 1.855 1.855 0 00-1.561.51 2.221 2.221 0 011.484-.152 2.818 2.818 0 01.67.317 4.8 4.8 0 01.627.42 4.285 4.285 0 01.863.939 49.024 49.024 0 01-1.821 5.474l-.017.054a2.449 2.449 0 01-1.763 1.892 2.378 2.378 0 01-1.717-.313 2.268 2.268 0 01-.672-.716 2.678 2.678 0 01-.286-1.78c.087-.25.153-.483.2-.68.129-.51.228-1.033.322-1.538a19.371 19.371 0 01.426-1.9 10.238 10.238 0 00.459-2.479zm-3.958-2.831c.639-.049 2.733-.049 3.1 1.847l-.022-.027a3.258 3.258 0 00-1.152-.89 3.351 3.351 0 00-1.422-.313 2.9 2.9 0 00-1.384.344 5.743 5.743 0 011.362.027 4.577 4.577 0 011.243.371 4.535 4.535 0 011.085.716c.122.112.242.233.354.353a8.53 8.53 0 01-.424 2.657c-.192.657-.318 1.328-.44 1.977-.075.4-.149.81-.244 1.216a4.525 4.525 0 00-.269.944 4.168 4.168 0 01-1.569 2.276 2.111 2.111 0 01-1.678.188 2.793 2.793 0 01-1.524-1.069 3.12 3.12 0 01-.613-1.843 12.468 12.468 0 00.858-3.654c.021-.183.046-.367.069-.55a40.7 40.7 0 01.731-3.945 4.381 4.381 0 011.939-.626zm-8.747-1.089a2.269 2.269 0 01.441-.606 2.625 2.625 0 011.35-.635c.095-.018 2.332-.492 3.619.979a3.2 3.2 0 01.675 1.342 2.668 2.668 0 00-.408-.635 3.247 3.247 0 00-1.359-.926 3.732 3.732 0 00-1.625-.215 2.68 2.68 0 00-1.488.6 4 4 0 011.5-.228 4.675 4.675 0 011.445.291 3.871 3.871 0 011.26.738 3.471 3.471 0 01.641.769c-.313 1.328-.543 2.675-.743 4.021a15.6 15.6 0 01-.894 4.074c-.467 1.051-1.032 2.044-2.355 1.874a3.7 3.7 0 01-1.457-.505 2.01 2.01 0 01-1.009-1.471l-.176-1.588h-.023a.34.34 0 00.048-.031 6.052 6.052 0 001.9-2.2 4.184 4.184 0 00.733-2.8 1.877 1.877 0 00-.821-1.011 3.31 3.31 0 00-.785-.349c-.042-.012-.372-.087-.584-.136.042-.291.087-.745.115-1.353zM8.224 11.218l.007-.062a64.32 64.32 0 01.665-7.9 2.608 2.608 0 012.417-2.11 1.958 1.958 0 01.882.318 2.546 2.546 0 011.021 2.016l.265 7.031a3.274 3.274 0 00-.6-.313 4.011 4.011 0 00-1.272-.264 4.407 4.407 0 00-.65.027c-.106.015-.213.025-.321.047s-.208.049-.312.077c-.054.013-.106.028-.157.043s-.1.036-.152.056c-.1.038-.2.08-.3.122a3.017 3.017 0 00-.284.155 3.049 3.049 0 00-.269.179 6.273 6.273 0 00.631 0c.106 0 .207 0 .309-.006.049 0 .1 0 .148-.007s.1 0 .15 0c.1 0 .2 0 .3-.007h.44c.046 0 .1 0 .148.006.1 0 .193 0 .291.006.386.017.772.048 1.162.1.25.03.5.067.754.111v.089c0 .335-.058 4.95.1 7.19a3.118 3.118 0 00-.469-.291 3.415 3.415 0 00-1.485-.328 4.546 4.546 0 00-1.476.245 6.79 6.79 0 00-.675.3 5.6 5.6 0 00-.616.407 6.212 6.212 0 00.72-.08c.237-.025.469-.053.7-.088a11.976 11.976 0 011.343-.082 5.605 5.605 0 011.3.143 4.467 4.467 0 01.636.2c.022.008.041.018.062.026 0 .039.007.076.012.112.013.091.021.18.031.27a3.084 3.084 0 00-.7-.367 3.868 3.868 0 00-1.214-.237 4.419 4.419 0 00-.622.034c-.1.016-.2.024-.3.047s-.2.048-.3.074a1.937 1.937 0 00-.292.094l-.283.111a5.2 5.2 0 00-.537.292c.2-.025.4-.071.591-.1l.293-.045c.05-.007.1-.016.145-.024s.1-.009.145-.016c.1-.01.193-.021.289-.033s.191-.011.287-.018a2.592 2.592 0 01.288-.011h.286a6.585 6.585 0 011.14.138 5.839 5.839 0 01.807.233 37.812 37.812 0 01.232 5.193l-.037-.064.033.169c-.022.649-.062 1.15-.1 1.494a.648.648 0 01-.177.09c0 .021.007.043.01.064a21.151 21.151 0 00-6.546.483c.007-.034.016-.068.024-.1a.822.822 0 01-.117.024c.091-2.364.444-10.632 1.199-15.264zm24.351 29.575a72.032 72.032 0 01-1.4 5.734 94.559 94.559 0 00-.7 2.6 5.225 5.225 0 01-1.708.769 6.7 6.7 0 01-2.9-.067 4.509 4.509 0 003.015.926 5.188 5.188 0 001.247-.264c-.03.116-.056.233-.084.353a87.6 87.6 0 00-1.694 8.891q-.19 1.418-.331 2.844a26.875 26.875 0 01-12.381 2.546c.124-1.128.233-1.471.333-2.76.181-2.54.339-5.081.357-7.634-.544 2.5-.961 5-1.346 7.523-.2 1.3-.38 1.607-.546 2.794a20.38 20.38 0 01-3.768-.674l.2-1.292c.357-2.294.722-4.674 1.085-7.111v-.022a13.721 13.721 0 00.123-2.214c.024.018.043.04.068.058a4.176 4.176 0 00.706.447 4.6 4.6 0 00.79.291 4.132 4.132 0 001.636.072 4.923 4.923 0 001.489-.479 4.913 4.913 0 001.249-.872c-.24.076-.481.143-.715.206s-.471.112-.707.152a6.359 6.359 0 01-1.377.125 3.815 3.815 0 01-2.388-.814 8.255 8.255 0 01-1.334-1.431c-.031-.054-.059-.107-.094-.156-.151-.255-.307-.5-.468-.742.071.04.142.08.222.116.178.076.347.139.525.2a2.061 2.061 0 00.266.08l.275.067a3.8 3.8 0 00.545.089 3.77 3.77 0 00.551.036 6.875 6.875 0 002.1-.3 9.67 9.67 0 003.553-1.997 22.256 22.256 0 01-3.765 1.024 7.91 7.91 0 01-1.829.076 5.172 5.172 0 01-1.688-.42 7.178 7.178 0 01-.781-.447 19.036 19.036 0 01-.8-.528 31.397 31.397 0 01-1.557-1.145c-.049-.04-.1-.085-.147-.125-.965-1.1-1.981-2.156-3.027-3.233-.733-.76-1.462-1.516-2.178-2.29a4.958 4.958 0 01-1.458-2.415 8.847 8.847 0 01.134-3.05 30.882 30.882 0 01.712-3.184c.379-1.418.6-3.372 1.716-4.428a1.974 1.974 0 01.448-.318 1.857 1.857 0 01.241.233 1.959 1.959 0 01.394.671 2.679 2.679 0 01.1.38 2.748 2.748 0 01.04.407 5.431 5.431 0 01-.047.872 1.725 1.725 0 00.42-.841 1.745 1.745 0 00.031-.488 1.781 1.781 0 00-.1-.492 1.578 1.578 0 00-.6-.792 1.382 1.382 0 00-.162-.1 7.967 7.967 0 011.536-.331c1.425-.237 2.862-.353 4.307-.456.737-.054 1.46-.081 2.217-.089.389-.009.756-.04 1.116-.049.133 0 .267 0 .4.009 1.052.045 1.421 1.015 1.271 1.91-.42.089-.848.17-1.271.237-.3.049-.612.085-.915.107a3.3 3.3 0 01-.892-.013 1.445 1.445 0 01-.762-.371 2.1 2.1 0 01-.486-.769 1.7 1.7 0 00.313.921 1.573 1.573 0 00.375.358 1.573 1.573 0 00.474.219 3.174 3.174 0 001 .1 8.616 8.616 0 00.966-.089 7.752 7.752 0 001.067-.228 5.647 5.647 0 01-1.845 2.554 6.7 6.7 0 01-1.923.962 21.564 21.564 0 01-2.1.7 4.243 4.243 0 01-2.156 0A5.215 5.215 0 015.8 32.921c.125.116.253.228.388.335a4.856 4.856 0 01-.388-.335 4.033 4.033 0 001.277 1.167 4.1 4.1 0 001.916.537 1.893 1.893 0 01.182.707 2.221 2.221 0 01-.242 1.064 7.735 7.735 0 01-1.855 2.353 3.052 3.052 0 002-1.109 8.957 8.957 0 01.868-1.377s0 0 0 0a6.93 6.93 0 01.081 2.187 9.744 9.744 0 01-.546 2.254 4.657 4.657 0 001.274-2.1 5.159 5.159 0 00.117-2.531 4.05 4.05 0 00-.09-.353 2.5 2.5 0 01.207-.072c.712-.215 2.518-.872 3.059-.054a2.669 2.669 0 001.006.9 4.834 4.834 0 002.173.622 2.452 2.452 0 001.208-.3l.021-.013a6.123 6.123 0 012.672 2.75 7.256 7.256 0 01.039 5.376 6.774 6.774 0 001.027-2.965 6.741 6.741 0 00-.355-2.925 2.228 2.228 0 011.109.04c1.618.5 2.607 3.077 2.486 6.4a8.591 8.591 0 00.08-4.307 8.518 8.518 0 00-.865-2.173 4.592 4.592 0 001.3-.081 4.81 4.81 0 00.894-.268 3.322 3.322 0 001.491.371 2.879 2.879 0 00.63-.072 3.211 3.211 0 002.266-2.173c.162-.246.319-.456.452-.644.552-.751.806-.984 1.168-1.087a1.23 1.23 0 01.371-.045 24.686 24.686 0 01-.647 5.792z" fill="#225cc2" stroke="#225cc2" stroke-width=".5"/></svg>