<svg xmlns="http://www.w3.org/2000/svg" viewBox="0 0 16.622 16.633"><path d="M8.3 16.633a8.3 8.3 0 01-5.881-2.454A8.215 8.215 0 010 8.307 8.338 8.338 0 018.3-.001h.02a8.317 8.317 0 01.014 16.633zm-5.157-2.885c.128.1.253.2.373.306a6.082 6.082 0 00.7.538 7.689 7.689 0 004.063 1.238 7.9 7.9 0 003.524-.887 6.4 6.4 0 001.639-1.174 5.545 5.545 0 00-1.537-1.957 5.671 5.671 0 00-3.545-1.29 6.151 6.151 0 00-1.51.2 5.6 5.6 0 00-3.7 3.011zm5.159-4.025a6.336 6.336 0 015.74 3.4 7.28 7.28 0 001.76-4.542 7.5 7.5 0 10-15-.191 7.369 7.369 0 001.75 4.717 6.353 6.353 0 015.746-3.383zm-.015-.71a3.463 3.463 0 01-2.5-1.039 3.59 3.59 0 01-1-2.621 3.5 3.5 0 013.531-3.385h.025a3.43 3.43 0 012.443 1.014 3.587 3.587 0 011.046 2.559 3.512 3.512 0 01-3.54 3.475zm.018-6.227a2.74 2.74 0 00-2.71 2.679 2.725 2.725 0 002.709 2.739 2.722 2.722 0 002.706-2.7 2.721 2.721 0 00-2.7-2.714z" fill="#fff"/></svg>