<svg version="1.1" id="Layer_1" xmlns="http://www.w3.org/2000/svg" xmlns:xlink="http://www.w3.org/1999/xlink" x="0" y="0" viewBox="0 0 456 91.5" xml:space="preserve"><style>.st0{fill:#fff}</style><path class="st0" d="M62.9 5.5C62 4 60.4 3.1 58.7 3.1h-8.8c-1 0-1.9.3-2.7.8-.8-.5-1.7-.8-2.7-.8h-8.8c-1 0-1.9.3-2.7.8-.8-.5-1.7-.8-2.7-.8h-8.8c-1 0-1.9.3-2.7.8-.8-.5-1.7-.8-2.7-.8H7.3c-1.6 0-3.2.9-4.1 2.2-.2.3-.3.6-.3.9v52.3C3.1 75 16.5 88.4 33 88.4c7.9 0 15.4-3.1 21.1-8.6 5.6-5.5 8.8-12.9 9-20.8V6.3c0-.2-.1-.5-.2-.8m-.6 35.1c0 .1 0 .1 0 0v18.3c-.2 7.7-3.3 14.9-8.8 20.3-5.5 5.4-12.7 8.4-20.5 8.4-16 0-29.2-13.1-29.3-29.1V6.2c0-.2 0-.3.1-.4.8-1.2 2.1-1.9 3.5-1.9h8.8c1 0 2 .4 2.7 1 .7-.6 1.7-1 2.7-1h8.8c1 0 2 .4 2.7 1 .7-.6 1.7-1 2.7-1h8.8c1 0 2 .4 2.7 1 .7-.6 1.7-1 2.7-1h8.8c1.5 0 2.8.8 3.6 2 .1.1.1.3.1.4v34.3z"/><path class="st0" d="M9.1 19.7l1.9 6.1 1.9-6.1h2.2v15H13v-9.8l-1.1 3.7h-1.7L9.1 25v9.6H6.9v-15h2.2zm7.8 0h2.2v12.7H23V19.7h2.2V33l-1.7 1.7h-5L16.9 33V19.7zm12.2 0l1.9 6.1 1.9-6.1h2.2v15H33v-9.8l-1.1 3.7h-1.7L29.1 25v9.6h-2.2v-15h2.2zm14.4 0l1.7 1.7v4.4l-1.1 1.1 1.1 1.1v5l-1.7 1.7h-6.6v-15h6.6zm-4.4 6.1H43v-3.9h-3.9v3.9zm0 6.6H43V28h-3.9v4.4zm7.3 2.3V21.4l1.7-1.7h5l1.7 1.7v13.3h-2.2V28h-3.9v6.6h-2.3zm2.2-8.9h3.9v-3.9h-3.9v3.9zm9.9 8.9h-2.2v-15h2.2v15zm-44.9 1.5l1.7 1.7v2.8H13v-2.2H9.1V49H13v-2.2h2.2v2.8l-1.7 1.7h-5l-1.7-1.7V37.9l1.7-1.7h5.1zm5.1 15h-2.2v-15h2.2v15zm1.2-15h8.3v2.2h-3v12.7H23V38.5h-3v-2.3zm11.1.1l1.9 4.9 2-4.9h2.2L34 44v7.2h-2.2V44l-3-7.7H31zM49.6 6.6v5.7h-5.4V6.6h-8.8v5.7H30V6.6h-8.8v5.7h-5.3V6.6H7.1v11.1h51.3V6.6zm-36.4 68c.8.9 1.6 1.8 2.5 2.5h34.1c.9-.8 1.7-1.6 2.5-2.5H13.2zm-3.6-5.7c.4.9.9 1.7 1.4 2.5h43.5c.5-.8 1-1.7 1.4-2.5H9.6zm10.3 11.3c3.8 2.2 8.1 3.4 12.8 3.4 4.7 0 9-1.2 12.8-3.4H19.9zm15.3-33.8v4.8h23.4v-4.8H35.2zm3 3.7l-.9-.6-.9.6.3-1.1-.9-.7h1.1l.4-1.1.4 1.1h1.1l-1 .7.4 1.1zm3.2 0l-.9-.6-.9.6.3-1.1-.9-.7h1.1l.4-1.1.4 1.1H42l-1 .7.4 1.1zm3.2 0l-.9-.6-.9.6.3-1.1-.9-.7h1.1l.4-1.1.4 1.1h1.1l-.9.7.3 1.1zm3.2 0l-.9-.6-.9.6.3-1.1-.9-.7h1.1l.4-1.1.4 1.1h1.1l-.9.7.3 1.1zm3.2 0l-.9-.6-.9.6.3-1.1-.9-.7h1.1l.4-1.1.4 1.1h1.1l-.9.7.3 1.1zm3.2 0l-.9-.6-.9.6.3-1.1-.9-.7h1.1l.4-1.1.4 1.1h1.1l-.9.7.3 1.1zm3.2 0l-.9-.6-.9.6.3-1.1-.9-.7h1.1l.4-1.1.4 1.1H58l-.9.7.3 1.1zm-5.5-12.7v6.5h5.4v-1.2h1.2v1.5l-.9.9h-7.1l-.9-.9v-7.1l.9-.9h7.1l.9.9v1.5h-1.2v-1.2h-5.4zm-3.6-1.2v1.2h-6v2.2h4.5v1.2h-4.5v4.3H40v-9h8.3zm9.4 18.1c0-.4-.3-.7-.7-.7H9.2c-.4 0-.7.3-.7.7V56h49.3v-1.7zm-49.9 9c0 .3.3.6.6.6s.6-.3.3-.6v-6.8h-.9v6.8zm49.6-6.8v6.8c-.3.3 0 .6.3.6s.6-.3.6-.6v-6.8h-.9zM9.3 63.3h.4v1.1h2v-1.1h1.7c-.1.1-.1.2-.2.3H12v.8h1c0 .7.4 1.2 1 1.5H9.7v.3h47.2v-.3h-4.8c.6-.2 1-.8 1-1.5h1v-.8h-1.3c-.1-.1-.1-.2-.2-.3h1.7v1.1h2v-1.1h.4v-6.8H9.3v6.8zm45.3-4.9c0-.4.3-.7.7-.7h.2c.4 0 .7.3.7.7v1.4c0 .4-.3.7-.7.7h-.2c-.4 0-.7-.3-.7-.7v-1.4zm-9.3 7.4c.6-.2 1-.8 1-1.5h.9v.7H49v-.7h.9c0 .7.4 1.2 1 1.5h-5.6zm-.7-.1c-.7 0-1.3-.6-1.3-1.3h.2c0 .6.5 1.1 1.1 1.1.6 0 1.1-.5 1.1-1.1h.2c0 .7-.5 1.3-1.3 1.3m6.5-7.7c0-.2.2-.4.4-.4h1.1c.2 0 .4.2.4.4v.5h-1.9V58zm0 .8H53v1.4c0 .2-.2.4-.4.4h-1.1c-.2 0-.4-.2-.4-.4v-1.4zm.4 6.6c.6 0 1.1-.5 1.1-1.1h.2c0 .7-.6 1.3-1.3 1.3-.7 0-1.3-.6-1.3-1.3h.2c.1.7.5 1.1 1.1 1.1m-1.4-1.8H49v-.3h1.3c0 .1-.1.2-.2.3M47.6 58c0-.2.2-.4.4-.4h1.1c.2 0 .4.2.4.4v.5h-1.9V58zm0 .8h1.9v1.4c0 .2-.2.4-.4.4H48c-.2 0-.4-.2-.4-.4v-1.4zm-.5 4.8H46c-.1-.1-.1-.2-.2-.3h1.3v.3zM42.9 58c0-.2.2-.4.4-.4h2.4c.2 0 .4.2.4.4v.5h-3.2V58zm0 .8h3.2v1.4c0 .2-.2.4-.4.4h-2.4c-.2 0-.4-.2-.4-.4v-1.4zm-5.7-.8c0-.2.2-.4.4-.4H40c.2 0 .4.2.4.4v.5h-3.2V58zm0 .8h3.2v1.4c0 .2-.2.4-.4.4h-2.4c-.2 0-.4-.2-.4-.4v-1.4zm-5.7-.8c0-.2.2-.4.4-.4h2.4c.2 0 .4.2.4.4v.5h-3.2V58zm0 .8h3.2v1.4c0 .2-.2.4-.4.4h-2.4c-.2 0-.4-.2-.4-.4v-1.4zm5.7 6.3v-1.8h6.3c-.1.1-.1.2-.2.3H42v.8h1c0 .7.4 1.2 1 1.5H22.2c.6-.2 1-.8 1-1.5h1v-.8h-1.3c-.1-.1-.1-.2-.2-.3H29v1.8h8.2zm-15.7.6c-.7 0-1.3-.6-1.3-1.3h.2c0 .6.5 1.1 1.1 1.1.6 0 1.1-.5 1.1-1.1h.2c0 .7-.6 1.3-1.3 1.3m4.3-7.7c0-.2.2-.4.4-.4h2.4c.2 0 .4.2.4.4v.5h-3.2V58zm0 .8H29v1.4c0 .2-.2.4-.4.4h-2.4c-.2 0-.4-.2-.4-.4v-1.4zm-5.7-.8c0-.2.2-.4.4-.4h2.4c.2 0 .4.2.4.4v.5h-3.2V58zm0 .8h3.2v1.4c0 .2-.2.4-.4.4h-2.4c-.2 0-.4-.2-.4-.4v-1.4zM19 63.3h1.3c-.1.1-.1.2-.2.3H19v-.3zm0 1.1h.9c0 .7.4 1.2 1 1.5h-5.6c.6-.2 1-.8 1-1.5h.9v.7H19v-.7zM16.7 58c0-.2.2-.4.4-.4h1.1c.2 0 .4.2.4.4v.5h-1.9V58zm0 .8h1.9v1.4c0 .2-.2.4-.4.4H17c-.2 0-.4-.2-.4-.4v-1.4zm.4 4.5v.3H16c-.1-.1-.1-.2-.2-.3h1.3zm-1.4 1.1h.2c0 .7-.6 1.3-1.3 1.3-.7 0-1.3-.6-1.3-1.3h.2c0 .6.5 1.1 1.1 1.1.6-.1 1.1-.5 1.1-1.1M13.2 58c0-.2.2-.4.4-.4h1.1c.2 0 .4.2.4.4v.5h-1.9V58zm0 .8h1.9v1.4c0 .2-.2.4-.4.4h-1.1c-.2 0-.4-.2-.4-.4v-1.4zm-3.3-.4c0-.4.3-.7.7-.7h.2c.4 0 .7.3.7.7v1.4c0 .4-.3.7-.7.7h-.2c-.4 0-.7-.3-.7-.7v-1.4z"/><path class="st0" d="M15.2 64.4c0 .3-.2.6-.6.6-.3 0-.6-.2-.6-.6 0-.3.2-.6.6-.6.3 0 .6.3.6.6m6.9 0c0 .3-.2.6-.6.6-.3 0-.6-.2-.6-.6 0-.3.2-.6.6-.6.3 0 .6.3.6.6m23.1 0c0 .3-.2.6-.6.6-.3 0-.6-.2-.6-.6 0-.3.2-.6.6-.6.3 0 .6.3.6.6m6.9 0c0 .3-.2.6-.6.6-.3 0-.6-.2-.6-.6 0-.3.2-.6.6-.6.3 0 .6.3.6.6"/><path fill="none" stroke="#fff" stroke-miterlimit="10" d="M89.1 20.8v49.9"/><path class="st0" d="M192.3 42.5l-4.1-1.8c-1.5-.7-2.6-1.3-3.2-1.9-.6-.6-.9-1.3-.9-2.2 0-1.1.4-2 1.3-2.6.8-.6 1.9-.9 3.2-.9 2.7 0 5 1.4 6.8 4.1l5-3.8c-1.1-2.1-2.7-3.7-4.7-4.9-2-1.2-4.4-1.8-7.1-1.8-3.4 0-6.3.9-8.5 2.8s-3.4 4.3-3.4 7.3c0 2.3.7 4.3 2.2 5.9 1.5 1.6 3.6 3.1 6.4 4.3l3.8 1.7c1.2.5 2 1 2.5 1.2.5.3 1 .7 1.4 1.3.4.6.6 1.2.6 1.9 0 1.2-.5 2.2-1.4 2.9-.9.7-2.1 1.1-3.7 1.1-3.4 0-6.3-1.7-8.8-5.2l-5 3.8c1.4 2.4 3.3 4.3 5.6 5.8 2.4 1.4 5.1 2.1 8.1 2.1 3.6 0 6.6-1 9-2.9 2.3-1.9 3.5-4.5 3.5-7.8 0-2.4-.7-4.4-2.2-6-1.2-1.6-3.4-3-6.4-4.4zm28.3-6.8c-3.8 0-6.7 1.3-8.6 3.9v-3.4h-6.7v36.5h7.3V60.4c2 2.2 4.6 3.2 8 3.2 3.8 0 6.9-1.3 9.3-4 2.4-2.7 3.6-6 3.6-10.1 0-4-1.2-7.4-3.6-10-2.4-2.5-5.5-3.8-9.3-3.8zm3.5 19.3c-1.3 1.4-3 2-4.9 2-1.9 0-3.5-.6-4.8-1.9-1.3-1.3-2-3.1-2-5.5s.7-4.2 2-5.5c1.3-1.2 2.9-1.9 4.8-1.9 2 0 3.6.7 4.9 2 1.3 1.4 2 3.1 2 5.4 0 2.3-.6 4-2 5.4zm26.2-19.3c-4 0-7.4 1.3-10.2 4-2.8 2.7-4.2 6-4.2 9.9 0 4 1.4 7.3 4.1 10 2.8 2.7 6.1 4 10.1 4s7.4-1.4 10.2-4.1 4.2-6 4.2-9.9c0-3.9-1.4-7.2-4.2-9.9-2.7-2.7-6-4-10-4zm4.9 19.2c-1.3 1.4-3 2.1-4.9 2.1-2 0-3.7-.7-5-2-1.3-1.4-1.9-3.1-1.9-5.2s.6-3.9 1.9-5.3c1.3-1.4 3-2.1 5-2.1s3.6.7 4.9 2.1c1.3 1.4 2 3.2 2 5.2 0 2.1-.6 3.8-2 5.2zm42.5 1.3c-.8-.6-1.2-1.7-1.2-3.2V42.4h7.6v-6.2h-7.6v-6.8h-7.3V36H285c-.7-.2-1.5-.2-2.4-.2-3.1 0-5.5 1.2-7.3 3.6v-3.2h-6.7V63h7.3V49.7c0-2.3.6-4 1.9-5.2 1.3-1.2 3-2 5.2-2h6.1v11.2c0 3.4.9 5.9 2.8 7.5 1.9 1.7 4.5 2.5 7.9 2.5 1.6 0 3.3-.2 5-.6V57c-1.9.1-3 .2-3.5.2-1.6-.1-2.8-.4-3.6-1zM320 47l-2.6-1.1c-1-.4-1.8-.8-2.2-1.1-.4-.3-.6-.8-.6-1.3 0-1.3 1-1.9 2.9-1.9 2.2 0 4.2.8 6 2.5l3.7-4.5c-2.4-2.7-5.6-4.1-9.6-4.1-2.9 0-5.3.7-7.1 2.1-1.8 1.4-2.7 3.4-2.7 5.9 0 2 .6 3.6 1.8 4.8 1.2 1.2 3 2.3 5.5 3.4l2.9 1.2c1 .4 1.7.8 2.1 1.1.4.3.6.7.6 1.3 0 .7-.3 1.3-1 1.6-.6.4-1.5.6-2.4.6-2.7 0-5.2-1.2-7.5-3.6l-3.7 4.4c2.6 3.5 6.3 5.2 11.1 5.2 3 0 5.5-.8 7.5-2.3 2-1.5 2.9-3.6 2.9-6.3 0-2-.6-3.6-1.8-4.8-1.3-1-3.2-2.1-5.8-3.1zm24.3-20.3l-16 36.3h7.8l2-4.6h14.6l2 4.6h7.8l-15.9-36.3h-2.3zm-3.5 25.7l4.7-12 4.7 12h-9.4zm43.3-13.5c-1.9-2.1-4.6-3.2-8-3.2-3.8 0-6.9 1.3-9.3 4-2.4 2.6-3.6 6-3.6 10s1.2 7.4 3.6 10c2.4 2.6 5.5 4 9.3 4s6.6-1.3 8.6-4V63h6.7V22.5h-7.3v16.4zm-1.9 16.3c-1.3 1.2-2.9 1.9-4.8 1.9-2 0-3.6-.7-4.9-2-1.3-1.4-2-3.1-2-5.4 0-2.2.7-4 2-5.3 1.3-1.4 3-2 4.9-2 1.8 0 3.4.6 4.8 1.9 1.3 1.3 2 3.1 2 5.5 0 2.3-.7 4.1-2 5.4zm34.1-16.3c-1.9-2.1-4.6-3.2-8-3.2-3.8 0-6.9 1.3-9.3 4-2.4 2.6-3.6 6-3.6 10s1.2 7.4 3.6 10c2.4 2.6 5.5 4 9.3 4s6.6-1.3 8.6-4V63h6.7V22.5h-7.3v16.4zm-1.9 16.3c-1.3 1.2-2.9 1.9-4.8 1.9-2 0-3.6-.7-4.9-2-1.3-1.4-2-3.1-2-5.4 0-2.2.7-4 2-5.3 1.3-1.4 3-2 4.9-2 1.8 0 3.4.6 4.8 1.9 1.3 1.3 2 3.1 2 5.5 0 2.3-.6 4.1-2 5.4zm34-16.6c-2.1-2-4.9-2.9-8.3-2.9-4.7 0-8.6 1.8-11.7 5.5l3.8 4.5c2.3-2.4 4.7-3.7 7.1-3.7 1.6 0 2.9.4 3.7 1.2.8.8 1.3 2 1.3 3.5v1.2h-6.7c-3.1 0-5.6.7-7.4 2.1-1.8 1.4-2.7 3.3-2.7 5.7 0 2.3.8 4.3 2.5 5.8s3.9 2.2 6.8 2.2c3.4 0 6.1-1.1 8.2-3.2V63h6.7V47.1c-.2-3.7-1.2-6.5-3.3-8.5zM444.2 53c0 1.5-.5 2.8-1.6 3.8s-2.4 1.5-4 1.5c-1.2 0-2.1-.3-2.8-.8-.7-.5-1.1-1.2-1.1-2.1 0-1.8 1.2-2.7 3.7-2.7h5.7v.3z"/><path d="M137.4 17.4c-3.3 0-6.4.6-9.4 1.6 2.3 1.1 4.2 2.7 5.6 4.8 1.2-.2 2.5-.3 3.8-.3 12.3 0 22.3 10 22.3 22.3s-10 22.3-22.3 22.3-22.3-10-22.3-22.3c0-.8 0-1.6.1-2.4-2.1-1.3-3.9-3.1-5.1-5.2-.7 2.4-1 5-1 7.6 0 15.7 12.7 28.4 28.4 28.4s28.4-12.7 28.4-28.4c-.1-15.7-12.8-28.4-28.5-28.4z" fill-rule="evenodd" clip-rule="evenodd" fill="#fff"/><linearGradient id="SVGID_1_" gradientUnits="userSpaceOnUse" x1="108.361" y1="31.466" x2="135.912" y2="31.466"><stop offset="0" stop-color="#9e1d22"/><stop offset=".66" stop-color="#ef6935"/><stop offset="1" stop-color="#f69834"/></linearGradient><circle cx="122.1" cy="31.5" r="13.8" fill="url(#SVGID_1_)"/><defs><path id="SVGID_2_" d="M121.5 45.2c-7.6-.3-13.5-6.8-13.2-14.3s6.8-13.5 14.4-13.2c7.6.3 13.5 6.8 13.2 14.3s-6.7 13.5-14.4 13.2z"/></defs><clipPath id="SVGID_3_"><use xlink:href="#SVGID_2_" overflow="visible"/></clipPath><path class="st0" d="M116.1 42.3c1.4-.1 3.4-.7 4.7-1.1 1.6.8 3.4 1.2 5.2 1.3 0 .7 0 1.4.1 2.1 0 0 .4-.1.6-.2-.1-.7-.1-1.3-.1-2 1.3-1.2 2.9-2.8 3.7-4.4l4-1.3c.1.2.1.5.2.8 1.6-3.1 1.6-6.8 1.4-7.5-.9-1.4-1.9-2.7-2.9-4.1 0-1.5-.5-3.1-1.2-4.5-.2-.3-1.1-1-1.2-1-1.5-.7-3.3-1-4.9-1.1-.6-.6-1.6-1.3-2.3-1.7h-1.7c1.2.5 2.5 1.2 3.4 2.1-.5 1.1-.9 2.4-1.3 3.6-1.9.1-3.8.7-5.5 1.6-1.2-.8-2.4-1.5-3.7-2 .2-1.1.5-2.6 1.4-3.3 1.4-.8 3.3-1.4 4.7-1.8-.2 0-.7.1-.7.1-2.5.3-4.7 1.7-5 1.9-.5.9-.8 2.2-1 3.2-1.7 1-3.1 2.8-4.2 4.4l-.7.1c-.1.2-.1.5-.2.7l.9-.1c.3 1.7.8 3.3 1.8 4.6-.2 1.6-.5 3.4-.4 5.1-.4.1-.7.1-1.1.1.5 1.1 2.8 4.6 6.4 6.1-.2-.6-.4-1.1-.4-1.7zm16.4-15.7c.9 1.2 2.3 2.9 3 4.1 0 1.8-.4 3.7-1.3 5.4l-4 1.3c-.9-1.3-1.9-2.7-2.8-3.9.5-1.8.9-3.6 1.3-5.4 1.3-.6 2.5-1.1 3.8-1.5zm-14-1c1.7-.8 3.5-1.4 5.4-1.5 1.7.9 3 2.2 4.1 3.8-.3 1.9-.8 3.7-1.3 5.4-1.7.6-3.5 1.2-5.3 1.7-1.3-1.3-2.7-2.6-4.1-3.9.4-1.9.7-3.7 1.2-5.5zm-6.8 12.3c-.1-1.6.2-3.5.4-5.1l4.8-1.2c1.3 1.3 2.7 2.6 4.1 3.9-.3 1.6-.6 3.6-.4 5.2-1.2.3-3.6 1.1-4.6 1.1-1.6-1.2-3-2.5-4.3-3.9z"/></svg>