<svg xmlns="http://www.w3.org/2000/svg" width="238.73" height="235.32"><defs><style>.a{fill:none}.b{stroke:none}</style></defs><g class="a"><path class="b" d="M120.843 24.77c56.925.956 102.267 46.123 101.273 100.883s-47.946 98.378-104.871 97.422S14.978 176.952 15.972 122.192 63.918 23.815 120.843 24.77z"/><path d="M120.34 54.766c-40.317-.677-73.68 29.814-74.373 67.97-.33 18.237 6.8 35.57 20.076 48.804 13.588 13.545 31.932 21.193 51.706 21.539 40.317.677 73.68-29.815 74.372-67.97.331-18.238-6.798-35.57-20.076-48.805-13.587-13.544-31.931-21.193-51.652-21.537h-.053m.576-29.995c56.896.993 102.194 46.141 101.2 100.881-.993 54.76-47.946 98.377-104.87 97.421h-.073c-56.896-.994-102.194-46.142-101.2-100.882.993-54.76 47.945-98.378 104.87-97.422l.073.002z" fill="#aacffa"/></g><g class="a"><path class="b" d="M121.418 2.049c64.805 1.114 116.425 53.779 115.295 117.63s-54.586 114.708-119.4 113.593S.885 179.492 2.016 115.642 56.604.935 121.418 2.05z"/><path d="M120.897 32.044c-48.174-.828-88.048 36.912-88.884 84.13-.404 22.778 8.241 44.372 24.342 60.802 16.219 16.55 38.044 25.89 61.478 26.3 48.174.828 88.048-36.912 88.884-84.13.404-22.778-8.241-44.371-24.342-60.802-16.219-16.55-38.044-25.89-61.454-26.3h-.024m.548-29.995c64.798 1.131 116.399 53.787 115.268 117.63-1.132 63.85-54.587 114.707-119.396 113.592h-.032C52.487 232.14.886 179.485 2.017 115.642 3.15 51.792 56.604.934 121.413 2.05h.032z" fill="#69a2e6"/></g></svg>