<svg xmlns="http://www.w3.org/2000/svg" width="255" height="255"><defs><style>.a{isolation:isolate}.n,.p{fill:none}.j{fill:#fff;font-size:10px;font-family:HelveticaNeue-Light,Helvetica Neue;font-weight:300}.m{opacity:.4}.n{stroke:#fff;stroke-width:.5px}.o{stroke:none}</style></defs><g class="a"><g class="a" transform="translate(.339 .298)"><ellipse cx="47.5" cy="53.5" rx="47.5" ry="53.5" transform="translate(79.661 73.702)" fill="#4699ff" opacity=".2"/><path fill="#348fff" opacity=".3" d="M117.661 96.702h19v61h-19z"/><g transform="translate(-.339 -.298)" fill="rgba(0,89,199,.2)" stroke="#0059c7"><circle class="o" cx="127.5" cy="127.5" r="127.5"/><circle class="p" cx="127.5" cy="127.5" r="127"/></g><circle cx="106.5" cy="106.5" r="106.5" transform="translate(20.661 20.702)" fill="#f27b34"/><path d="M127.161 22.702a104.5 104.5 0 11-104.5 104.5 104.5 104.5 0 01104.5-104.5z" fill="#004dad"/><path d="M127.013 22.274v210.07m105.035-105.035H21.978m179.306 74.271L52.742 53.038m0 148.542L201.284 53.038" stroke="#4699ff" fill="none" opacity=".5"/><g transform="translate(50.661 51.702)" stroke-dasharray="4 4" stroke="#4699ff" fill="none"><ellipse class="o" cx="76" cy="75.5" rx="76" ry="75.5"/><ellipse class="p" cx="76" cy="75.5" rx="75.5" ry="75"/></g><text class="j" transform="rotate(22.03 22.263 450.858)"><tspan x="-16.58" y="0">Fine leg</tspan></text><text class="j" transform="rotate(-23 669.422 -308.077)"><tspan x="-14.815" y="0">Mid on</tspan></text><text class="j" transform="rotate(-23 102.556 -176.661)"><tspan x="-21.58" y="0">Third man</tspan></text><text class="j" transform="rotate(22 -571.16 317.177)"><tspan x="-14.63" y="0">Mid off</tspan></text><text class="j" transform="rotate(-67.98 75.794 27.643)"><tspan x="-11.02" y="0">Point</tspan></text><text class="j" transform="rotate(67 52.261 215.313)"><tspan x="-23.07" y="0">Square leg</tspan></text><text class="j" transform="rotate(69.03 -115.958 97.58)"><tspan x="-12.785" y="0">Cover</tspan></text><text class="j" transform="rotate(-68 247.167 -88.07)"><tspan x="-23.15" y="0">Mid wicket</tspan></text></g><g transform="translate(118.818 109.427)" opacity=".956"><rect width="17.479" height="36.356" rx="2" transform="translate(0 .162)" fill="#d6ba94"/><g class="m"><path class="n" d="M.164 31.141h17.622m-14.29-.216v5.593m10.487-5.593v5.593"/></g><g class="m"><path class="n" d="M.164 5.19h17.622M3.664 5.069V0m10.38 5.069V0"/></g></g></g></svg>