<svg id="Layer_1" data-name="Layer 1" xmlns="http://www.w3.org/2000/svg" viewBox="0 0 204 40"><defs><linearGradient id="linear-gradient" x1="2.02" y1="11.65" x2="18.12" y2="11.65" gradientUnits="userSpaceOnUse"><stop offset="0" stop-color="#9f1f24"/><stop offset=".66" stop-color="#ef6934"/><stop offset="1" stop-color="#f79934"/></linearGradient></defs><path d="M19 3.44A16.56 16.56 0 1035.54 20 16.56 16.56 0 0019 3.44zM19 33a13 13 0 1113-13 13 13 0 01-13 13z" fill-rule="evenodd" fill="#fff"/><circle cx="10.07" cy="11.65" r="8.05" fill="url(#linear-gradient)"/><path d="M49.84 18.24l-2.38-1a7.75 7.75 0 01-1.89-1.1 1.64 1.64 0 01-.57-1.36 1.74 1.74 0 01.74-1.51 3.16 3.16 0 011.86-.52 4.72 4.72 0 014 2.41l2.92-2.25A7.56 7.56 0 0051.79 10a7.8 7.8 0 00-4.17-1.08 7.52 7.52 0 00-5 1.63 5.33 5.33 0 00-2 4.3A4.94 4.94 0 0042 18.36a11.59 11.59 0 003.76 2.54l2.25 1c.68.31 1.17.56 1.48.73a2.58 2.58 0 01.82.74 1.89 1.89 0 01.37 1.13 2.05 2.05 0 01-.8 1.7 3.5 3.5 0 01-2.19.61c-2 0-3.68-1-5.14-3L39.59 26a9.09 9.09 0 008.09 4.63 8 8 0 005.32-1.7 5.66 5.66 0 002-4.57 5.08 5.08 0 00-1.27-3.54 11.36 11.36 0 00-3.89-2.58zm16.59-4.03a5.83 5.83 0 00-5 2.31v-2h-3.98V36h4.29v-7.26a6 6 0 004.69 1.9 7.08 7.08 0 005.48-2.35 8.44 8.44 0 002.14-5.9 8.35 8.35 0 00-2.14-5.87 7.15 7.15 0 00-5.48-2.31zm2.1 11.34a3.93 3.93 0 01-2.89 1.19 3.89 3.89 0 01-2.81-1.13 4.29 4.29 0 01-1.16-3.22 4.21 4.21 0 011.18-3.22 3.94 3.94 0 012.79-1.09 3.85 3.85 0 012.9 1.19 4.28 4.28 0 011.16 3.15 4.27 4.27 0 01-1.17 3.13zm15.35-11.34a8.24 8.24 0 00-6 2.36 7.79 7.79 0 00-2.44 5.82 7.85 7.85 0 002.42 5.86 8.22 8.22 0 005.95 2.36 8.32 8.32 0 006-2.38 7.78 7.78 0 002.47-5.84 7.74 7.74 0 00-2.47-5.82 8.31 8.31 0 00-5.93-2.36zm2.91 11.26a4.14 4.14 0 01-5.83 0 4.27 4.27 0 01-1.14-3.07A4.37 4.37 0 0181 19.33a3.86 3.86 0 012.92-1.22 3.81 3.81 0 012.91 1.24 4.32 4.32 0 011.15 3.07 4.22 4.22 0 01-1.19 3.05zm24.92.78a2.27 2.27 0 01-.7-1.89v-6.19h4.44v-3.61H111v-4h-4.28v3.87h-2.48a4.67 4.67 0 00-1.39-.11 5.17 5.17 0 00-4.32 2.09v-1.9h-3.92v15.7h4.28v-7.79a3.93 3.93 0 011.11-3.06 4.54 4.54 0 013.08-1.19h3.62v6.57a5.68 5.68 0 001.64 4.43 6.75 6.75 0 004.66 1.47 12.38 12.38 0 002.95-.38v-3.58c-1.1.08-1.78.12-2 .12a3.55 3.55 0 01-2.24-.55zm13.1-5.41l-1.52-.64a4.69 4.69 0 01-1.29-.65.93.93 0 01-.36-.74q0-1.11 1.68-1.11a5 5 0 013.52 1.49l2.16-2.64a7.22 7.22 0 00-5.65-2.37 6.55 6.55 0 00-4.17 1.25 4.14 4.14 0 00-1.6 3.47 3.85 3.85 0 001.06 2.83 9.63 9.63 0 003.22 2l1.68.7a7.08 7.08 0 011.25.65.9.9 0 01.37.78 1.07 1.07 0 01-.57 1 2.83 2.83 0 01-1.43.33 6.09 6.09 0 01-4.41-2.19l-2.16 2.61a7.7 7.7 0 006.51 3 7 7 0 004.39-1.33 4.4 4.4 0 001.73-3.68 3.84 3.84 0 00-1.06-2.81 10.07 10.07 0 00-3.35-1.95zm14.24-11.9l-9.36 21.32h4.61l1.17-2.73H144l1.17 2.73h4.6l-9.29-21.32zM137 24l2.76-7 2.76 7zm25.44-7.92a6 6 0 00-4.7-1.87 7.08 7.08 0 00-5.47 2.33 8.35 8.35 0 00-2.14 5.88 8.37 8.37 0 002.14 5.89 7.11 7.11 0 005.47 2.33 5.86 5.86 0 005-2.35v2h3.93V6.47h-4.28zm-1.11 9.56a4 4 0 01-2.8 1.1 3.89 3.89 0 01-2.9-1.19 4.35 4.35 0 01-1.16-3.16 4.22 4.22 0 011.18-3.12 3.86 3.86 0 012.88-1.19 3.92 3.92 0 012.8 1.12 4.27 4.27 0 011.17 3.22 4.19 4.19 0 01-1.17 3.22zm20.02-9.56a6 6 0 00-4.7-1.87 7.08 7.08 0 00-5.47 2.33 8.35 8.35 0 00-2.18 5.88 8.37 8.37 0 002.14 5.89 7.11 7.11 0 005.47 2.33 5.86 5.86 0 005-2.35v2h3.93V6.47h-4.28zm-1.11 9.56a4 4 0 01-2.8 1.1 3.89 3.89 0 01-2.9-1.19 4.35 4.35 0 01-1.16-3.16 4.22 4.22 0 011.18-3.12 3.86 3.86 0 012.88-1.19 3.92 3.92 0 012.8 1.12 4.27 4.27 0 011.17 3.22 4.19 4.19 0 01-1.17 3.22zm19.94-9.7a6.82 6.82 0 00-4.91-1.73 8.6 8.6 0 00-6.85 3.23l2.22 2.64a5.88 5.88 0 014.16-2.16 3 3 0 012.17.73 2.7 2.7 0 01.75 2v.7h-3.94a6.94 6.94 0 00-4.33 1.22 4 4 0 00-1.6 3.35 4.33 4.33 0 001.46 3.37 5.68 5.68 0 004 1.32 6.31 6.31 0 004.79-1.9v1.52h3.9v-9.3a6.56 6.56 0 00-1.82-4.99zm-2.46 8.45a2.89 2.89 0 01-1 2.24 3.32 3.32 0 01-2.34.87 2.68 2.68 0 01-1.64-.46 1.48 1.48 0 01-.62-1.25q0-1.59 2.19-1.59h3.37z" fill="#fff"/></svg>