<svg id="Layer_1" data-name="Layer 1" xmlns="http://www.w3.org/2000/svg" viewBox="0 0 204 40"><defs><linearGradient id="linear-gradient" x1="2.02" y1="11.68" x2="18.08" y2="11.68" gradientUnits="userSpaceOnUse"><stop offset="0" stop-color="#9f1f24"/><stop offset=".66" stop-color="#ef6934"/><stop offset="1" stop-color="#f79934"/></linearGradient><style>.cls-1{fill:#fff}</style></defs><path class="cls-1" d="M51 18.13l-2.37-1A7.81 7.81 0 0146.71 16a1.66 1.66 0 01-.55-1.31 1.74 1.74 0 01.74-1.5 3.17 3.17 0 011.84-.52 4.68 4.68 0 014 2.4l2.9-2.24A7.43 7.43 0 0052.88 10a7.69 7.69 0 00-4.14-1.1 7.48 7.48 0 00-4.94 1.63 5.25 5.25 0 00-2 4.26 4.94 4.94 0 001.31 3.47 11.67 11.67 0 003.73 2.52l2.24 1c.67.31 1.16.55 1.46.72a2.6 2.6 0 01.82.74 1.85 1.85 0 01.36 1.12 2 2 0 01-.72 1.69 3.47 3.47 0 01-2.18.62q-2.92 0-5.1-3l-2.93 2.2a9.05 9.05 0 008 4.6A7.91 7.91 0 0054 28.75a5.6 5.6 0 002-4.54 5.06 5.06 0 00-1.26-3.51A11.54 11.54 0 0051 18.13zm16.42-4a5.79 5.79 0 00-5 2.3v-1.95H58.5v21.26h4.26v-7.18a6 6 0 004.66 1.89 7 7 0 005.43-2.33A8.37 8.37 0 0075 22.26a8.26 8.26 0 00-2.13-5.83 7.09 7.09 0 00-5.45-2.3zm2.08 11.26a4.07 4.07 0 01-5.66.07 4.29 4.29 0 01-1.15-3.2 4.16 4.16 0 011.17-3.2A3.94 3.94 0 0166.63 18a3.82 3.82 0 012.88 1.18 4.27 4.27 0 011.15 3.13 4.23 4.23 0 01-1.16 3.08zm15.24-11.26a8.22 8.22 0 00-5.92 2.35 7.71 7.71 0 00-2.43 5.78 7.8 7.8 0 002.41 5.81 8.14 8.14 0 005.91 2.35 8.26 8.26 0 006-2.37 7.7 7.7 0 002.46-5.79 7.66 7.66 0 00-2.46-5.78 8.29 8.29 0 00-5.97-2.35zm2.88 11.18a3.8 3.8 0 01-2.88 1.2 3.85 3.85 0 01-2.9-1.18 4.23 4.23 0 01-1.13-3 4.34 4.34 0 011.13-3.07 3.8 3.8 0 012.9-1.26 3.76 3.76 0 012.88 1.23 4.25 4.25 0 011.15 3.05 4.15 4.15 0 01-1.15 3.03zm24.74.78a2.29 2.29 0 01-.69-1.88v-6.14h4.41v-3.59h-4.41v-3.94h-4.25v3.84H105a4.6 4.6 0 00-1.38-.11 5.14 5.14 0 00-4.29 2.08v-1.87h-3.9v15.59h4.25v-7.78a3.91 3.91 0 011.13-3 4.51 4.51 0 013.06-1.18h3.59v6.52a5.55 5.55 0 001.6 4.37 6.63 6.63 0 004.59 1.47 12.15 12.15 0 002.93-.38v-3.58c-1.09.09-1.76.13-2 .13a3.6 3.6 0 01-2.22-.55zm13.01-5.37l-1.51-.63a4.75 4.75 0 01-1.28-.65.93.93 0 01-.36-.74c0-.73.56-1.1 1.67-1.1a5 5 0 013.5 1.48l2.14-2.62a7.18 7.18 0 00-5.61-2.36 6.52 6.52 0 00-4.14 1.25 4.13 4.13 0 00-1.59 3.44 3.85 3.85 0 001 2.81 9.78 9.78 0 003.2 1.95l1.67.69a6.9 6.9 0 011.24.65.88.88 0 01.37.77 1 1 0 01-.57 1 2.79 2.79 0 01-1.42.33 6.07 6.07 0 01-4.38-2.11l-2.14 2.58a7.65 7.65 0 006.46 3 6.94 6.94 0 004.38-1.33 4.36 4.36 0 001.72-3.66 3.77 3.77 0 00-1.06-2.79 10.06 10.06 0 00-3.29-1.96zM139.51 8.9l-9.29 21.17h4.57l1.21-2.71h8.51l1.16 2.71h4.57L140.93 8.9zm-2 15l2.74-7 2.74 7zm25.21-7.9a5.93 5.93 0 00-4.66-1.86 7.07 7.07 0 00-5.43 2.32 8.29 8.29 0 00-2.13 5.84 8.29 8.29 0 002.13 5.84 7 7 0 005.43 2.32 5.81 5.81 0 005-2.33v1.95H167V6.45h-4.26zm-1.1 9.5a3.92 3.92 0 01-2.77 1.08 3.84 3.84 0 01-2.85-1.19 4.27 4.27 0 01-1.15-3.13 4.23 4.23 0 011.16-3.1 4 4 0 015.64-.07 4.22 4.22 0 011.17 3.2 4.16 4.16 0 01-1.2 3.2zM181.5 16a6 6 0 00-4.67-1.86 7.07 7.07 0 00-5.43 2.32 8.28 8.28 0 00-2.12 5.84 8.28 8.28 0 002.12 5.84 7 7 0 005.43 2.32 5.81 5.81 0 005-2.33v1.95h3.91V6.45h-4.24zm-1.11 9.5a3.92 3.92 0 01-2.77 1.08 3.85 3.85 0 01-2.88-1.18 4.27 4.27 0 01-1.15-3.13 4.2 4.2 0 011.17-3.1 4 4 0 015.63-.07 4.22 4.22 0 011.17 3.2 4.16 4.16 0 01-1.17 3.19zm19.8-9.65a6.81 6.81 0 00-4.87-1.72 8.51 8.51 0 00-6.8 3.22l2.2 2.61a5.82 5.82 0 014.13-2.14 3 3 0 012.16.72 2.73 2.73 0 01.74 2v.69h-3.91a7 7 0 00-4.3 1.21 4 4 0 00-1.54 3.35 4.33 4.33 0 001.45 3.35 5.68 5.68 0 003.94 1.31 6.24 6.24 0 004.75-1.89v1.51H202v-9.26a6.5 6.5 0 00-1.81-4.96zm-2.44 8.39a2.86 2.86 0 01-.95 2.22 3.3 3.3 0 01-2.33.87 2.62 2.62 0 01-1.62-.46 1.46 1.46 0 01-.61-1.24c0-1.05.72-1.58 2.17-1.58h3.34z"/><path d="M19 3.48a16.49 16.49 0 00-5.47.93 8 8 0 013.24 2.78A12.67 12.67 0 0119 7 13 13 0 116 20a12.66 12.66 0 010-1.39 8 8 0 01-3-3.06A16.53 16.53 0 1019 3.48z" fill-rule="evenodd" fill="#fff"/><circle cx="10.05" cy="11.68" r="8.03" fill="url(#linear-gradient)"/><path class="cls-1" d="M6.55 18a14.63 14.63 0 002.75-.64 7.86 7.86 0 003 .79 8.2 8.2 0 00.08 1.21l.36-.1a11.76 11.76 0 01-.06-1.2 9.7 9.7 0 002.14-2.56l2.3-.74a2.56 2.56 0 01.11.49A7.94 7.94 0 0018 10.9c-.51-.83-1.1-1.57-1.67-2.36a5.6 5.6 0 00-.71-2.6 7 7 0 00-.69-.6 8.18 8.18 0 00-2.87-.67 6.84 6.84 0 00-1.35-1 8 8 0 00-1 0 6.65 6.65 0 012 1.24A15.77 15.77 0 0011 7a9.29 9.29 0 00-3.22.91 18.9 18.9 0 00-2.16-1.19 3.35 3.35 0 01.83-1.95A13.89 13.89 0 019.18 3.7h-.43a7.83 7.83 0 00-2.93 1.1 5.39 5.39 0 00-.58 1.9 8.41 8.41 0 00-2.43 2.54h-.43c0 .13-.08.28-.11.41h.49a6.36 6.36 0 001.06 2.71 21.13 21.13 0 00-.23 3 3.61 3.61 0 01-.65.08A8.1 8.1 0 006.69 19a5.4 5.4 0 01-.14-1zm9.55-9.16a25.53 25.53 0 011.73 2.41 7.09 7.09 0 01-.74 3.13l-2.33.74c-.5-.76-1.1-1.54-1.65-2.28.3-1 .55-2.1.76-3.18.74-.3 1.49-.59 2.23-.82zm-8.17-.6a9.33 9.33 0 013.15-.89 7.26 7.26 0 012.41 2.2 26.28 26.28 0 01-.76 3.18c-1 .36-2 .7-3.09 1-.78-.74-1.59-1.5-2.37-2.26a27.11 27.11 0 01.66-3.23zM4 15.42a19 19 0 01.23-3c.9-.22 1.86-.42 2.77-.71.78.77 1.58 1.53 2.37 2.27A12.46 12.46 0 009.13 17a18.22 18.22 0 01-2.68.61A14.21 14.21 0 014 15.42z"/></svg>