<svg id="Layer_1" data-name="Layer 1" xmlns="http://www.w3.org/2000/svg" viewBox="0 0 204.13 40"><defs><linearGradient id="linear-gradient" x1="2.63" y1="10.43" x2="21.09" y2="10.43" gradientUnits="userSpaceOnUse"><stop offset="0" stop-color="#9e1d22"/><stop offset=".66" stop-color="#ef6935"/><stop offset="1" stop-color="#f69834"/></linearGradient></defs><circle cx="11.86" cy="10.43" r="9.23" fill="url(#linear-gradient)"/><path d="M59.72 8.55a8.7 8.7 0 013.15 3.31l-3.35 2.59a5.41 5.41 0 00-4.58-2.77 3.62 3.62 0 00-2.13.6A2 2 0 0052 14a1.91 1.91 0 00.64 1.51 9.27 9.27 0 002.16 1.26L57.48 18a13 13 0 014.48 3 5.86 5.86 0 011.46 4 6.47 6.47 0 01-2.37 5.24 9.14 9.14 0 01-6 2 10.53 10.53 0 01-5.48-1.44 10.4 10.4 0 01-3.8-3.88l3.38-2.54c1.68 2.33 3.64 3.49 5.9 3.49a4 4 0 002.51-.71 2.32 2.32 0 00.91-1.95 2.12 2.12 0 00-.47-1.32 2.88 2.88 0 00-.94-.85c-.36-.2-.92-.48-1.7-.84L52.79 21a13.18 13.18 0 01-4.31-2.91 5.66 5.66 0 01-1.51-4 6.1 6.1 0 012.25-4.93 8.66 8.66 0 015.72-1.88 9 9 0 014.78 1.27zm25.17 3.64h-7.72v19.58h-4.91V12.19h-7.68V7.75h20.31zm22.49 9.64a10.12 10.12 0 01-2.86 7.56 10.95 10.95 0 01-14.67 0A10.16 10.16 0 0187 21.83V7.75h4.91V22.2a5 5 0 005.28 5.46 5.27 5.27 0 003.81-1.42 5.39 5.39 0 001.46-4V7.75h4.91zm27.91-14.52v24.46h-4.91V18.92l-6 7.61h-1.6l-6-7.61v12.85h-4.91V7.31h1.6l10.16 13 10.15-13zm19.89 2.57a7.13 7.13 0 012.42 5.62 7.19 7.19 0 01-2.42 5.62 9 9 0 01-6.24 2.17h-4.11v8.48h-4.92v-24h9a9.09 9.09 0 016.27 2.11zm-10.35 2.2V19h4.11a3.61 3.61 0 002.67-1 3.38 3.38 0 001-2.53 3.25 3.25 0 00-1-2.47 3.66 3.66 0 00-2.65-.95zm31.95.11h-11.25v4.88h8.26v4.18h-8.26v6.08h11.69v4.44h-16.6v-24h16.16zM197.89 11a11.1 11.1 0 013.64 8.66 11.33 11.33 0 01-3.66 8.7 13.39 13.39 0 01-9.45 3.38h-7.86v-24h7.86a13.59 13.59 0 019.47 3.26zm-12.41 1.16v15.17h2.91a8.23 8.23 0 005.86-2.09 7.28 7.28 0 002.22-5.55 7.1 7.1 0 00-2.2-5.5 8.43 8.43 0 00-5.88-2z" fill="#002b61"/><path d="M22.08 1a19 19 0 00-6.29 1.07 9.25 9.25 0 013.73 3.2A14.34 14.34 0 0122.08 5a15 15 0 11-15 15 14 14 0 01.09-1.6 9.25 9.25 0 01-3.43-3.51A19 19 0 1022.08 1z" fill-rule="evenodd" fill="#002b61"/></svg>