<svg version="1.1" id="Layer_1" xmlns="http://www.w3.org/2000/svg" x="0" y="0" viewBox="0 0 204.1 40" xml:space="preserve"><linearGradient id="SVGID_1_" gradientUnits="userSpaceOnUse" x1="2.63" y1="29.57" x2="21.09" y2="29.57" gradientTransform="matrix(1 0 0 -1 0 40)"><stop offset="0" stop-color="#9e1d22"/><stop offset=".66" stop-color="#ef6935"/><stop offset="1" stop-color="#f69834"/></linearGradient><circle cx="11.9" cy="10.4" r="9.2" fill="url(#SVGID_1_)"/><path d="M59.7 8.6c1.3.8 2.4 1.9 3.2 3.3l-3.3 2.6c-.9-1.7-2.7-2.7-4.6-2.8-.8 0-1.5.2-2.1.6-.5.4-.8 1-.8 1.7 0 .6.2 1.1.6 1.5.7.5 1.4.9 2.2 1.3l2.7 1.2c1.7.7 3.2 1.7 4.5 3 1 1.1 1.5 2.5 1.5 4 .1 2-.8 4-2.4 5.2a8.73 8.73 0 01-6 2c-1.9 0-3.8-.5-5.5-1.4-1.6-.9-2.9-2.3-3.8-3.9l3.4-2.5c1.7 2.3 3.6 3.5 5.9 3.5.9.1 1.8-.2 2.5-.7.6-.5.9-1.2.9-2 0-.5-.2-.9-.5-1.3-.2-.3-.6-.6-.9-.9-.4-.2-.9-.5-1.7-.8L52.8 21c-1.6-.7-3.1-1.7-4.3-2.9-1-1.1-1.5-2.5-1.5-4-.1-1.9.8-3.7 2.2-4.9 1.6-1.3 3.6-2 5.7-1.9 1.7-.1 3.4.4 4.8 1.3zm25.2 3.6h-7.7v19.6h-4.9V12.2h-7.7V7.8h20.3v4.4zm22.5 9.6c.1 2.8-.9 5.5-2.9 7.6-4.2 3.8-10.5 3.8-14.7 0-2-2-3-4.8-2.8-7.6v-14h4.9v14.5c-.3 2.7 1.8 5.2 4.5 5.4h.8c1.4.1 2.8-.5 3.8-1.4 1-1.1 1.5-2.5 1.5-4V7.8h4.9v14zm27.9-14.5v24.5h-4.9V18.9l-6 7.6h-1.6l-6-7.6v12.9h-4.9V7.3h1.6l10.2 13 10.1-13h1.5zm19.9 2.6c1.6 1.4 2.5 3.5 2.4 5.6.1 2.1-.8 4.2-2.4 5.6-1.7 1.5-4 2.3-6.2 2.2h-4.1v8.5H140v-24h9c2.2-.1 4.4.6 6.2 2.1zm-10.4 2.2V19h4.1c1 0 2-.3 2.7-1 .7-.7 1-1.6 1-2.5 0-.9-.3-1.8-1-2.5s-1.7-1-2.6-.9h-4.2zm32 .1h-11.2v4.9h8.3v4.2h-8.3v6.1h11.7v4.4h-16.6v-24h16.2l-.1 4.4zm21.1-1.2c2.4 2.2 3.8 5.4 3.6 8.7.1 3.3-1.2 6.5-3.7 8.7-2.6 2.3-6 3.5-9.4 3.4h-7.9v-24h7.9c3.5-.2 6.9.9 9.5 3.2zm-12.4 1.2v15.2h2.9c2.2.1 4.3-.7 5.9-2.1 1.5-1.4 2.3-3.5 2.2-5.6.1-2.1-.7-4.1-2.2-5.5-1.6-1.4-3.7-2.1-5.9-2h-2.9z" fill="#fff"/><path d="M22.1 1c-2.1 0-4.3.4-6.3 1.1 1.5.7 2.8 1.8 3.7 3.2.9-.2 1.7-.3 2.6-.3 8.3 0 15 6.7 15 15s-6.7 15-15 15-15-6.7-15-15c0-.5 0-1.1.1-1.6-1.4-.8-2.6-2.1-3.4-3.5C.9 25 6.8 35.5 16.9 38.3s20.6-3.1 23.4-13.2-3-20.6-13.2-23.4c-1.6-.5-3.3-.7-5-.7z" fill-rule="evenodd" clip-rule="evenodd" fill="#fff"/></svg>