<svg version="1.1" id="Layer_1" xmlns="http://www.w3.org/2000/svg" x="0" y="0" viewBox="0 0 204.1 40" xml:space="preserve"><style>.st1{fill:#fff}</style><path d="M41.1 20c0-3.3-.8-6.5-2.5-9.3-.2-.4-.5-.8-.7-1.2l-.3-.4c-.2-.3-.5-.6-.7-1l-.3-.4c-.3-.4-.7-.8-1.1-1.2-.4-.4-.9-.9-1.4-1.3-.2-.2-.5-.3-.7-.5s-.5-.4-.8-.6-.5-.3-.8-.5l-.8-.4c-.3-.2-.6-.3-.9-.4s-.5-.3-.8-.4l-.9-.3-.9-.3c-.3-.1-.5-.1-.8-.2s-.6-.2-.9-.2-.7-.1-1-.1-.5-.1-.8-.1c-.7-.2-1.3-.2-1.9-.2s-1.2 0-1.7.1l-.5.1c-.4 0-.8.1-1.1.2-.2 0-.5.1-.7.1l-1.1.2c-.3.1-.5.1-.8.2l-.4.1-1.5.6 3 3.2c.9-.3 1.9-.5 2.8-.7l.6-.1c.5 0 .9-.1 1.4-.1.5 0 1 0 1.5.1l.7.1.7.2c.2 0 .5.1.7.2s.5.1.7.2.5.2.7.2.5.2.7.2.4.2.6.3.5.2.7.3l.6.4c.2.1.4.2.6.4s.5.4.7.5.4.2.5.4c.4.3.7.6 1.1 1s.7.8 1 1.1c4.4 5.4 4.5 13 .2 18.5-.1.2-.2.3-.4.5-.3.4-.6.7-.9 1s-.7.7-1.1 1l-.4.5c-.2.2-.4.3-.6.5s-.4.3-.6.4l-.6.3c-.2.1-.5.2-.7.3l-.6.3c-.2.1-.5.2-.7.2s-.5.2-.7.2-.5.1-.7.2-.5.1-.7.2-.5.1-.8.1l-.7.1c-.6.2-1 .2-1.5.2s-1 0-1.5-.1l-.7-.1c-.3 0-.5-.1-.8-.1l-.7-.2-.7-.2c-.2-.1-.5-.2-.7-.2s-.5-.2-.7-.2-.4-.2-.6-.3-.5-.2-.7-.3l-.6-.3c-.2-.1-.4-.3-.7-.4s-.4-.3-.6-.5-.4-.3-.5-.4c-.4-.3-.7-.6-1.1-1-.4-.4-.7-.7-1-1.1-.1-.2-.3-.4-.4-.5l-.5-.6c-.1-.2-.3-.4-.4-.7s-.2-.5-.3-.7-.2-.5-.3-.7-.3-.4-.4-.6-.1-.5-.2-.7-.2-.5-.2-.7-.1-.5-.2-.7-.2-.5-.2-.7-.1-.5-.1-.8-.1-.4-.1-.7c0-.5-.1-1-.1-1.5s0-1 .1-1.5c.1-.6.2-1.3.3-1.9l-1.8-2-1.5-1.2c-.2.5-.4 1-.5 1.5-.1.4-.2.9-.3 1.3 0 .2-.1.3-.1.5-.1.4-.1.8-.2 1.2v.5c0 .5-.1 1.1-.1 1.6s0 1.2.1 1.9c0 .3.1.6.1.8s.1.7.2 1 .2.6.2 1 .1.6.2.9l.3.9.3.9c.1.3.3.5.4.8s.3.6.4.9.3.5.4.8.3.6.5.8.4.5.6.8.3.5.5.7c.4.5.8.9 1.2 1.4.4.4.9.8 1.4 1.2.2.2.5.3.7.5s.5.4.8.6.6.3.8.5.5.3.8.5.6.3.9.4.5.3.8.4l.9.3.9.3c.3.1.6.2.9.2s.6.2.9.2.7.1 1 .2.5.1.8.1c1.2.1 2.5.1 3.8 0 .3 0 .6-.1.8-.1s.7-.1 1-.2.6-.2.9-.2.6-.1.9-.2l.9-.3.9-.3c.3-.1.5-.2.8-.4s.6-.3.9-.4.5-.3.8-.5.6-.3.8-.5.5-.4.8-.6.5-.3.7-.5c.5-.4.9-.8 1.4-1.2.4-.4.8-.8 1.2-1.3.1-.1.2-.3.3-.4.2-.3.5-.6.7-.9s.3-.4.4-.6.3-.6.5-.9.2-.5.4-.7c.1-.1.2-.3.2-.4 1.3-2.8 2-5.6 2-8.4z" fill-rule="evenodd" clip-rule="evenodd" fill="#fff"/><path class="st1" d="M59.7 8.6c1.3.8 2.4 1.9 3.2 3.3l-3.3 2.6c-.9-1.7-2.7-2.7-4.6-2.8-.8 0-1.5.2-2.1.6-.6.4-.9 1-.9 1.7 0 .6.2 1.1.6 1.5.7.5 1.4.9 2.2 1.3l2.7 1.2c1.7.7 3.2 1.7 4.5 3 1 1.1 1.5 2.5 1.5 4 .1 2-.8 4-2.4 5.2a8.73 8.73 0 01-6 2c-3.8.1-7.4-2-9.3-5.3l3.4-2.5c1.7 2.3 3.6 3.5 5.9 3.5.9.1 1.8-.2 2.5-.7.6-.5.9-1.2.9-2 0-.5-.1-.9-.4-1.3-.3-.4-.6-.6-1-.9-.3-.2-.9-.5-1.7-.8L52.8 21c-1.6-.7-3.1-1.7-4.3-2.9-1-1.1-1.6-2.5-1.5-4-.1-1.9.8-3.7 2.3-4.9 1.6-1.3 3.6-2 5.7-1.9 1.6-.1 3.3.4 4.7 1.3zm25.2 3.6h-7.7v19.6h-4.9V12.2h-7.7V7.8h20.3v4.4zm22.5 9.6c.1 2.8-.9 5.5-2.9 7.6-4.2 3.8-10.5 3.8-14.7 0-2-2-3-4.8-2.8-7.6v-14h4.9v14.5c-.1 1.5.4 2.9 1.5 4 2.2 1.9 5.4 1.9 7.6 0 1-1.1 1.5-2.5 1.4-4V7.8h4.9v14zm27.9-14.5v24.5h-4.9V18.9l-6 7.6h-1.6l-6-7.6v12.9h-4.9V7.3h1.6l10.2 13 10.1-13h1.5zm19.9 2.6c1.6 1.4 2.5 3.5 2.4 5.6.1 2.1-.8 4.2-2.4 5.6-1.7 1.5-4 2.3-6.2 2.2h-4.1v8.5H140v-24h9c2.2-.1 4.4.6 6.2 2.1zm-10.4 2.2V19h4.1c1 0 2-.3 2.7-1 .7-.7 1-1.6 1-2.5 0-.9-.3-1.8-1-2.5s-1.7-1-2.6-.9h-4.2zm32 .1h-11.3v4.9h8.3v4.2h-8.3v6.1h11.7v4.4h-16.6v-24h16.2v4.4zm21.1-1.2c2.4 2.2 3.8 5.4 3.6 8.7.1 3.3-1.2 6.5-3.6 8.7-2.6 2.3-6 3.5-9.4 3.4h-7.9v-24h7.9c3.4-.2 6.8.9 9.4 3.2zm-12.4 1.2v15.2h2.9c2.2.1 4.3-.7 5.9-2.1 1.5-1.4 2.3-3.5 2.2-5.6.1-2.1-.7-4.1-2.2-5.5-1.6-1.4-3.7-2.1-5.9-2h-2.9z"/><linearGradient id="SVGID_1_" gradientUnits="userSpaceOnUse" x1="2.62" y1="29.57" x2="21.08" y2="29.57" gradientTransform="matrix(1 0 0 -1 0 40)"><stop offset="0" stop-color="#9e1d22"/><stop offset=".66" stop-color="#ef6935"/><stop offset="1" stop-color="#f69834"/></linearGradient><circle cx="11.9" cy="10.4" r="9.2" fill="url(#SVGID_1_)"/><path class="st1" d="M14.3 13.6l.3-.6c.2-.4.2-.9.1-1.3V10h.1c.4.5 1 1.2 1.4 1.7.1.3.4.5.8.4.1 0 .2.1.3.1s.2.2.3 0c.1-.1.1-.2 0-.3-.3-.3-.3-.8-.9-.9-.3 0-.7-1-.8-1.3.5.4 1 .9 1.4 1.4.2.3.2.1.4.4 0 .1.1.1.2.1s.1-.1.1-.2c0-.3.1-.3.3-.2s.2.3.3.2-.2-.4-.2-.4c-.1-.1-.1-.2-.2-.3-.1-.3-.3-.3-.6-.2-.2 0-.3-.2-.4-.4s-.1-.3.1-.3c.5-.1 1-.2.8-.7-.1-.3-.2-.6-.2-.9 0-.1.1 0 .1 0l.2.2c.1.1.2.1.2 0 .1 0 .2-.1.3-.1l.3.1h.1c.1 0 .2-.1.2-.2s.1-.2.1-.2c.1 0 .1-.1.2-.2 0-.1.1-.2.1-.2 0-.1.1-.1.1-.2.2 0 .3-.2.2-.3 0-.1-.1-.2-.1-.3 0-.1-.1-.1-.2-.2-.1-.2-.3-.3-.5-.3-.1-.1-.3 0-.5 0h-.1l-.3.2-.2.2c-.1.1-.2.6-.3.5-.5.5-.8-.4-.8-.4-.2-.4-.5-.6-.9-.3-.2.2-.4.4-.7.6-.5.2-1 .3-1.5.1-.3-.2-.7-.1-.9.2-.5.6-1 1.1-1.6 1.5-.1 0-.2.1-.2 0-.3-.3-.6-.4-1-.5-.1 0-.2-.1-.1-.2 0-.6-.1-1.2-.2-1.8-.1-.3-.1-.7-.2-1 0-.3-.2-.6-.5-.6-.2 0-.3-.1-.2-.3.1-.5-.2-1.1-.7-1.2H8c-.3 0-.6.1-.8.3-.3.1-.3.4-.2.7v.2c.1.8.1.8-.6.7-.4-.1-.9.4-1 .8 0 .3-.2.6-.4.8-.2.2-.4.5-.5.8V8c.4.5 1 .8 1.7.9.2.1.6.1.4.4-.5.6-.2.6.3.4.2-.1.2.2.1.3l-.6.9c-.1.1-.1.2-.2.3l-3.6-1v.2l3.5 1.1-.3.9c-.1.5.1 1 .6 1.3.2.1.4.3.7.5.5.4.7 1.1.6 1.7 0 .2-.1.3-.2.4-.1.2 0 .4.2.5h.2c.4 0 .8-.4.8-.8-.1-.4 0-.8.2-1.2.1-.2.1-.5-.1-.7h-.1c-.4-.1-.7-.5-.7-.9 0-.2-.1-.4-.3-.5-.1-.1-.2-.3-.1-.4 0 0 0-.1.1-.1l.2-.1 1.6.5.1.1c.4.3.7.8.7 1.4 0 .5.2.9.6 1.2.2.2.2.5.3.7 0 .4.2.7.5 1 0 0 .1.1.1.2.1.4.4.7.8.8h.5l.1-.1c-.9-1.2-.3-.9.7-.3h.2c.1 0 .4 0 .4-.2s-.1-.4-.2-.5c-.3-.1-.5-.3-.6-.6-.1-.1-.1-.3-.1-.4l.6-1.8 5.3 1.7c.1-.2.2-.3.4-.5l-5.6-1.7zM6.5 8.2c-.3-.2-.6-.4-.8-.6-.1-.1.5-1 .5-1s.5 1.6.3 1.6zm1.6 3.7c.1-.1.2-.2.2-.3.1-.2.2-.1.4 0s.2.2.3.4l.1.2-1-.3zm4.7 2c0 .4 0 .8-.1 1.2 0 .5-.2 1-.6 1.3-.3-1.1-.6-2.1-1-3.2l1.6.5c.1 0 .1.1.1.2zm.4-1c-.1.1-.2.2-.2.4l-1.9-.5c-.3-.9-.7-1.9-1-2.8.3.1.7.3.9.5.3.2.7.2 1.1 0 .2-.1.4-.2.6-.2.3-.1.4 0 .4.3 0 .5.1 1.1.3 1.6.1.2 0 .5-.2.7z"/></svg>