<svg version="1.1" id="Layer_1" xmlns="http://www.w3.org/2000/svg" x="0" y="0" viewBox="0 0 300 300" xml:space="preserve"><style/><path d="M280.5 153v.9c-.4 12.6-3.2 25-8.4 36.5-5.5 12.4-13.6 23.5-23.6 32.7-11.2 10.2-24.6 17.7-39.1 21.8-4.3 1.2-8.8 2.2-13.2 2.8-4.3.6-8.7.9-13.1.9h-62.6l30.1 30.1-21.4 21.3-63.9-64 63.9-63.9 21.3 21.2-25 25.1h.7c18.9 0 37.8.1 56.7 0 13 0 25.8-4 36.5-11.5 14.8-9.7 25.3-24.7 29.5-41.9.9-3.4 1.4-6.8 1.5-10.3 0-1.4.1-2.8.2-4.4h30.1l-.2 2.7z" fill="#16be27"/><path d="M49.4 149.4H19.3V146c.2-2.9.4-5.7.8-8.6.6-4.6 1.6-9.1 2.9-13.5 3.6-12.3 9.5-23.7 17.5-33.7a103.8 103.8 0 0135.3-28.8c7.7-3.9 15.9-6.6 24.3-8.3 6.2-1.2 12.5-1.8 18.7-1.8h60.8l-30-30L170.8 0l63.9 64-63.8 63.9-21.3-21.2 25.1-25c-.4 0-.6-.1-.7-.1h-59.3c-3.3.1-6.7.5-9.9 1.2-10.1 2-19.6 6.4-27.8 12.8-11.8 9-20.6 21.4-24.9 35.7-1.3 4.2-2.1 8.6-2.5 13 0 1.7-.1 3.4-.2 5.1z" fill="#ec2d23"/></svg>