<svg xmlns="http://www.w3.org/2000/svg" width="353" height="287.63"><defs><style>.u{fill:none}.r,.s{fill:#fff}.r{font-size:10px;font-family:HeroNew-Light,Hero New;font-weight:300}.s{font-size:8px;font-family:HeroNew-Bold,Hero New;font-weight:700}.t{stroke:none}</style></defs><g transform="translate(-479.927 -299.727)"><g transform="translate(479.927 430.538)" fill="#1661bd" stroke="#196cd2"><rect class="t" width="353" height="25" rx="6"/><rect class="u" x=".5" y=".5" width="352" height="24" rx="5.5"/></g><ellipse cx="52" cy="61" rx="52" ry="61" transform="translate(603.923 382.541)" fill="#4699ff" opacity=".2"/><path fill="#348fff" opacity=".3" d="M644.924 409.545h22v69h-22z"/><g transform="translate(512.927 299.727)" fill="rgba(0,89,199,.2)" stroke="#0059c7"><ellipse class="t" cx="144" cy="143.815" rx="144" ry="143.815"/><ellipse class="u" cx="144" cy="143.815" rx="143.5" ry="143.315"/></g><ellipse cx="121" cy="120.815" rx="121" ry="120.815" transform="translate(534.927 322.727)" fill="#f27b34"/><ellipse cx="118.5" cy="118.815" rx="118.5" ry="118.815" transform="translate(537.927 324.727)" fill="#004dad"/><path d="M656.054 325.628v236.606m117.488-118.303H538.566m200.564 83.891L572.977 360.039m0 167.783L739.13 360.04" stroke="#4699ff" fill="none" opacity=".5"/><path d="M651.553 445.936l-56.536 56.692s-10.576-8.774-17.83-26.636-6.292-30.055-6.292-30.055z" fill="#58cdff"/><path d="M654.176 438.99l-23.752-23.687s5.152-5.223 11.16-7.47a49.456 49.456 0 0112.592-2.636z" fill="#0cb1f7"/><path d="M651.27 442.025l-7.233-7.253a11.04 11.04 0 00-2.281 3.408 15.1 15.1 0 00-.805 3.845z" fill="#27bcfc"/><path d="M661.524 446.049l39.179 39.281s8.081-8.879 11.753-18.7 2.937-20.584 2.937-20.584z" fill="#00d077"/><path d="M654.198 448.605l-13.24 13.204a21.836 21.836 0 006.221 3.961 19.2 19.2 0 007.019.99z" fill="#00d5bc"/><path d="M661.558 441.538l48.138-47.578s10.442 6.852 15.463 22.404 4.338 25.174 4.338 25.174z" fill="#0afa94"/><path d="M658.124 448.656l23.74 23.676a39.155 39.155 0 01-11.155 7.1 34.426 34.426 0 01-12.585 1.778z" fill="#02b56a"/><path d="M658.107 439l18.377-18.327a30.309 30.309 0 00-8.635-5.5 26.648 26.648 0 00-9.742-1.372z" fill="#1879f0"/><g transform="translate(570.921 357.727)" stroke-dasharray="4 4" stroke="#4699ff" fill="none"><ellipse class="t" cx="85" cy="85.815" rx="85" ry="85.815"/><ellipse class="u" cx="85" cy="85.815" rx="84.5" ry="85.315"/></g><text class="r" transform="rotate(22.03 -486.194 1969.88)"><tspan x="-18.805" y="0">Fine leg</tspan></text><text class="r" transform="rotate(-23 1751.047 -1446.318)"><tspan x="-16.865" y="0">Mid on</tspan></text><text class="r" transform="rotate(-23 1109.045 -1307.988)"><tspan x="-24.05" y="0">Third man</tspan></text><text class="r" transform="rotate(22 -1160.028 1822.973)"><tspan x="-17.44" y="0">Mid off</tspan></text><text class="r" transform="rotate(-67.98 563.138 -199.09)"><tspan x="-12.17" y="0">Point</tspan></text><text class="r" transform="rotate(69.03 99.974 758.248)"><tspan x="-25.695" y="0">Square leg</tspan></text><text class="r" transform="rotate(69.03 -91.558 631.238)"><tspan x="-13.59" y="0">Cover</tspan></text><text class="r" transform="rotate(-68 757.342 -329.362)"><tspan x="-25.915" y="0">Mid wicket</tspan></text><text class="s" transform="translate(802.927 445.535)"><tspan x="-15.644" y="0">On Side</tspan></text><text class="s" transform="translate(505.927 445.535)"><tspan x="-16.44" y="0">Off Side</tspan></text></g></svg>