<svg xmlns="http://www.w3.org/2000/svg" width="57.632" height="56.48"><path d="M41.136 14.325a2.062 2.062 0 01.745 3.117q-6.988 9.592-13.97 19.188L17.602 50.8a3.383 3.383 0 01-2.524 1.473 16.263 16.263 0 01-6.872-.793 5.98 5.98 0 01-3.536-2.664c-.438-.837-.85-1.691-.355-2.661.43-.833.833-1.684 1.27-2.515a65.23 65.23 0 0111.219-15.265c4.864-4.969 9.858-9.81 14.811-14.69a2.513 2.513 0 011.024-.553c.73-.22 1.49-.339 2.225-.549a1.87 1.87 0 00.8-.459c2.416-2.486 4.813-4.99 7.22-7.485a5.692 5.692 0 001.367-1.905 1.973 1.973 0 012.049-1.27 2.424 2.424 0 012.168 1.556 2.212 2.212 0 01-1.022 2.754 4.564 4.564 0 00-.98.807c-.919 1.098-1.799 2.23-2.694 3.348l-3.264 4.086c.232.116.432.21.628.31zm-4.05-1.169c-.293-.165-.437.022-.607.191-2.343 2.315-4.695 4.62-7.027 6.945a103.362 103.362 0 00-9.9 11.172 48.054 48.054 0 00-6.077 10.404 5.2 5.2 0 01-.402.667l-.224-.087a3.972 3.972 0 01.15-.669 47.55 47.55 0 015.678-9.924 105.906 105.906 0 0111.113-12.58c1.83-1.815 3.67-3.62 5.505-5.43.135-.13.265-.266.398-.4l-.045-.125a14.364 14.364 0 01-1.534.388 4.823 4.823 0 00-2.797 1.545c-3.732 3.738-7.54 7.4-11.286 11.123a84.83 84.83 0 00-9.162 10.551 63.737 63.737 0 00-5.66 9.505.578.578 0 00.137.753 6.277 6.277 0 003.84 1.959 38.44 38.44 0 004.8.324 2.906 2.906 0 002.48-1.703c1.452-2.434 2.888-4.877 4.352-7.297a131.19 131.19 0 0119.416-24.725c.148-.143.285-.298.424-.45a.441.441 0 00.047-.114c-1.204-.672-2.415-1.342-3.618-2.024zm.273 6.968a134.838 134.838 0 00-17.754 24.142c-.868 1.464-1.692 2.957-2.619 4.384a3.806 3.806 0 01-3.526 1.792 18.79 18.79 0 01-5.932-.757 16.048 16.048 0 00-1.5-.558 7.866 7.866 0 00.71.58 10.526 10.526 0 005.044 1.575c.981.07 1.97.073 2.956.064a2.524 2.524 0 002.08-1.083q4.518-6.19 9.022-12.392 7.656-10.52 15.3-21.048c.144-.197.53-.392.132-.822-1.331 1.4-2.624 2.76-3.91 4.122zm2.32-6.613l6.369-7.959-1.541-1.246-7.456 7.766zm7.944-10.077a1.656 1.656 0 00-1.414-1.042 1.342 1.342 0 00-1.244 1.063l1.888 1.554c.696-.51.954-1.03.77-1.575z" fill="#196cd2"/></svg>