<svg xmlns="http://www.w3.org/2000/svg" width="62.178" height="79.42"><path d="M56.016 15.219a5.587 5.587 0 00-4.927.548 4.168 4.168 0 00-1.727 3.225c-1.085 6.321-2.213 12.635-3.2 18.973-.8 5.138-1.442 10.3-2.093 15.459-.527 4.177-.966 8.366-1.439 12.55a35.315 35.315 0 00-.176 8.693c.162 1.206.5 2.388.753 3.576.218-.043.28-.036.3-.062.417-.5.811-1.022 1.244-1.507a19.162 19.162 0 004.673-9.654c.7-3.988 1.571-7.947 2.29-11.933q1.9-10.564 3.711-21.146 1.062-6.154 2.037-12.322a26.2 26.2 0 00.4-3.681 2.663 2.663 0 00-1.846-2.719zm.886 3.021a28.74 28.74 0 01-.427 3.616c-1.327 8.178-2.623 16.361-4.028 24.526-1.256 7.3-2.648 14.574-3.959 21.862a19.376 19.376 0 01-4.073 8.21c-.256.339-.516.675-.822 1.075a19.169 19.169 0 01-.579-7.3l4.36.291c-.536-1.031-2.41-1.328-4.381-.654.053-.782.078-1.53.158-2.273.455-4.232.868-8.47 1.4-12.692.644-5.094 1.323-10.184 2.113-15.257 1.112-7.14 2.338-14.262 3.522-21.391a2.83 2.83 0 011.5-2.058 4.642 4.642 0 013.4-.445 2.2 2.2 0 011.816 2.49zM16.554 56.694c-1.641-8.693-3.353-17.372-5.081-26.048-.8-4.017-1.64-8.027-2.58-12.013-.7-2.993-3.019-4.224-5.987-3.372a2.944 2.944 0 00-2.308 3.746c.155.8.3 1.593.45 2.389C4.03 37.311 7.615 53.087 11.903 68.702a28.237 28.237 0 004.07 9.081c.134.188.281.368.492.644.369-.9.678-1.659 1-2.419a12.835 12.835 0 001.119-6.985c-.634-4.117-1.258-8.238-2.03-12.329zm-.125 20.964a27.646 27.646 0 01-3.27-7.194h4.9a20.527 20.527 0 01-1.63 7.193zm-3.358-7.392c-.261-.9-.532-1.793-.782-2.693-3.153-11.372-5.779-22.87-8.237-34.408Q2.68 26.726 1.381 20.272a8.5 8.5 0 01-.149-1.946 2.413 2.413 0 012.461-2.519c2.72-.218 4.1.947 4.675 3.82 1.672 8.366 3.424 16.716 5.052 25.09 1.5 7.711 2.878 15.445 4.307 23.169.118.638.214 1.281.332 1.993a7.63 7.63 0 00-4.989.386zm20.179-55.39a3.989 3.989 0 00-4.518 3.874c-.3 4.383-.56 8.771-.718 13.162-.422 11.76-.58 23.525-.3 35.291a50.954 50.954 0 00.72 6.974 33.383 33.383 0 001.278 4.29l.278-.03c.584-.847 1.191-1.679 1.747-2.544a12.962 12.962 0 002.181-4.834c.348-2.13.7-4.271.845-6.421q.737-10.689 1.32-21.388c.3-5.378.523-10.76.765-16.14.125-2.769.269-5.538.29-8.308a5.149 5.149 0 00-.633-2.369c-.67-1.25-1.956-1.495-3.255-1.555zm2.21 23.616c-.193 4.614-.455 9.225-.714 13.836q-.461 8.232-.971 16.461a15.405 15.405 0 01-2.429 6.805c-.407.7-.822 1.392-1.233 2.088l-.286.019a40.033 40.033 0 01-.993-4.712c-.3-3.158-.551-6.334-.548-9.5q.017-13.788.277-27.575c.1-5.4.429-10.8.66-16.206a8.921 8.921 0 01.129-1.141 3.724 3.724 0 015.667-2.427 2.518 2.518 0 011.183 2.3c-.237 6.679-.462 13.366-.742 20.051zM29.535 7.101c1.79-.34 2.238-.954 1.934-2.757-.037-.222-.1-.439-.156-.657a1.021 1.021 0 00-1.064-.861 12.506 12.506 0 00-2.138.223c-1.023.218-2.025.534-3.065.817a8.793 8.793 0 01-.29-1.5 1.039 1.039 0 00-.96-1.109c-1.229-.212-2.4-.15-3.174 1.036a3.018 3.018 0 00-3.662.166c-1.627-1.155-3.978-.71-4.726.558-1.825-1.194-3.672-.206-4.149 2.246-.145.011-.3.03-.453.035-1.036.033-2.072.044-3.106.1a1.726 1.726 0 00-1.883 1.915 6.6 6.6 0 00.195 1.6c.263 1.188.64 1.417 1.865 1.3s2.45-.194 3.7-.29c1.029 2.332 3.089 2.912 4.627 1.257a3.146 3.146 0 004-.342 3.323 3.323 0 004.217-.311 3.229 3.229 0 003.358.524c1.336-.658 1.245-1.934 1.138-3.15 1.295-.275 2.538-.563 3.791-.801zm-21.271 2.4c-1.227.068-2.511.193-3.795.188-.717 0-1-.422-1.029-1.161v-.2c.017-1.661.281-1.907 1.923-1.87.937.021 1.874 0 2.9 0zM25.021 4.72h-.267c-.034.636-.11 1.273-.091 1.908.021.673.177 1.342.194 2.014.033 1.337-.743 1.937-2.051 1.641-1.211-.274-1.221-.386-1.313-1.576-.115-1.5-.365-2.987-.571-4.478a.664.664 0 00-.374-.445 2.821 2.821 0 00-.121.649c.05 1.056.139 2.111.189 3.167a6.035 6.035 0 01-.032 1.474 1.848 1.848 0 01-3.093 1.044.427.427 0 01-.127-.336 7.837 7.837 0 00-.508-3.443c-.164-.585-.324-1.172-.5-1.754a3.14 3.14 0 00-.2-.432l-.262.048c.035.693.029 1.392.117 2.079.109.847.32 1.681.442 2.527a1.73 1.73 0 01-.639 1.869 2.008 2.008 0 01-2.176 0 1.049 1.049 0 01-.417-.666c-.335-1.672-.63-3.353-.956-5.027-.022-.113-.2-.2-.3-.294-.087.115-.251.232-.247.344a10.883 10.883 0 00.145 1.8c.125.614.379 1.2.563 1.8a4.754 4.754 0 01.176.788c.1.816-.117 1.289-.678 1.517-1.254.508-1.882.462-2.38-.334a3.541 3.541 0 01-.48-1.5c-.113-1.21-.12-2.429-.184-3.643a1.655 1.655 0 012.334-1.767 1.229 1.229 0 001.354-.2 2.78 2.78 0 012.982-.458 1.67 1.67 0 002.034-.012 1.911 1.911 0 012.173-.041c.482.256.934.681 1.315-.273.333-.834 2.49-.949 3.033-.214a2.948 2.948 0 01.274 1.225c.158.971.159.969 1.106.773 1.212-.25 2.427-.485 3.641-.725.489-.1 1.068-.233 1.345.273a1.58 1.58 0 01-.682 2.034 8.462 8.462 0 01-1.665.534c-.826.182-1.668.3-2.556.449a985.7 985.7 0 00-.548-2.344zm35.754 2.734a9.5 9.5 0 00-1.837-.423c-1.041-.133-2.091-.2-3.157-.289.067-.51.095-.961.19-1.4a1.217 1.217 0 00-.76-1.618 2.883 2.883 0 00-3.1.019 3.114 3.114 0 00-3.542-1.04c-1.442-1.665-2.744-1.984-4.653-1.122A2.375 2.375 0 0041.397.533a2.628 2.628 0 00-2.036 1.8c-1.243-.4-2.43-.82-3.64-1.158a1.591 1.591 0 00-2.093 1 7.583 7.583 0 00-.444 1.55c-.253 1.225-.017 1.651 1.166 2.024 1.232.388 2.481.723 3.75 1.089.083 2.587 1.572 3.667 3.867 2.722a3.033 3.033 0 003.804 1.018 3.543 3.543 0 004.135 1.173 3.269 3.269 0 002.986 1.625c1.514-.13 1.763-1.463 2.176-2.547 1.115.143 2.166.243 3.2.417 2.464.412 2.791.21 3.343-2.2a1.165 1.165 0 00-.837-1.596zm-22.71-1.076c-1.265-.4-2.54-.8-3.8-1.227a.733.733 0 01-.409-.411 2.286 2.286 0 01.548-2.063 1.166 1.166 0 011.41-.33c1.08.359 2.149.75 3.256 1.14zm22.591 2.831c-.171.986-.639 1.486-1.32 1.385-1.358-.2-2.714-.416-4.175-.642l.272-2.388-.208-.087a9.925 9.925 0 00-.63 1.311c-.259.813-.4 1.664-.666 2.473-.417 1.266-1.3 1.538-2.409.8-.131-.087-.248-.2-.378-.283-.606-.4-.657-.82-.417-1.562a46.149 46.149 0 001.046-4.592c.028-.132-.035-.284-.21-.48a2.62 2.62 0 00-.337.556c-.348 1.14-.671 2.287-1 3.431-.069.238-.135.477-.215.712a1.671 1.671 0 01-2.638.961 8.376 8.376 0 01-.985-.833c.984-1.909.777-3.948.977-5.931l-.241-.085a5.946 5.946 0 00-.468 1.089c-.209.966-.354 1.946-.523 2.92-.027.155-.035.314-.071.467-.17.717-.373 1.438-1.212 1.631a2.313 2.313 0 01-2.179-.8.772.772 0 01-.14-.592c.181-1.15.4-2.292.594-3.44.092-.554.155-1.114.2-1.674a1.555 1.555 0 00-.109-.468c-.143.1-.379.18-.412.309a15.191 15.191 0 00-.357 1.841c-.08.647-.056 1.307-.142 1.953a1.815 1.815 0 01-1.8 1.759 1.564 1.564 0 01-1.731-1.7 4.949 4.949 0 01.208-1.191c.33-1.122.7-2.234 1.04-3.353a1.589 1.589 0 012.55-.934 8.628 8.628 0 00.727.488.643.643 0 00.5.074 2.884 2.884 0 013.648.681c.461.434.806.7 1.491.454a1.988 1.988 0 012.189.681c.224.238.489.438.773.689a2.235 2.235 0 013.422.251.764.764 0 01.048.438c-.039.266-.118.526-.177.79-.235 1.053-.208 1.081.846 1.227 1.271.176 2.543.348 3.807.563.767.124.931.394.808 1.101zm-6.171 9.423c-.28-.867-1.018-.992-1.869-1.126a1.349 1.349 0 011.527-.072.866.866 0 01.338 1.197zm-49.62-.854l-2.07.755-.158-.114c.145-.216.243-.517.446-.63a1.477 1.477 0 011.782-.011zm27.909 52.077a18.382 18.382 0 00-2.037-.078 16.462 16.462 0 00-1.881.334c.409-1.082 2.853-1.36 3.916-.261zm1.975-51.747l-3.155-.543c.156-.4 1.122-.631 2.127-.372.495.123 1.01.295 1.025.91z" fill="#196cd2" stroke="#196cd2"/></svg>