<svg xmlns="http://www.w3.org/2000/svg" width="255" height="255"><defs><style>.k{fill:none}.i{fill:#fff;font-size:10px;font-family:HelveticaNeue-Light,Helvetica Neue;font-weight:300}.j{stroke:none}</style></defs><g transform="translate(.339 .298)"><ellipse cx="47.5" cy="53.5" rx="47.5" ry="53.5" transform="translate(79.661 73.702)" fill="#4699ff" opacity=".2"/><path fill="#348fff" opacity=".3" d="M117.661 96.702h19v61h-19z"/><g transform="translate(-.339 -.298)" fill="rgba(0,89,199,.2)" stroke="#0059c7"><circle class="j" cx="127.5" cy="127.5" r="127.5"/><circle class="k" cx="127.5" cy="127.5" r="127"/></g><circle cx="106.5" cy="106.5" r="106.5" transform="translate(20.661 20.702)" fill="#f27b34"/><path d="M127.161 22.702a104.5 104.5 0 11-104.5 104.5 104.5 104.5 0 01104.5-104.5z" fill="#004dad"/><path d="M127.013 22.274v210.07m105.035-105.035H21.978m179.306 74.271L52.742 53.038m0 148.542L201.284 53.038" stroke="#4699ff" fill="none" opacity=".5"/><g transform="translate(50.661 51.702)" stroke-dasharray="4 4" stroke="#4699ff" fill="none"><ellipse class="j" cx="76" cy="75.5" rx="76" ry="75.5"/><ellipse class="k" cx="76" cy="75.5" rx="75.5" ry="75"/></g><text class="i" transform="rotate(22.03 22.263 450.856)"><tspan x="-16.58" y="0">Fine leg</tspan></text><text class="i" transform="rotate(-23 669.421 -308.075)"><tspan x="-14.815" y="0">Mid on</tspan></text><text class="i" transform="rotate(-23 102.556 -176.661)"><tspan x="-21.58" y="0">Third man</tspan></text><text class="i" transform="rotate(22 -571.16 317.175)"><tspan x="-14.63" y="0">Mid off</tspan></text><text class="i" transform="rotate(-67.98 75.793 27.644)"><tspan x="-11.02" y="0">Point</tspan></text><text class="i" transform="rotate(67 52.26 215.313)"><tspan x="-23.07" y="0">Square leg</tspan></text><text class="i" transform="rotate(69.03 -115.958 97.58)"><tspan x="-12.785" y="0">Cover</tspan></text><text class="i" transform="rotate(-68 247.168 -88.069)"><tspan x="-23.15" y="0">Mid wicket</tspan></text></g></svg>